<svg width="552" height="552" viewBox="0 0 552 552" fill="none" xmlns="http://www.w3.org/2000/svg">
<path d="M297.22 109.858L305.994 111.345L310.537 114.121L312.966 117.543L313.113 122.584L311.311 127.291L308.864 129.885L304.633 131.175L293.91 129.355L296.189 127.735L298.833 112.137L297.213 109.854L297.22 109.858ZM309.874 118.023L309.229 115.909L307.61 113.627L305.826 112.323L302.903 111.829L301.763 112.638L299.119 128.237L299.929 129.376L303.827 130.039L305.941 129.394L308.387 126.8L309.874 118.026V118.023Z" fill="#F4E5C9"/>
<path d="M321.149 120.799L323.051 121.337L325.634 123.096L326.73 126.489L325.24 128.122L317.09 127.872L316.964 131.945L319.547 133.704L321.718 133.292L324.158 131.927L324.839 133.149L322.395 134.514L320.224 134.926L317.369 134.116L314.786 132.357L313.962 128.011L315.04 124.207L318.021 120.939L321.145 120.796L321.149 120.799ZM321.829 122.021L319.658 122.433L317.358 126.922L322.653 126.367L323.463 123.512L321.829 122.021Z" fill="#F4E5C9"/>
<path d="M341.475 126.791L340.555 126.433L339.218 121.671L336.453 120.6L335.174 121.166L333.536 122.653L334.665 125.211L338.975 133.243L338.824 136.367L336.474 139.699L332.071 140.115L327.819 137.406L325.615 137.614L327.106 131.033L328.026 131.391L329.094 136.844L331.86 137.915L334.063 137.707L335.342 137.141L336.055 135.296L334.926 132.738L330.617 124.706L330.767 121.582L332.763 119.174L336.245 118.4L340.497 121.109L342.701 120.901L341.479 126.791H341.475Z" fill="#F4E5C9"/>
<path d="M350.83 134.552L349.5 132.786H347.29L344.642 135.892L343.761 137.662L342.883 141.646L345.101 143.853H347.311L349.078 142.516L350.407 144.283L347.756 145.171H345.545L342.891 143.856L340.673 141.649L340.662 137.229L342.425 133.685L345.957 131.023L349.053 131.461L350.822 132.342L353.036 134.549V136.759L350.389 137.648L349.504 137.207L350.826 134.552H350.83Z" fill="#F4E5C9"/>
<path d="M355.657 137.132L360.92 137.941L354.887 148.159L355.585 150.867L349.624 147.349L352.332 146.651L356.857 138.987L355.657 137.132ZM360.221 135.233L359.021 133.377L359.523 132.524L361.379 131.324L362.231 131.826L363.431 133.682L362.93 134.534L361.074 135.734L360.221 135.233Z" fill="#F4E5C9"/>
<path d="M389.294 151.334L395.635 157.578L398.466 161.752L397.101 165.958L392.916 167.388L387.994 163.93L389.412 166.718L387.395 177.222L385.998 177.233L385.26 172.342L386.604 165.338L386.593 163.941L385.876 161.849L380.327 167.484L380.348 170.282L375.415 165.424L378.213 165.403L389.316 154.132L389.294 151.334ZM392.827 156.203L391.429 156.213L386.571 161.147L389.391 163.923L391.494 164.608L394.281 163.189L395.657 160.38L394.94 158.288L392.827 156.206V156.203Z" fill="#F4E5C9"/>
<path d="M401.31 172.525L402.575 174.048L403.71 176.96L402.693 180.378L400.54 180.88L393.966 176.057L391.554 179.346L392.69 182.259L394.714 183.147L397.498 183.405L397.369 184.799L394.585 184.541L392.561 183.653L390.666 181.37L389.53 178.458L391.307 174.409L394.349 171.884L398.655 170.877L401.31 172.529V172.525ZM401.181 173.919L399.157 173.03L394.721 175.427L399.4 177.967L401.683 176.072L401.181 173.919Z" fill="#F4E5C9"/>
<path d="M395.768 187.501L398.512 188.031L411.621 179.175L412.151 176.431L417.686 184.624L420.72 187.347L416.357 191.488L415.805 190.668L417.421 185.996L414.655 181.901L413.283 181.636L408.368 184.957L408.102 186.329L410.317 189.608L413.061 190.138L408.966 192.904L409.496 190.159L407.282 186.881L405.91 186.616L400.174 190.489L399.644 193.233L395.771 187.497L395.768 187.501Z" fill="#F4E5C9"/>
<path d="M414.476 194.365L418.639 197.682L408.328 203.551L407.586 206.248L404.165 200.233L406.863 200.975L414.598 196.575L414.479 194.368L414.476 194.365ZM419.38 194.988L419.262 192.781L420.122 192.294L422.329 192.176L422.816 193.036L422.934 195.242L422.075 195.73L419.868 195.848L419.38 194.988Z" fill="#F4E5C9"/>
<path d="M436.602 223.445L438.98 232.018L439.349 237.044L436.068 240.007L431.729 239.158L429.189 233.705L429.028 236.829L422.038 244.926L420.82 244.238L422.622 239.634L427.28 234.239L427.967 233.021L428.39 230.85L420.77 232.964L419.394 235.396L417.542 228.725L419.975 230.101L435.219 225.87L436.594 223.438L436.602 223.445ZM437.236 229.424L436.018 228.736L429.347 230.588L430.404 234.4L431.887 236.041L435.011 236.202L437.605 234.458L438.027 232.287L437.236 229.428V229.424Z" fill="#F4E5C9"/>
<path d="M436.441 247.819L436.774 249.768L436.301 252.86L433.711 255.311L431.594 254.669L428.309 247.207L424.575 248.848L424.103 251.94L425.41 253.724L427.692 255.339L426.886 256.482L424.604 254.866L423.296 253.086L422.795 250.163L423.268 247.071L426.833 244.455L430.73 243.789L434.961 245.072L436.438 247.83L436.441 247.819ZM435.635 248.962L434.327 247.182L429.287 247.042L432.07 251.581L434.994 251.08L435.635 248.962Z" fill="#F4E5C9"/>
<path d="M438.906 270.127L436.022 271.334L435.947 270.349L436.785 268.303L434.887 269.439L432.916 269.586L430.87 268.747L428.678 265.939L427.471 263.055L425.869 268.131L423.132 271.313L421.162 271.459L418.055 269.708L416.848 266.824L416.701 264.853L417.393 260.837L420.201 258.644L422.172 258.498L425.425 262.22L426.263 260.174L427.324 261.088L428.456 262.987L429.219 259.956L432.028 257.763L433.998 257.616L437.104 259.365L438.312 262.249L438.458 264.219L437.695 267.25L438.903 270.134L438.906 270.127ZM424.511 263.273L422.39 261.45L420.42 261.596L418.596 263.717L417.833 266.748L419.954 268.572L421.925 268.425L423.748 266.304L424.511 263.273ZM437.402 263.298L436.266 261.399L433.235 260.636L430.351 261.844L429.513 263.889L430.645 265.788L433.676 266.551L436.56 265.344L437.398 263.298H437.402Z" fill="#F4E5C9"/>
<path d="M438.869 277.911L438.837 279.889L437.798 282.837L434.799 284.765L432.84 283.744L430.995 275.801L427.025 276.722L425.986 279.67L426.943 281.666L428.888 283.676L427.881 284.647L425.936 282.637L424.979 280.645L425.03 277.678L426.069 274.73L430.056 272.82L434.011 272.888L437.931 274.93L438.869 277.915V277.911ZM437.863 278.882L436.906 276.887L431.98 275.815L433.875 280.792L436.842 280.842L437.863 278.882Z" fill="#F4E5C9"/>
<path d="M424.905 285.657L426.642 287.85L435.484 288.874L436.695 287.022L438.089 292.16L434.273 290.723L436.878 294.012L437.634 296.09L436.197 299.905L434.119 300.661L425.278 299.637L423.085 301.374L423.884 294.499L425.621 296.692L434.463 297.716L435.56 296.849L435.789 294.886L433.184 291.597L426.309 290.798L424.117 292.536L424.916 285.661L424.905 285.657Z" fill="#F4E5C9"/>
<path d="M422.723 326.218L416.35 323.342L417.851 321.719L421.433 309.373L422.78 311.824L437.974 316.23L440.425 314.883L437.67 324.381L437.516 328.454L431.543 327.752L431.819 326.802L436.444 325.054L437.824 320.307L437.15 319.082L431.454 317.43L430.229 318.104L429.125 321.901L430.472 324.352L425.725 322.976L428.176 321.629L429.279 317.832L428.606 316.606L421.956 314.679L420.731 315.352L419.08 321.049L423.003 325.276L422.727 326.226L422.723 326.218Z" fill="#F4E5C9"/>
<path d="M424.439 337.751L426.097 336.29L425.922 334.086L422.626 331.686L420.792 330.944L416.754 330.378L414.726 332.757L414.902 334.96L416.364 336.619L414.705 338.081L413.612 335.505L413.437 333.302L414.547 330.55L416.575 328.171L420.982 327.82L424.647 329.304L427.573 332.621L427.376 335.741L426.635 337.576L424.607 339.955L422.404 340.13L421.311 337.554L421.68 336.637L424.432 337.748L424.439 337.751Z" fill="#F4E5C9"/>
<path d="M421.762 348.209L420.863 349.968L418.631 352.161L414.21 352.121L410.688 350.319L408.065 346.758L408.535 343.666L409.434 341.907L411.666 339.715L416.087 339.754L419.609 341.556L422.231 345.117L421.762 348.209ZM420.433 348.639L420.454 346.429L416.502 343.297L411.652 341.925L409.871 343.237L409.85 345.447L413.801 348.578L418.652 349.95L420.433 348.639Z" fill="#F4E5C9"/>
<path d="M405.588 349.431L406.175 352.165L413.648 356.997L415.551 355.873L414.526 361.1L411.742 358.122L412.624 362.225L412.38 364.421L409.403 367.204L407.207 366.961L399.734 362.128L397 362.715L400.758 356.901L401.346 359.634L408.819 364.467L410.188 364.173L411.262 362.511L410.381 358.409L404.566 354.651L401.833 355.238L405.591 349.424L405.588 349.431Z" fill="#F4E5C9"/>
<path d="M404.745 375.037L403.516 376.588L400.897 378.297L396.57 377.39L393.471 374.933L391.601 370.927L392.668 367.99L393.897 366.438L396.516 364.729L400.844 365.636L403.943 368.094L405.813 372.099L404.745 375.037ZM403.355 375.198L403.81 373.034L400.55 369.186L396.061 366.89L394.058 367.825L393.603 369.989L396.863 373.837L401.352 376.133L403.355 375.198Z" fill="#F4E5C9"/>
<path d="M388.928 373.174L388.889 375.972L395.09 382.352L397.197 381.682L395.029 386.544L392.984 383.019L392.923 387.214L392.192 389.302L388.667 391.348L386.578 390.617L386.539 393.415L385.808 395.504L382.283 397.55L380.194 396.819L373.992 390.438L371.194 390.399L376.16 385.577L376.12 388.375L382.322 394.755L383.719 394.777L385.138 393.397L385.199 389.202L380.377 384.237L377.579 384.197L382.544 379.375L382.505 382.169L388.706 388.55L390.103 388.572L391.522 387.192L391.583 382.997L386.761 378.032L383.963 377.992L388.928 373.17V373.174Z" fill="#F4E5C9"/>
<path d="M377.725 399.709L375.02 404.295L367.769 394.905L364.996 394.547L370.474 390.319L370.116 393.092L375.554 400.136L377.725 399.709ZM377.793 404.653L379.964 404.227L380.57 405.008L380.996 407.179L380.215 407.785L378.044 408.211L377.438 407.43L377.012 405.259L377.793 404.653Z" fill="#F4E5C9"/>
<path d="M363.656 409.833L365.852 409.564L366.952 407.647L365.591 403.807L364.498 402.159L361.489 399.411L358.469 400.228L357.369 402.144L357.638 404.341L355.441 404.609L355.997 401.869L357.097 399.952L359.569 398.311L362.589 397.494L366.422 399.697L368.608 402.993L369.145 407.382L367.221 409.847L365.573 410.94L362.553 411.757L360.636 410.657L361.192 407.916L362.016 407.368L363.656 409.84V409.833Z" fill="#F4E5C9"/>
<path d="M349.535 414.62L350.402 414.14L353.569 415.778L355.299 414.821L355.686 413.478L355.206 412.611L348.098 412.023L346.275 410.773L345.705 407.699L346.955 405.875L349.553 404.439L351.763 404.345L352.15 403.002L355.41 406.85L354.543 407.33L351.376 405.692L349.166 405.786L347.916 407.609L348.872 409.34L355.98 409.927L357.804 411.177L358.373 414.251L355.392 417.031L353.182 417.125L352.795 418.468L349.535 414.62Z" fill="#F4E5C9"/>
<path d="M319.752 423.237L317.108 420.844L312.791 419.895L310.158 421.579L308.725 423.979L308.248 426.139L307.048 425.423L308.241 422.062L310.634 419.418L315.428 418.211L319.745 419.164L322.389 421.557L324.556 426.111L324.807 431.148L323.614 434.508L320.261 437.392L315.467 438.6L311.15 437.647L309.71 435.97L311.143 433.57L313.059 433.086L313.783 435.963L316.184 437.396L318.1 436.912L320.493 434.268L321.686 430.908L319.752 423.237Z" fill="#F4E5C9"/>
<path d="M301.352 435.177L299.392 435.45L296.318 434.88L293.814 431.237L293.266 427.321L294.677 423.129L297.479 421.739L299.438 421.467L302.512 422.036L305.017 425.68L305.565 429.596L304.153 433.787L301.352 435.177ZM300.234 434.336L302.054 433.082L302.348 428.048L300.685 423.29L298.589 422.585L296.769 423.838L296.476 428.872L298.138 433.63L300.234 434.336Z" fill="#F4E5C9"/>
<path d="M291.159 422.832L289.214 424.842L289.357 433.738L291.349 434.694L286.437 436.751L287.362 432.781L284.445 435.794L282.486 436.815L278.516 435.891L277.495 433.931L275.55 435.941L273.59 436.962L269.62 436.038L268.599 434.078L268.456 425.182L266.446 423.237L273.368 423.126L271.423 425.136L271.566 434.031L272.569 435.002L274.547 434.97L277.463 431.957L277.352 425.035L275.342 423.09L282.264 422.979L280.318 424.989L280.461 433.884L281.465 434.855L283.442 434.823L286.358 431.81L286.247 424.888L284.238 422.943L291.159 422.832Z" fill="#F4E5C9"/>
<path d="M266.195 423.05L263.931 424.69L262.526 433.479L264.321 434.768L259.126 435.94L260.728 432.192L257.331 434.654L255.221 435.316L251.474 433.715L250.811 431.605L248.547 433.246L246.437 433.908L242.689 432.307L242.026 430.197L243.431 421.409L241.79 419.145L248.626 420.237L246.361 421.878L244.957 430.666L245.777 431.798L247.73 432.11L251.126 429.649L252.219 422.813L250.578 420.549L257.414 421.642L255.15 423.282L253.745 432.071L254.566 433.203L256.518 433.514L259.914 431.053L261.007 424.218L259.366 421.953L266.202 423.046L266.195 423.05Z" fill="#F4E5C9"/>
<path d="M232.783 430.462L230.888 429.896L228.327 428.101L227.563 423.745L228.692 419.955L231.716 416.73L234.84 416.63L236.735 417.196L239.297 418.991L240.063 423.347L238.935 427.138L235.911 430.362L232.787 430.462H232.783ZM232.117 429.234L234.295 428.85L236.656 424.397L237.122 419.378L235.51 417.866L233.331 418.249L230.971 422.702L230.505 427.722L232.117 429.234Z" fill="#F4E5C9"/>
<path d="M228.638 414.779L226.055 415.853L222.659 424.079L224.11 425.749L218.786 425.688L221.212 422.41L217.339 424.018L215.132 424.179L211.854 421.754L211.696 419.547L215.093 411.321L214.018 408.738L220.416 411.379L217.833 412.453L214.437 420.679L214.974 421.972L216.802 422.728L220.674 421.12L223.315 414.721L222.24 412.138L228.638 414.779Z" fill="#F4E5C9"/>
<path d="M197.871 409.891L201.526 404.012L200.891 401.289L206.77 404.943L204.048 405.577L195.693 419.012L196.327 421.735L188.771 417.035L185.096 413.585L185.504 409.182L189.796 406.029L195.037 406.96L197.875 409.887L197.871 409.891ZM191.81 417.765L193.171 417.447L197.348 410.729L194.83 409.164L191.788 408.436L188.861 411.274L188.134 414.315L189.291 416.2L191.81 417.765Z" fill="#F4E5C9"/>
<path d="M181.527 404.846L179.951 403.653L178.185 401.074L178.998 396.728L181.387 393.575L185.353 391.619L188.316 392.622L189.893 393.815L191.659 396.395L190.846 400.74L188.456 403.893L184.49 405.849L181.527 404.846ZM181.337 403.46L183.512 403.868L187.288 400.526L189.488 395.986L188.51 394.005L186.335 393.597L182.559 396.939L180.359 401.478L181.337 403.46Z" fill="#F4E5C9"/>
<path d="M170.177 395.521L168.716 394.189L167.189 391.459L168.393 387.203L171.059 384.279L175.186 382.688L178.045 383.957L179.506 385.289L181.033 388.019L179.829 392.276L177.163 395.199L173.036 396.79L170.177 395.521ZM170.113 394.124L172.241 394.726L176.304 391.738L178.905 387.418L178.109 385.354L175.981 384.752L171.919 387.74L169.318 392.061L170.113 394.124Z" fill="#F4E5C9"/>
<path d="M160.006 392.69L155.166 390.469L168.784 377.529L168.855 374.734L173.624 379.754L170.829 379.682L159.361 390.58L160.006 392.694V392.69Z" fill="#F4E5C9"/>
<path d="M155.335 372.553L155.969 373.313L154.962 376.731L156.231 378.25L157.624 378.375L158.384 377.741L157.617 370.651L158.502 368.623L161.411 367.48L163.439 368.365L165.341 370.64L165.85 372.79L167.244 372.915L164.084 376.842L163.45 376.082L164.456 372.665L163.948 370.511L161.92 369.626L160.401 370.895L161.171 377.985L160.286 380.012L157.377 381.155L154.081 378.755L153.572 376.602L152.179 376.476L155.339 372.55L155.335 372.553Z" fill="#F4E5C9"/>
<path d="M136.133 334.238L142.811 332.167L142.764 334.377L148.271 345.992L145.638 345.054L131.343 351.832L130.404 354.465L126.17 345.53L123.583 342.381L128.52 338.945L128.943 339.837L126.639 344.212L128.756 348.679L130.075 349.149L135.434 346.608L135.904 345.29L134.209 341.715L131.576 340.776L136.043 338.659L135.105 341.292L136.799 344.867L138.118 345.337L144.373 342.37L144.842 341.052L142.302 335.692L136.563 335.13L136.14 334.238H136.133Z" fill="#F4E5C9"/>
<path d="M135.463 320.391L136.677 317.872L138.633 323.472L136.441 323.189L134.291 326.033L137.745 326.922L139.285 325.338L141.242 330.938L133.686 327.291L130.322 332.654L129.107 335.173L127.151 329.573L129.344 329.856L131.493 327.011L128.04 326.123L126.499 327.706L124.543 322.107L132.099 325.754L135.463 320.391Z" fill="#F4E5C9"/>
<path d="M121.092 312.44L121.35 309.324L124.725 306.468L128.569 305.533L132.879 306.518L134.541 309.166L135.01 311.086L134.516 313.243L141.24 311.606L142.695 309.216L144.332 315.941L141.943 314.486L125.613 318.463L125.119 320.62L122.027 316.285L126.104 316.31L122.521 314.131L121.092 312.444V312.44ZM123.249 312.935L126.831 315.113L131.635 313.942L133.323 312.512L133.817 310.355L132.388 308.668L127.351 308.876L122.783 311.007L123.252 312.928L123.249 312.935Z" fill="#F4E5C9"/>
<path d="M118.714 299.92L118.431 297.964L118.982 294.886L121.634 292.504L123.733 293.199L126.825 300.744L130.597 299.196L131.149 296.119L129.888 294.302L127.649 292.629L128.483 291.508L130.723 293.181L131.984 294.997L132.41 297.931L131.858 301.009L128.229 303.535L124.313 304.101L120.114 302.711L118.71 299.916L118.714 299.92ZM119.548 298.798L120.81 300.615L125.843 300.883L123.178 296.276L120.243 296.703L119.548 298.802V298.798Z" fill="#F4E5C9"/>
<path d="M117.192 285.105L121.197 285.868L122.186 285.811L118.066 283.074L116.966 281.157L117.84 279.126L119.814 279.015L122.888 280.82L122.945 281.809L119.982 281.977L120.04 282.966L122.128 284.829L129.039 284.435L130.902 282.346L131.296 289.257L129.208 287.394L120.323 287.903L119.506 290.92L117.192 285.109V285.105Z" fill="#F4E5C9"/>
<path d="M114.97 273.702L113.948 275.662L112.96 275.647L111 274.626L111.014 273.638L112.035 271.678L113.024 271.692L114.984 272.713L114.97 273.702ZM118.875 276.733L116.976 271.757L128.838 271.95L130.848 270.005L130.737 276.926L128.791 274.917L119.896 274.773L118.875 276.733Z" fill="#F4E5C9"/>
<path d="M117.506 262.181L117.682 260.21L118.928 257.344L122.06 255.639L123.941 256.799L125.209 264.853L129.236 264.219L130.482 261.353L129.673 259.297L127.878 257.151L128.949 256.255L130.744 258.401L131.554 260.457L131.292 263.413L130.045 266.279L125.929 267.898L121.988 267.547L118.223 265.226L117.499 262.184L117.506 262.181ZM118.577 261.285L119.387 263.341L124.224 264.764L122.694 259.662L119.738 259.4L118.577 261.281V261.285Z" fill="#F4E5C9"/>
<path d="M131.99 255.47L130.417 253.156L121.675 251.49L120.332 253.249L119.314 248.022L123.015 249.735L120.658 246.267L120.056 244.139L121.769 240.438L123.897 239.836L132.638 241.502L134.953 239.929L133.656 246.729L132.083 244.415L123.341 242.749L122.184 243.533L121.815 245.475L124.172 248.943L130.972 250.24L133.287 248.667L131.99 255.467V255.47Z" fill="#F4E5C9"/>
<path d="M126.083 228.474L124.575 230.09L124.965 232.264L128.48 234.332L130.375 234.89L134.448 235.062L136.236 232.497L135.845 230.319L134.23 228.811L135.738 227.195L137.074 229.653L137.465 231.827L136.626 234.672L134.839 237.237L130.486 238.014L126.692 236.897L123.457 233.88L123.346 230.756L123.905 228.861L125.692 226.296L127.867 225.905L129.203 228.363L128.924 229.312L126.079 228.474H126.083Z" fill="#F4E5C9"/>
<path d="M127.728 217.824L128.452 215.982L130.454 213.582L133.937 212.822L135.416 214.463L134.37 222.549L138.415 223.072L140.418 220.672L140.221 218.468L139.103 215.907L140.385 215.348L141.503 217.91L141.7 220.113L140.618 222.875L138.616 225.275L134.212 225.673L130.53 224.229L127.57 220.944L127.732 217.82L127.728 217.824ZM129.011 217.265L129.208 219.468L133.449 222.194L133.414 216.871L130.651 215.789L129.011 217.268V217.265Z" fill="#F4E5C9"/>
<path d="M159.15 179.002L164.144 183.896L162.177 184.902L154.568 195.26L154.145 192.494L141.395 183.129L138.629 183.552L144.483 175.584L146.027 171.812L151.394 174.527L150.81 175.322L145.866 175.373L142.939 179.357L143.15 180.739L147.929 184.25L149.312 184.039L151.655 180.85L151.233 178.085L155.216 181.012L152.451 181.434L150.108 184.623L150.319 186.006L155.897 190.104L157.28 189.893L160.791 185.114L158.563 179.797L159.147 179.002H159.15Z" fill="#F4E5C9"/>
<path d="M157.668 158.606L171.493 171.328L172.163 170.601L172.776 168.477L173.503 169.146L173.617 171.941L172.278 173.395L170.153 172.783L170.21 174.18L169.598 176.305L168.258 177.759L165.521 179.271L161.272 178.049L158.363 175.369L156.79 171.235L158.073 168.383L159.412 166.929L161.48 166.144L157.84 162.798L155.772 163.583L157.664 158.606H157.668ZM159.473 168.33L158.861 170.454L161.831 174.531L166.137 177.15L168.204 176.365L168.817 174.241L168.032 172.174L163.665 168.158L161.54 167.545L159.473 168.33Z" fill="#F4E5C9"/>
<path d="M184.44 159.477L184.275 162.268L183.537 162.924L181.484 162.103L180.581 165.553L179.102 166.868L176.228 168.101L174.175 167.28L168.264 160.627L166.129 161.201L169.167 157.177L176.393 165.306L177.79 165.389L179.27 164.074L179.352 162.677L178.779 160.541L174.183 155.368L172.047 155.941L175.085 151.918L182.967 160.789L183.788 158.736L184.443 159.474L184.44 159.477Z" fill="#F4E5C9"/>
<path d="M185.586 146.412L183.408 146.792L182.405 148.762L183.956 152.531L185.131 154.122L188.277 156.719L191.25 155.752L192.253 153.781L191.874 151.603L194.052 151.223L193.636 153.989L192.633 155.959L190.247 157.722L187.274 158.689L183.333 156.68L180.982 153.498L180.227 149.142L182.025 146.584L183.616 145.409L186.589 144.441L188.56 145.445L188.144 148.21L187.349 148.798L185.586 146.412Z" fill="#F4E5C9"/>
<path d="M193.74 138.655L197.631 137.434L199.508 138.605L204.155 146.193L205.326 144.316L205.842 145.158L205.187 147.877L204.345 148.393L202.467 147.221L200.97 150.456L199.282 151.488L197.079 151.678L193.844 150.181L193.138 147.135L194.31 145.258L198.011 141.833L196.979 140.146L195.621 139.82L193.934 140.851L194.124 143.055L191.404 142.399L193.744 138.648L193.74 138.655ZM198.523 142.682L196.184 146.433L196.373 148.636L199.608 150.134L200.78 148.257L200.59 146.053L198.527 142.682H198.523Z" fill="#F4E5C9"/>
<path d="M203.517 129.767L205.33 133.281L207.967 131.92L208.422 132.797L206.24 135.037L209.866 142.066L211.198 142.492L212.051 139.827L213.384 140.253L212.531 142.918L211.227 144.702L210.349 145.157L207.232 143.427L203.607 136.398L201.396 136.427L200.941 135.549L202.245 133.765L202.672 132.432L202.643 130.222L203.521 129.767H203.517Z" fill="#F4E5C9"/>
<path d="M211.733 126.948L209.527 126.84L209.129 125.934L209.236 123.727L210.139 123.329L212.346 123.437L212.744 124.343L212.636 126.55L211.733 126.948ZM210.616 131.763L214.342 127.958L219.132 138.813L221.74 139.823L215.406 142.618L216.416 140.01L212.826 131.866L210.619 131.759L210.616 131.763Z" fill="#F4E5C9"/>
<path d="M223.265 124.436L225.128 123.777L228.255 123.72L231.44 126.79L232.759 130.52L232.214 134.908L229.746 136.828L227.883 137.488L224.755 137.545L221.57 134.475L220.252 130.745L220.797 126.357L223.265 124.436ZM224.526 125.038L222.993 126.629L223.709 131.619L226.289 135.951L228.481 136.223L230.015 134.632L229.298 129.642L226.719 125.31L224.526 125.038Z" fill="#F4E5C9"/>
<path d="M235.85 134.667L237.305 132.278L235.206 123.629L233.049 123.135L237.387 120.047L237.359 124.124L239.541 120.541L241.228 119.115L245.305 119.144L246.731 120.831L248.83 129.48L251.22 130.934L244.495 132.568L245.95 130.178L243.85 121.53L242.657 120.803L240.737 121.268L238.555 124.851L240.189 131.576L242.579 133.03L235.854 134.664L235.85 134.667Z" fill="#F4E5C9"/>
<path d="M316.686 53.6022L301.385 51.2878L304.323 49.1239L307.407 28.7209L305.243 25.7832L314.171 27.1338L311.233 29.2977L308.149 49.7007L309.231 51.1696L315.608 52.1333L320.398 46.3366L321.673 46.5301L319.047 55.2645L316.69 53.6022H316.686Z" fill="#F4E5C9"/>
<path d="M326.005 39.6697L332.862 38.5806L329.445 53.6741L331.39 56.7588L322.584 54.7632L325.669 52.8179L328.234 41.4968L326.002 39.6697H326.005ZM330.917 35.4924L328.685 33.6652L328.968 32.4077L330.795 30.1758L332.053 30.4624L334.285 32.2895L333.998 33.547L332.171 35.779L330.914 35.496L330.917 35.4924Z" fill="#F4E5C9"/>
<path d="M341.254 59.4843L338.778 58.757L337.825 43.6921L336.077 40.4893L344.74 43.0329L341.537 44.7812L342.343 55.7691L348.964 46.9594L347.215 43.7566L354.639 45.9384L351.436 47.6867L343.214 57.3705L341.25 59.4807L341.254 59.4843Z" fill="#F4E5C9"/>
<path d="M356.061 47.9538L363.004 47.764L357.655 62.2879L359.185 65.6018L350.712 62.4813L354.026 60.9515L358.038 50.0604L356.064 47.9574L356.061 47.9538ZM361.474 44.45L359.5 42.3471L359.944 41.1361L362.047 39.1621L363.258 39.6064L365.232 41.7093L364.788 42.9203L362.685 44.8943L361.474 44.45Z" fill="#F4E5C9"/>
<path d="M361.244 66.2418L364.658 64.9592L369.455 54.3905L367.639 52.1514L374.578 52.4666L371.272 56.6332L376.395 54.7094L379.275 54.6019L383.442 57.9086L383.549 60.789L378.752 71.3577L380.035 74.772L371.812 71.0425L375.227 69.7599L380.024 59.1912L379.383 57.4823L377.032 56.4183L371.909 58.3421L368.18 66.5642L369.462 69.9784L361.24 66.2489L361.244 66.2418Z" fill="#F4E5C9"/>
<path d="M404.16 67.7645L403.376 71.7663L402.255 71.1321L400.646 68.7389L400.499 71.6194L399.227 73.8657L396.834 75.4743L392.195 75.8146L388.193 75.03L392.535 80.4505L393.997 85.7241L392.725 87.9704L388.573 90.0662L384.571 89.2816L382.324 88.0098L378.47 84.3448L378.133 79.7053L379.405 77.459L385.8 76.635L384.191 74.2418L385.95 73.7546L388.83 73.9015L386.097 70.8742L385.76 66.2347L387.032 63.9884L391.184 61.8926L395.186 62.6772L397.432 63.949L400.162 66.9763L404.164 67.7609L404.16 67.7645ZM386.287 78.3941L382.772 79.3686L381.5 81.6149L382.475 85.1294L385.208 88.1567L388.723 87.1822L389.995 84.9359L389.02 81.4214L386.29 78.3941H386.287ZM395.67 64.4362L392.789 64.2893L389.762 67.0193L388.977 71.0211L390.586 73.4143L393.466 73.5647L396.494 70.8312L397.278 66.8294L395.67 64.4362Z" fill="#F4E5C9"/>
<path d="M429.034 108.867L432.681 108.853L447.22 94.2037L447.205 90.5566L456.362 99.6421L460.934 102.361L456.398 108.763L455.481 107.853L456.369 101.466L451.791 96.9229L449.967 96.9301L444.515 102.422L444.522 104.246L448.183 107.879L451.83 107.864L447.288 112.443L447.273 108.796L443.612 105.163L441.788 105.17L435.429 111.579L435.443 115.226L429.034 108.867Z" fill="#F4E5C9"/>
<path d="M454.664 112.808L460.869 115.932L449.272 126.186L449.05 129.826L443.07 123.062L446.71 123.284L455.405 115.596L454.664 112.808ZM461.091 112.289L460.349 109.501L461.317 108.649L464.104 107.907L464.956 108.875L465.698 111.662L464.731 112.514L461.944 113.256L461.091 112.289Z" fill="#F4E5C9"/>
<path d="M450.56 131.371L454.174 131.855L463.4 124.811L462.859 121.978L468.824 125.539L463.941 127.645L469.365 128.373L471.955 129.641L474.061 134.524L472.793 137.114L463.568 144.157L463.084 147.772L457.607 140.596L461.221 141.08L470.447 134.037L470.69 132.227L469.125 130.178L463.701 129.451L456.525 134.929L456.041 138.544L450.563 131.368L450.56 131.371Z" fill="#F4E5C9"/>
<path d="M482.458 144.79L484.142 149.834L482.659 152.31L472.871 158.547L475.347 160.03L474.258 160.725L470.697 159.937L470.002 158.848L471.485 156.372L467.229 154.495L465.842 152.32L465.545 149.451L467.422 145.194L471.377 144.202L473.853 145.685L478.407 150.429L480.581 149.042L480.975 147.262L479.589 145.087L476.719 145.384L477.507 141.823L482.455 144.786L482.458 144.79ZM477.317 151.124L472.37 148.161L469.5 148.458L467.623 152.714L470.098 154.198L472.968 153.9L477.317 151.127V151.124Z" fill="#F4E5C9"/>
<path d="M472.51 162.767L475.992 163.857L486.274 158.472L486.22 155.588L491.498 160.106L486.328 161.356L491.551 162.99L493.891 164.677L495.141 169.847L493.454 172.186L483.172 177.571L482.082 181.053L477.894 173.057L481.377 174.146L491.659 168.761L492.203 167.02L491.007 164.734L485.783 163.101L477.787 167.289L476.698 170.771L472.51 162.775V162.767Z" fill="#F4E5C9"/>
<path d="M500.548 185.35L500.734 182.473L498.545 180.596L493.289 181.409L490.91 182.409L486.658 185.601L486.969 189.667L489.158 191.544L492.035 191.731L491.849 194.607L488.47 193.232L486.282 191.354L484.78 187.79L484.469 183.723L488.223 179.345L492.977 177.343L498.735 177.719L501.425 180.786L502.425 183.165L502.736 187.231L500.859 189.42L497.481 188.044L496.979 186.855L500.544 185.353L500.548 185.35Z" fill="#F4E5C9"/>
<path d="M503.115 191.912L507.679 197.146L493.073 202.262L491.489 205.548L488.505 197.025L491.79 198.608L502.746 194.771L503.111 191.909L503.115 191.912ZM509.263 193.861L509.628 190.999L510.846 190.572L513.709 190.938L514.135 192.156L513.769 195.018L512.551 195.445L509.689 195.079L509.263 193.861Z" fill="#F4E5C9"/>
<path d="M511.546 209.575L511.7 214.892L509.565 216.83L498.387 219.968L500.325 222.104L499.082 222.451L495.901 220.663L495.553 219.42L497.688 217.482L494.16 214.455L493.461 211.972L494.006 209.138L497.033 205.609L501.106 205.806L503.044 207.941L506.029 213.803L508.511 213.104L509.404 211.513L508.705 209.031L505.871 208.486L507.659 205.305L511.535 209.575H511.546ZM504.793 214.15L500.916 209.88L498.083 209.335L495.055 212.864L496.993 214.999L499.827 215.544L504.793 214.15Z" fill="#F4E5C9"/>
<path d="M520.491 218.263L524.378 224.021L500.432 229.208L498.458 232.275L496.545 223.451L499.612 225.425L519.778 221.054L520.491 218.26V218.263Z" fill="#F4E5C9"/>
<path d="M508.683 289.454L527.574 298.238L527.22 304.676L524.787 301.961L504.184 300.832L501.468 303.265L501.962 294.251L504.395 296.966L521.137 297.883L502.245 289.099L501.027 287.741L523.411 279.927L505.384 278.939L502.668 281.371L503.091 273.644L505.524 276.359L526.127 277.488L528.843 275.055L528.42 282.783L508.68 289.45L508.683 289.454Z" fill="#F4E5C9"/>
<path d="M517.804 313.435L515.734 318.332L512.986 319.21L501.518 317.422L502.396 320.17L501.12 319.973L498.971 317.028L499.168 315.753L501.916 314.875L499.963 310.655L500.361 308.107L502.034 305.757L506.254 303.805L509.88 305.675L510.758 308.423L511.037 314.993L513.584 315.391L515.057 314.316L515.454 311.769L513.104 310.096L516.049 307.946L517.804 313.442V313.435ZM509.762 314.793L508.006 309.297L505.656 307.624L501.436 309.576L502.313 312.324L504.663 313.997L509.762 314.793Z" fill="#F4E5C9"/>
<path d="M518.503 330.506L513.466 329.392L512.631 333.168L511.37 332.889L510.947 328.833L500.873 326.605L499.336 327.586L501.299 330.66L499.762 331.642L497.799 328.568L497.097 325.77L497.376 324.509L501.711 322.825L511.785 325.054L513.602 322.814L514.863 323.094L515.565 325.892L516.547 327.429L518.786 329.245L518.506 330.503L518.503 330.506Z" fill="#F4E5C9"/>
<path d="M511.345 342.92L510.629 345.399L508.314 348.756L503.879 350.157L501.762 348.201L502.156 337.571L496.843 337.374L494.528 340.731L495.048 343.569L496.807 346.764L495.209 347.646L493.45 344.45L492.931 341.613L494.005 337.897L496.32 334.541L501.991 333.498L506.946 334.935L511.184 338.847L511.345 342.924V342.92ZM509.747 343.802L509.228 340.964L503.392 337.93L504.076 344.841L507.791 345.915L509.747 343.798V343.802Z" fill="#F4E5C9"/>
<path d="M505.316 361.242L500.934 358.229L499.727 357.777L503.209 363.205L503.517 366.071L501.407 368.038L498.989 367.135L496.266 363.366L496.717 362.159L500.343 363.513L500.794 362.306L499.279 358.988L490.82 355.832L487.503 357.347L490.659 348.889L492.175 352.206L503.051 356.265L505.613 353.091L505.323 361.242H505.316Z" fill="#F4E5C9"/>
<path d="M498.971 370.288L498.688 377.227L484.561 370.9L481.154 372.201L484.844 363.961L486.145 367.368L496.739 372.111L498.971 370.284V370.288ZM502.098 375.927L504.33 374.1L505.509 374.626L507.336 376.858L506.809 378.037L504.577 379.864L503.399 379.338L501.572 377.106L502.098 375.927Z" fill="#F4E5C9"/>
<path d="M492.951 388.91L489.408 392.876L486.524 392.819L476.249 387.416L476.192 390.3L475.049 389.698L473.967 386.216L474.569 385.073L477.453 385.13L476.969 380.505L478.169 378.223L480.512 376.539L485.137 376.056L487.96 378.997L487.903 381.881L486.044 388.19L488.326 389.39L490.067 388.849L491.267 386.567L489.583 384.224L493.066 383.142L492.947 388.91H492.951ZM484.901 387.592L485.019 381.824L483.335 379.481L478.71 379.964L478.653 382.848L480.337 385.191L484.905 387.592H484.901Z" fill="#F4E5C9"/>
<path d="M493.482 401.375L492.35 408.228L471.381 395.542L467.838 396.413L472.51 388.688L473.38 392.232L491.039 402.911L493.479 401.371L493.482 401.375Z" fill="#F4E5C9"/>
<path d="M444.308 438.718L439.758 437.758L434.266 439.521L432.403 443.15L432.363 446.797L433.245 449.541L431.421 449.52L430.558 444.952L431.518 440.402L436.129 435.892L441.621 434.129L446.171 435.089L451.602 438.797L455.192 444.307L456.055 448.879L454.171 454.331L449.56 458.842L444.068 460.604L441.341 459.662L441.381 456.015L443.226 454.209L445.931 456.975L449.578 457.015L451.423 455.209L452.383 450.659L451.519 446.091L444.304 438.715L444.308 438.718Z" fill="#F4E5C9"/>
<path d="M413.69 458.947L414.056 455.318L415.055 454.501L417.685 455.684L419.05 451.238L421.049 449.608L424.861 448.16L427.491 449.342L434.831 458.335L437.644 457.704L433.463 462.781L424.492 451.789L422.676 451.607L420.676 453.237L420.494 455.053L421.124 457.865L426.835 464.859L429.647 464.228L425.466 469.305L415.679 457.317L414.496 459.947L413.68 458.947H413.69Z" fill="#F4E5C9"/>
<path d="M426 476.909L422.256 482.759L408.001 462.829L404.404 462.231L411.749 456.979L411.15 460.575L423.156 477.36L426.004 476.909H426Z" fill="#F4E5C9"/>
<path d="M410.039 484.741L407.245 480.402L403.992 482.498L403.293 481.413L405.847 478.231L400.258 469.558L398.474 469.171L397.704 472.736L395.92 472.349L396.69 468.784L398.159 466.301L399.245 465.603L403.508 467.458L409.097 476.132L411.963 475.82L412.661 476.906L411.193 479.388L410.806 481.173L411.117 484.039L410.032 484.737L410.039 484.741Z" fill="#F4E5C9"/>
<path d="M378.538 480.607L379.552 477.103L380.68 476.48L383.055 478.117L385.198 473.99L387.455 472.743L391.467 472.005L393.843 473.642L399.449 483.806L402.33 483.688L397.307 487.933L390.454 475.509L388.702 475.004L386.441 476.25L385.936 478.002L386.054 480.883L390.414 488.789L393.295 488.671L388.272 492.917L380.795 479.364L379.158 481.739L378.534 480.61L378.538 480.607Z" fill="#F4E5C9"/>
<path d="M377.198 498.136L376.245 492.906L375.714 491.731L374.317 498.025L372.501 500.264L369.62 500.153L368.556 497.803L369.312 493.214L370.487 492.684L372.082 496.209L373.257 495.679L374.543 492.264L370.82 484.039L367.406 482.753L375.632 479.03L374.346 482.444L379.132 493.017L383.188 492.598L377.201 498.136H377.198Z" fill="#F4E5C9"/>
<path d="M361.828 504.456L356.543 505.036L354.44 503.066L350.413 492.182L348.443 494.285L347.995 493.074L349.518 489.76L350.729 489.312L352.832 491.282L355.565 487.521L357.983 486.625L360.85 486.94L364.611 489.674L364.744 493.751L362.773 495.857L357.174 499.304L358.069 501.722L359.728 502.485L362.146 501.59L362.462 498.723L365.776 500.246L361.835 504.456H361.828ZM356.722 498.093L360.663 493.883L360.979 491.017L357.217 488.284L355.246 490.39L354.931 493.256L356.722 498.093Z" fill="#F4E5C9"/>
<path d="M353.882 514.087L348.458 518.425L341.354 494.973L338.137 493.254L346.778 490.635L345.058 493.852L351.041 513.603L353.882 514.09V514.087Z" fill="#F4E5C9"/>
<path d="M282.655 520.987L283.945 520.919L288.075 525.87L291.941 525.669L293.163 524.315L294.316 521.671L291.608 519.228L282.193 511.966L280.706 508.168L281.727 502.948L286.746 500.107L293.252 501.064L295.76 499.642L297.498 508.269L296.208 508.337L292.027 502.418L288.165 502.619L285.657 504.041L284.436 505.395L284.568 507.971L287.277 510.415L296.692 517.676L298.178 521.474L297.089 525.404L293.36 528.181L286.854 527.224L284.346 528.646L282.659 520.987H282.655Z" fill="#F4E5C9"/>
<path d="M268.129 519.516L264.296 518.126L261.853 512.903L261.989 507.748L264.704 502.657L268.606 501.471L271.185 501.539L273.729 502.897L273.965 493.872L271.454 491.225L280.479 491.461L277.831 493.972L277.254 515.891L279.798 517.249L273.285 519.656L274.711 514.533L270.741 518.298L268.129 519.52V519.516ZM269.487 516.973L273.457 513.208L273.625 506.762L272.403 504.151L269.86 502.793L267.248 504.015L265.79 510.427L266.911 516.908L269.491 516.976L269.487 516.973Z" fill="#F4E5C9"/>
<path d="M258.549 516.437L251.885 518.4L253.336 502.991L251.011 500.183L259.999 501.028L257.191 503.353L256.102 514.911L258.549 516.437ZM254.214 521.209L256.661 522.735L256.539 524.018L255.013 526.465L253.73 526.343L251.283 524.817L251.405 523.534L252.931 521.087L254.214 521.209Z" fill="#F4E5C9"/>
<path d="M238.674 516.677L240.748 511.779L240.948 510.504L236.327 515L233.579 515.874L231.232 514.201L231.634 511.654L234.783 508.232L236.058 508.433L235.456 512.256L236.732 512.456L239.68 510.307L241.081 501.386L238.931 498.438L247.852 499.838L244.904 501.988L243.102 513.456L246.724 515.33L238.677 516.677H238.674Z" fill="#F4E5C9"/>
<path d="M223.629 516.458L225.865 518.278L225.585 519.535L223.766 521.771L222.508 521.488L220.272 519.668L220.552 518.41L222.372 516.175L223.629 516.458ZM228.53 512.266L221.673 513.377L225.048 498.272L223.092 495.191L231.902 497.158L228.821 499.114L226.291 510.443L228.527 512.263L228.53 512.266Z" fill="#F4E5C9"/>
<path d="M209.42 514.219L210.803 509.25L207.077 508.211L207.425 506.968L211.498 506.764L214.264 496.826L213.368 495.238L210.19 497.03L209.295 495.443L212.473 493.651L215.303 493.1L216.546 493.447L217.993 497.864L215.228 507.803L217.366 509.737L217.019 510.98L214.189 511.532L212.602 512.428L210.667 514.567L209.424 514.219H209.42Z" fill="#F4E5C9"/>
<path d="M191.568 487.923L194.861 486.354L196.075 486.783L196.43 489.646L200.937 488.507L203.369 489.367L206.586 491.874L206.941 494.737L203.065 505.678L205.067 507.756L198.558 506.817L203.294 493.444L202.509 491.795L200.077 490.936L198.429 491.72L196.351 493.723L193.338 502.232L195.341 504.31L188.831 503.371L193.997 488.783L191.135 489.137L191.565 487.923H191.568Z" fill="#F4E5C9"/>
<path d="M177.862 498.692L173.677 495.41L173.552 492.53L178.288 481.933L175.408 482.058L175.934 480.879L179.341 479.575L180.52 480.102L180.645 482.982L185.231 482.205L187.585 483.258L189.412 485.487L190.189 490.072L187.434 493.078L184.554 493.203L178.141 491.749L177.088 494.103L177.74 495.804L180.094 496.858L182.322 495.027L183.626 498.434L177.865 498.685L177.862 498.692ZM178.664 490.574L184.425 490.323L186.653 488.492L185.876 483.907L182.996 484.032L180.767 485.863L178.664 490.574Z" fill="#F4E5C9"/>
<path d="M165.455 500.018L158.544 499.326L169.865 477.594L168.769 474.115L176.776 478.285L173.297 479.382L163.764 497.682L165.455 500.018Z" fill="#F4E5C9"/>
<path d="M113.549 442.979L120.532 437.114L121.592 439.798L134.081 450.983L130.437 451.183L116.67 466.556L116.87 470.2L107.262 461.594L102.558 459.115L106.76 452.491L107.72 453.351L107.161 459.774L111.966 464.077L113.786 463.977L118.948 458.212L118.848 456.392L115.004 452.949L111.36 453.15L115.663 448.346L115.863 451.989L119.708 455.432L121.528 455.332L127.55 448.607L127.45 446.787L121.685 441.625L114.502 443.85L113.542 442.99L113.549 442.979Z" fill="#F4E5C9"/>
<path d="M105.51 426.825L105.639 423.178L110.916 428.838L108.15 429.655L107.079 434.18L111.668 433.428L112.675 430.726L117.952 436.387L107.015 436.003L105.814 444.175L105.686 447.822L100.408 442.162L103.174 441.345L104.245 436.82L99.656 437.573L98.6493 440.274L93.3721 434.613L104.31 434.997L105.51 426.825Z" fill="#F4E5C9"/>
<path d="M84.155 425.15L82.7686 421.313L85.2155 416.09L89.2638 412.89L94.91 411.715L98.3207 413.951L99.9185 415.975L100.506 418.798L107.589 413.202L108.015 409.58L113.611 416.663L109.989 416.237L92.7855 429.833L93.3731 432.656L87.3507 429.195L92.198 427.009L86.7632 426.372L84.1514 425.147L84.155 425.15ZM86.9781 424.563L92.4129 425.2L97.4716 421.202L98.6968 418.59L98.1093 415.767L95.4976 414.542L89.6364 417.53L85.3767 422.538L86.9745 424.563H86.9781Z" fill="#F4E5C9"/>
<path d="M74.5244 411.814L73.0914 409.668L72.0166 405.735L73.8043 401.443L76.6668 401.084L84.5378 408.235L88.1133 404.298L87.0385 400.364L84.5342 398.935L80.9552 398.218L81.3135 396.431L84.8925 397.147L87.3968 398.577L89.5427 401.797L90.6175 405.731L87.7586 410.74L83.4666 413.602L77.7416 414.319L74.5208 411.814H74.5244ZM74.8827 410.027L77.3869 411.456L83.4666 408.952L77.7416 405.018L74.5244 407.164L74.8827 410.027Z" fill="#F4E5C9"/>
<path d="M64.4047 395.405L69.5314 393.994L70.6564 393.36L64.2614 392.525L61.8718 390.913L61.7285 388.032L63.9748 386.764L68.6143 387.108L69.2484 388.229L65.8772 390.132L66.5113 391.257L70.0258 392.235L77.8897 387.796L78.8677 384.281L83.3066 392.145L79.792 391.167L69.6819 396.871L70.4593 400.876L64.4083 395.405H64.4047Z" fill="#F4E5C9"/>
<path d="M55.2423 383.479L55.2029 386.363L54.0422 386.925L51.1582 386.886L50.5957 385.725L50.6351 382.841L51.7959 382.278L54.6799 382.318L55.2423 383.479ZM61.5692 384.718L56.4425 380.032L70.3789 373.3L71.579 369.857L75.5056 377.986L72.0627 376.786L61.6122 381.834L61.5728 384.718H61.5692Z" fill="#F4E5C9"/>
<path d="M51.4456 368.724L50.4712 366.334L50.2061 362.265L52.8142 358.417L55.691 358.639L61.9749 367.219L66.2669 364.077L66.0018 360.008L63.8343 358.105L60.4738 356.69L61.1832 355.01L64.5437 356.425L66.7111 358.327L68.1728 361.91L68.438 365.98L64.6332 370.315L59.8576 372.264L54.1075 371.823L51.4528 368.728L51.4456 368.724ZM52.155 367.044L54.3225 368.946L60.7819 367.707L55.9597 362.709L52.3771 364.171L52.155 367.047V367.044Z" fill="#F4E5C9"/>
<path d="M64.2096 352.221L60.9817 350.523L49.8971 353.97L49.4313 356.814L45.0534 351.422L50.3628 351.121L45.5191 348.574L43.5236 346.493L43.2227 341.183L45.3042 339.184L56.3888 335.738L58.0869 332.51L60.7667 341.13L57.5388 339.431L46.4542 342.878L45.6051 344.494L46.3718 346.958L51.2155 349.506L59.8352 346.826L61.5334 343.598L64.2132 352.218L64.2096 352.221Z" fill="#F4E5C9"/>
<path d="M35.4121 330.918L40.4385 329.757L39.5679 325.989L40.8254 325.698L42.9535 329.177L53.0063 326.855L53.9736 325.308L50.8782 323.377L51.8455 321.829L54.9409 323.76L56.7788 325.985L57.069 327.242L53.8805 330.628L43.8277 332.95L43.1505 335.755L41.8931 336.045L40.0552 333.82L38.5075 332.853L35.7023 332.176L35.4121 330.918Z" fill="#F4E5C9"/>
<path d="M34.4639 319.769L33.6435 322.535L32.3753 322.761L29.6095 321.94L29.3838 320.672L30.2042 317.906L31.4725 317.681L34.2382 318.501L34.4639 319.769ZM40.2176 322.678L36.5526 316.778L51.793 314.076L53.8817 311.085L55.458 319.973L52.4666 317.885L41.038 319.909L40.2176 322.675V322.678Z" fill="#F4E5C9"/>
<path d="M34.7363 303.899L35.4385 298.629L37.8568 297.056L49.3928 295.752L47.82 293.334L49.1026 293.19L51.9544 295.462L52.0977 296.744L49.6794 298.317L52.678 301.871L52.9682 304.433L51.9758 307.141L48.4219 310.14L44.4309 309.294L42.8581 306.876L40.8518 300.614L38.2903 300.904L37.1546 302.33L37.4448 304.891L40.1532 305.884L37.8783 308.735L34.7363 303.899ZM42.1344 300.467L45.2764 305.303L47.9848 306.296L51.5388 303.297L49.966 300.879L47.2575 299.886L42.1308 300.467H42.1344Z" fill="#F4E5C9"/>
<path d="M27.2948 293.891L24.375 287.59L48.8442 286.289L51.284 283.577L51.7641 292.591L49.052 290.151L28.4448 291.248L27.2948 293.891Z" fill="#F4E5C9"/>
<path d="M37.4594 223.088L37.2194 224.356L31.4299 227.197L30.7098 230.998L31.738 232.507L34.0309 234.255L37.0438 232.199L46.3264 224.768L50.3676 224.22L55.1969 226.445L56.7733 231.994L54.3084 238.092L55.0966 240.865L46.3049 240.514L46.5449 239.246L53.2838 236.584L54.0039 232.783L53.2157 230.01L52.1875 228.501L49.6546 228.021L46.6417 230.078L37.3591 237.508L33.3179 238.056L29.7568 236.068L27.9404 231.787L30.4053 225.689L29.6171 222.916L37.4594 223.088Z" fill="#F4E5C9"/>
<path d="M41.5059 212.373L42.1901 209.887L44.4579 206.498L50.1149 205.38L55.0875 206.748L59.3795 210.603L59.598 214.677L58.9138 217.163L56.646 220.552L50.989 221.67L46.0164 220.301L41.7244 216.447L41.5059 212.373ZM43.093 211.47L43.6518 214.301L49.5273 217.253L56.0871 217.718L58.0145 215.572L57.4556 212.742L51.5802 209.79L45.0204 209.324L43.093 211.47Z" fill="#F4E5C9"/>
<path d="M50.8858 191.49L48.8007 193.482L49.1446 196.344L53.5656 199.3L55.9946 200.17L61.2861 200.697L63.8047 197.491L63.4608 194.628L61.4688 192.543L63.5539 190.551L65.1123 193.851L65.4563 196.713L64.1522 200.357L61.6336 203.563L55.905 204.251L51.047 202.51L47.0596 198.34L47.1491 194.263L48.0197 191.834L50.5383 188.627L53.4008 188.283L54.9592 191.583L54.5257 192.797L50.8822 191.493L50.8858 191.49Z" fill="#F4E5C9"/>
<path d="M50.2124 179.341L48.0091 181.201L46.8232 180.692L44.9639 178.489L45.4726 177.303L47.6759 175.443L48.8617 175.952L50.7211 178.155L50.2124 179.341ZM53.426 184.934L53.6015 177.991L67.8209 184.099L71.2101 182.748L67.6454 191.042L66.2947 187.653L55.6293 183.071L53.426 184.93V184.934Z" fill="#F4E5C9"/>
<path d="M59.1585 166.214L62.6408 162.194L65.5248 162.209L75.8786 167.45L75.8929 164.566L77.0429 165.15L78.1786 168.614L77.5947 169.764L74.7107 169.75L75.266 174.368L74.1016 176.668L71.7872 178.388L67.1693 178.943L64.2996 176.045L64.3139 173.161L66.0766 166.827L63.7765 165.662L62.0425 166.228L60.8782 168.528L62.5979 170.843L59.1299 171.978L59.1585 166.21V166.214ZM67.2266 167.407L67.1979 173.175L68.9176 175.489L73.5356 174.938L73.5499 172.054L71.8302 169.739L67.2266 167.411V167.407Z" fill="#F4E5C9"/>
<path d="M58.4342 153.765L59.4589 146.897L80.6178 159.257L84.1466 158.333L79.5931 166.129L78.6652 162.6L60.8453 152.193L58.4307 153.769L58.4342 153.765Z" fill="#F4E5C9"/>
<path d="M111.691 118.344L115.338 118.225L109.162 124.81L109.043 121.163L93.9928 107.048L90.3457 107.166L96.5221 100.581L96.6403 104.228L111.691 118.344Z" fill="#F4E5C9"/>
<path d="M116.738 116.574L116.885 112.93L109.011 104.4L106.241 105.202L109.229 98.9329L111.78 103.597L111.998 98.1304L113.02 95.4327L117.684 92.8818L120.382 93.9029L128.256 102.433L131.9 102.58L125.265 108.703L125.412 105.059L117.537 96.5289L115.714 96.4573L113.818 98.2056L113.6 103.673L119.723 110.308L123.366 110.455L116.731 116.577L116.738 116.574Z" fill="#F4E5C9"/>
<path d="M123.584 81.4206L126.798 85.4582L129.825 83.0471L130.628 84.0574L128.403 87.4752L134.827 95.5468L136.639 95.7546L137.051 92.129L138.864 92.3332L138.452 95.9588L137.238 98.5741L136.227 99.3766L131.799 97.9543L125.376 89.8827L122.553 90.481L121.75 89.4707L122.965 86.8554L123.172 85.0426L122.574 82.2195L123.584 81.417V81.4206Z" fill="#F4E5C9"/>
<path d="M136.958 76.28L139.076 74.804L142.988 73.6504L147.316 75.3521L147.731 78.2075L140.738 86.2218L144.743 89.7184L148.656 88.5648L150.035 86.0319L150.676 82.4421L152.471 82.7646L151.83 86.3543L150.45 88.8872L147.276 91.0977L143.364 92.2513L138.298 89.4927L135.35 85.2581L134.519 79.551L136.955 76.28H136.958ZM138.753 76.6025L137.374 79.1354L140 85.1649L143.819 79.3611L141.609 76.1869L138.753 76.6025Z" fill="#F4E5C9"/>
<path d="M142.751 64.6048L146.907 59.041L159.686 79.9527L163.233 80.809L155.53 85.5165L156.386 81.9697L145.624 64.3612L142.751 64.6048Z" fill="#F4E5C9"/>
<path d="M152.287 58.8329L156.69 53.459L168.523 74.9188L172.027 75.9327L164.12 80.2927L165.134 76.7889L155.171 58.7183L152.291 58.8329H152.287Z" fill="#F4E5C9"/>
<path d="M171.463 56.0572L173.791 54.9501L177.84 54.4521L181.831 56.8382L181.773 59.7222L173.562 66.4826L176.944 70.5882L180.992 70.0902L182.769 67.8189L183.991 64.3831L185.711 64.9958L184.489 68.4315L182.712 70.7029L179.219 72.3652L175.171 72.8632L170.624 69.3128L168.41 64.6518L168.525 58.8838L171.466 56.0572H171.463ZM173.182 56.6698L171.405 58.9412L173.01 65.3182L177.729 60.2202L176.066 56.7271L173.182 56.6698Z" fill="#F4E5C9"/>
<path d="M192.791 49.7661L189.921 49.4938L187.983 51.6291L188.646 56.9062L189.577 59.3102L192.644 63.6559L196.717 63.4588L198.656 61.3236L198.928 58.4539L201.797 58.7262L200.325 62.0652L198.387 64.2004L194.779 65.5976L190.706 65.7911L186.435 61.9111L184.572 57.0997L185.113 51.3568L188.255 48.7558L190.659 47.8243L194.733 47.6309L196.868 49.5691L195.395 52.908L194.192 53.3738L192.794 49.7661H192.791Z" fill="#F4E5C9"/>
<path d="M203.012 39.4795L204.57 44.3984L208.26 43.2305L208.651 44.4593L205.351 46.8561L208.464 56.6939L210.084 57.5358L211.764 54.2972L213.383 55.1391L211.703 58.3778L209.632 60.384L208.403 60.7745L204.778 57.8654L201.664 48.0276L198.816 47.5762L198.426 46.3474L200.497 44.3411L201.338 42.7218L201.79 39.8736L203.019 39.4831L203.012 39.4795Z" fill="#F4E5C9"/>
<path d="M232.317 51.7504L230.419 54.8637L229.165 55.1682L227.302 52.9649L224.149 56.3827L221.641 56.9918L217.578 56.6514L215.715 54.4481L212.978 43.1665L210.166 42.5216L216.127 39.7487L219.47 53.5346L221.028 54.484L223.536 53.8749L224.486 52.3165L225.131 49.5041L223.003 40.7303L220.19 40.0854L226.152 37.3125L229.799 52.3523L232.002 50.4893L232.307 51.7433L232.317 51.7504Z" fill="#F4E5C9"/>
<path d="M237.912 35.2344L243.21 35.6965L244.891 38.0396L246.718 49.5039L249.061 47.8237L249.265 49.0955L247.123 52.0512L245.847 52.2554L244.167 49.9123L240.753 53.0686L238.206 53.4734L235.454 52.6065L232.298 49.1922L232.961 45.169L235.304 43.4887L241.469 41.1994L241.064 38.6522L239.588 37.581L237.041 37.9858L236.174 40.7373L233.222 38.5949L237.912 35.2344ZM241.677 42.4713L236.987 45.8317L236.12 48.5832L239.277 51.9974L241.62 50.3172L242.487 47.5657L241.674 42.4713H241.677Z" fill="#F4E5C9"/>
<path d="M247.572 27.3418L253.738 24.1426L256.142 48.5294L258.961 50.8438L249.976 51.7287L252.291 48.9092L250.266 28.3736L247.572 27.3418Z" fill="#F4E5C9"/>
<path d="M276.391 390.517C339.637 390.517 390.907 339.246 390.907 276C390.907 212.755 339.637 161.484 276.391 161.484C213.146 161.484 161.875 212.755 161.875 276C161.875 339.246 213.146 390.517 276.391 390.517Z" stroke="#FF9658" stroke-miterlimit="10"/>
<path d="M276.149 472.774C384.825 472.774 472.923 384.675 472.923 276C472.923 167.324 384.825 79.2256 276.149 79.2256C167.474 79.2256 79.375 167.324 79.375 276C79.375 384.675 167.474 472.774 276.149 472.774Z" stroke="#FF9658" stroke-miterlimit="10"/>
<path d="M276 551C427.878 551 551 427.878 551 276C551 124.122 427.878 1 276 1C124.122 1 1 124.122 1 276C1 427.878 124.122 551 276 551Z" stroke="#FF9658" stroke-miterlimit="10"/>
<path d="M233.531 231.052H227.599L229.576 229.074L235.509 213.254V212.265L237.487 210.287L244.408 229.074L246.386 231.052H240.453L241.442 229.074L240.034 225.119H232.965L231.557 229.074L233.535 231.052H233.531ZM236.498 215.231L233.309 224.13H239.661L236.498 215.231Z" fill="#F4E5C9"/>
<path d="M255.781 217.205L258.747 218.194L260.725 222.149V226.104L258.747 230.059L255.781 231.048H253.803L251.826 230.059V236.981L253.803 238.959H246.882L248.859 236.981V220.171L246.882 219.183L251.826 217.205L250.837 221.16L253.803 218.194L255.781 217.205ZM254.792 219.183L251.826 222.149V227.093L252.815 229.071L254.792 230.059L256.77 229.071L257.759 224.127L256.77 219.183H254.792Z" fill="#F4E5C9"/>
<path d="M271.106 217.205L274.073 218.194L276.05 222.149V226.104L274.073 230.059L271.106 231.048H269.129L267.151 230.059V236.981L269.129 238.959H262.207L264.185 236.981V220.171L262.207 219.183L267.151 217.205L266.162 221.16L269.129 218.194L271.106 217.205ZM270.117 219.183L267.151 222.149V227.093L268.14 229.071L270.117 230.059L272.095 229.071L273.084 224.127L272.095 219.183H270.117Z" fill="#F4E5C9"/>
<path d="M277.533 212.262L282.477 210.284V229.071L284.455 231.049H277.533L279.511 229.071V213.251L277.533 212.262Z" fill="#F4E5C9"/>
<path d="M285.938 219.187L290.882 217.209V229.075L292.859 231.052H285.938L287.915 229.075V220.176L285.938 219.187ZM288.904 215.232L286.926 214.243V213.254L287.915 211.276H288.904L290.882 212.265V213.254L289.893 215.232H288.904Z" fill="#F4E5C9"/>
<path d="M299.782 217.205H301.759L304.726 218.194L306.703 221.16L305.715 223.138L297.804 225.115L298.793 229.071L301.759 230.059L303.737 229.071L305.715 227.093L306.703 228.082L304.726 230.059L302.748 231.048H299.782L296.815 230.059L294.838 226.104V222.149L296.815 218.194L299.782 217.205ZM300.771 218.194L298.793 219.183L297.804 224.127L302.748 222.149V219.183L300.771 218.194Z" fill="#F4E5C9"/>
<path d="M320.052 210.287V229.074H321.041L323.019 228.086V229.074L321.041 231.052H319.063L318.075 229.074L317.086 230.063L315.108 231.052H313.131L310.164 230.063L308.187 226.108V222.153L310.164 218.198L313.131 217.209H315.108L317.086 218.198V213.254L315.108 212.265L320.052 210.287ZM314.119 218.198L312.142 219.186L311.153 224.13L312.142 229.074L314.119 230.063L316.097 229.074L317.086 227.097V221.164L316.097 219.186L314.119 218.198Z" fill="#F4E5C9"/>
<path d="M221 240.941H229.899L234.843 241.93L236.821 245.885L234.843 249.841L228.91 250.829L231.877 251.818L237.81 260.717L236.821 261.706L232.866 258.74L228.91 252.807L227.922 251.818L225.944 250.829V258.74L227.922 260.717H221L222.978 258.74V242.919L221 240.941ZM226.933 241.93L225.944 242.919V249.841H229.899L231.877 248.852L232.866 245.885L231.877 242.919L229.899 241.93H226.933Z" fill="#F4E5C9"/>
<path d="M243.519 246.873H245.497L248.463 247.862L250.441 250.828L249.452 252.806L241.542 254.783L242.53 258.739L245.497 259.727L247.474 258.739L249.452 256.761L250.441 257.75L248.463 259.727L246.486 260.716H243.519L240.553 259.727L238.575 255.772V251.817L240.553 247.862L243.519 246.873ZM244.508 247.862L242.53 248.851L241.542 253.795L246.486 251.817V248.851L244.508 247.862Z" fill="#F4E5C9"/>
<path d="M261.072 251.817H260.083L258.106 248.851H256.128L255.139 249.839V250.828L261.072 254.783L262.061 256.761L261.072 259.727L259.094 260.716H256.128L254.15 259.727L253.162 260.716L252.173 255.772H253.162L255.139 258.739L257.117 259.727L259.094 258.739V256.761L253.162 252.806L252.173 250.828L253.162 247.862L257.117 246.873L259.094 247.862L260.083 246.873L261.072 251.817Z" fill="#F4E5C9"/>
<path d="M268.487 246.873H270.465L273.431 247.862L275.409 250.828L274.42 252.806L266.509 254.783L267.498 258.739L270.465 259.727L272.442 258.739L274.42 256.761L275.409 257.75L273.431 259.727L271.453 260.716H268.487L265.521 259.727L263.543 255.772V251.817L265.521 247.862L268.487 246.873ZM269.476 247.862L267.498 248.851L266.509 253.795L271.453 251.817V248.851L269.476 247.862Z" fill="#F4E5C9"/>
<path d="M282.327 246.873L286.283 247.862L287.271 249.839V258.739L289.249 257.75V258.739L287.271 260.716H286.283L285.294 258.739L282.327 260.716H280.35L278.372 259.727L276.395 256.761L277.383 253.795L279.361 252.806L284.305 251.817V249.839L283.316 248.851H281.339L280.35 250.828L278.372 248.851L282.327 246.873ZM284.305 252.806L280.35 254.783L279.361 256.761L281.339 259.727L283.316 258.739L284.305 256.761V252.806Z" fill="#F4E5C9"/>
<path d="M295.923 246.873L294.934 250.828V251.817L297.901 247.862L299.878 246.873L301.856 247.862V249.839L299.878 252.806H298.889V249.839H297.901L295.923 251.817V258.739L297.901 260.716H290.979L292.957 258.739V249.839L289.99 248.851L295.923 246.873Z" fill="#F4E5C9"/>
<path d="M310.83 248.851L308.853 247.862L306.875 248.851L305.886 252.806V254.783L306.875 258.739L309.842 259.727L311.819 258.739L312.808 256.761L314.786 257.75L312.808 259.727L310.83 260.716H307.864L304.898 259.727L302.92 255.772V251.817L304.898 247.862L307.864 246.873H309.842L312.808 247.862L313.797 249.839L311.819 251.817H310.83V248.851Z" fill="#F4E5C9"/>
<path d="M315.28 241.927L320.224 239.949V249.837L321.213 247.86L323.191 246.871L327.146 247.86L328.135 249.837V258.736L330.112 260.714H323.191L325.168 258.736V249.837L324.179 248.848H322.202L320.224 251.815V258.736L322.202 260.714H315.28L317.258 258.736V242.916L315.28 241.927Z" fill="#F4E5C9"/>
<path d="M262.047 308.348H261.058L259.08 305.381L255.125 304.393V321.202L257.103 323.18H250.181L252.159 321.202V304.393L248.204 305.381L246.226 308.348H245.237L246.226 302.415L250.181 303.404H257.103L261.058 302.415L262.047 308.348Z" fill="#F4E5C9"/>
<path d="M265.733 309.336H267.711L270.677 310.325L272.655 314.28V318.235L270.677 322.19L267.711 323.179H265.733L262.767 322.19L260.789 318.235V314.28L262.767 310.325L265.733 309.336ZM266.722 310.325L264.744 311.314L263.755 316.258L264.744 321.202L266.722 322.19L268.699 321.202L269.688 316.258L268.699 311.314L266.722 310.325Z" fill="#F4E5C9"/>
<path d="M279.576 309.336H281.553L284.52 310.325L286.497 314.28V318.235L284.52 322.19L281.553 323.179H279.576L276.609 322.19L274.632 318.235V314.28L276.609 310.325L279.576 309.336ZM280.565 310.325L278.587 311.314L277.598 316.258L278.587 321.202L280.565 322.19L282.542 321.202L283.531 316.258L282.542 311.314L280.565 310.325Z" fill="#F4E5C9"/>
<path d="M287.978 304.393L292.922 302.415V321.202L294.899 323.18H287.978L289.955 321.202V305.381L287.978 304.393Z" fill="#F4E5C9"/>
<path d="M305.528 314.28H304.539L302.562 311.314H300.584L299.595 312.302V313.291L305.528 317.246L306.517 319.224L305.528 322.19L303.551 323.179H300.584L298.607 322.19L297.618 323.179L296.629 318.235H297.618L299.595 321.202L301.573 322.19L303.551 321.202V319.224L297.618 315.269L296.629 313.291L297.618 310.325L301.573 309.336L303.551 310.325L304.539 309.336L305.528 314.28Z" fill="#F4E5C9"/>
<path d="M250.185 342.956L248.207 344.934L246.229 347.9L250.185 352.844L249.196 353.833L245.241 349.878L243.263 351.856L241.285 352.844H237.33L234.364 350.867L233.375 348.889V346.912L235.353 343.945L238.319 341.968L236.341 339.99L235.353 338.012V336.035L237.33 334.057L239.308 333.068H241.285L244.252 334.057L245.241 336.035V338.012L244.252 339.99L241.285 341.968L245.241 346.912L246.229 344.934L245.241 342.956H250.185ZM239.308 342.956L237.33 344.934L236.341 347.9L237.33 350.867L240.297 351.856L242.274 350.867L244.252 348.889L239.308 342.956ZM240.297 334.057L238.319 335.046L237.33 337.024L238.319 339.001L240.297 340.979L242.274 339.001L243.263 337.024L242.274 335.046L240.297 334.057Z" fill="#F4E5C9"/>
<path d="M264.025 350.867L266.003 352.844H259.081L261.059 350.867V335.046L259.081 333.068H266.003L264.025 335.046V350.867Z" fill="#F4E5C9"/>
<path d="M267.979 352.843L269.957 350.866V341.966L267.979 340.978L272.923 339L271.935 342.955L274.901 339.989L276.879 339L280.834 339.989L281.823 341.966V350.866L283.8 352.843H276.879L278.856 350.866V341.966L277.867 340.978H275.89L272.923 343.944V350.866L274.901 352.843H267.979Z" fill="#F4E5C9"/>
<path d="M289.238 339.99H292.204V340.979H291.216L289.238 341.968V350.867L291.216 352.845H284.294L286.272 350.867V341.968L285.283 340.979V339.99H286.272V336.035L287.26 334.058L288.249 333.069L290.227 332.08L294.182 333.069V336.035L293.193 337.024L291.216 336.035L292.204 334.058L290.227 333.069L289.238 335.046V339.99Z" fill="#F4E5C9"/>
<path d="M299.868 339L298.88 342.955V343.944L301.846 339.989L303.824 339L305.801 339.989V341.966L303.824 344.933H302.835V341.966H301.846L299.868 343.944V350.866L301.846 352.843H294.924L296.902 350.866V341.966L293.936 340.978L299.868 339Z" fill="#F4E5C9"/>
<path d="M311.956 339L315.911 339.989L316.9 341.966V350.866L318.878 349.877V350.866L316.9 352.843H315.911L314.923 350.866L311.956 352.843H309.979L308.001 351.854L306.023 348.888L307.012 345.922L308.99 344.933L313.934 343.944V341.966L312.945 340.978H310.967L309.979 342.955L308.001 340.978L311.956 339ZM313.934 344.933L309.979 346.91L308.99 348.888L310.967 351.854L312.945 350.866L313.934 348.888V344.933Z" fill="#F4E5C9"/>
<path d="M218.25 283.258H333.573" stroke="#FF9658" stroke-miterlimit="10"/>
</svg>
