<svg width="552" height="552" viewBox="0 0 552 552" fill="none" xmlns="http://www.w3.org/2000/svg">
<path d="M243.702 279.054L250.248 278.977L252.096 277.085L252.173 283.631L250.281 281.783L235.318 281.954L233.47 283.847L233.375 275.43L234.255 270.744L237.974 268.83L242.672 270.645L244.597 275.299L243.705 279.05L243.702 279.054ZM234.339 278.225L235.285 279.149L242.767 279.065L242.734 276.26L241.766 273.465L238.014 272.574L235.22 273.542L234.306 275.423L234.339 278.228V278.225Z" fill="#F4E5C9"/>
<path d="M236.071 263.164L235.99 258.13L252.593 264.464L255.007 263.383L252.673 269.498L251.592 267.084L237.612 261.75L236.071 263.164Z" fill="#F4E5C9"/>
<path d="M261.715 251.975L261.915 254.613L261.305 255.321L259.278 254.81L258.869 258.156L257.649 259.573L255.11 261.093L253.083 260.582L246.701 255.095L244.772 255.902L247.11 251.745L254.913 258.452L256.232 258.353L257.452 256.936L257.353 255.617L256.546 253.689L251.581 249.422L249.653 250.229L251.991 246.072L260.502 253.385L261.013 251.358L261.722 251.968L261.715 251.975Z" fill="#F4E5C9"/>
<path d="M262.12 239.774L262.857 243.558L263.252 244.406L264.209 239.829L265.506 238.188L267.595 238.243L268.388 239.938L267.884 243.273L267.036 243.668L265.849 241.125L265.002 241.52L264.099 244.008L266.872 249.936L269.36 250.838L263.431 253.611L264.333 251.123L260.768 243.5L257.831 243.843L262.12 239.77V239.774Z" fill="#F4E5C9"/>
<path d="M272.11 238.412L276.592 236.114L277.634 247.288L279.668 248.976L273.151 249.582L274.839 247.548L274.057 239.168L272.11 238.412ZM274.558 234.426L272.611 233.67L272.523 232.739L273.279 230.792L274.211 230.704L276.158 231.46L276.245 232.392L275.489 234.339L274.558 234.426Z" fill="#F4E5C9"/>
<path d="M285.848 250.065L284.032 249.615L282.878 238.73L281.512 236.465L287.864 238.039L285.599 239.405L286.523 247.343L291.046 240.757L289.68 238.492L295.126 239.84L292.861 241.206L287.207 248.476L285.848 250.065Z" fill="#F4E5C9"/>
<path d="M302.469 243.752L303.96 244.881L305.629 247.321L305.424 250.686L303.55 251.61L296.46 248.582L294.944 252.129L296.614 254.569L298.67 254.952L301.289 254.591L301.468 255.902L298.849 256.264L296.793 255.88L294.557 254.185L292.888 251.745L293.658 247.635L295.92 244.655L299.671 242.803L302.473 243.752H302.469ZM302.648 245.064L300.592 244.68L297.023 247.84L301.877 249.173L303.572 246.938L302.648 245.064Z" fill="#F4E5C9"/>
<path d="M313.607 256.216L309.899 257.272L309.088 257.739L313.731 258.305L315.473 259.46L315.594 261.545L313.972 262.477L310.608 262.254L310.14 261.443L312.573 260.044L312.105 259.233L309.552 258.543L303.879 261.805L303.189 264.358L299.927 258.685L302.48 259.376L309.775 255.178L309.187 252.282L313.607 256.212V256.216Z" fill="#F4E5C9"/>
<path d="M314.389 274.93L314.253 274.006L316.759 271.752L316.489 269.9L315.43 269.107L314.505 269.243L311.609 275.332L309.892 276.526L306.981 276.004L305.786 274.287L305.384 271.511L306.042 269.527L304.982 268.735L309.475 267.138L309.611 268.063L307.105 270.316L306.447 272.304L307.642 274.02L309.494 273.75L312.39 267.661L314.107 266.466L317.019 266.989L318.483 270.558L317.826 272.541L318.885 273.334L314.392 274.93H314.389Z" fill="#F4E5C9"/>
<path d="M317.936 284.533L317.505 286.352L315.949 288.865L312.789 290.038L311.186 288.697L311.091 280.986L307.237 281.033L305.681 283.546L306.159 285.581L307.547 287.831L306.422 288.525L305.034 286.275L304.556 284.24L305.202 281.512L306.758 278.999L310.828 278.042L314.466 278.904L317.673 281.585L317.936 284.529V284.533ZM316.811 285.227L316.333 283.192L312 281.205L312.742 286.184L315.47 286.83L316.811 285.227Z" fill="#F4E5C9"/>
<path d="M219.596 225.512L222.77 226.166L226.591 224.917L227.877 222.381L227.884 221.11L225.356 218.553L222.814 218.539L227.292 214.115L227.278 216.657L230.437 219.857L229.791 221.76L228.505 224.296L225.305 227.455L221.484 228.705L218.31 228.051L214.511 225.483L211.99 221.651L211.373 218.469L212.666 214.663L215.866 211.503L219.687 210.254L221.59 210.9L221.576 213.443L220.297 214.707L218.401 212.789L215.859 212.774L214.58 214.038L213.926 217.213L214.544 220.394L219.599 225.512H219.596Z" fill="#F4E5C9"/>
<path d="M230.072 207.194L231.321 210.682L231.822 211.431L232.07 206.941L233.067 205.195L235.062 204.943L236.059 206.437V209.681L235.314 210.182L233.816 207.939L233.067 208.439L232.57 210.934L236.066 216.169L238.561 216.665L233.326 220.161L233.823 217.666L229.33 210.938L226.587 211.687L230.075 207.197L230.072 207.194Z" fill="#F4E5C9"/>
<path d="M240.669 201.217L242.302 200.465L245.129 200.154L247.891 201.853L247.825 203.862L242.042 208.501L244.362 211.391L247.189 211.08L248.446 209.513L249.326 207.128L250.517 207.57L249.637 209.955L248.38 211.522L245.929 212.651L243.102 212.961L239.964 210.448L238.459 207.182L238.587 203.164L240.662 201.221L240.669 201.217ZM241.86 201.659L240.603 203.226L241.666 207.687L244.998 204.172L243.869 201.721L241.86 201.656V201.659Z" fill="#F4E5C9"/>
<path d="M253.326 196.494L255.061 196.02L257.9 196.177L260.343 198.306L259.949 200.279L253.483 203.906L255.299 207.139L258.137 207.296L259.635 205.955L260.895 203.749L261.998 204.381L260.738 206.587L259.24 207.928L256.639 208.637L253.801 208.48L251.12 205.484L250.174 202.014L250.963 198.072L253.326 196.494ZM254.429 197.126L252.932 198.467L253.25 203.04L257.111 200.122L256.402 197.521L254.429 197.126Z" fill="#F4E5C9"/>
<path d="M263.3 206.774L264.947 204.834L264.289 196.769L262.423 196.02L266.759 193.864L266.156 197.521L268.625 194.613L270.346 193.572L274.002 194.175L275.044 195.895L275.701 203.961L277.641 205.609L271.369 206.12L273.016 204.184L272.359 196.118L271.391 195.296L269.597 195.443L267.128 198.35L267.639 204.622L269.579 206.27L263.307 206.781L263.3 206.774Z" fill="#F4E5C9"/>
<path d="M286.779 194.112L289.358 195.311L290.739 199.088L290.334 202.66L288.142 206.032L285.358 206.62L283.572 206.415L281.888 205.32L281.176 211.573L282.758 213.564L276.504 212.852L278.495 211.27L280.223 196.081L278.539 194.986L283.207 193.707L281.907 197.177L284.891 194.803L286.779 194.112ZM285.684 195.796L282.699 198.171L282.191 202.638L282.882 204.527L284.566 205.623L286.454 204.932L287.857 200.567L287.474 195.997L285.687 195.793L285.684 195.796Z" fill="#F4E5C9"/>
<path d="M293.761 197.148L298.568 196.578L295.766 206.996L297.037 209.199L290.959 207.566L293.162 206.299L295.262 198.485L293.761 197.148ZM297.3 194.376L295.799 193.039L296.033 192.169L297.366 190.668L298.236 190.902L299.737 192.239L299.503 193.108L298.17 194.609L297.3 194.376Z" fill="#F4E5C9"/>
<path d="M304.039 193.539L308.879 193.47L302.757 209.418L303.791 211.741L297.913 209.488L300.236 208.454L305.391 195.022L304.035 193.539H304.039Z" fill="#F4E5C9"/>
<path d="M311.891 196.666L316.716 197.068L309.074 212.344L309.878 214.755L304.249 211.939L306.66 211.135L313.096 198.273L311.891 196.666Z" fill="#F4E5C9"/>
<path d="M321.41 207.139L322.9 208.144L324.632 210.398L324.614 213.638L322.864 214.624L315.898 212.089L314.63 215.57L316.362 217.824L318.356 218.087L320.851 217.605L321.092 218.854L318.597 219.336L316.603 219.073L314.367 217.565L312.636 215.311L313.158 211.325L315.171 208.345L318.674 206.372L321.414 207.136L321.41 207.139ZM321.651 208.388L319.657 208.125L316.395 211.347L321.125 212.374L322.634 210.138L321.647 208.388H321.651Z" fill="#F4E5C9"/>
<path d="M341.015 215.449L329.099 227.686L329.742 228.315L331.656 228.925L331.028 229.568L328.486 229.6L327.196 228.348L327.806 226.433L326.535 226.452L324.621 225.842L323.331 224.589L322.027 222.065L323.247 218.233L325.757 215.657L329.552 214.335L332.113 215.573L333.402 216.826L334.064 218.726L337.198 215.504L336.537 213.604L341.011 215.453L341.015 215.449ZM332.131 216.837L330.217 216.227L326.436 218.821L323.945 222.667L324.606 224.567L326.52 225.177L328.42 224.516L332.182 220.651L332.792 218.737L332.131 216.837Z" fill="#F4E5C9"/>
<path d="M236.803 162.447L238.615 168.627L236.58 168.554L225.801 173.46L226.703 171.045L220.665 157.778L218.25 156.876L226.542 153.103L229.483 150.765L232.577 155.364L231.747 155.74L227.751 153.555L223.605 155.444L223.152 156.649L225.417 161.625L226.622 162.078L229.939 160.569L230.841 158.154L232.73 162.3L230.315 161.398L226.999 162.907L226.546 164.112L229.187 169.917L230.392 170.37L235.367 168.105L235.966 162.826L236.796 162.45L236.803 162.447Z" fill="#F4E5C9"/>
<path d="M238.826 151.305L239.999 154.757L242.589 153.88L242.881 154.742L240.587 156.484L242.928 163.388L244.083 163.958L245.222 161.646L246.377 162.216L245.237 164.528L243.805 165.975L242.943 166.267L240.338 164.265L237.997 157.361L235.977 157.084L235.685 156.221L237.117 154.775L237.686 153.621L237.964 151.601L238.826 151.308V151.305Z" fill="#F4E5C9"/>
<path d="M243.332 147.817L247.354 145.004L249.428 153.877L249.9 151.897L251.467 150.596L255.222 150.655L256.522 152.222L258.389 160.207L260.577 161.566L254.367 163.016L255.726 160.828L253.859 152.843L252.764 152.164L250.988 152.576L249.838 155.652L251.288 161.862L253.476 163.221L247.266 164.671L248.625 162.483L245.308 148.288L243.328 147.817H243.332Z" fill="#F4E5C9"/>
<path d="M264.528 148.291L266.336 148.079L269.156 148.664L271.286 151.166L270.595 153.084L263.571 155.747L264.904 159.261L267.724 159.845L269.427 158.727L271.023 156.704L272.035 157.5L270.438 159.524L268.736 160.641L266.022 160.963L263.202 160.378L260.966 156.974L260.539 153.354L261.92 149.522L264.528 148.298V148.291ZM265.54 149.087L263.838 150.205L263.469 154.837L267.779 152.492L267.458 149.778L265.54 149.087Z" fill="#F4E5C9"/>
<path d="M278.346 147.335L277.495 150.995L277.51 151.904L280.184 148.215L281.992 147.272L283.829 148.153L283.858 149.976L282.083 152.737L281.173 152.752L281.13 150.019L280.22 150.034L278.43 151.886L278.536 158.264L280.388 160.054L274.01 160.16L275.8 158.308L275.665 150.107L272.918 149.241L278.353 147.327L278.346 147.335Z" fill="#F4E5C9"/>
<path d="M290.164 147.682L291.979 147.828L294.631 148.953L296.228 151.824L295.172 153.566L287.76 154.801L288.378 158.505L291.03 159.63L292.918 158.867L294.88 157.197L295.716 158.18L293.755 159.849L291.866 160.613L289.141 160.394L286.489 159.269L284.966 155.492L285.258 151.861L287.366 148.376L290.164 147.685V147.682ZM291 148.664L289.112 149.428L287.841 153.895L292.527 152.445L292.746 149.72L291.004 148.668L291 148.664Z" fill="#F4E5C9"/>
<path d="M303.679 149.416L307.098 150.972L307.664 152.93L306.177 160.995L308.135 160.429L307.971 161.324L305.849 162.785L304.954 162.621L304.387 160.663L301.37 161.96L299.577 161.631L297.951 160.404L296.654 157.386L298.046 154.862L300.004 154.296L304.65 154.227L304.979 152.433L304.249 151.37L302.455 151.041L301.228 152.667L299.767 150.545L303.682 149.412L303.679 149.416ZM304.479 155.122L300.563 156.254L299.336 157.879L300.632 160.897L302.59 160.331L303.818 158.705L304.479 155.122Z" fill="#F4E5C9"/>
<path d="M308.077 163.184L310.357 161.979L312.771 154.143L311.299 152.737L316.19 152.339L314.247 155.553L317.662 153.745L319.671 153.409L322.886 155.352L323.222 157.362L320.807 165.197L322.013 167.476L315.92 165.599L318.199 164.393L320.614 156.558L320.011 155.418L318.269 154.881L314.853 156.689L312.976 162.782L314.181 165.062L308.088 163.184H308.077Z" fill="#F4E5C9"/>
<path d="M333.375 163.634L332.538 163.272L331.954 160.039L330.281 159.316L329.082 159.791L328.721 160.627L332.29 166.143L332.403 168.178L330.481 170.326L328.447 170.439L325.937 169.354L324.626 167.794L323.428 168.269L324.403 163.725L325.24 164.087L325.824 167.319L327.135 168.879L329.17 168.766L329.893 167.093L326.324 161.577L326.211 159.542L328.133 157.395L331.84 158.008L333.152 159.568L334.35 159.093L333.375 163.637V163.634Z" fill="#F4E5C9"/>
<path d="M213.882 108.603L216.523 110.7L220.658 111.332L223.039 109.582L224.245 107.226L224.559 105.158L225.735 105.761L224.818 109.005L222.721 111.646L218.272 113.082L214.137 112.45L211.496 110.353L209.169 106.189L208.625 101.451L209.542 98.207L212.526 95.2774L216.975 93.8418L221.111 94.4737L222.575 95.9678L221.37 98.3239L219.591 98.8974L218.729 96.2271L216.373 95.0217L214.594 95.5952L212.497 98.2362L211.58 101.48L213.878 108.599L213.882 108.603Z" fill="#F4E5C9"/>
<path d="M229.32 96.3476L229.279 100.201L229.499 101.111L231.358 96.8189L232.958 95.4746L234.993 95.9495L235.427 97.7686L234.262 100.932L233.352 101.151L232.699 98.4225L231.789 98.6417L230.404 100.895L231.928 107.262L234.182 108.647L227.815 110.17L229.199 107.916L227.241 99.7302L224.297 99.4745L229.32 96.3513V96.3476Z" fill="#F4E5C9"/>
<path d="M245.417 105.548L239.397 97.0004L237.268 95.4296L243.74 94.4507L242.17 96.5803L246.06 103.557L248.639 95.6013L246.509 94.0306L252.058 93.1904L250.487 95.3201L243.898 114.286L242.049 114.563L240.986 113.778L245.417 105.544V105.548Z" fill="#F4E5C9"/>
<path d="M261.519 91.6094L264.379 92.3546L266.494 95.9636L266.743 99.6969L265.124 103.554L262.388 104.672L260.522 104.796L258.593 103.989L259.028 110.52L261.018 112.263L254.487 112.697L256.23 110.707L255.174 94.8458L253.245 94.0385L257.786 91.8614L257.103 95.6568L259.714 92.6724L261.519 91.6167V91.6094ZM260.712 93.5381L258.1 96.5225L258.41 101.187L259.466 102.992L261.395 103.799L263.199 102.743L263.82 98.0165L262.575 93.4139L260.708 93.5381H260.712Z" fill="#F4E5C9"/>
<path d="M272.543 88.4863L272.605 92.2269L275.411 92.183L275.425 93.1182L272.635 94.0972L272.755 101.578L273.705 102.499L275.546 100.599L276.496 101.52L274.655 103.419L272.799 104.384L271.864 104.398L269.95 101.622L269.829 94.141L267.944 93.2351L267.93 92.2999L269.785 91.3356L270.706 90.3858L271.612 88.5009L272.547 88.4863H272.543Z" fill="#F4E5C9"/>
<path d="M282.731 91.5879L284.597 91.7011L287.341 92.8043L288.981 96.6508L288.754 100.384L286.661 104.004L283.805 104.767L281.938 104.654L279.195 103.551L277.555 99.7046L277.781 95.9713L279.874 92.3513L282.731 91.5879ZM283.608 92.5778L281.682 93.3997L280.466 98.0097L281.116 102.733L282.928 103.778L284.853 102.956L286.07 98.3457L285.419 93.6225L283.608 92.5742V92.5778Z" fill="#F4E5C9"/>
<path d="M297.244 106.042L299.429 104.548L302.183 89.8417L300.689 87.6572L309.879 89.3777L313.73 89.1476L313.616 94.8351L312.696 94.6635L310.628 90.4699L306.033 89.6079L304.941 90.3531L303.907 95.8689L304.656 96.9611L308.334 97.6479L310.519 96.1538L309.657 100.749L308.163 98.5684L304.484 97.8816L303.392 98.6268L302.187 105.063L303.681 107.248L297.244 106.042Z" fill="#F4E5C9"/>
<path d="M318.076 97.0078L319.884 97.479L322.365 99.09L323.234 103.181L322.292 106.801L319.541 109.95L316.59 110.147L314.781 109.676L312.301 108.065L311.432 103.974L312.374 100.354L315.125 97.2051L318.076 97.0078ZM318.745 98.1475L316.699 98.5822L314.617 102.871L314.343 107.63L315.917 109.008L317.963 108.573L320.045 104.284L320.319 99.5247L318.745 98.1475Z" fill="#F4E5C9"/>
<path d="M327.677 94.8126L332.699 94.4766L327.224 111.378L328.425 113.735L322.197 111.718L324.553 110.516L329.167 96.2847L327.677 94.8199V94.8126Z" fill="#F4E5C9"/>
<path d="M339.793 116.054L340.856 118.476L335.629 116.434L337.181 115.031L336.458 111.736L333.697 113.669L333.886 115.751L328.659 113.709L335.928 110.523L334.146 104.807L333.083 102.385L338.31 104.427L336.758 105.829L337.481 109.124L340.242 107.192L340.053 105.11L345.28 107.152L338.011 110.337L339.793 116.054Z" fill="#F4E5C9"/>
<path d="M122.007 81.3634L128.747 76.3224L133.05 74.2695L136.787 76.1435L136.97 79.5114L136.031 81.3817L138.836 80.4502L142.573 82.3241L143.315 86.4409L141.441 90.1778L133.203 96.3403L133.58 93.7211L124.619 81.7397L122 81.3634H122.007ZM127.059 78.7516L126.869 80.0593L130.789 85.3012L132.287 84.1798L134.723 81.1917L133.792 78.3863L131.362 76.6987L129.306 77.0713L127.059 78.7516ZM131.351 86.0501L135.833 92.0408L137.141 92.2308L139.388 90.5504L140.513 87.3724L139.581 84.567L136.403 83.4419L132.849 84.9323L131.351 86.0537V86.0501Z" fill="#F4E5C9"/>
<path d="M144.064 72.4545L145.631 71.4354L148.491 70.6865L151.589 72.0162L151.826 74.0947L146.581 79.7457L149.408 82.3684L152.268 81.6196L153.324 79.8151L153.868 77.2288L155.161 77.5028L154.617 80.089L153.561 81.8936L151.213 83.4241L148.352 84.173L144.743 82.0616L142.701 78.9274L142.227 74.7704L144.068 72.4545H144.064ZM145.357 72.7285L144.301 74.533L146.069 78.9603L148.966 74.8398L147.436 72.491L145.357 72.7285Z" fill="#F4E5C9"/>
<path d="M162.083 75.6365L153.386 69.8321L150.836 69.1344L156.52 65.8906L155.822 68.444L161.966 73.5507L161.506 65.2002L158.956 64.5025L163.829 61.7227L163.132 64.2724L163.815 84.3413L162.189 85.2691L160.914 84.9221L162.08 75.6438L162.083 75.6365Z" fill="#F4E5C9"/>
<path d="M168.201 58.5366L169.874 57.7038L172.804 57.291L176.146 59.8079L177.812 63.1575L177.804 67.3401L175.711 69.4259L174.038 70.2588L171.109 70.6715L167.766 68.1547L166.101 64.805L166.108 60.6224L168.201 58.5366ZM169.454 58.9567L168.197 60.6261L169.443 65.2287L172.365 68.9985H174.455L175.711 67.3328L174.466 62.7302L171.543 58.9604H169.454V58.9567Z" fill="#F4E5C9"/>
<path d="M181.341 66.6272L182.334 64.1762L179.061 56.4211L176.976 56.2859L180.555 52.7426L181.151 56.5526L182.645 52.8778L184.004 51.2888L187.814 50.6934L189.403 52.0522L192.676 59.8073L195.127 60.8009L189.096 63.3469L190.089 60.8959L186.816 53.1408L185.593 52.644L183.869 53.3709L182.375 57.0457L184.921 63.0766L187.372 64.0702L181.341 66.6163V66.6272Z" fill="#F4E5C9"/>
<path d="M199.93 38.3906L205.741 55.1793L206.625 54.8724L208.086 53.3784L208.393 54.2624L207.239 56.6404L205.471 57.2505L203.977 55.7893L203.4 56.9801L201.939 58.4742L200.171 59.0842L197.215 59.1171L194.224 56.1948L193 52.6624L193.544 48.5164L195.889 46.7155L197.657 46.1055L199.729 46.3758L198.198 41.9595L196.123 41.6892L199.93 38.3943V38.3906ZM197.077 47.2964L195.615 48.7904L196.262 53.5136L198.677 57.6267L200.748 57.897L202.209 56.403L202.479 54.3318L200.645 49.0315L199.151 47.5703L197.077 47.3V47.2964Z" fill="#F4E5C9"/>
<path d="M216.91 37.4268L217.834 41.0504L220.552 40.3564L220.782 41.2623L218.294 42.8622L220.146 50.1096L221.282 50.7853L222.63 48.5096L223.766 49.1854L222.418 51.4611L220.837 52.831L219.931 53.0611L217.425 50.8073L215.573 43.5599L213.531 43.118L213.301 42.212L214.882 40.8422L215.558 39.7062L216 37.6642L216.906 37.4341L216.91 37.4268Z" fill="#F4E5C9"/>
<path d="M221.197 34.3614L225.412 31.6035L227.257 40.7723L227.805 38.7522L229.453 37.4664L233.303 37.6454L234.588 39.2928L236.251 47.5447L238.453 49.0095L232.035 50.3026L233.5 48.0999L231.838 39.8481L230.735 39.1175L228.901 39.4864L227.622 42.606L228.916 49.0241L231.118 50.4889L224.7 51.782L226.165 49.5794L223.21 34.9094L221.193 34.3614H221.197Z" fill="#F4E5C9"/>
<path d="M242.399 35.2535L244.251 34.9941L247.158 35.5311L249.401 38.048L248.736 40.0315L241.588 42.9245L243.034 46.4971L245.942 47.0304L247.662 45.8432L249.255 43.7318L250.311 44.5282L248.718 46.6395L246.998 47.8267L244.221 48.2176L241.314 47.6806L238.939 44.2359L238.417 40.5319L239.747 36.5685L242.395 35.2535H242.399ZM243.454 36.0498L241.734 37.237L241.46 41.9967L245.829 39.4945L245.438 36.7183L243.454 36.0535V36.0498Z" fill="#F4E5C9"/>
<path d="M271.629 28.1521L274.822 41.1527L278.197 28.89L276.272 27.0782L281.879 26.9102L280.067 28.8352L274.961 45.8248L274.055 46.7855L269.927 33.8105L266.552 46.0732L265.646 47.0339L259.509 29.4416L257.584 27.6298L264.126 27.4362L262.314 29.3612L266.417 41.4011L268.857 29.1676L271.633 28.1485L271.629 28.1521Z" fill="#F4E5C9"/>
<path d="M285.591 32.908L289.298 33.9709L290.168 35.8741L289.876 44.2867L291.779 43.4173L291.746 44.3524L289.813 46.157L288.878 46.1241L288.009 44.2209L285.141 45.9926L283.271 45.9268L281.434 44.9259L279.662 42.0584L280.692 39.2859L282.595 38.4165L287.3 37.6421L287.366 35.7718L286.464 34.8038L284.594 34.738L283.593 36.5754L281.788 34.6431L285.591 32.9043V32.908ZM287.267 38.5809L283.465 40.3197L282.464 42.1571L284.236 45.0246L286.139 44.1552L287.14 42.3178L287.267 38.5809Z" fill="#F4E5C9"/>
<path d="M293.332 28.587L298.139 27.082L296.769 44.7985L298.49 46.8076L291.962 46.3035L293.971 44.583L295.122 29.6646L293.328 28.587H293.332Z" fill="#F4E5C9"/>
<path d="M301.207 29.2119L306.058 27.8604L304.129 45.5257L305.788 47.5896L299.278 46.8809L301.342 45.2225L302.964 30.348L301.207 29.2156V29.2119Z" fill="#F4E5C9"/>
<path d="M313.604 35.4688L315.452 35.75L318.082 37.0979L319.507 40.1554L318.302 41.8613L310.623 42.5809L310.981 46.4201L313.615 47.768L315.606 47.1251L317.735 45.558L318.517 46.6247L316.388 48.1917L314.397 48.8346L311.624 48.4109L308.994 47.063L307.712 43.0814L308.278 39.3846L310.693 35.9692L313.608 35.4688H313.604ZM314.386 36.5354L312.395 37.1783L310.762 41.6604L315.668 40.517L316.092 37.7445L314.386 36.539V36.5354Z" fill="#F4E5C9"/>
<path d="M334.312 32.7256L330.597 50.1024L331.511 50.2996L333.534 49.7772L333.337 50.6905L331.116 52.1297L329.286 51.7388L328.764 49.7151L327.653 50.4348L325.629 50.9571L323.799 50.5663L321.25 49.0649L320.201 45.0139L320.983 41.3574L323.595 38.0917L326.535 37.7629L328.365 38.1538L329.998 39.4578L330.977 34.8844L329.344 33.5804L334.309 32.7292L334.312 32.7256ZM327.262 38.8697L325.239 39.3921L323.346 43.7683L323.284 48.5353L324.917 49.8393L326.941 49.317L328.245 47.6841L329.417 42.1975L328.895 40.1738L327.262 38.8697Z" fill="#F4E5C9"/>
<path d="M346.864 50.6466L347.759 53.8977L350.725 56.8455L353.68 56.8382L354.86 56.2428L356.033 52.6922L354.846 50.3288L361.059 52.3817L358.696 53.5689L357.227 58.0071L355.16 58.3067L352.205 58.314L347.766 56.8455L344.8 53.8977L343.905 50.6466L344.486 45.9125L346.842 41.7664L349.498 39.6916L353.637 39.0889L358.075 40.5573L361.041 43.5052L361.34 45.5727L358.977 46.7599L357.202 46.1718L358.082 43.5089L356.895 41.1454L355.12 40.5573L351.869 41.4523L349.213 43.5271L346.864 50.6283V50.6466Z" fill="#F4E5C9"/>
<path d="M368.479 50.4531L371.591 52.7252L371.755 54.811L368.592 62.6099L370.678 62.4455L370.327 63.3113L367.891 64.3414L367.025 63.9907L366.861 61.9049L363.558 62.5843L361.827 61.8793L360.446 60.3086L359.767 57.0064L361.688 54.7599L363.774 54.5955L368.457 55.4868L369.158 53.7553L368.643 52.5389L366.912 51.8376L365.341 53.2184L364.311 50.7819L368.479 50.4568V50.4531ZM368.102 56.3562L363.935 56.6813L362.364 58.0621L363.043 61.3643L365.129 61.1999L366.7 59.8191L368.106 56.3525L368.102 56.3562Z" fill="#F4E5C9"/>
<path d="M380.689 55.7939L378.253 58.782L377.855 59.6294L381.986 57.4377L384.076 57.3866L385.369 59.0304L384.572 60.7217L381.687 62.4641L380.839 62.0659L382.034 59.5272L381.186 59.129L378.699 60.0276L375.915 65.9526L376.814 68.4402L370.889 65.6567L373.376 64.7581L376.956 57.1418L374.816 55.1035L380.689 55.7976V55.7939Z" fill="#F4E5C9"/>
<path d="M400.109 58.4204L391.653 74.0474L392.475 74.4931L394.564 74.5588L394.118 75.3807L391.583 76.1369L389.939 75.2456L390.009 73.1561L388.741 73.5324L386.652 73.4666L385.008 72.5753L382.984 70.4165L383.12 66.2376L384.898 62.9463L388.325 60.5464L391.236 61.0578L392.88 61.9491L394.078 63.6623L396.303 59.5491L395.101 57.8359L400.102 58.4167L400.109 58.4204ZM391.612 62.329L389.523 62.2632L386.477 65.9307L385.074 70.4895L386.276 72.2027L388.365 72.2685L390.078 71.0703L392.749 66.1353L392.814 64.0458L391.616 62.3326L391.612 62.329Z" fill="#F4E5C9"/>
<path d="M404.664 68.761L406.253 69.7472L408.145 72.0193L408.259 75.3909L406.48 76.4868L399.137 74.1344L397.961 77.8055L399.853 80.0776L401.935 80.2675L404.511 79.6648L404.814 80.9506L402.239 81.5534L400.156 81.3634L397.771 79.884L395.879 77.6119L396.259 73.4476L398.231 70.2696L401.793 68.0742L404.671 68.7573L404.664 68.761ZM404.967 70.0468L402.885 69.8568L399.627 73.338L404.587 74.2111L406.067 71.8257L404.971 70.0468H404.967Z" fill="#F4E5C9"/>
<path d="M404.302 83.9388L406.91 83.4931L411.768 76.6221L410.782 74.7773L415.68 75.9499L412.758 78.4631L416.67 77.7946L418.738 78.1124L421.251 81.0347L420.933 83.1023L416.075 89.9733L416.521 92.5815L411.177 88.8008L413.785 88.3551L418.643 81.484L418.42 80.18L416.893 79.0987L412.985 79.7672L409.204 85.1113L409.65 87.7195L404.305 83.9388H404.302Z" fill="#F4E5C9"/>
<path d="M429.017 91.88L428.287 91.2955L428.571 87.9349L427.11 86.7696L425.795 86.9194L425.211 87.65L427.267 94.0717L426.833 96.1174L424.352 97.7283L422.307 97.2936L420.111 95.5438L419.231 93.648L417.916 93.7978L420.1 89.5568L420.831 90.1412L420.546 93.5019L421.426 95.3977L423.472 95.8324L424.637 94.3713L422.581 87.9495L423.015 85.9039L425.496 84.293L429.003 85.8929L429.883 87.7888L431.198 87.639L429.013 91.88H429.017Z" fill="#F4E5C9"/>
<path d="M275.909 332.284C306.993 332.284 332.192 307.085 332.192 276C332.192 244.916 306.993 219.717 275.909 219.717C244.824 219.717 219.625 244.916 219.625 276C219.625 307.085 244.824 332.284 275.909 332.284Z" stroke="#FF9658" stroke-miterlimit="10"/>
<path d="M276.71 378.459C333.297 378.459 379.169 332.587 379.169 276C379.169 219.413 333.297 173.54 276.71 173.54C220.123 173.54 174.25 219.413 174.25 276C174.25 332.587 220.123 378.459 276.71 378.459Z" stroke="#FF9658" stroke-miterlimit="10"/>
<path d="M276.142 426.017C358.994 426.017 426.158 358.852 426.158 276C426.158 193.148 358.994 125.983 276.142 125.983C193.29 125.983 126.125 193.148 126.125 276C126.125 358.852 193.29 426.017 276.142 426.017Z" stroke="#FF9658" stroke-miterlimit="10"/>
<path d="M276.019 483.644C390.698 483.644 483.664 390.679 483.664 276C483.664 161.321 390.698 68.3555 276.019 68.3555C161.341 68.3555 68.375 161.321 68.375 276C68.375 390.679 161.341 483.644 276.019 483.644Z" stroke="#FF9658" stroke-miterlimit="10"/>
<path d="M276 551C427.878 551 551 427.878 551 276C551 124.122 427.878 1 276 1C124.122 1 1 124.122 1 276C1 427.878 124.122 551 276 551Z" stroke="#FF9658" stroke-miterlimit="10"/>
</svg>
