<svg width="738" height="790" viewBox="0 0 738 790" fill="none" xmlns="http://www.w3.org/2000/svg">
<path d="M329.36 54.16L330.48 52.48L332.16 51.36H333.28L334.4 52.48V54.16H335.52L336.64 53.04L336.08 51.92L333.84 50.8H331.04L328.8 51.92L327.68 53.6L327.12 56.4L327.68 59.2L328.8 60.88L331.04 62H333.84L335.52 61.44L336.64 60.88V58.08L337.76 56.96H333.84L334.96 58.08V60.32L334.4 60.88L332.72 61.44L330.48 60.32L329.36 58.64V54.16ZM339.998 54.72L338.878 56.96V59.2L339.998 61.44L341.678 62H342.798L344.478 61.44L345.598 59.2V56.96L344.478 54.72L342.798 54.16H341.678L339.998 54.72ZM343.358 55.28L343.918 58.08L343.358 60.88L342.238 61.44L341.118 60.88L340.558 58.08L341.118 55.28L342.238 54.72L343.358 55.28ZM350.755 60.88L352.995 55.84L354.115 54.72H350.755L351.875 55.84L350.195 60.32L348.515 55.84L349.635 54.72H345.715L346.835 55.84L349.075 62H350.195L350.755 60.88ZM355.352 54.72L354.232 56.96V59.2L355.352 61.44L357.032 62H358.712L359.832 61.44L360.952 60.32L360.392 59.76L359.272 60.88L358.152 61.44L356.472 60.88L355.912 58.64L360.392 57.52L360.952 56.4L359.832 54.72L358.152 54.16H357.032L355.352 54.72ZM358.712 55.28V56.96L355.912 58.08L356.472 55.28L357.592 54.72L358.712 55.28ZM361.652 55.28L363.332 55.84V60.88L362.212 62H366.132L365.012 60.88V56.96L366.132 55.84H366.692V57.52H367.252L368.372 55.84V54.72L367.252 54.16L366.132 54.72L364.452 56.96V56.4L365.012 54.16L361.652 55.28ZM373.314 62L372.194 60.88V56.96L373.874 55.28H374.994L375.554 55.84V60.88L374.434 62H378.354L377.234 60.88V55.84L376.674 54.72L374.434 54.16L373.314 54.72L371.634 56.4L372.194 54.16L369.394 55.28L370.514 55.84V60.88L369.394 62H373.314ZM379.75 55.28L380.87 56.4L381.43 55.28H382.55L383.11 55.84V56.96L380.31 57.52L379.19 58.08L378.63 59.76L379.75 61.44L380.87 62H381.99L383.67 60.88L384.23 62H384.79L385.91 60.88V60.32L384.79 60.88V55.84L384.23 54.72L381.99 54.16L379.75 55.28ZM383.11 59.76L382.55 60.88L381.43 61.44L380.31 59.76L380.87 58.64L383.11 57.52V59.76ZM390.39 62L389.27 60.88V56.96L390.95 55.28H392.07L392.63 55.84V60.88L391.51 62H395.43L394.31 60.88V55.84L393.75 54.72L391.51 54.16L390.39 54.72L388.71 56.4L389.27 54.16L386.47 55.28L387.59 55.84V60.88L386.47 62H390.39ZM400.466 56.96H401.026L402.146 55.84L401.586 54.72L399.906 54.16H398.786L397.106 54.72L395.986 56.96V59.2L397.106 61.44L398.786 62H400.466L401.586 61.44L402.706 60.32L401.586 59.76L401.026 60.88L399.906 61.44L398.226 60.88L397.666 58.64V57.52L398.226 55.28L399.346 54.72L400.466 55.28V56.96ZM404.379 54.72L403.259 56.96V59.2L404.379 61.44L406.059 62H407.739L408.859 61.44L409.979 60.32L409.419 59.76L408.299 60.88L407.179 61.44L405.499 60.88L404.939 58.64L409.419 57.52L409.979 56.4L408.859 54.72L407.179 54.16H406.059L404.379 54.72ZM407.739 55.28V56.96L404.939 58.08L405.499 55.28L406.619 54.72L407.739 55.28Z" fill="#F4E5C9"/>
<path d="M24.8 390.16L25.92 388.48L27.6 387.36H28.72L29.84 388.48V390.16H30.96L32.08 389.04L31.52 387.92L29.28 386.8H26.48L24.24 387.92L23.12 389.6L22.56 392.4L23.12 395.2L24.24 396.88L26.48 398H29.28L30.96 396.88L32.08 395.2L31.52 394.64L30.96 395.76L29.84 396.88L28.16 397.44L25.92 396.32L24.8 394.64V390.16ZM34.3167 390.72L33.1967 392.96V395.2L34.3167 397.44L35.9967 398H37.1167L38.7967 397.44L39.9167 395.2V392.96L38.7967 390.72L37.1167 390.16H35.9967L34.3167 390.72ZM37.6767 391.28L38.2367 394.08L37.6767 396.88L36.5567 397.44L35.4367 396.88L34.8767 394.08L35.4367 391.28L36.5567 390.72L37.6767 391.28ZM41.8707 387.92V396.88L40.7507 398H44.6707L43.5507 396.88V386.24L40.7507 387.36L41.8707 387.92ZM46.3551 387.92V396.88L45.2351 398H49.1551L48.0351 396.88V386.24L45.2351 387.36L46.3551 387.92ZM51.1195 390.72L49.9995 392.96V395.2L51.1195 397.44L52.7995 398H54.4795L55.5995 397.44L56.7195 396.32L56.1595 395.76L55.0395 396.88L53.9195 397.44L52.2395 396.88L51.6795 394.64L56.1595 393.52L56.7195 392.4L55.5995 390.72L53.9195 390.16H52.7995L51.1195 390.72ZM54.4795 391.28V392.96L51.6795 394.08L52.2395 391.28L53.3595 390.72L54.4795 391.28ZM62.04 392.96H62.6L63.72 391.84L63.16 390.72L61.48 390.16H60.36L58.68 390.72L57.56 392.96V395.2L58.68 397.44L60.36 398H62.04L63.16 397.44L64.28 396.32L63.16 395.76L62.6 396.88L61.48 397.44L59.8 396.88L59.24 394.64V393.52L59.8 391.28L60.92 390.72L62.04 391.28V392.96ZM66.7934 388.48L66.2334 389.6L65.6734 390.16L64.5534 390.72V391.28L65.6734 391.84V396.32L66.7934 398H67.3534L68.4734 397.44L69.5934 396.32L69.0334 395.76L67.9134 396.88L67.3534 396.32V391.84L69.0334 391.28V390.72H67.3534V388.48H66.7934ZM71.2718 390.72L70.1518 392.96V395.2L71.2718 397.44L72.9518 398H74.0718L75.7518 397.44L76.8718 395.2V392.96L75.7518 390.72L74.0718 390.16H72.9518L71.2718 390.72ZM74.6318 391.28L75.1918 394.08L74.6318 396.88L73.5118 397.44L72.3918 396.88L71.8318 394.08L72.3918 391.28L73.5118 390.72L74.6318 391.28ZM77.8458 391.28L79.5258 391.84V396.88L78.4058 398H82.3258L81.2058 396.88V392.96L82.3258 391.84H82.8858V393.52H83.4458L84.5658 391.84V390.72L83.4458 390.16L82.3258 390.72L80.6458 392.96V392.4L81.2058 390.16L77.8458 391.28ZM90.0296 390.16L89.4696 390.72L88.3496 390.16L86.1096 390.72L85.5496 392.4L86.1096 393.52L89.4696 395.76V396.88L88.3496 397.44L87.2296 396.88L86.1096 395.2H85.5496L86.1096 398L86.6696 397.44L87.7896 398H89.4696L90.5896 397.44L91.1496 395.76L90.5896 394.64L87.2296 392.4V391.84L87.7896 391.28H88.9096L90.0296 392.96H90.5896L90.0296 390.16Z" fill="#F4E5C9"/>
<path d="M648.8 390.16L649.92 388.48L651.6 387.36H652.72L653.84 388.48V390.16H654.96L656.08 389.04L655.52 387.92L653.28 386.8H650.48L648.24 387.92L647.12 389.6L646.56 392.4L647.12 395.2L648.24 396.88L650.48 398H653.28L654.96 396.88L656.08 395.2L655.52 394.64L654.96 395.76L653.84 396.88L652.16 397.44L649.92 396.32L648.8 394.64V390.16ZM658.317 390.72L657.197 392.96V395.2L658.317 397.44L659.997 398H661.117L662.797 397.44L663.917 395.2V392.96L662.797 390.72L661.117 390.16H659.997L658.317 390.72ZM661.677 391.28L662.237 394.08L661.677 396.88L660.557 397.44L659.437 396.88L658.877 394.08L659.437 391.28L660.557 390.72L661.677 391.28ZM665.871 387.92V396.88L664.751 398H668.671L667.551 396.88V386.24L664.751 387.36L665.871 387.92ZM670.355 387.92V396.88L669.235 398H673.155L672.035 396.88V386.24L669.235 387.36L670.355 387.92ZM675.119 390.72L673.999 392.96V395.2L675.119 397.44L676.799 398H678.479L679.599 397.44L680.719 396.32L680.159 395.76L679.039 396.88L677.919 397.44L676.239 396.88L675.679 394.64L680.159 393.52L680.719 392.4L679.599 390.72L677.919 390.16H676.799L675.119 390.72ZM678.479 391.28V392.96L675.679 394.08L676.239 391.28L677.359 390.72L678.479 391.28ZM686.04 392.96H686.6L687.72 391.84L687.16 390.72L685.48 390.16H684.36L682.68 390.72L681.56 392.96V395.2L682.68 397.44L684.36 398H686.04L687.16 397.44L688.28 396.32L687.16 395.76L686.6 396.88L685.48 397.44L683.8 396.88L683.24 394.64V393.52L683.8 391.28L684.92 390.72L686.04 391.28V392.96ZM690.793 388.48L690.233 389.6L689.673 390.16L688.553 390.72V391.28L689.673 391.84V396.32L690.793 398H691.353L692.473 397.44L693.593 396.32L693.033 395.76L691.913 396.88L691.353 396.32V391.84L693.033 391.28V390.72H691.353V388.48H690.793ZM695.272 390.72L694.152 392.96V395.2L695.272 397.44L696.952 398H698.072L699.752 397.44L700.872 395.2V392.96L699.752 390.72L698.072 390.16H696.952L695.272 390.72ZM698.632 391.28L699.192 394.08L698.632 396.88L697.512 397.44L696.392 396.88L695.832 394.08L696.392 391.28L697.512 390.72L698.632 391.28ZM701.846 391.28L703.526 391.84V396.88L702.406 398H706.326L705.206 396.88V392.96L706.326 391.84H706.886V393.52H707.446L708.566 391.84V390.72L707.446 390.16L706.326 390.72L704.646 392.96V392.4L705.206 390.16L701.846 391.28ZM714.03 390.16L713.47 390.72L712.35 390.16L710.11 390.72L709.55 392.4L710.11 393.52L713.47 395.76V396.88L712.35 397.44L711.23 396.88L710.11 395.2H709.55L710.11 398L710.67 397.44L711.79 398H713.47L714.59 397.44L715.15 395.76L714.59 394.64L711.23 392.4V391.84L711.79 391.28H712.91L714.03 392.96H714.59L714.03 390.16Z" fill="#F4E5C9"/>
<path d="M336.8 729.16L337.92 727.48L339.6 726.36H340.72L341.84 727.48V729.16H342.96L344.08 728.04L343.52 726.92L341.28 725.8H338.48L336.24 726.92L335.12 728.6L334.56 731.4L335.12 734.2L336.24 735.88L338.48 737H341.28L342.96 735.88L344.08 734.2L343.52 733.64L342.96 734.76L341.84 735.88L340.16 736.44L337.92 735.32L336.8 733.64V729.16ZM346.317 729.72L345.197 731.96V734.2L346.317 736.44L347.997 737H349.117L350.797 736.44L351.917 734.2V731.96L350.797 729.72L349.117 729.16H347.997L346.317 729.72ZM349.677 730.28L350.237 733.08L349.677 735.88L348.557 736.44L347.437 735.88L346.877 733.08L347.437 730.28L348.557 729.72L349.677 730.28ZM353.871 726.92V735.88L352.751 737H356.671L355.551 735.88V725.24L352.751 726.36L353.871 726.92ZM358.355 726.92V735.88L357.235 737H361.155L360.035 735.88V725.24L357.235 726.36L358.355 726.92ZM363.119 729.72L361.999 731.96V734.2L363.119 736.44L364.799 737H366.479L367.599 736.44L368.719 735.32L368.159 734.76L367.039 735.88L365.919 736.44L364.239 735.88L363.679 733.64L368.159 732.52L368.719 731.4L367.599 729.72L365.919 729.16H364.799L363.119 729.72ZM366.479 730.28V731.96L363.679 733.08L364.239 730.28L365.359 729.72L366.479 730.28ZM374.04 731.96H374.6L375.72 730.84L375.16 729.72L373.48 729.16H372.36L370.68 729.72L369.56 731.96V734.2L370.68 736.44L372.36 737H374.04L375.16 736.44L376.28 735.32L375.16 734.76L374.6 735.88L373.48 736.44L371.8 735.88L371.24 733.64V732.52L371.8 730.28L372.92 729.72L374.04 730.28V731.96ZM378.793 727.48L378.233 728.6L377.673 729.16L376.553 729.72V730.28L377.673 730.84V735.32L378.793 737H379.353L380.473 736.44L381.593 735.32L381.033 734.76L379.913 735.88L379.353 735.32V730.84L381.033 730.28V729.72H379.353V727.48H378.793ZM383.272 729.72L382.152 731.96V734.2L383.272 736.44L384.952 737H386.072L387.752 736.44L388.872 734.2V731.96L387.752 729.72L386.072 729.16H384.952L383.272 729.72ZM386.632 730.28L387.192 733.08L386.632 735.88L385.512 736.44L384.392 735.88L383.832 733.08L384.392 730.28L385.512 729.72L386.632 730.28ZM389.846 730.28L391.526 730.84V735.88L390.406 737H394.326L393.206 735.88V731.96L394.326 730.84H394.886V732.52H395.446L396.566 730.84V729.72L395.446 729.16L394.326 729.72L392.646 731.96V731.4L393.206 729.16L389.846 730.28ZM402.03 729.16L401.47 729.72L400.35 729.16L398.11 729.72L397.55 731.4L398.11 732.52L401.47 734.76V735.88L400.35 736.44L399.23 735.88L398.11 734.2H397.55L398.11 737L398.67 736.44L399.79 737H401.47L402.59 736.44L403.15 734.76L402.59 733.64L399.23 731.4V730.84L399.79 730.28H400.91L402.03 731.96H402.59L402.03 729.16Z" fill="#F4E5C9"/>
<path d="M131.443 331.88L132.241 329.64H136.245L137.043 331.88L136.483 333H139.843L138.723 331.88L134.803 321.24L133.683 322.36V322.92L130.323 331.88L129.203 333H132.563L131.443 331.88ZM136.035 329.08H132.437L134.243 324.04L136.035 329.08ZM140.26 326.28L141.94 326.84V331.88L140.82 333H144.74L143.62 331.88V327.96L144.74 326.84H145.3V328.52H145.86L146.98 326.84V325.72L145.86 325.16L144.74 325.72L143.06 327.96V327.4L143.62 325.16L140.26 326.28ZM149.784 323.48L149.224 324.6L148.664 325.16L147.544 325.72V326.28L148.664 326.84V331.32L149.784 333H150.344L151.464 332.44L152.584 331.32L152.024 330.76L150.904 331.88L150.344 331.32V326.84L152.024 326.28V325.72H150.344V323.48H149.784ZM154.262 326.84V331.88L153.142 333H157.062L155.942 331.88V325.16L153.142 326.28L154.262 326.84ZM155.382 324.04L155.942 322.92V322.36L154.822 321.8H154.262L153.702 322.92V323.48L154.822 324.04H155.382ZM160.707 322.92L161.267 321.8L162.387 322.36L161.827 323.48L162.947 324.04L163.507 323.48V321.8L161.267 321.24L160.147 321.8L159.587 322.36L159.027 323.48V325.72H158.467V326.28L159.027 326.84V331.88L157.907 333H161.827L160.707 331.88V326.84L161.827 326.28H162.387V325.72H160.707V322.92ZM164.045 326.28L165.165 327.4L165.725 326.28H166.845L167.405 326.84V327.96L164.605 328.52L163.485 329.08L162.925 330.76L164.045 332.44L165.165 333H166.285L167.965 331.88L168.525 333H169.085L170.205 331.88V331.32L169.085 331.88V326.84L168.525 325.72L166.285 325.16L164.045 326.28ZM167.405 330.76L166.845 331.88L165.725 332.44L164.605 330.76L165.165 329.64L167.405 328.52V330.76ZM175.245 327.96H175.805L176.925 326.84L176.365 325.72L174.685 325.16H173.565L171.885 325.72L170.765 327.96V330.2L171.885 332.44L173.565 333H175.245L176.365 332.44L177.485 331.32L176.365 330.76L175.805 331.88L174.685 332.44L173.005 331.88L172.445 329.64V328.52L173.005 326.28L174.125 325.72L175.245 326.28V327.96ZM179.999 323.48L179.439 324.6L178.879 325.16L177.759 325.72V326.28L178.879 326.84V331.32L179.999 333H180.559L181.679 332.44L182.799 331.32L182.239 330.76L181.119 331.88L180.559 331.32V326.84L182.239 326.28V325.72H180.559V323.48H179.999ZM145.432 341.24L144.312 341.8L141.512 341.24L139.832 342.36L139.272 344.04L139.832 345.72L143.752 349.08L144.872 350.2V351.32L144.312 351.88L143.192 352.44H141.512L139.832 349.78H139.272L139.832 353.56L140.952 353L143.752 353.56L145.992 352.44L146.552 350.2L145.992 348.52L142.072 345.16L140.952 344.04L141.512 342.92L142.072 342.36H143.752L145.432 344.6H145.992L145.432 341.24ZM148.506 346.28L149.626 347.4L150.186 346.28H151.306L151.866 346.84V347.96L149.066 348.52L147.946 349.08L147.386 350.76L148.506 352.44L149.626 353H150.746L152.426 351.88L152.986 353H153.546L154.666 351.88V351.32L153.546 351.88V346.84L152.986 345.72L150.746 345.16L148.506 346.28ZM151.866 350.76L151.306 351.88L150.186 352.44L149.066 350.76L149.626 349.64L151.866 348.52V350.76ZM156.067 342.92V351.88L154.947 353H158.867L157.747 351.88V341.24L154.947 342.36L156.067 342.92ZM160.831 345.72L159.711 347.96V350.2L160.831 352.44L162.511 353H164.191L165.311 352.44L166.431 351.32L165.871 350.76L164.751 351.88L163.631 352.44L161.951 351.88L161.391 349.64L165.871 348.52L166.431 347.4L165.311 345.72L163.631 345.16H162.511L160.831 345.72ZM164.191 346.28V347.96L161.391 349.08L161.951 346.28L163.071 345.72L164.191 346.28ZM171.892 345.16L171.332 345.72L170.212 345.16L167.972 345.72L167.412 347.4L167.972 348.52L171.332 350.76V351.88L170.212 352.44L169.092 351.88L167.972 350.2H167.412L167.972 353L168.532 352.44L169.652 353H171.332L172.452 352.44L173.012 350.76L172.452 349.64L169.092 347.4V346.84L169.652 346.28H170.772L171.892 347.96H172.452L171.892 345.16Z" fill="#F4E5C9"/>
<path d="M289.602 609.92L290.722 608.8H286.802L287.922 609.92V618.88L286.802 620H290.722L289.602 618.88V609.92ZM295.767 620L294.647 618.88V614.96L296.327 613.28H297.447L298.007 613.84V618.88L296.887 620H300.807L299.687 618.88V613.84L299.127 612.72L296.887 612.16L295.767 612.72L294.087 614.4L294.647 612.16L291.847 613.28L292.967 613.84V618.88L291.847 620H295.767ZM304.163 609.92L305.283 608.8L306.963 609.36L306.403 610.48L308.083 611.04L308.643 609.92L308.083 608.8L305.283 608.24L303.603 608.8L303.043 609.36L302.483 610.48V612.72H301.923V613.28L302.483 613.84V618.88L301.363 620H305.283L304.163 618.88V613.84L305.283 613.28H305.843L306.963 613.84V618.88L305.843 620H309.763L308.643 618.88V612.72H304.163V609.92ZM314.798 620L313.678 618.88V614.96L315.358 613.28H316.478L317.038 613.84V618.88L315.918 620H319.838L318.718 618.88V613.84L318.158 612.72L315.918 612.16L314.798 612.72L313.118 614.4L313.678 612.16L310.878 613.28L311.998 613.84V618.88L310.878 620H314.798ZM321.514 613.84V618.88L320.394 620H324.314L323.194 618.88V612.16L320.394 613.28L321.514 613.84ZM322.634 611.04L323.194 609.92V609.36L322.074 608.8H321.514L320.954 609.92V610.48L322.074 611.04H322.634ZM327.399 610.48L326.839 611.6L326.279 612.16L325.159 612.72V613.28L326.279 613.84V618.32L327.399 620H327.959L329.079 619.44L330.199 618.32L329.639 617.76L328.519 618.88L327.959 618.32V613.84L329.639 613.28V612.72H327.959V610.48H327.399ZM331.877 612.72L330.757 614.96V617.2L331.877 619.44L333.557 620H335.237L336.357 619.44L337.477 618.32L336.917 617.76L335.797 618.88L334.677 619.44L332.997 618.88L332.437 616.64L336.917 615.52L337.477 614.4L336.357 612.72L334.677 612.16H333.557L331.877 612.72ZM335.237 613.28V614.96L332.437 616.08L332.997 613.28L334.117 612.72L335.237 613.28ZM287.443 638.88L288.241 636.64H292.245L293.043 638.88L292.483 640H295.843L294.723 638.88L290.803 628.24L289.683 629.36V629.92L286.323 638.88L285.203 640H288.563L287.443 638.88ZM292.035 636.08H288.437L290.243 631.04L292.035 636.08ZM296.26 633.28L297.94 633.84V638.88L296.82 640H300.74L299.62 638.88V634.96L300.74 633.84H301.3V635.52H301.86L302.98 633.84V632.72L301.86 632.16L300.74 632.72L299.06 634.96V634.4L299.62 632.16L296.26 633.28ZM305.784 630.48L305.224 631.6L304.664 632.16L303.544 632.72V633.28L304.664 633.84V638.32L305.784 640H306.344L307.464 639.44L308.584 638.32L308.024 637.76L306.904 638.88L306.344 638.32V633.84L308.024 633.28V632.72H306.344V630.48H305.784ZM310.262 633.84V638.88L309.142 640H313.062L311.942 638.88V632.16L309.142 633.28L310.262 633.84ZM311.382 631.04L311.942 629.92V629.36L310.822 628.8H310.262L309.702 629.92V630.48L310.822 631.04H311.382ZM316.707 629.92L317.267 628.8L318.387 629.36L317.827 630.48L318.947 631.04L319.507 630.48V628.8L317.267 628.24L316.147 628.8L315.587 629.36L315.027 630.48V632.72H314.467V633.28L315.027 633.84V638.88L313.907 640H317.827L316.707 638.88V633.84L317.827 633.28H318.387V632.72H316.707V629.92ZM320.045 633.28L321.165 634.4L321.725 633.28H322.845L323.405 633.84V634.96L320.605 635.52L319.485 636.08L318.925 637.76L320.045 639.44L321.165 640H322.285L323.965 638.88L324.525 640H325.085L326.205 638.88V638.32L325.085 638.88V633.84L324.525 632.72L322.285 632.16L320.045 633.28ZM323.405 637.76L322.845 638.88L321.725 639.44L320.605 637.76L321.165 636.64L323.405 635.52V637.76ZM331.245 634.96H331.805L332.925 633.84L332.365 632.72L330.685 632.16H329.565L327.885 632.72L326.765 634.96V637.2L327.885 639.44L329.565 640H331.245L332.365 639.44L333.485 638.32L332.365 637.76L331.805 638.88L330.685 639.44L329.005 638.88L328.445 636.64V635.52L329.005 633.28L330.125 632.72L331.245 633.28V634.96ZM335.999 630.48L335.439 631.6L334.879 632.16L333.759 632.72V633.28L334.879 633.84V638.32L335.999 640H336.559L337.679 639.44L338.799 638.32L338.239 637.76L337.119 638.88L336.559 638.32V633.84L338.239 633.28V632.72H336.559V630.48H335.999ZM301.432 648.24L300.312 648.8L297.512 648.24L295.832 649.36L295.272 651.04L295.832 652.72L299.752 656.08L300.872 657.2V658.32L300.312 658.88L299.192 659.44H297.512L295.832 656.78H295.272L295.832 660.56L296.952 660L299.752 660.56L301.992 659.44L302.552 657.2L301.992 655.52L298.072 652.16L296.952 651.04L297.512 649.92L298.072 649.36H299.752L301.432 651.6H301.992L301.432 648.24ZM304.506 653.28L305.626 654.4L306.186 653.28H307.306L307.866 653.84V654.96L305.066 655.52L303.946 656.08L303.386 657.76L304.506 659.44L305.626 660H306.746L308.426 658.88L308.986 660H309.546L310.666 658.88V658.32L309.546 658.88V653.84L308.986 652.72L306.746 652.16L304.506 653.28ZM307.866 657.76L307.306 658.88L306.186 659.44L305.066 657.76L305.626 656.64L307.866 655.52V657.76ZM312.067 649.92V658.88L310.947 660H314.867L313.747 658.88V648.24L310.947 649.36L312.067 649.92ZM316.831 652.72L315.711 654.96V657.2L316.831 659.44L318.511 660H320.191L321.311 659.44L322.431 658.32L321.871 657.76L320.751 658.88L319.631 659.44L317.951 658.88L317.391 656.64L321.871 655.52L322.431 654.4L321.311 652.72L319.631 652.16H318.511L316.831 652.72ZM320.191 653.28V654.96L317.391 656.08L317.951 653.28L319.071 652.72L320.191 653.28ZM327.892 652.16L327.332 652.72L326.212 652.16L323.972 652.72L323.412 654.4L323.972 655.52L327.332 657.76V658.88L326.212 659.44L325.092 658.88L323.972 657.2H323.412L323.972 660L324.532 659.44L325.652 660H327.332L328.452 659.44L329.012 657.76L328.452 656.64L325.092 654.4V653.84L325.652 653.28H326.772L327.892 654.96H328.452L327.892 652.16Z" fill="#F4E5C9"/>
<path d="M402.602 605.92L403.722 604.8H399.802L400.922 605.92V614.88L399.802 616H403.722L402.602 614.88V605.92ZM408.767 616L407.647 614.88V610.96L409.327 609.28H410.447L411.007 609.84V614.88L409.887 616H413.807L412.687 614.88V609.84L412.127 608.72L409.887 608.16L408.767 608.72L407.087 610.4L407.647 608.16L404.847 609.28L405.967 609.84V614.88L404.847 616H408.767ZM417.163 605.92L418.283 604.8L419.963 605.36L419.403 606.48L421.083 607.04L421.643 605.92L421.083 604.8L418.283 604.24L416.603 604.8L416.043 605.36L415.483 606.48V608.72H414.923V609.28L415.483 609.84V614.88L414.363 616H418.283L417.163 614.88V609.84L418.283 609.28H418.843L419.963 609.84V614.88L418.843 616H422.763L421.643 614.88V608.72H417.163V605.92ZM427.798 616L426.678 614.88V610.96L428.358 609.28H429.478L430.038 609.84V614.88L428.918 616H432.838L431.718 614.88V609.84L431.158 608.72L428.918 608.16L427.798 608.72L426.118 610.4L426.678 608.16L423.878 609.28L424.998 609.84V614.88L423.878 616H427.798ZM434.514 609.84V614.88L433.394 616H437.314L436.194 614.88V608.16L433.394 609.28L434.514 609.84ZM435.634 607.04L436.194 605.92V605.36L435.074 604.8H434.514L433.954 605.92V606.48L435.074 607.04H435.634ZM440.399 606.48L439.839 607.6L439.279 608.16L438.159 608.72V609.28L439.279 609.84V614.32L440.399 616H440.959L442.079 615.44L443.199 614.32L442.639 613.76L441.519 614.88L440.959 614.32V609.84L442.639 609.28V608.72H440.959V606.48H440.399ZM444.877 608.72L443.757 610.96V613.2L444.877 615.44L446.557 616H448.237L449.357 615.44L450.477 614.32L449.917 613.76L448.797 614.88L447.677 615.44L445.997 614.88L445.437 612.64L449.917 611.52L450.477 610.4L449.357 608.72L447.677 608.16H446.557L444.877 608.72ZM448.237 609.28V610.96L445.437 612.08L445.997 609.28L447.117 608.72L448.237 609.28ZM405.902 631.52L408.702 630.4L409.822 627.6L408.702 625.36L405.902 624.8H400.862L401.982 625.92V634.88L400.862 636H404.782L403.662 634.88V630.96L405.902 631.52ZM405.902 625.36L407.022 625.92L407.582 627.6L407.022 629.84L405.342 630.4H403.662V625.92L404.222 625.36H405.902ZM410.442 629.28L412.122 629.84V634.88L411.002 636H414.922L413.802 634.88V630.96L414.922 629.84H415.482V631.52H416.042L417.162 629.84V628.72L416.042 628.16L414.922 628.72L413.242 630.96V630.4L413.802 628.16L410.442 629.28ZM418.894 628.72L417.774 630.96V633.2L418.894 635.44L420.574 636H421.694L423.374 635.44L424.494 633.2V630.96L423.374 628.72L421.694 628.16H420.574L418.894 628.72ZM422.254 629.28L422.814 632.08L422.254 634.88L421.134 635.44L420.014 634.88L419.454 632.08L420.014 629.28L421.134 628.72L422.254 629.28ZM426.728 629.84V636.56L426.168 638.24L424.488 639.92L425.048 640.48L427.288 638.8L428.408 636.56V628.16L425.608 629.28L426.728 629.84ZM427.848 627.04L428.408 625.92V625.36L427.288 624.8H426.728L426.168 625.92V626.48L427.288 627.04H427.848ZM431.226 628.72L430.106 630.96V633.2L431.226 635.44L432.906 636H434.586L435.706 635.44L436.826 634.32L436.266 633.76L435.146 634.88L434.026 635.44L432.346 634.88L431.786 632.64L436.266 631.52L436.826 630.4L435.706 628.72L434.026 628.16H432.906L431.226 628.72ZM434.586 629.28V630.96L431.786 632.08L432.346 629.28L433.466 628.72L434.586 629.28ZM442.146 630.96H442.706L443.826 629.84L443.266 628.72L441.586 628.16H440.466L438.786 628.72L437.666 630.96V633.2L438.786 635.44L440.466 636H442.146L443.266 635.44L444.386 634.32L443.266 633.76L442.706 634.88L441.586 635.44L439.906 634.88L439.346 632.64V631.52L439.906 629.28L441.026 628.72L442.146 629.28V630.96ZM446.9 626.48L446.34 627.6L445.78 628.16L444.66 628.72V629.28L445.78 629.84V634.32L446.9 636H447.46L448.58 635.44L449.7 634.32L449.14 633.76L448.02 634.88L447.46 634.32V629.84L449.14 629.28V628.72H447.46V626.48H446.9ZM392.059 651.52L394.859 650.4L395.979 647.6L394.859 645.36L392.059 644.8H387.019L388.139 645.92V654.88L387.019 656H390.939L389.819 654.88V650.96L392.059 651.52ZM392.059 645.36L393.179 645.92L393.739 647.6L393.179 649.84L391.499 650.4H389.819V645.92L390.379 645.36H392.059ZM396.6 649.28L398.28 649.84V654.88L397.16 656H401.08L399.96 654.88V650.96L401.08 649.84H401.64V651.52H402.2L403.32 649.84V648.72L402.2 648.16L401.08 648.72L399.4 650.96V650.4L399.96 648.16L396.6 649.28ZM405.051 648.72L403.931 650.96V653.2L405.051 655.44L406.731 656H407.851L409.531 655.44L410.651 653.2V650.96L409.531 648.72L407.851 648.16H406.731L405.051 648.72ZM408.411 649.28L408.971 652.08L408.411 654.88L407.291 655.44L406.171 654.88L405.611 652.08L406.171 649.28L407.291 648.72L408.411 649.28ZM415.685 645.36L416.805 645.92V648.72L415.685 648.16H414.565L412.885 648.72L411.765 650.96V653.2L412.885 655.44L414.565 656H415.685L416.805 655.44L417.365 654.88L417.925 656H419.045L420.165 654.88V654.32L419.045 654.88H418.485V644.24L415.685 645.36ZM416.245 649.28L416.805 650.4V653.76L416.245 654.88L415.125 655.44L414.005 654.88L413.445 652.08L414.005 649.28L415.125 648.72L416.245 649.28ZM428.56 654.32L427.44 654.88V648.16L424.64 648.72L425.76 649.28V653.2L425.2 654.32L424.64 654.88H423.52L422.96 654.32V648.16L420.16 648.72L421.28 649.28V654.32L421.84 655.44L423.52 656H424.64L426.32 654.88L426.88 656H427.44L428.56 654.88V654.32ZM433.595 650.96H434.155L435.275 649.84L434.715 648.72L433.035 648.16H431.915L430.235 648.72L429.115 650.96V653.2L430.235 655.44L431.915 656H433.595L434.715 655.44L435.835 654.32L434.715 653.76L434.155 654.88L433.035 655.44L431.355 654.88L430.795 652.64V651.52L431.355 649.28L432.475 648.72L433.595 649.28V650.96ZM438.348 646.48L437.788 647.6L437.228 648.16L436.108 648.72V649.28L437.228 649.84V654.32L438.348 656H438.908L440.028 655.44L441.148 654.32L440.588 653.76L439.468 654.88L438.908 654.32V649.84L440.588 649.28V648.72H438.908V646.48H438.348ZM442.826 649.84V654.88L441.706 656H445.626L444.506 654.88V648.16L441.706 649.28L442.826 649.84ZM443.946 647.04L444.506 645.92V645.36L443.386 644.8H442.826L442.266 645.92V646.48L443.386 647.04H443.946ZM447.871 648.72L446.751 650.96V653.2L447.871 655.44L449.551 656H450.671L452.351 655.44L453.471 653.2V650.96L452.351 648.72L450.671 648.16H449.551L447.871 648.72ZM451.231 649.28L451.791 652.08L451.231 654.88L450.111 655.44L448.991 654.88L448.431 652.08L448.991 649.28L450.111 648.72L451.231 649.28ZM458.505 656L457.385 654.88V650.96L459.065 649.28H460.185L460.745 649.84V654.88L459.625 656H463.545L462.425 654.88V649.84L461.865 648.72L459.625 648.16L458.505 648.72L456.825 650.4L457.385 648.16L454.585 649.28L455.705 649.84V654.88L454.585 656H458.505Z" fill="#F4E5C9"/>
<path d="M558.735 335.16L559.855 333.48L561.535 332.36H562.655L563.775 333.48V335.16H564.895L566.015 334.04L565.455 332.92L563.215 331.8H560.415L558.175 332.92L557.055 334.6L556.495 337.4L557.055 340.2L558.175 341.88L560.415 343H563.215L564.895 342.44L566.015 341.88V339.08L567.135 337.96H563.215L564.335 339.08V341.32L563.775 341.88L562.095 342.44L559.855 341.32L558.735 339.64V335.16ZM567.088 336.28L568.768 336.84V341.88L567.648 343H571.568L570.448 341.88V337.96L571.568 336.84H572.128V338.52H572.688L573.808 336.84V335.72L572.688 335.16L571.568 335.72L569.888 337.96V337.4L570.448 335.16L567.088 336.28ZM575.054 336.28L576.174 337.4L576.734 336.28H577.854L578.414 336.84V337.96L575.614 338.52L574.494 339.08L573.934 340.76L575.054 342.44L576.174 343H577.294L578.974 341.88L579.534 343H580.094L581.214 341.88V341.32L580.094 341.88V336.84L579.534 335.72L577.294 335.16L575.054 336.28ZM578.414 340.76L577.854 341.88L576.734 342.44L575.614 340.76L576.174 339.64L578.414 338.52V340.76ZM585.695 343L584.575 341.88V337.96L586.255 336.28H587.375L587.935 336.84V341.88L586.815 343H590.735L589.615 341.88V336.84L589.055 335.72L586.815 335.16L585.695 335.72L584.015 337.4L584.575 335.16L581.775 336.28L582.895 336.84V341.88L581.775 343H585.695ZM593.25 333.48L592.69 334.6L592.13 335.16L591.01 335.72V336.28L592.13 336.84V341.32L593.25 343H593.81L594.93 342.44L596.05 341.32L595.49 340.76L594.37 341.88L593.81 341.32V336.84L595.49 336.28V335.72H593.81V333.48H593.25ZM601.229 335.16L600.669 335.72L599.549 335.16L597.309 335.72L596.749 337.4L597.309 338.52L600.669 340.76V341.88L599.549 342.44L598.429 341.88L597.309 340.2H596.749L597.309 343L597.869 342.44L598.989 343H600.669L601.789 342.44L602.349 340.76L601.789 339.64L598.429 337.4V336.84L598.989 336.28H600.109L601.229 337.96H601.789L601.229 335.16Z" fill="#F4E5C9"/>
<path d="M130.95 438.16L132.07 436.48L133.75 435.36H134.87L135.99 436.48V438.16H137.11L138.23 437.04L137.67 435.92L135.43 434.8H132.63L130.39 435.92L129.27 437.6L128.71 440.4L129.27 443.2L130.39 444.88L132.63 446H135.43L137.11 444.88L138.23 443.2L137.67 442.64L137.11 443.76L135.99 444.88L134.31 445.44L132.07 444.32L130.95 442.64V438.16ZM140.467 438.72L139.347 440.96V443.2L140.467 445.44L142.147 446H143.267L144.947 445.44L146.067 443.2V440.96L144.947 438.72L143.267 438.16H142.147L140.467 438.72ZM143.827 439.28L144.387 442.08L143.827 444.88L142.707 445.44L141.587 444.88L141.027 442.08L141.587 439.28L142.707 438.72L143.827 439.28ZM151.101 446L149.981 444.88V440.96L151.661 439.28H152.781L153.341 439.84V444.88L152.221 446H156.141L155.021 444.88V439.84L154.461 438.72L152.221 438.16L151.101 438.72L149.421 440.4L149.981 438.16L147.181 439.28L148.301 439.84V444.88L147.181 446H151.101ZM158.657 436.48L158.097 437.6L157.537 438.16L156.417 438.72V439.28L157.537 439.84V444.32L158.657 446H159.217L160.337 445.44L161.457 444.32L160.897 443.76L159.777 444.88L159.217 444.32V439.84L160.897 439.28V438.72H159.217V436.48H158.657ZM163.135 438.72L162.015 440.96V443.2L163.135 445.44L164.815 446H166.495L167.615 445.44L168.735 444.32L168.175 443.76L167.055 444.88L165.935 445.44L164.255 444.88L163.695 442.64L168.175 441.52L168.735 440.4L167.615 438.72L165.935 438.16H164.815L163.135 438.72ZM166.495 439.28V440.96L163.695 442.08L164.255 439.28L165.375 438.72L166.495 439.28ZM173.496 446L172.376 444.88V440.96L174.056 439.28H175.176L175.736 439.84V444.88L174.616 446H178.536L177.416 444.88V439.84L176.856 438.72L174.616 438.16L173.496 438.72L171.816 440.4L172.376 438.16L169.576 439.28L170.696 439.84V444.88L169.576 446H173.496ZM181.051 436.48L180.491 437.6L179.931 438.16L178.811 438.72V439.28L179.931 439.84V444.32L181.051 446H181.611L182.731 445.44L183.851 444.32L183.291 443.76L182.171 444.88L181.611 444.32V439.84L183.291 439.28V438.72H181.611V436.48H181.051ZM123.059 461.52L125.859 460.4L126.979 457.6L125.859 455.36L123.059 454.8H118.019L119.139 455.92V464.88L118.019 466H121.939L120.819 464.88V460.96L123.059 461.52ZM123.059 455.36L124.179 455.92L124.739 457.6L124.179 459.84L122.499 460.4H120.819V455.92L121.379 455.36H123.059ZM127.6 459.28L129.28 459.84V464.88L128.16 466H132.08L130.96 464.88V460.96L132.08 459.84H132.64V461.52H133.2L134.32 459.84V458.72L133.2 458.16L132.08 458.72L130.4 460.96V460.4L130.96 458.16L127.6 459.28ZM136.051 458.72L134.931 460.96V463.2L136.051 465.44L137.731 466H138.851L140.531 465.44L141.651 463.2V460.96L140.531 458.72L138.851 458.16H137.731L136.051 458.72ZM139.411 459.28L139.971 462.08L139.411 464.88L138.291 465.44L137.171 464.88L136.611 462.08L137.171 459.28L138.291 458.72L139.411 459.28ZM146.685 455.36L147.805 455.92V458.72L146.685 458.16H145.565L143.885 458.72L142.765 460.96V463.2L143.885 465.44L145.565 466H146.685L147.805 465.44L148.365 464.88L148.925 466H150.045L151.165 464.88V464.32L150.045 464.88H149.485V454.24L146.685 455.36ZM147.245 459.28L147.805 460.4V463.76L147.245 464.88L146.125 465.44L145.005 464.88L144.445 462.08L145.005 459.28L146.125 458.72L147.245 459.28ZM159.56 464.32L158.44 464.88V458.16L155.64 458.72L156.76 459.28V463.2L156.2 464.32L155.64 464.88H154.52L153.96 464.32V458.16L151.16 458.72L152.28 459.28V464.32L152.84 465.44L154.52 466H155.64L157.32 464.88L157.88 466H158.44L159.56 464.88V464.32ZM164.595 460.96H165.155L166.275 459.84L165.715 458.72L164.035 458.16H162.915L161.235 458.72L160.115 460.96V463.2L161.235 465.44L162.915 466H164.595L165.715 465.44L166.835 464.32L165.715 463.76L165.155 464.88L164.035 465.44L162.355 464.88L161.795 462.64V461.52L162.355 459.28L163.475 458.72L164.595 459.28V460.96ZM169.348 456.48L168.788 457.6L168.228 458.16L167.108 458.72V459.28L168.228 459.84V464.32L169.348 466H169.908L171.028 465.44L172.148 464.32L171.588 463.76L170.468 464.88L169.908 464.32V459.84L171.588 459.28V458.72H169.908V456.48H169.348ZM173.826 459.84V464.88L172.706 466H176.626L175.506 464.88V458.16L172.706 459.28L173.826 459.84ZM174.946 457.04L175.506 455.92V455.36L174.386 454.8H173.826L173.266 455.92V456.48L174.386 457.04H174.946ZM178.871 458.72L177.751 460.96V463.2L178.871 465.44L180.551 466H181.671L183.351 465.44L184.471 463.2V460.96L183.351 458.72L181.671 458.16H180.551L178.871 458.72ZM182.231 459.28L182.791 462.08L182.231 464.88L181.111 465.44L179.991 464.88L179.431 462.08L179.991 459.28L181.111 458.72L182.231 459.28ZM189.505 466L188.385 464.88V460.96L190.065 459.28H191.185L191.745 459.84V464.88L190.625 466H194.545L193.425 464.88V459.84L192.865 458.72L190.625 458.16L189.505 458.72L187.825 460.4L188.385 458.16L185.585 459.28L186.705 459.84V464.88L185.585 466H189.505Z" fill="#F4E5C9"/>
<path d="M558.141 438.16L559.261 436.48L560.941 435.36H562.061L563.181 436.48V438.16H564.301L565.421 437.04L564.861 435.92L562.621 434.8H559.821L557.581 435.92L556.461 437.6L555.901 440.4L556.461 443.2L557.581 444.88L559.821 446H562.621L564.301 444.88L565.421 443.2L564.861 442.64L564.301 443.76L563.181 444.88L561.501 445.44L559.261 444.32L558.141 442.64V438.16ZM567.658 438.72L566.538 440.96V443.2L567.658 445.44L569.338 446H570.458L572.138 445.44L573.258 443.2V440.96L572.138 438.72L570.458 438.16H569.338L567.658 438.72ZM571.018 439.28L571.578 442.08L571.018 444.88L569.898 445.44L568.778 444.88L568.218 442.08L568.778 439.28L569.898 438.72L571.018 439.28ZM575.212 435.92V444.88L574.092 446H578.012L576.892 444.88V440.96L578.012 439.28H579.132L579.692 439.84V444.88L578.572 446H582.492L581.372 444.88V439.84L580.812 438.72L578.572 438.16L577.452 438.72L576.892 439.84V434.24L574.092 435.36L575.212 435.92ZM583.763 438.72L582.643 440.96V443.2L583.763 445.44L585.443 446H586.563L588.243 445.44L589.363 443.2V440.96L588.243 438.72L586.563 438.16H585.443L583.763 438.72ZM587.123 439.28L587.683 442.08L587.123 444.88L586.003 445.44L584.883 444.88L584.323 442.08L584.883 439.28L586.003 438.72L587.123 439.28ZM590.337 439.28L592.017 439.84V444.88L590.897 446H594.817L593.697 444.88V440.96L594.817 439.84H595.377V441.52H595.937L597.057 439.84V438.72L595.937 438.16L594.817 438.72L593.137 440.96V440.4L593.697 438.16L590.337 439.28ZM599.861 436.48L599.301 437.6L598.741 438.16L597.621 438.72V439.28L598.741 439.84V444.32L599.861 446H600.421L601.541 445.44L602.661 444.32L602.101 443.76L600.981 444.88L600.421 444.32V439.84L602.101 439.28V438.72H600.421V436.48H599.861ZM547.661 455.92L548.781 454.8H544.861L545.981 455.92V464.88L544.861 466H548.781L547.661 464.88V455.92ZM553.826 466L552.706 464.88V460.96L554.386 459.28H555.506L556.066 459.84V464.88L554.946 466H558.866L557.746 464.88V459.84L557.186 458.72L554.946 458.16L553.826 458.72L552.146 460.4L552.706 458.16L549.906 459.28L551.026 459.84V464.88L549.906 466H553.826ZM560.541 459.84V464.88L559.421 466H563.341L562.221 464.88V458.16L559.421 459.28L560.541 459.84ZM561.661 457.04L562.221 455.92V455.36L561.101 454.8H560.541L559.981 455.92V456.48L561.101 457.04H561.661ZM566.426 456.48L565.866 457.6L565.306 458.16L564.186 458.72V459.28L565.306 459.84V464.32L566.426 466H566.986L568.106 465.44L569.226 464.32L568.666 463.76L567.546 464.88L566.986 464.32V459.84L568.666 459.28V458.72H566.986V456.48H566.426ZM570.905 459.84V464.88L569.785 466H573.705L572.585 464.88V458.16L569.785 459.28L570.905 459.84ZM572.025 457.04L572.585 455.92V455.36L571.465 454.8H570.905L570.345 455.92V456.48L571.465 457.04H572.025ZM575.67 459.28L576.79 460.4L577.35 459.28H578.47L579.03 459.84V460.96L576.23 461.52L575.11 462.08L574.55 463.76L575.67 465.44L576.79 466H577.91L579.59 464.88L580.15 466H580.71L581.83 464.88V464.32L580.71 464.88V459.84L580.15 458.72L577.91 458.16L575.67 459.28ZM579.03 463.76L578.47 464.88L577.35 465.44L576.23 463.76L576.79 462.64L579.03 461.52V463.76ZM584.2 456.48L583.64 457.6L583.08 458.16L581.96 458.72V459.28L583.08 459.84V464.32L584.2 466H584.76L585.88 465.44L587 464.32L586.44 463.76L585.32 464.88L584.76 464.32V459.84L586.44 459.28V458.72H584.76V456.48H584.2ZM588.678 459.84V464.88L587.558 466H591.478L590.358 464.88V458.16L587.558 459.28L588.678 459.84ZM589.798 457.04L590.358 455.92V455.36L589.238 454.8H588.678L588.118 455.92V456.48L589.238 457.04H589.798ZM596.645 464.88L598.885 459.84L600.005 458.72H596.645L597.765 459.84L596.085 464.32L594.405 459.84L595.525 458.72H591.605L592.725 459.84L594.965 466H596.085L596.645 464.88ZM601.243 458.72L600.123 460.96V463.2L601.243 465.44L602.923 466H604.603L605.723 465.44L606.843 464.32L606.283 463.76L605.163 464.88L604.043 465.44L602.363 464.88L601.803 462.64L606.283 461.52L606.843 460.4L605.723 458.72L604.043 458.16H602.923L601.243 458.72ZM604.603 459.28V460.96L601.803 462.08L602.363 459.28L603.483 458.72L604.603 459.28ZM612.303 458.16L611.743 458.72L610.623 458.16L608.383 458.72L607.823 460.4L608.383 461.52L611.743 463.76V464.88L610.623 465.44L609.503 464.88L608.383 463.2H607.823L608.383 466L608.943 465.44L610.063 466H611.743L612.863 465.44L613.423 463.76L612.863 462.64L609.503 460.4V459.84L610.063 459.28H611.183L612.303 460.96H612.863L612.303 458.16Z" fill="#F4E5C9"/>
<path d="M346.602 452.92L347.722 451.8H343.802L344.922 452.92V461.88L343.802 463H347.722L346.602 461.88V452.92ZM352.767 463L351.647 461.88V457.96L353.327 456.28H354.447L355.007 456.84V461.88L353.887 463H357.807L356.687 461.88V456.84L356.127 455.72L353.887 455.16L352.767 455.72L351.087 457.4L351.647 455.16L348.847 456.28L349.967 456.84V461.88L348.847 463H352.767ZM361.163 452.92L362.283 451.8L363.963 452.36L363.403 453.48L365.083 454.04L365.643 452.92L365.083 451.8L362.283 451.24L360.603 451.8L360.043 452.36L359.483 453.48V455.72H358.923V456.28L359.483 456.84V461.88L358.363 463H362.283L361.163 461.88V456.84L362.283 456.28H362.843L363.963 456.84V461.88L362.843 463H366.763L365.643 461.88V455.72H361.163V452.92ZM371.798 463L370.678 461.88V457.96L372.358 456.28H373.478L374.038 456.84V461.88L372.918 463H376.838L375.718 461.88V456.84L375.158 455.72L372.918 455.16L371.798 455.72L370.118 457.4L370.678 455.16L367.878 456.28L368.998 456.84V461.88L367.878 463H371.798ZM378.514 456.84V461.88L377.394 463H381.314L380.194 461.88V455.16L377.394 456.28L378.514 456.84ZM379.634 454.04L380.194 452.92V452.36L379.074 451.8H378.514L377.954 452.92V453.48L379.074 454.04H379.634ZM384.399 453.48L383.839 454.6L383.279 455.16L382.159 455.72V456.28L383.279 456.84V461.32L384.399 463H384.959L386.079 462.44L387.199 461.32L386.639 460.76L385.519 461.88L384.959 461.32V456.84L386.639 456.28V455.72H384.959V453.48H384.399ZM388.877 455.72L387.757 457.96V460.2L388.877 462.44L390.557 463H392.237L393.357 462.44L394.477 461.32L393.917 460.76L392.797 461.88L391.677 462.44L389.997 461.88L389.437 459.64L393.917 458.52L394.477 457.4L393.357 455.72L391.677 455.16H390.557L388.877 455.72ZM392.237 456.28V457.96L389.437 459.08L389.997 456.28L391.117 455.72L392.237 456.28ZM346.614 478.52L349.414 477.4L350.534 474.6L349.414 472.36L346.614 471.8H341.574L342.694 472.92V481.88L341.574 483H345.494L344.374 481.88V477.96L346.614 478.52ZM346.614 472.36L347.734 472.92L348.294 474.6L347.734 476.84L346.054 477.4H344.374V472.92L344.934 472.36H346.614ZM351.154 476.28L352.834 476.84V481.88L351.714 483H355.634L354.514 481.88V477.96L355.634 476.84H356.194V478.52H356.754L357.874 476.84V475.72L356.754 475.16L355.634 475.72L353.954 477.96V477.4L354.514 475.16L351.154 476.28ZM359.606 475.72L358.486 477.96V480.2L359.606 482.44L361.286 483H362.406L364.086 482.44L365.206 480.2V477.96L364.086 475.72L362.406 475.16H361.286L359.606 475.72ZM362.966 476.28L363.526 479.08L362.966 481.88L361.846 482.44L360.726 481.88L360.166 479.08L360.726 476.28L361.846 475.72L362.966 476.28ZM367.44 476.84V483.56L366.88 485.24L365.2 486.92L365.76 487.48L368 485.8L369.12 483.56V475.16L366.32 476.28L367.44 476.84ZM368.56 474.04L369.12 472.92V472.36L368 471.8H367.44L366.88 472.92V473.48L368 474.04H368.56ZM371.938 475.72L370.818 477.96V480.2L371.938 482.44L373.618 483H375.298L376.418 482.44L377.538 481.32L376.978 480.76L375.858 481.88L374.738 482.44L373.058 481.88L372.498 479.64L376.978 478.52L377.538 477.4L376.418 475.72L374.738 475.16H373.618L371.938 475.72ZM375.298 476.28V477.96L372.498 479.08L373.058 476.28L374.178 475.72L375.298 476.28ZM382.858 477.96H383.418L384.538 476.84L383.978 475.72L382.298 475.16H381.178L379.498 475.72L378.378 477.96V480.2L379.498 482.44L381.178 483H382.858L383.978 482.44L385.098 481.32L383.978 480.76L383.418 481.88L382.298 482.44L380.618 481.88L380.058 479.64V478.52L380.618 476.28L381.738 475.72L382.858 476.28V477.96ZM387.612 473.48L387.052 474.6L386.492 475.16L385.372 475.72V476.28L386.492 476.84V481.32L387.612 483H388.172L389.292 482.44L390.412 481.32L389.852 480.76L388.732 481.88L388.172 481.32V476.84L389.852 476.28V475.72H388.172V473.48H387.612ZM395.59 475.16L395.03 475.72L393.91 475.16L391.67 475.72L391.11 477.4L391.67 478.52L395.03 480.76V481.88L393.91 482.44L392.79 481.88L391.67 480.2H391.11L391.67 483L392.23 482.44L393.35 483H395.03L396.15 482.44L396.71 480.76L396.15 479.64L392.79 477.4V476.84L393.35 476.28H394.47L395.59 477.96H396.15L395.59 475.16ZM361.392 491.24L360.272 491.8L357.472 491.24L355.792 492.36L355.232 494.04L355.792 495.72L359.712 499.08L360.832 500.2V501.32L360.272 501.88L359.152 502.44H357.472L355.792 499.78H355.232L355.792 503.56L356.912 503L359.712 503.56L361.952 502.44L362.512 500.2L361.952 498.52L358.032 495.16L356.912 494.04L357.472 492.92L358.032 492.36H359.712L361.392 494.6H361.952L361.392 491.24ZM364.466 496.28L365.586 497.4L366.146 496.28H367.266L367.826 496.84V497.96L365.026 498.52L363.906 499.08L363.346 500.76L364.466 502.44L365.586 503H366.706L368.386 501.88L368.946 503H369.506L370.626 501.88V501.32L369.506 501.88V496.84L368.946 495.72L366.706 495.16L364.466 496.28ZM367.826 500.76L367.266 501.88L366.146 502.44L365.026 500.76L365.586 499.64L367.826 498.52V500.76ZM373.707 492.92L374.267 491.8L375.387 492.36L374.827 493.48L375.947 494.04L376.507 493.48V491.8L374.267 491.24L373.147 491.8L372.587 492.36L372.027 493.48V495.72H371.467V496.28L372.027 496.84V501.88L370.907 503H374.827L373.707 501.88V496.84L374.827 496.28H375.387V495.72H373.707V492.92ZM377.448 495.72L376.328 497.96V500.2L377.448 502.44L379.128 503H380.808L381.928 502.44L383.048 501.32L382.488 500.76L381.368 501.88L380.248 502.44L378.568 501.88L378.008 499.64L382.488 498.52L383.048 497.4L381.928 495.72L380.248 495.16H379.128L377.448 495.72ZM380.808 496.28V497.96L378.008 499.08L378.568 496.28L379.688 495.72L380.808 496.28Z" fill="#F4E5C9"/>
<path d="M305.489 300.24L309.089 298.8L310.529 295.2L309.089 292.32L305.489 291.6H299.009L300.449 293.04V304.56L299.009 306H304.049L302.609 304.56V299.52L305.489 300.24ZM305.489 292.32L306.929 293.04L307.649 295.2L306.929 298.08L304.769 298.8H302.609V293.04L303.329 292.32H305.489ZM312.587 293.04V304.56L311.147 306H316.187L314.747 304.56V290.88L311.147 292.32L312.587 293.04ZM327.353 303.84L325.913 304.56V295.92L322.313 296.64L323.753 297.36V302.4L323.033 303.84L322.313 304.56H320.873L320.153 303.84V295.92L316.553 296.64L317.993 297.36V303.84L318.713 305.28L320.873 306H322.313L324.473 304.56L325.193 306H325.913L327.353 304.56V303.84ZM327.886 297.36L330.046 298.08V304.56L328.606 306H333.646L332.206 304.56V299.52L333.646 298.08H334.366V300.24H335.086L336.526 298.08V296.64L335.086 295.92L333.646 296.64L331.486 299.52V298.8L332.206 295.92L327.886 297.36ZM339.279 298.08V304.56L337.839 306H342.879L341.439 304.56V295.92L337.839 297.36L339.279 298.08ZM340.719 294.48L341.439 293.04V292.32L339.999 291.6H339.279L338.559 293.04V293.76L339.999 294.48H340.719ZM349.523 304.56L352.403 298.08L353.843 296.64H349.523L350.963 298.08L348.803 303.84L346.643 298.08L348.083 296.64H343.043L344.483 298.08L347.363 306H348.803L349.523 304.56ZM355.433 296.64L353.993 299.52V302.4L355.433 305.28L357.593 306H359.753L361.193 305.28L362.633 303.84L361.913 303.12L360.473 304.56L359.033 305.28L356.873 304.56L356.153 301.68L361.913 300.24L362.633 298.8L361.193 296.64L359.033 295.92H357.593L355.433 296.64ZM359.753 297.36V299.52L356.153 300.96L356.873 297.36L358.313 296.64L359.753 297.36ZM363.534 297.36L365.694 298.08V304.56L364.254 306H369.294L367.854 304.56V299.52L369.294 298.08H370.014V300.24H370.734L372.174 298.08V296.64L370.734 295.92L369.294 296.64L367.134 299.52V298.8L367.854 295.92L363.534 297.36ZM379.199 295.92L378.479 296.64L377.039 295.92L374.159 296.64L373.439 298.8L374.159 300.24L378.479 303.12V304.56L377.039 305.28L375.599 304.56L374.159 302.4H373.439L374.159 306L374.879 305.28L376.319 306H378.479L379.919 305.28L380.639 303.12L379.919 301.68L375.599 298.8V298.08L376.319 297.36H377.759L379.199 299.52H379.919L379.199 295.92ZM383.154 296.64L381.714 299.52V302.4L383.154 305.28L385.314 306H387.474L388.914 305.28L390.354 303.84L389.634 303.12L388.194 304.56L386.754 305.28L384.594 304.56L383.874 301.68L389.634 300.24L390.354 298.8L388.914 296.64L386.754 295.92H385.314L383.154 296.64ZM387.474 297.36V299.52L383.874 300.96L384.594 297.36L386.034 296.64L387.474 297.36ZM398.64 293.04V304.56L397.2 306H405.12L408 304.56L409.44 302.4L410.16 298.8L409.44 295.2L407.28 293.04L403.68 291.6H397.2L398.64 293.04ZM407.28 302.4L405.84 304.56L404.4 305.28H401.52L400.8 304.56V293.04L401.52 292.32H403.68L405.12 293.04L406.56 294.48L407.28 295.92V302.4ZM412.052 304.56L413.078 301.68H418.226L419.252 304.56L418.532 306H422.852L421.412 304.56L416.372 290.88L414.932 292.32V293.04L410.612 304.56L409.172 306H413.492L412.052 304.56ZM417.956 300.96H413.33L415.652 294.48L417.956 300.96ZM435.507 302.4L436.227 298.8L435.507 295.2L434.067 293.04L431.187 291.6H426.867L423.987 293.04L422.547 295.2L421.827 298.8L422.547 302.4L423.987 304.56L426.867 306H431.187L434.067 304.56L435.507 302.4ZM433.347 301.68L431.907 303.84L429.747 305.28H428.307L426.147 303.84L424.707 301.68V295.92L426.147 293.76L428.307 292.32H429.747L431.907 293.76L433.347 295.92V301.68ZM341.441 315.88L338.561 316.6H333.521L330.641 315.88L329.921 320.2H330.641L332.081 318.04L334.961 317.32V329.56L333.521 331H338.561L337.121 329.56V317.32L340.001 318.04L341.441 320.2H342.161L341.441 315.88ZM341.711 322.36L343.871 323.08V329.56L342.431 331H347.471L346.031 329.56V324.52L347.471 323.08H348.191V325.24H348.911L350.351 323.08V321.64L348.911 320.92L347.471 321.64L345.311 324.52V323.8L346.031 320.92L341.711 322.36ZM352.577 321.64L351.137 324.52V327.4L352.577 330.28L354.737 331H356.897L358.337 330.28L359.777 328.84L359.057 328.12L357.617 329.56L356.177 330.28L354.017 329.56L353.297 326.68L359.057 325.24L359.777 323.8L358.337 321.64L356.177 320.92H354.737L352.577 321.64ZM356.897 322.36V324.52L353.297 325.96L354.017 322.36L355.457 321.64L356.897 322.36ZM361.938 322.36L363.378 323.8L364.098 322.36H365.538L366.258 323.08V324.52L362.658 325.24L361.218 325.96L360.498 328.12L361.938 330.28L363.378 331H364.818L366.978 329.56L367.698 331H368.418L369.858 329.56V328.84L368.418 329.56V323.08L367.698 321.64L364.818 320.92L361.938 322.36ZM366.258 328.12L365.538 329.56L364.098 330.28L362.658 328.12L363.378 326.68L366.258 325.24V328.12ZM376.518 320.92L375.798 321.64L374.358 320.92L371.478 321.64L370.758 323.8L371.478 325.24L375.798 328.12V329.56L374.358 330.28L372.918 329.56L371.478 327.4H370.758L371.478 331L372.198 330.28L373.638 331H375.798L377.238 330.28L377.958 328.12L377.238 326.68L372.918 323.8V323.08L373.638 322.36H375.078L376.518 324.52H377.238L376.518 320.92ZM389.113 328.84L387.673 329.56V320.92L384.073 321.64L385.513 322.36V327.4L384.793 328.84L384.073 329.56H382.633L381.913 328.84V320.92L378.313 321.64L379.753 322.36V328.84L380.473 330.28L382.633 331H384.073L386.233 329.56L386.953 331H387.673L389.113 329.56V328.84ZM389.646 322.36L391.806 323.08V329.56L390.366 331H395.406L393.966 329.56V324.52L395.406 323.08H396.126V325.24H396.846L398.286 323.08V321.64L396.846 320.92L395.406 321.64L393.246 324.52V323.8L393.966 320.92L389.646 322.36ZM400.285 336.04L401.005 336.76H402.445L409.645 323.08L411.085 321.64H406.765L408.205 323.08L405.325 328.84L403.165 323.08L404.605 321.64H399.565L401.005 323.08L404.605 330.28L400.285 336.04Z" fill="#F4E5C9"/>
<path d="M281.6 150.52L284.4 149.4L285.52 146.6L284.4 144.36L281.6 143.8H276.56L277.68 144.92V153.88L276.56 155H280.48L279.36 153.88V149.96L281.6 150.52ZM281.6 144.36L282.72 144.92L283.28 146.6L282.72 148.84L281.04 149.4H279.36V144.92L279.92 144.36H281.6ZM287.121 144.92V153.88L286.001 155H289.921L288.801 153.88V143.24L286.001 144.36L287.121 144.92ZM298.605 153.32L297.485 153.88V147.16L294.685 147.72L295.805 148.28V152.2L295.245 153.32L294.685 153.88H293.565L293.005 153.32V147.16L290.205 147.72L291.325 148.28V153.32L291.885 154.44L293.565 155H294.685L296.365 153.88L296.925 155H297.485L298.605 153.88V153.32ZM299.02 148.28L300.7 148.84V153.88L299.58 155H303.5L302.38 153.88V149.96L303.5 148.84H304.06V150.52H304.62L305.74 148.84V147.72L304.62 147.16L303.5 147.72L301.82 149.96V149.4L302.38 147.16L299.02 148.28ZM307.881 148.84V153.88L306.761 155H310.681L309.561 153.88V147.16L306.761 148.28L307.881 148.84ZM309.001 146.04L309.561 144.92V144.36L308.441 143.8H307.881L307.321 144.92V145.48L308.441 146.04H309.001ZM315.849 153.88L318.089 148.84L319.209 147.72H315.849L316.969 148.84L315.289 153.32L313.609 148.84L314.729 147.72H310.809L311.929 148.84L314.169 155H315.289L315.849 153.88ZM320.446 147.72L319.326 149.96V152.2L320.446 154.44L322.126 155H323.806L324.926 154.44L326.046 153.32L325.486 152.76L324.366 153.88L323.246 154.44L321.566 153.88L321.006 151.64L325.486 150.52L326.046 149.4L324.926 147.72L323.246 147.16H322.126L320.446 147.72ZM323.806 148.28V149.96L321.006 151.08L321.566 148.28L322.686 147.72L323.806 148.28ZM326.746 148.28L328.426 148.84V153.88L327.306 155H331.226L330.106 153.88V149.96L331.226 148.84H331.786V150.52H332.346L333.466 148.84V147.72L332.346 147.16L331.226 147.72L329.546 149.96V149.4L330.106 147.16L326.746 148.28ZM338.93 147.16L338.37 147.72L337.25 147.16L335.01 147.72L334.45 149.4L335.01 150.52L338.37 152.76V153.88L337.25 154.44L336.13 153.88L335.01 152.2H334.45L335.01 155L335.57 154.44L336.69 155H338.37L339.49 154.44L340.05 152.76L339.49 151.64L336.13 149.4V148.84L336.69 148.28H337.81L338.93 149.96H339.49L338.93 147.16ZM342.006 147.72L340.886 149.96V152.2L342.006 154.44L343.686 155H345.366L346.486 154.44L347.606 153.32L347.046 152.76L345.926 153.88L344.806 154.44L343.126 153.88L342.566 151.64L347.046 150.52L347.606 149.4L346.486 147.72L344.806 147.16H343.686L342.006 147.72ZM345.366 148.28V149.96L342.566 151.08L343.126 148.28L344.246 147.72L345.366 148.28ZM287.2 172.2L287.76 169.4L287.2 166.6L286.08 164.92L283.84 163.8H280.48L278.24 164.92L277.12 166.6L276.56 169.4L277.12 172.2L278.24 173.88L280.48 175H283.84L286.08 173.88L287.2 172.2ZM285.52 171.64L284.4 173.32L282.72 174.44H281.6L279.92 173.32L278.8 171.64V167.16L279.92 165.48L281.6 164.36H282.72L284.4 165.48L285.52 167.16V171.64ZM292.518 167.72L290.838 169.4L291.398 167.16L288.598 168.28L289.718 168.84V178.36L288.598 179.48H292.518L291.398 178.36V174.44L292.518 175H293.638L295.318 174.44L296.438 172.2V169.96L295.318 167.72L293.638 167.16L292.518 167.72ZM294.198 168.28L294.758 171.08L294.198 173.88L293.078 174.44L291.958 173.88L291.398 172.76V169.96L293.078 168.28H294.198ZM302.18 167.16L301.62 167.72L300.5 167.16L298.26 167.72L297.7 169.4L298.26 170.52L301.62 172.76V173.88L300.5 174.44L299.38 173.88L298.26 172.2H297.7L298.26 175L298.82 174.44L299.94 175H301.62L302.74 174.44L303.3 172.76L302.74 171.64L299.38 169.4V168.84L299.94 168.28H301.06L302.18 169.96H302.74L302.18 167.16ZM317.021 163.24L314.781 163.8H310.861L308.621 163.24L308.061 166.6H308.621L309.741 164.92L311.981 164.36V173.88L310.861 175H314.781L313.661 173.88V164.36L315.901 164.92L317.021 166.6H317.581L317.021 163.24ZM317.985 167.72L316.865 169.96V172.2L317.985 174.44L319.665 175H321.345L322.465 174.44L323.585 173.32L323.025 172.76L321.905 173.88L320.785 174.44L319.105 173.88L318.545 171.64L323.025 170.52L323.585 169.4L322.465 167.72L320.785 167.16H319.665L317.985 167.72ZM321.345 168.28V169.96L318.545 171.08L319.105 168.28L320.225 167.72L321.345 168.28ZM325.265 168.28L326.385 169.4L326.945 168.28H328.065L328.625 168.84V169.96L325.825 170.52L324.705 171.08L324.145 172.76L325.265 174.44L326.385 175H327.505L329.185 173.88L329.745 175H330.305L331.425 173.88V173.32L330.305 173.88V168.84L329.745 167.72L327.505 167.16L325.265 168.28ZM328.625 172.76L328.065 173.88L326.945 174.44L325.825 172.76L326.385 171.64L328.625 170.52V172.76ZM335.906 175L334.786 173.88V169.96L336.466 168.28H337.586L338.146 168.84V173.88L337.026 175H340.946L339.826 173.88V169.96L341.506 168.28H342.626L343.186 168.84V173.88L342.066 175H345.986L344.866 173.88V168.84L344.306 167.72L342.066 167.16L340.946 167.72L339.826 168.84L339.266 167.72L337.026 167.16L335.906 167.72L334.226 169.4L334.786 167.16L331.986 168.28L333.106 168.84V173.88L331.986 175H335.906Z" fill="#F4E5C9"/>
<path d="M259.72 392.24L258.6 392.8L255.8 392.24L254.12 393.36L253.56 395.04L254.12 396.72L258.04 400.08L259.16 401.2V402.32L258.6 402.88L257.48 403.44H255.8L254.12 400.78H253.56L254.12 404.56L255.24 404L258.04 404.56L260.28 403.44L260.84 401.2L260.28 399.52L256.36 396.16L255.24 395.04L255.8 393.92L256.36 393.36H258.04L259.72 395.6H260.28L259.72 392.24ZM262.795 397.28L263.915 398.4L264.475 397.28H265.595L266.155 397.84V398.96L263.355 399.52L262.235 400.08L261.675 401.76L262.795 403.44L263.915 404H265.035L266.715 402.88L267.275 404H267.835L268.955 402.88V402.32L267.835 402.88V397.84L267.275 396.72L265.035 396.16L262.795 397.28ZM266.155 401.76L265.595 402.88L264.475 403.44L263.355 401.76L263.915 400.64L266.155 399.52V401.76ZM270.355 393.92V402.88L269.235 404H273.155L272.035 402.88V392.24L269.235 393.36L270.355 393.92ZM275.119 396.72L273.999 398.96V401.2L275.119 403.44L276.799 404H278.479L279.599 403.44L280.719 402.32L280.159 401.76L279.039 402.88L277.919 403.44L276.239 402.88L275.679 400.64L280.159 399.52L280.719 398.4L279.599 396.72L277.919 396.16H276.799L275.119 396.72ZM278.479 397.28V398.96L275.679 400.08L276.239 397.28L277.359 396.72L278.479 397.28ZM286.18 396.16L285.62 396.72L284.5 396.16L282.26 396.72L281.7 398.4L282.26 399.52L285.62 401.76V402.88L284.5 403.44L283.38 402.88L282.26 401.2H281.7L282.26 404L282.82 403.44L283.94 404H285.62L286.74 403.44L287.3 401.76L286.74 400.64L283.38 398.4V397.84L283.94 397.28H285.06L286.18 398.96H286.74L286.18 396.16ZM298.781 392.24L297.661 392.8L294.861 392.24L293.181 393.36L292.621 395.04L293.181 396.72L297.101 400.08L298.221 401.2V402.32L297.661 402.88L296.541 403.44H294.861L293.181 400.78H292.621L293.181 404.56L294.301 404L297.101 404.56L299.341 403.44L299.901 401.2L299.341 399.52L295.421 396.16L294.301 395.04L294.861 393.92L295.421 393.36H297.101L298.781 395.6H299.341L298.781 392.24ZM301.855 397.28L302.975 398.4L303.535 397.28H304.655L305.215 397.84V398.96L302.415 399.52L301.295 400.08L300.735 401.76L301.855 403.44L302.975 404H304.095L305.775 402.88L306.335 404H306.895L308.015 402.88V402.32L306.895 402.88V397.84L306.335 396.72L304.095 396.16L301.855 397.28ZM305.215 401.76L304.655 402.88L303.535 403.44L302.415 401.76L302.975 400.64L305.215 399.52V401.76ZM311.096 393.92L311.656 392.8L312.776 393.36L312.216 394.48L313.336 395.04L313.896 394.48V392.8L311.656 392.24L310.536 392.8L309.976 393.36L309.416 394.48V396.72H308.856V397.28L309.416 397.84V402.88L308.296 404H312.216L311.096 402.88V397.84L312.216 397.28H312.776V396.72H311.096V393.92ZM314.836 396.72L313.716 398.96V401.2L314.836 403.44L316.516 404H318.196L319.316 403.44L320.436 402.32L319.876 401.76L318.756 402.88L317.636 403.44L315.956 402.88L315.396 400.64L319.876 399.52L320.436 398.4L319.316 396.72L317.636 396.16H316.516L314.836 396.72ZM318.196 397.28V398.96L315.396 400.08L315.956 397.28L317.076 396.72L318.196 397.28Z" fill="#F4E5C9"/>
<path d="M417.436 386.16L418.556 384.48L420.236 383.36H421.356L422.476 384.48V386.16H423.596L424.716 385.04L424.156 383.92L421.916 382.8H419.116L416.876 383.92L415.756 385.6L415.196 388.4L415.756 391.2L416.876 392.88L419.116 394H421.916L423.596 393.44L424.716 392.88V390.08L425.836 388.96H421.916L423.036 390.08V392.32L422.476 392.88L420.796 393.44L418.556 392.32L417.436 390.64V386.16ZM425.789 387.28L427.469 387.84V392.88L426.349 394H430.269L429.149 392.88V388.96L430.269 387.84H430.829V389.52H431.389L432.509 387.84V386.72L431.389 386.16L430.269 386.72L428.589 388.96V388.4L429.149 386.16L425.789 387.28ZM433.755 387.28L434.875 388.4L435.435 387.28H436.555L437.115 387.84V388.96L434.315 389.52L433.195 390.08L432.635 391.76L433.755 393.44L434.875 394H435.995L437.675 392.88L438.235 394H438.795L439.915 392.88V392.32L438.795 392.88V387.84L438.235 386.72L435.995 386.16L433.755 387.28ZM437.115 391.76L436.555 392.88L435.435 393.44L434.315 391.76L434.875 390.64L437.115 389.52V391.76ZM444.396 394L443.276 392.88V388.96L444.956 387.28H446.076L446.636 387.84V392.88L445.516 394H449.436L448.316 392.88V387.84L447.756 386.72L445.516 386.16L444.396 386.72L442.716 388.4L443.276 386.16L440.476 387.28L441.596 387.84V392.88L440.476 394H444.396ZM451.952 384.48L451.392 385.6L450.832 386.16L449.712 386.72V387.28L450.832 387.84V392.32L451.952 394H452.512L453.632 393.44L454.752 392.32L454.192 391.76L453.072 392.88L452.512 392.32V387.84L454.192 387.28V386.72H452.512V384.48H451.952ZM464.834 389.52L467.634 388.4L468.754 385.6L467.634 383.36L464.834 382.8H459.794L460.914 383.92V392.88L459.794 394H463.714L462.594 392.88V388.96L464.834 389.52ZM464.834 383.36L465.954 383.92L466.514 385.6L465.954 387.84L464.274 388.4H462.594V383.92L463.154 383.36H464.834ZM469.815 386.72L468.695 388.96V391.2L469.815 393.44L471.495 394H472.615L474.295 393.44L475.415 391.2V388.96L474.295 386.72L472.615 386.16H471.495L469.815 386.72ZM473.175 387.28L473.735 390.08L473.175 392.88L472.055 393.44L470.935 392.88L470.375 390.08L470.935 387.28L472.055 386.72L473.175 387.28ZM480.449 383.36L481.569 383.92V386.72L480.449 386.16H479.329L477.649 386.72L476.529 388.96V391.2L477.649 393.44L479.329 394H480.449L481.569 393.44L482.129 392.88L482.689 394H483.809L484.929 392.88V392.32L483.809 392.88H483.249V382.24L480.449 383.36ZM481.009 387.28L481.569 388.4V391.76L481.009 392.88L479.889 393.44L478.769 392.88L478.209 390.08L478.769 387.28L479.889 386.72L481.009 387.28ZM441.892 402.24L440.772 402.8L437.972 402.24L436.292 403.36L435.732 405.04L436.292 406.72L440.212 410.08L441.332 411.2V412.32L440.772 412.88L439.652 413.44H437.972L436.292 410.78H435.732L436.292 414.56L437.412 414L440.212 414.56L442.452 413.44L443.012 411.2L442.452 409.52L438.532 406.16L437.412 405.04L437.972 403.92L438.532 403.36H440.212L441.892 405.6H442.452L441.892 402.24ZM444.966 407.28L446.086 408.4L446.646 407.28H447.766L448.326 407.84V408.96L445.526 409.52L444.406 410.08L443.846 411.76L444.966 413.44L446.086 414H447.206L448.886 412.88L449.446 414H450.006L451.126 412.88V412.32L450.006 412.88V407.84L449.446 406.72L447.206 406.16L444.966 407.28ZM448.326 411.76L447.766 412.88L446.646 413.44L445.526 411.76L446.086 410.64L448.326 409.52V411.76ZM454.207 403.92L454.767 402.8L455.887 403.36L455.327 404.48L456.447 405.04L457.007 404.48V402.8L454.767 402.24L453.647 402.8L453.087 403.36L452.527 404.48V406.72H451.967V407.28L452.527 407.84V412.88L451.407 414H455.327L454.207 412.88V407.84L455.327 407.28H455.887V406.72H454.207V403.92ZM457.948 406.72L456.828 408.96V411.2L457.948 413.44L459.628 414H461.308L462.428 413.44L463.548 412.32L462.988 411.76L461.868 412.88L460.748 413.44L459.068 412.88L458.508 410.64L462.988 409.52L463.548 408.4L462.428 406.72L460.748 406.16H459.628L457.948 406.72ZM461.308 407.28V408.96L458.508 410.08L459.068 407.28L460.188 406.72L461.308 407.28Z" fill="#F4E5C9"/>
<path d="M398.657 150.52L401.457 149.4L402.577 146.6L401.457 144.36L398.657 143.8H393.617L394.737 144.92V153.88L393.617 155H397.537L396.417 153.88V149.96L398.657 150.52ZM398.657 144.36L399.777 144.92L400.337 146.6L399.777 148.84L398.097 149.4H396.417V144.92L396.977 144.36H398.657ZM404.177 144.92V153.88L403.057 155H406.977L405.857 153.88V143.24L403.057 144.36L404.177 144.92ZM415.662 153.32L414.542 153.88V147.16L411.742 147.72L412.862 148.28V152.2L412.302 153.32L411.742 153.88H410.622L410.062 153.32V147.16L407.262 147.72L408.382 148.28V153.32L408.942 154.44L410.622 155H411.742L413.422 153.88L413.982 155H414.542L415.662 153.88V153.32ZM416.076 148.28L417.756 148.84V153.88L416.636 155H420.556L419.436 153.88V149.96L420.556 148.84H421.116V150.52H421.676L422.796 148.84V147.72L421.676 147.16L420.556 147.72L418.876 149.96V149.4L419.436 147.16L416.076 148.28ZM424.938 148.84V153.88L423.818 155H427.738L426.618 153.88V147.16L423.818 148.28L424.938 148.84ZM426.058 146.04L426.618 144.92V144.36L425.498 143.8H424.938L424.378 144.92V145.48L425.498 146.04H426.058ZM432.905 153.88L435.145 148.84L436.265 147.72H432.905L434.025 148.84L432.345 153.32L430.665 148.84L431.785 147.72H427.865L428.985 148.84L431.225 155H432.345L432.905 153.88ZM437.502 147.72L436.382 149.96V152.2L437.502 154.44L439.182 155H440.862L441.982 154.44L443.102 153.32L442.542 152.76L441.422 153.88L440.302 154.44L438.622 153.88L438.062 151.64L442.542 150.52L443.102 149.4L441.982 147.72L440.302 147.16H439.182L437.502 147.72ZM440.862 148.28V149.96L438.062 151.08L438.622 148.28L439.742 147.72L440.862 148.28ZM443.803 148.28L445.483 148.84V153.88L444.363 155H448.283L447.163 153.88V149.96L448.283 148.84H448.843V150.52H449.403L450.523 148.84V147.72L449.403 147.16L448.283 147.72L446.603 149.96V149.4L447.163 147.16L443.803 148.28ZM455.987 147.16L455.427 147.72L454.307 147.16L452.067 147.72L451.507 149.4L452.067 150.52L455.427 152.76V153.88L454.307 154.44L453.187 153.88L452.067 152.2H451.507L452.067 155L452.627 154.44L453.747 155H455.427L456.547 154.44L457.107 152.76L456.547 151.64L453.187 149.4V148.84L453.747 148.28H454.867L455.987 149.96H456.547L455.987 147.16ZM459.063 147.72L457.943 149.96V152.2L459.063 154.44L460.743 155H462.423L463.543 154.44L464.663 153.32L464.103 152.76L462.983 153.88L461.863 154.44L460.183 153.88L459.623 151.64L464.103 150.52L464.663 149.4L463.543 147.72L461.863 147.16H460.743L459.063 147.72ZM462.423 148.28V149.96L459.623 151.08L460.183 148.28L461.303 147.72L462.423 148.28ZM400.163 167.16L401.283 165.48L402.963 164.36H404.083L405.203 165.48V167.16H406.323L407.443 166.04L406.883 164.92L404.643 163.8H401.843L399.603 164.92L398.483 166.6L397.923 169.4L398.483 172.2L399.603 173.88L401.843 175H404.643L406.323 173.88L407.443 172.2L406.883 171.64L406.323 172.76L405.203 173.88L403.523 174.44L401.283 173.32L400.163 171.64V167.16ZM409.68 167.72L408.56 169.96V172.2L409.68 174.44L411.36 175H412.48L414.16 174.44L415.28 172.2V169.96L414.16 167.72L412.48 167.16H411.36L409.68 167.72ZM413.04 168.28L413.6 171.08L413.04 173.88L411.92 174.44L410.8 173.88L410.24 171.08L410.8 168.28L411.92 167.72L413.04 168.28ZM417.234 168.28L418.354 169.4L418.914 168.28H420.034L420.594 168.84V169.96L417.794 170.52L416.674 171.08L416.114 172.76L417.234 174.44L418.354 175H419.474L421.154 173.88L421.714 175H422.274L423.394 173.88V173.32L422.274 173.88V168.84L421.714 167.72L419.474 167.16L417.234 168.28ZM420.594 172.76L420.034 173.88L418.914 174.44L417.794 172.76L418.354 171.64L420.594 170.52V172.76ZM424.795 164.92V173.88L423.675 175H427.595L426.475 173.88V163.24L423.675 164.36L424.795 164.92ZM429.559 168.84V173.88L428.439 175H432.359L431.239 173.88V167.16L428.439 168.28L429.559 168.84ZM430.679 166.04L431.239 164.92V164.36L430.119 163.8H429.559L428.999 164.92V165.48L430.119 166.04H430.679ZM435.444 165.48L434.884 166.6L434.324 167.16L433.204 167.72V168.28L434.324 168.84V173.32L435.444 175H436.004L437.124 174.44L438.244 173.32L437.684 172.76L436.564 173.88L436.004 173.32V168.84L437.684 168.28V167.72H436.004V165.48H435.444ZM439.922 168.84V173.88L438.802 175H442.722L441.602 173.88V167.16L438.802 168.28L439.922 168.84ZM441.042 166.04L441.602 164.92V164.36L440.482 163.8H439.922L439.362 164.92V165.48L440.482 166.04H441.042ZM444.967 167.72L443.847 169.96V172.2L444.967 174.44L446.647 175H447.767L449.447 174.44L450.567 172.2V169.96L449.447 167.72L447.767 167.16H446.647L444.967 167.72ZM448.327 168.28L448.887 171.08L448.327 173.88L447.207 174.44L446.087 173.88L445.527 171.08L446.087 168.28L447.207 167.72L448.327 168.28ZM455.601 175L454.481 173.88V169.96L456.161 168.28H457.281L457.841 168.84V173.88L456.721 175H460.641L459.521 173.88V168.84L458.961 167.72L456.721 167.16L455.601 167.72L453.921 169.4L454.481 167.16L451.681 168.28L452.801 168.84V173.88L451.681 175H455.601Z" fill="#F4E5C9"/>
<path d="M482.293 308.207C482.683 308.598 483.317 308.598 483.707 308.207L490.071 301.843C490.462 301.453 490.462 300.819 490.071 300.429C489.681 300.038 489.047 300.038 488.657 300.429L483 306.086L477.343 300.429C476.953 300.038 476.319 300.038 475.929 300.429C475.538 300.819 475.538 301.453 475.929 301.843L482.293 308.207ZM484 307.5L484 305.52L482 305.52L482 307.5L484 307.5ZM484 301.559L484 297.599L482 297.599L482 301.559L484 301.559ZM484 293.638L484 289.678L482 289.678L482 293.638L484 293.638ZM484 285.717L484 281.757L482 281.757L482 285.717L484 285.717ZM484 277.796L484 273.836L482 273.836L482 277.796L484 277.796ZM484 269.875L484 265.914L482 265.914L482 269.875L484 269.875ZM484 261.954L484 257.993L482 257.993L482 261.954L484 261.954ZM484 254.033L484 250.072L482 250.072L482 254.033L484 254.033ZM484 246.112L484 242.151L482 242.151L482 246.112L484 246.112ZM484 238.191L484 234.23L482 234.23L482 238.191L484 238.191ZM484 230.27L484 226.309L482 226.309L482 230.27L484 230.27ZM484 222.349L484 218.388L482 218.388L482 222.349L484 222.349ZM484 214.428L484 210.467L482 210.467L482 214.428L484 214.428ZM484 206.507L484 202.546L482 202.546L482 206.507L484 206.507ZM484 198.586L484 194.625L482 194.625L482 198.586L484 198.586ZM484 190.664L484 186.704L482 186.704L482 190.664L484 190.664ZM484 182.743L484 178.783L482 178.783L482 182.743L484 182.743ZM484 174.822L484 170.862L482 170.862L482 174.822L484 174.822ZM484 166.901L484 162.941L482 162.941L482 166.901L484 166.901ZM484 158.98L484 157L482 157L482 158.98L484 158.98Z" fill="#FF9658"/>
<path d="M369 533C400.48 533 426 507.48 426 476C426 444.52 400.48 419 369 419C337.52 419 312 444.52 312 476C312 507.48 337.52 533 369 533Z" stroke="#FFEB6F" stroke-width="2" stroke-miterlimit="10"/>
<path d="M58 452C89.4802 452 115 426.48 115 395C115 363.52 89.4802 338 58 338C26.5198 338 1 363.52 1 395C1 426.48 26.5198 452 58 452Z" stroke="#A7FFB6" stroke-width="2" stroke-miterlimit="10"/>
<path d="M157 509C188.48 509 214 483.48 214 452C214 420.52 188.48 395 157 395C125.52 395 100 420.52 100 452C100 483.48 125.52 509 157 509Z" stroke="#7DC7FF" stroke-width="2" stroke-miterlimit="10"/>
<path d="M157 395C188.48 395 214 369.48 214 338C214 306.52 188.48 281 157 281C125.52 281 100 306.52 100 338C100 369.48 125.52 395 157 395Z" stroke="#FF9698" stroke-width="2" stroke-miterlimit="10"/>
<path d="M680 452C711.48 452 737 426.48 737 395C737 363.52 711.48 338 680 338C648.52 338 623 363.52 623 395C623 426.48 648.52 452 680 452Z" stroke="#A7FFB6" stroke-width="2" stroke-miterlimit="10"/>
<path d="M581 395C612.48 395 638 369.48 638 338C638 306.52 612.48 281 581 281C549.52 281 524 306.52 524 338C524 369.48 549.52 395 581 395Z" stroke="#FF9698" stroke-width="2" stroke-miterlimit="10"/>
<path d="M581 509C612.48 509 638 483.48 638 452C638 420.52 612.48 395 581 395C549.52 395 524 420.52 524 452C524 483.48 549.52 509 581 509Z" stroke="#7DC7FF" stroke-width="2" stroke-miterlimit="10"/>
<path d="M369 789C400.48 789 426 763.48 426 732C426 700.52 400.48 675 369 675C337.52 675 312 700.52 312 732C312 763.48 337.52 789 369 789Z" stroke="#A7FFB6" stroke-width="2" stroke-miterlimit="10"/>
<path d="M426 690C457.48 690 483 664.48 483 633C483 601.52 457.48 576 426 576C394.52 576 369 601.52 369 633C369 664.48 394.52 690 426 690Z" stroke="#7DC7FF" stroke-width="2" stroke-miterlimit="10"/>
<path d="M312 690C343.48 690 369 664.48 369 633C369 601.52 343.48 576 312 576C280.52 576 255 601.52 255 633C255 664.48 280.52 690 312 690Z" stroke="#FF9698" stroke-width="2" stroke-miterlimit="10"/>
<path d="M369 115C400.48 115 426 89.4802 426 58C426 26.5198 400.48 1 369 1C337.52 1 312 26.5198 312 58C312 89.4802 337.52 115 369 115Z" stroke="#B4B4B4" stroke-width="2" stroke-linecap="round" stroke-linejoin="round"/>
<path d="M312 214C343.48 214 369 188.704 369 157.5C369 126.296 343.48 101 312 101C280.52 101 255 126.296 255 157.5C255 188.704 280.52 214 312 214Z" stroke="#B2FF8D" stroke-width="2" stroke-miterlimit="10"/>
<path d="M426 214C457.48 214 483 188.704 483 157.5C483 126.296 457.48 101 426 101C394.52 101 369 126.296 369 157.5C369 188.704 394.52 214 426 214Z" stroke="#FF9698" stroke-width="2" stroke-miterlimit="10"/>
<path d="M288 452C319.48 452 345 426.48 345 395C345 363.52 319.48 338 288 338C256.52 338 231 363.52 231 395C231 426.48 256.52 452 288 452Z" stroke="#FFEB6F" stroke-width="2" stroke-miterlimit="10"/>
<path d="M450 452C481.48 452 507 426.48 507 395C507 363.52 481.48 338 450 338C418.52 338 393 363.52 393 395C393 426.48 418.52 452 450 452Z" stroke="#FFEB6F" stroke-width="2" stroke-miterlimit="10"/>
<path d="M449.293 337.293C448.902 337.683 448.902 338.317 449.293 338.707L455.657 345.071C456.047 345.462 456.681 345.462 457.071 345.071C457.462 344.681 457.462 344.047 457.071 343.657L451.414 338L457.071 332.343C457.462 331.953 457.462 331.319 457.071 330.929C456.681 330.538 456.047 330.538 455.657 330.929L449.293 337.293ZM450 339L452.069 339L452.069 337L450 337L450 339ZM456.208 339L460.347 339L460.347 337L456.208 337L456.208 339ZM464.486 339L468.625 339L468.625 337L464.486 337L464.486 339ZM472.764 339L476.903 339L476.903 337L472.764 337L472.764 339ZM481.042 339L485.181 339L485.181 337L481.042 337L481.042 339ZM489.319 339L493.458 339L493.458 337L489.319 337L489.319 339ZM497.597 339L501.736 339L501.736 337L497.597 337L497.597 339ZM505.875 339L510.014 339L510.014 337L505.875 337L505.875 339ZM514.153 339L518.292 339L518.292 337L514.153 337L514.153 339ZM522.431 339L524.5 339L524.5 337L522.431 337L522.431 339Z" fill="#FF9658"/>
<path d="M293.207 338.707C293.598 338.317 293.598 337.683 293.207 337.293L286.843 330.929C286.453 330.538 285.819 330.538 285.429 330.929C285.038 331.319 285.038 331.953 285.429 332.343L291.086 338L285.429 343.657C285.038 344.047 285.038 344.681 285.429 345.071C285.819 345.462 286.453 345.462 286.843 345.071L293.207 338.707ZM292.5 337L290.431 337L290.431 339L292.5 339L292.5 337ZM286.292 337L282.153 337L282.153 339L286.292 339L286.292 337ZM278.014 337L273.875 337L273.875 339L278.014 339L278.014 337ZM269.736 337L265.597 337L265.597 339L269.736 339L269.736 337ZM261.458 337L257.319 337L257.319 339L261.458 339L261.458 337ZM253.181 337L249.042 337L249.042 339L253.181 339L253.181 337ZM244.903 337L240.764 337L240.764 339L244.903 339L244.903 337ZM236.625 337L232.486 337L232.486 339L236.625 339L236.625 337ZM228.347 337L224.208 337L224.208 339L228.347 339L228.347 337ZM220.069 337L218 337L218 339L220.069 339L220.069 337Z" fill="#FF9658"/>
<path d="M521.207 452.707C521.598 452.317 521.598 451.683 521.207 451.293L514.843 444.929C514.453 444.538 513.819 444.538 513.429 444.929C513.038 445.319 513.038 445.953 513.429 446.343L519.086 452L513.429 457.657C513.038 458.047 513.038 458.681 513.429 459.071C513.819 459.462 514.453 459.462 514.843 459.071L521.207 452.707ZM520.5 451L450 451L450 453L520.5 453L520.5 451Z" fill="#FF9658"/>
<path d="M218.293 451.293C217.902 451.683 217.902 452.317 218.293 452.707L224.657 459.071C225.047 459.462 225.681 459.462 226.071 459.071C226.462 458.681 226.462 458.047 226.071 457.657L220.414 452L226.071 446.343C226.462 445.953 226.462 445.319 226.071 444.929C225.681 444.538 225.047 444.538 224.657 444.929L218.293 451.293ZM219 453L289.5 453L289.5 451L219 451L219 453Z" fill="#FF9658"/>
<path d="M256.207 150.793C255.817 150.402 255.183 150.402 254.793 150.793L248.429 157.157C248.038 157.547 248.038 158.181 248.429 158.571C248.819 158.962 249.453 158.962 249.843 158.571L255.5 152.914L261.157 158.571C261.547 158.962 262.181 158.962 262.571 158.571C262.962 158.181 262.962 157.547 262.571 157.157L256.207 150.793ZM254.5 151.5V317.5H256.5V151.5H254.5Z" fill="#FF9658"/>
<path d="M369 533C445.215 533 507 471.215 507 395C507 318.785 445.215 257 369 257C292.785 257 231 318.785 231 395C231 471.215 292.785 533 369 533Z" stroke="#FFEB6F" stroke-width="2" stroke-miterlimit="10"/>
<path d="M425.293 571.207C425.683 571.598 426.317 571.598 426.707 571.207L433.071 564.843C433.462 564.453 433.462 563.819 433.071 563.429C432.681 563.038 432.047 563.038 431.657 563.429L426 569.086L420.343 563.429C419.953 563.038 419.319 563.038 418.929 563.429C418.538 563.819 418.538 564.453 418.929 564.843L425.293 571.207ZM427 570.5L427 472L425 472L425 570.5L427 570.5Z" fill="#FF9658"/>
<path d="M313.707 484.293C313.317 483.902 312.683 483.902 312.293 484.293L305.929 490.657C305.538 491.047 305.538 491.681 305.929 492.071C306.319 492.462 306.953 492.462 307.343 492.071L313 486.414L318.657 492.071C319.047 492.462 319.681 492.462 320.071 492.071C320.462 491.681 320.462 491.047 320.071 490.657L313.707 484.293ZM312 485L312 486.966H314V485L312 485ZM312 490.898L312 494.83H314L314 490.898H312ZM312 498.761L312 502.693H314L314 498.761H312ZM312 506.625L312 510.557H314V506.625H312ZM312 514.489L312 518.42H314L314 514.489H312ZM312 522.352L312 526.284H314L314 522.352H312ZM312 530.216L312 534.148H314V530.216H312ZM312 538.08L312 542.011H314L314 538.08H312ZM312 545.943L312 549.875H314L314 545.943H312ZM312 553.807L312 557.739H314V553.807H312ZM312 561.67L312 565.602H314L314 561.67H312ZM312 569.534V571.5H314L314 569.534H312Z" fill="#FF9658"/>
</svg>
