<svg width="448" height="32" viewBox="0 0 448 32" fill="none" xmlns="http://www.w3.org/2000/svg">
<path d="M0 16H208" stroke="#FF9658"/>
<path d="M240 16H448" stroke="#FF9658"/>
<path d="M239.5 16C239.5 24.4438 232.707 31.3359 224.3 31.4971H223.999C215.453 31.4971 208.5 24.5416 208.5 16C208.5 7.45833 215.456 0.5 223.999 0.5C232.541 0.5 239.5 7.45562 239.5 16ZM223.999 8.35812C219.788 8.35812 216.362 11.7807 216.362 15.9942C216.362 20.2077 219.785 23.6303 223.999 23.6303C228.212 23.6303 231.635 20.2077 231.635 15.9942C231.635 11.7808 228.212 8.35812 223.999 8.35812Z" fill="#2D2038" stroke="#F4E5C9"/>
</svg>
