<?xml version="1.0" standalone="no"?>
<!DOCTYPE svg PUBLIC "-//W3C//DTD SVG 20010904//EN"
 "http://www.w3.org/TR/2001/REC-SVG-20010904/DTD/svg10.dtd">
<svg version="1.0" xmlns="http://www.w3.org/2000/svg"
 width="260.000000pt" height="260.000000pt" viewBox="0 0 260.000000 260.000000"
 preserveAspectRatio="xMidYMid meet">
<metadata>
Created by potrace 1.14, written by Peter Selinger 2001-2017
</metadata>
<g transform="translate(0.000000,260.000000) scale(0.100000,-0.100000)"
fill="#000000" stroke="none">
<path d="M0 1300 l0 -1300 1300 0 1300 0 0 1300 0 1300 -1300 0 -1300 0 0
-1300z m469 811 c13 -13 15 -21 8 -24 -20 -7 -37 4 -37 24 0 24 5 24 29 0z
m41 -46 c0 -8 4 -15 8 -15 5 0 17 -16 28 -35 14 -27 25 -35 46 -35 16 0 28 -5
28 -11 0 -6 7 -9 15 -5 10 3 15 -1 15 -13 0 -10 11 -27 25 -37 14 -10 25 -27
25 -36 0 -10 6 -18 14 -18 7 0 19 -7 26 -15 7 -8 21 -15 31 -15 11 0 19 -4 19
-10 0 -5 16 -25 35 -45 36 -36 69 -45 78 -22 3 6 6 1 6 -13 1 -14 12 -38 26
-54 25 -29 25 -29 23 -5 -2 19 1 24 17 22 11 -1 24 5 28 13 7 12 10 12 24 -2
19 -18 27 -95 12 -105 -7 -4 -4 -9 6 -13 12 -4 18 0 22 14 4 14 14 20 33 20
16 0 30 7 34 15 3 8 13 15 23 15 13 0 14 3 5 12 -22 22 -14 43 18 44 19 1 30
-4 30 -12 0 -18 14 -18 29 -1 13 16 5 27 -21 27 -16 0 -17 3 -8 20 6 11 17 20
26 20 8 0 17 7 21 16 5 15 7 15 15 -1 9 -15 11 -15 24 2 9 12 13 13 14 5 0 -9
7 -11 20 -7 16 5 20 2 20 -14 0 -12 -7 -21 -15 -21 -9 0 -20 -11 -26 -24 -6
-13 -20 -27 -30 -29 -11 -3 -19 -11 -19 -17 0 -7 7 -10 16 -6 9 3 22 6 30 6 8
0 14 9 14 21 0 16 4 19 20 14 16 -5 20 -2 20 14 0 12 5 21 10 21 6 0 10 -4 10
-10 0 -5 6 -10 14 -10 19 0 29 43 13 55 -11 8 -9 15 10 33 16 16 23 19 23 8 0
-8 9 -18 20 -21 11 -3 20 -10 20 -13 0 -4 -9 -14 -20 -22 -24 -17 -26 -30 -5
-30 8 0 15 -4 15 -10 0 -5 8 -10 18 -10 16 -1 16 -1 0 -14 -10 -7 -18 -24 -17
-37 0 -24 0 -24 9 -2 14 35 47 39 75 9 13 -14 33 -26 43 -26 14 0 19 -7 19
-30 0 -16 -3 -30 -7 -30 -4 0 -5 -11 -2 -25 3 -19 8 -23 17 -15 6 5 15 7 18 4
3 -3 11 -3 17 1 7 4 3 14 -12 26 -19 17 -20 22 -8 29 21 14 30 12 30 -5 0 -8
11 -17 25 -21 30 -7 28 -28 -3 -32 -21 -3 -32 -22 -13 -22 5 0 16 -3 25 -6 12
-4 16 0 16 15 0 12 5 21 11 21 7 0 8 -7 4 -17 -13 -36 -17 -73 -7 -73 5 0 8
10 5 21 -4 16 -2 20 8 17 8 -3 13 -13 11 -22 -2 -9 4 -19 13 -22 8 -3 15 -17
15 -30 0 -13 5 -24 10 -24 6 0 10 5 10 11 0 6 8 22 19 35 l18 24 23 -20 23
-20 -33 0 c-29 0 -32 -2 -28 -25 4 -17 1 -25 -8 -25 -8 0 -14 -4 -14 -9 0 -5
-9 -11 -20 -14 -13 -3 -20 0 -20 10 0 23 -35 10 -38 -15 -2 -15 2 -22 12 -22
9 0 16 -4 16 -10 0 -5 13 -7 31 -3 31 6 54 -10 42 -30 -3 -5 -9 -3 -14 4 -4 7
-11 10 -15 7 -3 -4 1 -14 10 -23 9 -9 16 -12 16 -6 0 6 5 11 10 11 6 0 10 -9
10 -19 0 -11 6 -22 13 -24 20 -9 -14 -27 -38 -21 -12 3 -15 2 -8 -3 6 -4 15
-22 19 -38 7 -28 6 -29 -10 -16 -16 13 -17 12 -10 -15 12 -49 26 -80 31 -66 7
17 23 15 23 -3 0 -8 -4 -15 -9 -15 -5 0 -12 -8 -14 -17 -4 -15 -6 -15 -12 4
-4 12 -18 29 -31 38 -24 16 -25 16 -18 -12 4 -15 11 -29 16 -31 16 -7 8 -20
-15 -24 -18 -4 -23 0 -23 15 1 11 -6 22 -14 24 -12 4 -13 3 -1 -5 7 -5 10 -15
6 -22 -5 -8 -10 -9 -18 -1 -17 17 -22 13 -24 -20 -3 -40 19 -65 37 -44 7 8 18
15 24 15 8 0 8 -3 0 -8 -21 -14 -23 -40 -5 -61 10 -12 22 -21 27 -21 4 0 3 5
-4 12 -18 18 -15 28 9 28 18 0 19 2 9 15 -8 9 -8 15 -2 15 16 0 26 -40 13 -53
-6 -6 -11 -19 -11 -28 0 -20 70 -79 94 -79 10 0 19 -11 22 -30 4 -16 9 -30 13
-30 11 0 151 -138 151 -149 0 -6 7 -8 15 -5 10 4 15 0 15 -15 0 -12 -2 -21 -4
-21 -2 0 -11 -3 -20 -6 -11 -4 -16 -1 -16 11 0 11 -5 15 -16 11 -12 -5 -14 -1
-10 17 3 12 3 16 0 10 -8 -19 -22 -16 -29 7 -3 11 -11 20 -17 20 -6 0 -23 12
-38 28 -58 56 -91 82 -100 77 -6 -4 -7 1 -3 11 5 13 3 16 -10 11 -11 -4 -14
-2 -10 9 3 8 -1 14 -11 14 -10 0 -16 -9 -16 -23 0 -31 -32 -68 -49 -58 -9 6
-7 10 8 14 17 4 21 13 21 48 0 65 -53 112 -88 77 -8 -8 -12 -9 -12 -1 0 6 6
13 12 15 9 3 8 9 -4 21 -21 21 -28 21 -28 2 0 -8 -4 -15 -10 -15 -5 0 -10 7
-10 15 0 8 -4 15 -10 15 -5 0 -10 -11 -10 -25 0 -19 -5 -25 -21 -25 -16 0 -20
5 -16 20 3 11 1 20 -4 20 -5 0 -9 -4 -9 -10 0 -5 -7 -10 -15 -10 -8 0 -15 -7
-15 -16 0 -11 5 -14 16 -10 8 3 22 -1 30 -9 9 -8 13 -15 11 -15 -3 0 -12 -3
-20 -6 -8 -3 -21 2 -29 10 -14 13 -18 13 -37 -6 -28 -25 -33 -21 -22 18 5 16
10 23 10 17 2 -25 26 -12 42 22 13 29 14 35 3 35 -8 0 -14 -7 -14 -15 0 -8 -4
-15 -10 -15 -5 0 -10 9 -10 21 0 11 -5 17 -10 14 -6 -3 -10 -15 -10 -27 0 -18
-5 -20 -37 -15 -21 3 -30 3 -20 1 18 -6 24 -24 7 -24 -19 0 -10 -18 11 -23 20
-5 20 -7 6 -21 -23 -23 -34 -20 -40 12 -6 30 -57 62 -57 36 0 -8 6 -14 13 -14
19 0 41 -40 28 -53 -8 -8 -11 -5 -11 11 0 12 -3 22 -6 22 -10 0 -34 -28 -34
-39 0 -6 -4 -11 -10 -11 -14 0 -13 27 1 32 6 2 10 12 8 22 -4 16 -5 16 -24 -2
-11 -10 -25 -17 -31 -15 -5 2 -19 -5 -30 -16 -20 -18 -21 -18 -33 1 -7 12 -18
17 -27 14 -17 -7 -49 20 -35 28 5 4 11 0 14 -6 2 -7 8 -10 12 -6 5 5 3 20 -4
34 -9 21 -14 24 -26 14 -12 -10 -15 -9 -15 9 0 14 -6 21 -20 21 -25 0 -27 -17
-2 -22 15 -3 14 -6 -5 -16 -18 -10 -22 -10 -17 1 3 10 -4 12 -31 9 -20 -2 -35
0 -35 6 0 6 -16 9 -35 8 -31 -3 -35 0 -35 20 0 28 17 31 37 7 12 -16 13 -14 7
20 -6 33 -4 38 11 35 11 -2 19 4 21 16 2 14 0 16 -9 7 -16 -16 -27 -13 -27 8
0 10 -7 21 -15 25 -8 3 -15 1 -15 -4 0 -6 5 -10 10 -10 6 0 8 -11 4 -27 -7
-28 -20 -43 -39 -43 -5 0 -4 4 4 9 8 5 11 16 7 26 -5 13 -14 16 -36 11 -33 -6
-37 -2 -18 18 7 7 20 11 30 8 14 -3 18 2 18 27 0 24 -4 31 -20 31 -22 0 -27
-16 -7 -23 7 -2 8 -8 3 -13 -5 -5 -11 -4 -13 4 -3 6 -11 12 -18 12 -7 0 -16 7
-19 16 -3 9 -15 14 -28 12 -31 -4 -34 20 -4 28 21 5 26 12 26 36 0 25 2 28 14
19 12 -10 13 -8 9 8 -3 12 -14 21 -24 21 -11 0 -19 5 -19 12 0 6 -6 3 -14 -8
-18 -24 -31 -13 -17 14 7 13 7 23 -2 32 -10 10 -7 11 15 6 27 -6 28 -5 26 33
-1 46 -6 55 -32 65 -19 6 -19 7 -2 24 14 12 20 14 23 5 3 -7 15 -13 29 -13 31
0 22 28 -12 36 -13 3 -24 10 -24 16 0 11 43 -1 48 -13 6 -14 19 -10 26 6 8 21
-4 51 -14 34 -6 -9 -12 -8 -25 5 -13 13 -20 14 -31 5 -11 -9 -14 -6 -14 17 0
16 4 24 8 18 6 -11 38 -18 71 -15 10 1 11 4 2 15 -17 20 4 30 22 11 9 -8 30
-15 48 -15 31 0 32 1 13 15 -17 13 -17 16 -4 26 13 9 12 10 -2 5 -10 -3 -18
-1 -18 4 0 13 -37 13 -45 -1 -4 -6 -14 -8 -22 -5 -9 4 -17 -1 -20 -14 -7 -26
-33 -26 -33 -1 0 11 -6 21 -12 24 -7 2 -10 8 -5 12 4 5 14 0 22 -11 8 -11 15
-14 15 -6 0 7 13 12 30 12 17 0 30 5 30 10 0 6 -9 10 -20 10 -11 0 -20 2 -20
4 0 2 -3 11 -6 20 -4 11 0 16 12 16 16 0 16 1 2 18 -71 77 -97 103 -104 101
-25 -4 -36 2 -31 20 3 14 1 18 -9 14 -10 -4 -14 3 -14 21 0 18 -4 24 -15 20
-9 -4 -15 0 -15 9 0 8 -11 22 -25 31 -14 9 -25 23 -25 31 0 9 -11 20 -25 25
-18 7 -23 14 -18 26 4 12 3 15 -6 10 -8 -5 -23 4 -40 23 -15 17 -32 31 -37 31
-5 0 -15 14 -21 30 -8 21 -16 28 -27 24 -10 -4 -16 -1 -16 9 0 8 -6 18 -12 20
-10 4 -9 8 2 16 21 15 30 14 30 -4z m70 -55 c0 -5 -4 -10 -10 -10 -5 0 -10 5
-10 10 0 6 5 10 10 10 6 0 10 -4 10 -10z m410 -60 c0 -5 -2 -10 -4 -10 -3 0
-8 5 -11 10 -3 6 -1 10 4 10 6 0 11 -4 11 -10z m287 -27 c2 -6 -7 -8 -23 -5
-19 3 -22 7 -12 13 15 10 30 7 35 -8z m127 -7 c-10 -8 -21 -12 -24 -10 -5 6
21 24 34 24 6 0 1 -6 -10 -14z m193 8 c-3 -3 -12 -4 -19 -1 -8 3 -5 6 6 6 11
1 17 -2 13 -5z m-408 -31 c0 -5 -4 -17 -9 -28 -8 -18 -9 -17 -9 8 -1 15 4 27
9 27 6 0 10 -3 9 -7z m384 -7 c4 -10 1 -13 -9 -9 -7 3 -14 9 -14 14 0 14 17
10 23 -5z m-233 -26 c0 -5 -4 -10 -10 -10 -5 0 -10 5 -10 10 0 6 5 10 10 10 6
0 10 -4 10 -10z m-84 -38 c-4 -3 -11 0 -16 8 -15 24 -11 33 6 15 9 -9 13 -19
10 -23z m-126 18 c0 -5 -4 -10 -10 -10 -5 0 -10 5 -10 10 0 6 5 10 10 10 6 0
10 -4 10 -10z m-180 -35 c0 -17 -5 -25 -17 -24 -11 0 -13 3 -5 6 6 2 12 13 12
24 0 10 2 19 5 19 3 0 5 -11 5 -25z m440 15 c0 -5 -4 -10 -10 -10 -5 0 -10 5
-10 10 0 6 5 10 10 10 6 0 10 -4 10 -10z m-320 -29 c0 -5 -7 -12 -16 -15 -22
-9 -24 -8 -24 9 0 8 9 15 20 15 11 0 20 -4 20 -9z m315 -11 c3 -5 1 -10 -4
-10 -6 0 -11 5 -11 10 0 6 2 10 4 10 3 0 8 -4 11 -10z m-285 -20 c0 -11 -2
-20 -4 -20 -2 0 -13 -3 -23 -6 -16 -5 -17 -5 -1 6 9 6 15 17 12 25 -4 8 -1 15
5 15 6 0 11 -9 11 -20z m470 0 c0 -5 -9 -10 -19 -10 -11 0 -23 5 -26 10 -4 6
5 10 19 10 14 0 26 -4 26 -10z m-411 -21 c-15 -9 -32 -2 -24 11 3 5 13 6 21 3
12 -4 13 -8 3 -14z m351 5 c0 -2 -7 -4 -15 -4 -8 0 -15 4 -15 10 0 5 7 7 15 4
8 -4 15 -8 15 -10z m175 7 c3 -5 -3 -17 -12 -27 -13 -12 -14 -19 -5 -22 14 -4
16 -42 2 -42 -5 0 -10 9 -10 19 0 11 -4 23 -10 26 -5 3 -10 -1 -10 -9 0 -8 -4
-18 -10 -21 -5 -3 -10 3 -10 14 0 11 9 22 19 26 10 3 21 15 24 25 6 22 13 25
22 11z m-60 -11 c3 -5 -1 -10 -10 -10 -9 0 -13 5 -10 10 3 6 8 10 10 10 2 0 7
-4 10 -10z m-95 -20 c0 -5 -4 -10 -10 -10 -5 0 -10 5 -10 10 0 6 5 10 10 10 6
0 10 -4 10 -10z m40 0 c0 -5 7 -10 15 -10 19 0 19 -7 1 -25 -10 -10 -16 -11
-25 -2 -14 14 -15 47 -1 47 6 0 10 -4 10 -10z m-443 -22 c-3 -8 -6 -5 -6 6 -1
11 2 17 5 13 3 -3 4 -12 1 -19z m588 12 c3 -5 -1 -10 -10 -10 -9 0 -13 5 -10
10 3 6 8 10 10 10 2 0 7 -4 10 -10z m-605 -35 c0 -8 -2 -15 -4 -15 -2 0 -11
-3 -20 -6 -10 -4 -16 -1 -16 9 0 14 13 24 33 26 4 1 7 -6 7 -14z m680 5 c0 -5
-2 -10 -4 -10 -3 0 -8 5 -11 10 -3 6 -1 10 4 10 6 0 11 -4 11 -10z m-1000 -24
c0 -3 -4 -8 -10 -11 -5 -3 -10 -1 -10 4 0 6 5 11 10 11 6 0 10 -2 10 -4z
m1070 -4 c0 -5 -13 -7 -30 -4 -16 2 -30 6 -30 8 0 2 14 4 30 4 17 0 30 -4 30
-8z m-1000 -71 c0 -5 8 -12 18 -14 9 -3 1 -5 -18 -6 -46 -1 -68 12 -52 32 7 8
9 23 5 33 -5 14 0 12 20 -8 15 -15 27 -31 27 -37z m860 29 c0 -5 -7 -7 -15 -4
-8 4 -15 8 -15 10 0 2 7 4 15 4 8 0 15 -4 15 -10z m190 -25 c0 -8 -4 -15 -9
-15 -5 0 -11 7 -15 15 -3 9 0 15 9 15 8 0 15 -7 15 -15z m-123 -1 c-3 -3 -12
-4 -19 -1 -8 3 -5 6 6 6 11 1 17 -2 13 -5z m99 -51 c-4 -4 -11 -1 -15 6 -6 8
-14 10 -22 5 -11 -6 -11 -4 0 10 13 15 16 15 30 2 8 -9 11 -19 7 -23z m-76 -3
c0 -5 -5 -10 -11 -10 -5 0 -7 5 -4 10 3 6 8 10 11 10 2 0 4 -4 4 -10z m-1090
-9 c0 -6 -4 -13 -10 -16 -5 -3 -10 1 -10 9 0 9 5 16 10 16 6 0 10 -4 10 -9z
m1090 -31 c0 -5 -4 -10 -10 -10 -5 0 -10 5 -10 10 0 6 5 10 10 10 6 0 10 -4
10 -10z m-993 -32 c-3 -8 -6 -5 -6 6 -1 11 2 17 5 13 3 -3 4 -12 1 -19z m1183
18 c0 -3 -4 -8 -10 -11 -5 -3 -10 -1 -10 4 0 6 5 11 10 11 6 0 10 -2 10 -4z
m-65 -36 c3 -5 1 -10 -4 -10 -6 0 -11 5 -11 10 0 6 2 10 4 10 3 0 8 -4 11 -10z
m35 0 c0 -5 -5 -10 -11 -10 -5 0 -7 5 -4 10 3 6 8 10 11 10 2 0 4 -4 4 -10z
m-1193 -32 c-3 -8 -6 -5 -6 6 -1 11 2 17 5 13 3 -3 4 -12 1 -19z m63 12 c0 -5
-7 -10 -15 -10 -8 0 -15 5 -15 10 0 6 7 10 15 10 8 0 15 -4 15 -10z m1050 -15
c0 -8 -4 -15 -10 -15 -5 0 -7 7 -4 15 4 8 8 15 10 15 2 0 4 -7 4 -15z m50 -30
c0 -9 -9 -15 -25 -15 -22 0 -24 2 -13 15 17 19 38 19 38 0z m-1180 -5 c0 -5 6
-10 14 -10 15 0 28 -24 19 -34 -14 -13 -33 -5 -33 15 0 16 -4 19 -21 14 -19
-6 -20 -5 -8 8 16 19 29 22 29 7z m-170 -20 c0 -5 -2 -10 -4 -10 -3 0 -8 5
-11 10 -3 6 -1 10 4 10 6 0 11 -4 11 -10z m1256 -17 c-10 -10 -19 5 -10 18 6
11 8 11 12 0 2 -7 1 -15 -2 -18z m-1226 -8 c0 -14 -2 -25 -4 -25 -2 0 -6 11
-8 25 -3 14 -1 25 3 25 5 0 9 -11 9 -25z m1487 19 c-3 -3 -12 -4 -19 -1 -8 3
-5 6 6 6 11 1 17 -2 13 -5z m-212 -24 c3 -11 11 -20 16 -20 5 0 9 -9 9 -20 0
-14 5 -18 17 -13 15 6 16 5 3 -9 -12 -12 -17 -13 -27 -2 -7 7 -13 20 -13 28 0
9 -7 16 -15 16 -8 0 -15 9 -15 20 0 11 4 20 9 20 5 0 13 -9 16 -20z m55 0 c8
-5 11 -12 8 -16 -4 -3 -14 1 -23 10 -18 17 -9 21 15 6z m-1100 -30 c0 -16 -4
-30 -10 -30 -5 0 -10 5 -10 10 0 19 -18 10 -24 -12 -7 -22 -7 -22 -15 -3 -5
13 -4 21 3 23 7 1 18 12 26 22 20 28 30 25 30 -10z m-80 -10 c0 -5 -5 -10 -11
-10 -5 0 -7 5 -4 10 3 6 8 10 11 10 2 0 4 -4 4 -10z m-120 -10 c0 -5 -4 -10
-9 -10 -6 0 -13 5 -16 10 -3 6 1 10 9 10 9 0 16 -4 16 -10z m1360 -4 c0 -2 -7
-6 -15 -10 -8 -3 -15 -1 -15 4 0 6 7 10 15 10 8 0 15 -2 15 -4z m-1267 -53
c-1 -21 -2 -41 -2 -45 -1 -5 -6 -8 -11 -8 -7 0 -8 13 -4 35 5 30 3 36 -17 44
-23 9 -23 10 6 10 28 1 30 -1 28 -36z m1354 21 c-3 -3 -12 -4 -19 -1 -8 3 -5
6 6 6 11 1 17 -2 13 -5z m-1317 -26 c0 -18 -2 -20 -9 -8 -6 8 -7 18 -5 22 9
14 14 9 14 -14z m1277 7 c8 -23 0 -25 -21 -4 -18 17 -18 19 -2 19 9 0 19 -7
23 -15z m-1237 -20 c0 -8 -4 -15 -10 -15 -5 0 -10 7 -10 15 0 8 5 15 10 15 6
0 10 -7 10 -15z m1061 -25 c5 0 9 7 9 15 0 19 9 19 32 -2 22 -20 23 -33 3 -33
-8 0 -15 5 -15 11 0 6 -8 8 -17 5 -27 -8 -45 7 -36 30 7 18 8 17 11 -3 2 -13
8 -23 13 -23z m-1071 -55 c0 -14 -30 -3 -40 14 -18 34 -11 43 15 17 14 -14 25
-28 25 -31z m60 35 c0 -5 -4 -10 -10 -10 -5 0 -10 5 -10 10 0 6 5 10 10 10 6
0 10 -4 10 -10z m-40 -16 c0 -8 -4 -12 -10 -9 -5 3 -10 10 -10 16 0 5 5 9 10
9 6 0 10 -7 10 -16z m-110 2 c0 -3 -4 -8 -10 -11 -5 -3 -10 -1 -10 4 0 6 5 11
10 11 6 0 10 -2 10 -4z m30 -21 c0 -8 -7 -15 -15 -15 -26 0 -18 20 13 29 1 1
2 -6 2 -14z m40 -26 c0 -6 7 -9 15 -5 19 7 19 -8 1 -23 -12 -10 -17 -8 -25 8
-14 25 -14 31 -1 31 6 0 10 -5 10 -11z m1130 -9 c0 -5 -2 -10 -4 -10 -2 0 -12
-3 -22 -7 -16 -6 -17 -5 -4 10 17 19 30 22 30 7z m-1100 -56 c0 -10 6 -14 15
-11 8 4 17 2 20 -4 4 -5 -1 -12 -9 -15 -12 -5 -13 -9 -3 -24 6 -11 8 -23 4
-27 -5 -4 -12 -1 -16 6 -5 7 -14 10 -20 7 -6 -4 -11 -1 -11 8 0 8 6 16 13 19
8 3 5 11 -10 24 -23 20 -21 33 4 33 7 0 13 -7 13 -16z m920 -14 c0 -5 -4 -10
-10 -10 -5 0 -10 5 -10 10 0 6 5 10 10 10 6 0 10 -4 10 -10z m277 -12 c-3 -8
-6 -5 -6 6 -1 11 2 17 5 13 3 -3 4 -12 1 -19z m-1382 -36 c-3 -3 -11 0 -18 7
-9 10 -8 11 6 5 10 -3 15 -9 12 -12z m1349 -8 c3 -8 2 -12 -4 -9 -6 3 -10 10
-10 16 0 14 7 11 14 -7z m-1239 -4 c-3 -5 -12 -10 -18 -10 -7 0 -6 4 3 10 19
12 23 12 15 0z m1155 -26 c0 -14 -3 -14 -15 -4 -8 7 -15 14 -15 16 0 2 7 4 15
4 8 0 15 -7 15 -16z m-986 -37 c7 -6 6 -7 -4 -4 -8 2 -16 14 -17 28 -1 19 -1
20 4 4 3 -11 10 -24 17 -28z m961 13 c3 -5 1 -10 -4 -10 -6 0 -11 5 -11 10 0
6 2 10 4 10 3 0 8 -4 11 -10z m-1118 -52 c-3 -8 -6 -5 -6 6 -1 11 2 17 5 13 3
-3 4 -12 1 -19z m283 -16 c0 -19 -5 -29 -15 -29 -8 0 -15 6 -15 14 0 7 5 13
10 13 6 0 10 7 10 15 0 8 2 15 5 15 3 0 5 -13 5 -28z m-100 2 c11 -13 10 -19
-8 -37 -12 -12 -22 -16 -22 -9 0 7 6 12 13 12 8 0 8 3 1 8 -6 4 -13 15 -17 25
-8 22 16 23 33 1z m160 -4 c0 -5 -5 -10 -11 -10 -5 0 -7 5 -4 10 3 6 8 10 11
10 2 0 4 -4 4 -10z m-100 -59 c0 -6 -4 -11 -10 -11 -5 0 -10 4 -10 9 0 5 -3
18 -7 28 -6 17 -6 17 10 1 9 -9 17 -21 17 -27z m740 35 c0 -3 -4 -8 -10 -11
-5 -3 -10 -1 -10 4 0 6 5 11 10 11 6 0 10 -2 10 -4z m-677 -18 c4 -10 8 -10
15 1 11 15 32 7 32 -14 0 -7 5 -15 11 -17 6 -2 9 -13 6 -23 -5 -19 -5 -19 -12
3 -4 12 -15 22 -26 22 -10 0 -21 5 -24 10 -4 6 -15 8 -26 5 -21 -7 -27 10 -6
18 20 9 25 8 30 -5z m-213 -8 c0 -5 -5 -10 -11 -10 -5 0 -7 5 -4 10 3 6 8 10
11 10 2 0 4 -4 4 -10z m380 -10 c0 -11 -4 -20 -10 -20 -5 0 -10 9 -10 20 0 11
5 20 10 20 6 0 10 -9 10 -20z m-335 -9 c-3 -6 -11 -11 -16 -11 -5 0 -4 6 3 14
14 16 24 13 13 -3z m278 13 c8 -8 -14 -54 -26 -54 -5 0 -6 7 -3 16 3 9 6 22 6
30 0 14 12 19 23 8z m377 -15 c0 -5 -4 -9 -10 -9 -5 0 -10 7 -10 16 0 8 5 12
10 9 6 -3 10 -10 10 -16z m-96 -13 c7 3 21 -2 30 -11 20 -21 22 -42 2 -26 -11
10 -17 8 -25 -6 -9 -16 -10 -16 -11 5 0 25 -3 26 -30 10 -19 -12 -43 -3 -24
10 6 4 14 16 18 27 7 18 8 19 17 3 5 -9 16 -15 23 -12z m316 14 c0 -5 -2 -10
-4 -10 -3 0 -8 5 -11 10 -3 6 -1 10 4 10 6 0 11 -4 11 -10z m-430 -26 c0 -8
-4 -14 -10 -14 -5 0 -10 9 -10 21 0 11 5 17 10 14 6 -3 10 -13 10 -21z m265
-22 c-3 -3 -5 0 -5 6 0 18 -36 15 -55 -4 -9 -9 -19 -13 -23 -9 -4 4 -1 10 6
12 7 3 18 10 25 17 22 23 42 24 50 3 4 -11 5 -22 2 -25z m119 -4 c8 -6 8 -8
-1 -8 -6 0 -15 5 -18 10 -4 6 -11 8 -16 4 -6 -3 -5 4 3 15 12 20 13 20 17 4 2
-10 8 -21 15 -25z m-434 28 c0 -11 -19 -15 -25 -6 -3 5 1 10 9 10 9 0 16 -2
16 -4z m-267 -13 c-7 -2 -21 -2 -30 0 -10 3 -4 5 12 5 17 0 24 -2 18 -5z m137
-38 c0 -9 -9 -15 -22 -14 -17 1 -19 2 -5 6 9 2 17 9 17 14 0 5 2 9 5 9 3 0 5
-7 5 -15z m190 9 c0 -3 -7 -12 -15 -20 -11 -11 -19 -12 -32 -5 -16 9 -16 10 5
11 12 0 22 5 22 10 0 6 5 10 10 10 6 0 10 -3 10 -6z m55 -4 c3 -5 1 -10 -4
-10 -6 0 -11 5 -11 10 0 6 2 10 4 10 3 0 8 -4 11 -10z m-334 -40 c5 0 9 -4 9
-9 0 -5 -11 -8 -25 -7 -23 1 -37 16 -15 16 6 0 11 10 11 23 l2 22 4 -22 c2
-13 9 -23 14 -23z m199 30 c0 -5 -5 -10 -11 -10 -5 0 -7 5 -4 10 3 6 8 10 11
10 2 0 4 -4 4 -10z m-2 -51 c11 0 13 -2 4 -6 -17 -7 -44 16 -35 31 5 7 9 5 11
-6 2 -10 11 -18 20 -19z m-98 1 c0 -5 -2 -10 -4 -10 -3 0 -8 5 -11 10 -3 6 -1
10 4 10 6 0 11 -4 11 -10z m-130 -20 c0 -5 -5 -10 -11 -10 -5 0 -7 5 -4 10 3
6 8 10 11 10 2 0 4 -4 4 -10z m174 -26 c9 -24 2 -26 -12 -4 -7 11 -8 20 -3 20
5 0 12 -7 15 -16z m-59 -32 c-3 -3 -11 0 -18 7 -9 10 -8 11 6 5 10 -3 15 -9
12 -12z m978 -23 c-11 -11 -43 -2 -43 11 0 12 44 17 49 7 2 -5 -1 -13 -6 -18z
m31 -24 c-4 -8 -10 -15 -15 -15 -5 0 -9 7 -9 15 0 8 7 15 15 15 9 0 12 -6 9
-15z m49 -43 c-18 -5 -27 3 -18 17 4 7 10 7 20 -2 11 -10 11 -13 -2 -15z m49
-43 c-1 -9 8 -21 20 -27 20 -9 21 -11 4 -11 -18 -1 -56 33 -56 51 0 5 8 8 18
6 9 -2 16 -11 14 -19z"/>
<path d="M1440 1790 c0 -5 5 -10 10 -10 6 0 10 5 10 10 0 6 -4 10 -10 10 -5 0
-10 -4 -10 -10z"/>
<path d="M1250 1751 c0 -5 7 -11 14 -14 10 -4 13 -1 9 9 -6 15 -23 19 -23 5z"/>
<path d="M1380 1700 c0 -5 5 -10 10 -10 6 0 10 5 10 10 0 6 -4 10 -10 10 -5 0
-10 -4 -10 -10z"/>
<path d="M1391 1675 c-23 -24 -29 -35 -18 -35 9 0 22 6 29 13 7 8 18 16 24 18
6 2 9 12 5 21 -5 15 -11 12 -40 -17z"/>
<path d="M1230 1680 c0 -5 5 -10 10 -10 6 0 10 5 10 10 0 6 -4 10 -10 10 -5 0
-10 -4 -10 -10z"/>
<path d="M980 1650 c0 -5 5 -10 11 -10 5 0 7 5 4 10 -3 6 -8 10 -11 10 -2 0
-4 -4 -4 -10z"/>
<path d="M1531 1644 c0 -11 3 -14 6 -6 3 7 2 16 -1 19 -3 4 -6 -2 -5 -13z"/>
<path d="M1010 1630 c0 -5 5 -10 10 -10 6 0 10 5 10 10 0 6 -4 10 -10 10 -5 0
-10 -4 -10 -10z"/>
<path d="M1580 1630 c0 -5 5 -10 11 -10 5 0 7 5 4 10 -3 6 -8 10 -11 10 -2 0
-4 -4 -4 -10z"/>
<path d="M1131 1604 c0 -11 3 -14 6 -6 3 7 2 16 -1 19 -3 4 -6 -2 -5 -13z"/>
<path d="M1160 1610 c0 -5 5 -10 10 -10 6 0 10 5 10 10 0 6 -4 10 -10 10 -5 0
-10 -4 -10 -10z"/>
<path d="M1105 1580 c-3 -5 -1 -10 4 -10 6 0 11 5 11 10 0 6 -2 10 -4 10 -3 0
-8 -4 -11 -10z"/>
<path d="M1565 1560 c-3 -6 1 -7 9 -4 18 7 21 14 7 14 -6 0 -13 -4 -16 -10z"/>
<path d="M1663 1443 c9 -2 25 -2 35 0 9 3 1 5 -18 5 -19 0 -27 -2 -17 -5z"/>
<path d="M1720 1420 c0 -5 12 -10 26 -10 14 0 23 4 19 10 -3 6 -15 10 -26 10
-10 0 -19 -4 -19 -10z"/>
<path d="M910 1303 c0 -10 4 -14 8 -8 4 6 11 13 16 18 5 4 2 7 -7 7 -10 0 -17
-8 -17 -17z"/>
<path d="M1700 1316 c0 -2 7 -6 15 -10 8 -3 15 -1 15 4 0 6 -7 10 -15 10 -8 0
-15 -2 -15 -4z"/>
<path d="M1743 1263 c-33 -4 -47 -23 -17 -23 10 0 14 -6 11 -14 -10 -25 17 -7
30 19 6 14 10 24 10 23 -1 0 -17 -3 -34 -5z"/>
<path d="M948 1253 c7 -3 16 -2 19 1 4 3 -2 6 -13 5 -11 0 -14 -3 -6 -6z"/>
<path d="M920 1213 c0 -14 2 -15 9 -4 7 11 10 11 17 0 4 -7 3 -14 -4 -17 -7
-2 -12 -8 -12 -13 0 -5 9 -4 19 3 15 9 17 15 8 30 -15 23 -37 23 -37 1z"/>
<path d="M900 1096 c0 -14 5 -28 10 -31 6 -4 10 7 10 24 0 17 -4 31 -10 31 -5
0 -10 -11 -10 -24z"/>
<path d="M940 1099 c0 -5 5 -7 10 -4 6 3 10 8 10 11 0 2 -4 4 -10 4 -5 0 -10
-5 -10 -11z"/>
<path d="M1721 1094 c0 -11 3 -14 6 -6 3 7 2 16 -1 19 -3 4 -6 -2 -5 -13z"/>
<path d="M1010 1046 c0 -2 7 -6 15 -10 8 -3 15 -1 15 4 0 6 -7 10 -15 10 -8 0
-15 -2 -15 -4z"/>
<path d="M1658 1033 c7 -3 16 -2 19 1 4 3 -2 6 -13 5 -11 0 -14 -3 -6 -6z"/>
<path d="M1100 960 c0 -5 5 -10 10 -10 6 0 10 5 10 10 0 6 -4 10 -10 10 -5 0
-10 -4 -10 -10z"/>
<path d="M1058 943 c-22 -5 -22 -13 -3 -39 14 -19 14 -18 15 4 0 12 5 22 10
22 6 0 10 5 10 10 0 10 -3 11 -32 3z"/>
<path d="M1596 935 c4 -8 1 -15 -5 -15 -6 0 -11 -5 -11 -10 0 -6 8 -5 20 2 23
15 27 38 5 38 -9 0 -12 -6 -9 -15z"/>
<path d="M1281 894 c0 -11 3 -14 6 -6 3 7 2 16 -1 19 -3 4 -6 -2 -5 -13z"/>
<path d="M1090 891 c0 -5 5 -13 10 -16 6 -3 10 -2 10 4 0 5 -4 13 -10 16 -5 3
-10 2 -10 -4z"/>
<path d="M1192 880 c15 -24 24 -25 32 -4 9 23 8 24 -19 24 -23 0 -24 -2 -13
-20z"/>
<path d="M1348 893 c-10 -2 -18 -8 -18 -13 0 -4 -9 -10 -20 -13 -12 -3 -20
-14 -20 -26 0 -12 -4 -21 -10 -21 -5 0 -10 5 -10 10 0 6 -4 10 -10 10 -12 0
-13 -11 0 -30 7 -12 12 -12 22 -2 6 6 21 12 33 13 11 0 14 3 8 6 -24 9 -13 33
17 40 17 3 30 12 30 19 0 8 -1 13 -2 13 -2 -1 -11 -3 -20 -6z"/>
<path d="M1235 810 c3 -5 8 -10 11 -10 2 0 4 5 4 10 0 6 -5 10 -11 10 -5 0 -7
-4 -4 -10z"/>
<path d="M1970 684 c0 -3 7 -12 15 -20 16 -17 18 -14 9 10 -6 15 -24 23 -24
10z"/>
</g>
</svg>
