<svg xmlns="http://www.w3.org/2000/svg" width="100" height="100" fill="none" opacity=".3" stroke="#ff6002" stroke-linecap="round" stroke-linejoin="round" xmlns:v="https://vecta.io/nano"><path d="M38.821 36.11l-.13.17-.56-.35m.89.23l-.08.1-.38-.6-.01.01m-.28 1.17l-.13.17-.63-.31m.959.18l-.09.1-.27-.86-.04.05m1.081-.56l-.13.16-.49-.29-.05.07m.87.07l-.09.12-.22-1.09-.06.07m1.029-.54l-.1.12m.82-1l-.11.13-.63-.12-.09.12m.961-.09l-.06.09-.23-.74-.06.07m1.06.15l-.1.13-.46-.24-.08.11-.4-.37-.05.06m1.259.3l-.08.11.13-.92-.11.14m.5-.12l-.08.1-.37-.24-.06.07m.631.08l-.07.09m1.979-.9l-.01.01-.69-.15-.39.5-.64-.39-.12.15m1.87-.15l-.02.03m.621-.08l-.58-.69-.07.09m1.519.27h-.01l-.45-.28-.09.12m-8.24 11.49v.01m1.21-4.84l-.08.11-.3-.57-.09.12m.26.29l-.16.2-.79-.31-.04.05"/><path d="M37.72 39.18l-.07.1-.46-1.18-.13.17.06-.97-.13.17m.571 1.67l-.15.19-.87-.2-.06.08m.42 1.69l-.06.08.2-1.41-.38.49.04-.83-.14.18m.249 1.48l-.15.18m.42 1.05l-.05.06-.98-.66-.15.18m11.03-11.16l-.02.02-.78-.39-.1.12m2.76 22.811l-.01.01-1.35.05-.16.21-.66-.58-.16.21-1.18-.48-.14.19-.88-.56-.14.18-1.15-.67-.13.17-.89-.59-.12.16-.55-.79-.14.19-.23-.72-.1.13-.52-.44-.11.14-.13-.64-.13.16-.42-.52-.11.15-.33-.91-.09.12-.46-.58-.09.11-.54-1.29-.09.12-.45-.9-.06.08-.36-1.05-.05.06-.06-1.48-.03.04-.12-.9-.01.01m21.65-1.431l-.01.01M49.3 52.71v.01l-.05-.79-.1.12.03-.89-.17.22-.12-.57-.01.01m.66 1.67v.01l-.19-1.74-.14.18m.52 1.33l-.02.02-.16-.59m5.32-5.49h-.01l-.52-.3m-3.84 6.23v.01m6.52-8.31l-.01.02-.51-.14-.01.01m-1.38 2.58h-.01m-5.51 7.34l-.01.02m5.72-7.139v.01l-.4-.31m4.7-5.351v.01l-1.02.12-.04.04m1.16-.15v.01l-.69.09-.01.01m-9.35 11.96l-.02.02m.16.66l-.02.02-.24-.78v.01m.34.74l-.01.02-.19-.86-.04.05m.28-.68l-.11.15-.03-.76-.05.06m.32 1.8l-.01.02-.22-.88v.01m.27.84l-.01.02-.17-1.4-.01.02-.13-.65m-.55 2.44l-.18.23-.15-1.13-.09.12-.26-.95-.01.01m.64 2.47v.01l.25-1.33-.16.2m8.02-9.85h-.01l-.61-.38-.15.18m1.4.03l-.02.02-1.23-.26-.16.21-.59-.28v.01m-.46 3.59v.01l-.75-.58-.02.03m2.48-1.44l-.01.01m-.139-.84l-.02.02m.099.66l-.02.01m.01-.12l-.06.07m.24.12v.01l-.55-.74-.06.08m2.8-1.92l-.01.03m-1.35 1.89l-1-.36v.01m2.37-1.41l-.01.02m-1.41 1.83l-.87-.24-.07.08m-1.22 3.02l-.51-.4-.01.02m.9.18l-1.04-.54v.01l-.68-.36m1.71.91l-.88-.44-.02.02m.7.7h-.01l-.45-.38-.02.03m2.32-1.93l-.01.01m-7.01 7.06l-.05.07m.28 1.44h-.01"/><path d="M51.04 53.271v.01l-.04-.81-.07.08-.22-1.57-.09.11"/><path d="M51.01 51.3l-.02.03m.21.38l-.01.01m.46 1.05l-.33-.95-.07.08-.39-1.06-.05.07m7.11-6.1h-.01l-.61-.24"/><path d="M51.42 51.71l-.02.03m.34.97l-.01.01-.29-1.53-.04.05m.62 1.11l-.43-1.05-.04.06m6.1-6v.01l-.5-.36-.09.12-.44-.39-.13.16-.51-.21-.01.01m-4.18 6.21l-.01.02-.34-.51h-.01m.66 1.85l-.02.02m.07.12l-.34-1.07-.06.08-.19-.74-.02.03m-.44 3.09h-.01m6.6-8.44v.01l-.36-.44-.05.07m-6.61 7.21l-.03.03m.04.12l-.02.03m.07.28h-.01m.15.42v.01m.1.28v.01l-.17-.59-.01.01m.19.53l-.01.01-.27-1.13-.04.05m.22.44l-.39-1.14-.03.04-.23-.82v.01m.16 2.23l-.01.02m.09.42l-.02.04m.1.43l-.02.03-.06-.65h-.01m.14 1.15v.01l-.03-1.81-.13.16.03-.81-.06.07-.08-.63-.01.01m5.78-3.96l-.34-.49-.07.08m-3.57 5.52l-.59-1.3-.01.01m-1.35 1.401l-.06.07m.22 1.119v.01l-.26-1.12-.01.01m.4 1.65l-.19-.9-.01.01-.23-1.02"/><path d="M50.53 54.59l-.1-.72-.05.07-.2-1.16-.06.09-.16-1.13-.06.07m6.8-5.74h-.01l-.77-.67-.01.01m1.15.78l-.64-.55-.08.11m.98-.14l-.07.09-.63-.25-.08.1-.6-.24-.04.05"/><path d="M57.58 45.76l-.02.03-.4-.25-.01.02-.57-.17-.02.02-.88-.23-.01.02m2.91-4.05l-.04.05m.63-.11l-.12.16m.74-.15l-.14.17-.59-.21-.02.02-.71.04m1.89.14l-.01.02m.31-.17l-.13.17m.57-.07l-.01.02m.27-.05l-.01.01-.85-.1-.01.01-.86-.03v.01m-1.39 3.94l-.55-.17-.06.07m.47.5v.01l-.49-.5-.03.04m1.41-2.859l-.01.01-1.04-.14-.11.14m3.44-.741v.01l-1.07-.03-.14.18-.83-.07-.13.18-.66.01-.16.21-.91.09-.06.08m-6.51 12.77v.01m6.13-7.74v.01l-.47-.25v.01m2.1-1.79v.01m2.04-2.59l-.01.01-1.51-.19-.02.02m.16 1.91l-.02.01-.77-.16m.77.21l-.02.02m.01.02l-.01.02m2.46-3.119l-.01.01m-2.46 3.169l-.02.03-.71-.23h-.01m.24-.99l-.05.06-.46-.12-.05.06m1.31.07l-.05.07-.95-.21-.03.03m1.61.18l-.02.02-.77-.14m-.37-.779l-1.34-.23-.1.12m.76.349l-.1.13m2.08.44l-.02.02-.83-.27-.08.1-1.25-.49v.02l-.56-.22-.01.01m2.79.8l-.01.01m-2.71 3.49l-.02.02m3.13-4.009l-.01.02-1.23-.29-.04.06m-1.61 3.94h-.01m3.97-5.041l-.01.01m-3.81 2.93l-.01.02-.59-.21m.43.11l-.01.01m-.01-.06l-.02.02-.48-.28m1.1.41l-.74-.22-.01.01"/><path d="M58.05 44.51v.01m.73.22v.01m.17-.03l-.02.02-1.03-.36-.04.05m-3.17 5.74l-.3-.53-.04.04m3.141-3.09l-.01.01m-.011.04l-.03.03m0 .01l-.01.01-.39-.26m1.8-1.46l-.01.02m-.01.01l-.01.01m0 .01l-.05.07m-.01.03l-.08.1m3.071-3.91h-.01m-4.681 6.03h-.01l-1.07-.65-.06.09-.46-.31-.06.07m3.21-1.19l-.07.1"/><path d="M58.53 45.45l-.01.01m.22-.7l-.63.05-.01.01m.93.03l-.02.02-.56-.08-.09.11m.1.84h-.01m-.75 1.01v.01m-.06.08l-.01.01-.89-.7-.06.08-.37-.29m-2.84 6.26h-.01m5.51-6.89l-.02.02m-1.17 1.63l-.42-.2v.01m.32.26v.01l-.62.02-.01.01"/><path d="M57.72 47.05h-.01l-.83-.01-.02.03m-.37.44v.01m.3.2l-.88-.7m1.18.94l-.46-.35-.01.01m1.33-3.78v.01m.02-.1l-.06.07-.51-.15-.02.02m.88.14l-.06.07m1.26.16l-.04.06"/><path d="M60.03 44.21l-.01.03-1-.3-.07.09-.77-.25-.02.03-.72-.17-.02.02m-.95 5.14l-.08.1-.38-.29v.01m.13.29l-.02.03m.2.06l-.07.09m.59-1.109l-.05.05"/><path d="M57.1 48.06l-.08.1-.74-.54-.03.04m-.1 1.61v.01l-.36-.72-.13.17m-2.06 3.82h-.01m2.8-4.65l-.03.04"/><path d="M56.91 48.31l-.08.1-.72-.76-.03.03m1.35.02l-.01.01-.34-.35h-.01m2.85-2.68l-.01.02-.42-.25-.08.1m-4.23 6.221l-.01.01-.5-.55v.01m1.31-1.651l-.01.01-.55-.66-.05.06m1.33.8l-.59-.54-.07.08-.5-.51-.09.11-.47-.53-.03.03m5.69-3.61l-.01.02-.63-.2-.08.1-.66-.21-.08.1-.52-.18-.08.1-.64-.21-.02.02m-1.93 4.2h-.01l-.68-.49"/><path d="M56.13 48.21l-.01.01m.7.51h-.01l-.55-.5-.02.03-.61-.88-.06.09m2.6-1.73l-.01.02m.71.19l-.87-.33h-.01m.94.47l-.01.02m-1.3 1.67l-.04.05-.45-.45v.01m.611.28l-.01.02m-.34.46l-.4-.31-.01.01m.849-.26l-.04.05-.49-.29v.01m.54.22v.01m.02-.03v.01l-.5-.25-.02.02m-2.24 3.771v.01l-.31-.64m6.3-6.911l-.02.03-.7-.21-.01.01m-1.68.39l-.01.02-.49-.14-.02.02m1.33.22l-.07.09-.55-.24-.06.08-.91-.35-.01.01m2.67.74l-.01.02-1.27-.44v.01l-.48-.13"/><path d="M58.61 45.67l-.07.09m.49.07l-.07.08m.19-.08l-.08.11m.26-.09l-.02.02-.51-.19-.04.05-.76-.29-.01.01m1.07.74v.01m-.36.6l-.03.04-.98-.42-.06.08-.52-.28m1.56.63l-.02.02m-4.89 2.88l-.02.01m.37.43v.01m.18.08l-.05.06m.94 1.01v.01l-.61-.81-.07.1-.25-.49-.03.03-.7-.84-.02.03m7.28-5.64l-.06.08-.73-.35-.05.07"/><path d="M61.01 43.92l-.02.02-.5-.33-.02.02-.43-.17v.01m-1.5 3.67l-.03.04-.95-.68-.04.06m-5.25 4.9l-.01.01m.33.42h-.01l-.28-.52-.01.01-.43-.82-.01.01m1.29 2.63l-.01.01m.39.48v.01l-.48-.8-.01.02-.35-.79-.07.09-.16-.51-.05.07"/><path d="M53.02 51.53l-.01.02-.36-.6m.78 1.32h-.01l-.21-.52-.04.05m.14.07v.01l-.66-1.08-.05.06m-.09.09l-.01.01m.54 1.28v.01m.17.2l-.05.06-.21-.74-.05.06-.46-1.14-.02.02m.93 2l-.07.09m.34.87l-.01.01-.31-1.13v.01l-.31-.74m.55-2.18l-.02.03m.72.98l-.03.04m.05-.07l-.02.02m.34.49l-.02.02m.51.68l-.4-.63v.01l-.41-.64-.01.02-.26-.44-.08.1-.48-.84-.02.03m1.64 2.43l-.28-.47-.02.03m2.55-2.36l-.02.03-.41-.32m-1.77 3.23h-.01m2.15-2.74l-.01.02-.46-.46-.01.01m-1.47 2.45l-.25-.41-.02.02m.52.39l-.01.01-.46-.52m.59.65l-.62-.76-.02.02m.2 1.41l-.29-.45m-.16 1.07v.01m.99-1.2l-.39-.52m4.45-4.57l-.02.03-.69-.28v.01m-.62-.19l-.07.09-.78-.41-.02.03m1.54.64l-.01.01m.44.12l-.03.04"/><path d="M59.78 46.55l-.03.03-1.12-.55-.09.12-.49-.36-.02.03m-1.21 4.42l-.01.01m.13-.03l-.07.08-.52-.71-.03.04m2.09-2.38l-.06.08-.52-.34h-.01m1.24.49l-.01.02-.44-.21-.02.03-.91-.45h-.01m1.36.67l-.06.08-.43-.31-.07.08m-.03.95l-.04.05-.8-.54v.01m.79.54l-.04.06-.62-.5-.08.1-.83-.64-.07.09-.69-.54h-.01m1.06 3.08l-.06.08-.42-.45-.06.07-.37-.43m2.66-1.49l-.06.07-1.01-.81-.01.01m.87.73l-.02.02"/><path d="M58.79 47.93l-.02.02-.67-.54m-.39.96v.01m.17.03l-.06.07-.37-.42-.06.07m.65.56l-.01.01m.03-.01l-.02.02-.52-.44"/><path d="M58.231 48.65l-.1.12-.58-.66-.01.01-.4-.29-.06.07-.83-.68-.02.02m3.409-.39l-.01.01m-3.93 4.45l-.38-.59m-.319-.22l-.01.01-.26-.38m.589.69l-.03.04"/><path d="M55.36 50.83l-.04.06-.22-.44-.08.1m.25.11l-.27-.37-.07.1-.54-.74v.01"/><path d="M54.7 49.78l-.01.01m.55.47l-.05.05-.45-.59-.04.05m.56.48l-.06.07m.53.52l-.02.03-.39-.44-.01.01"/><path d="M55.76 50.74v.01l-.89-.93-.01.01-.43-.22-.03.04m1.66 1.5l-.01.01-.57-.7-.04.06m.74.76l-.01.01m-3.46-.96l-.01.01m.36.75l-.04.05m.4.87l-.48-1.35"/><path d="M53.26 51.5l-.04.05-.4-1.15-.07.08-.17-.78-.03.04m.87 1.14l-.01.01m.38.47l-.05.05m1.1 1.55l-.64-1.06-.04.05-.48-.84-.03.04-.44-.69-.07.08-.46-.79-.02.04m3.29 1.82v.01m3.06-5.05l-.09.11-.46-.39-.08.1-.54-.45-.1.13m1.87.86l-.02.03-.88-.57m.65.47l-.02.02"/><path d="M59.59 46.971l-.02.03-.46-.27m-5.46 3.329l-.02.02-.31-.5-.02.03m1.131 1.56l-.01.01-.32-.47-.35-.51-.02.02"/><path d="M54.27 50.9v.02m.52.72l-.01.02m.33.43v.01l-.49-.77-.04.05-.61-1-.05.07-.33-.59-.04.04-.45-.66-.01.02m.37.87l-.01.02-.35-.65"/><path d="M53.551 50.09l-.08.1-.19-.54-.05.06m.539.77l-.32-.62-.01.01m.36.93l-.01.01m.22.36l-.01.02m.04-.02l-.03.04m.34.49l-.03.04-.23-.56-.06.07m.22.16l-.01.01-.34-.65-.08.1m.8 1.4l-.01.02-.22-.46-.01.01m.43.94h-.01l-.17-.53-.01.01m.3.69l-.55-1.33-.03.04-.62-1.22-.05.07m1.79 1.92v.01m.61-.47l-.01.01-.27-.41m.34.35l-.04.04m-.52.68l-.3-.45m.94-.34l-.04.05-.27-.39h-.01m-.31 1.18l-.01.01m-.02.09l-.01.01m.05-.04l-.01.01-.27-.38-.02.02m.22-2.02l-.01.02m.75.76l-.01.01-.59-.8-.09.11-.26-.55-.08.09-.19-.47-.03.03"/><path d="M55.17 49.82l-.06.08m.22-.1v.01m.13.14l-.42-.39m1.11.89l-.77-.78-.06.08m.84.84l-.02.02m.68.62v.01l-.48-.55-.03.04-.37-.47-.06.08m.16-1.01l-.88-.85-.08.1-.48-.48-.24.31m2.59 2.79l-.01.01-.69-.79-.05.06-.54-.74-.07.1-.75-1.02-.07.08-.28-.48-.07.09M47.39 31l-.02.02-.13-.85-.03.04m.35.79l-.01.01.16-1.57-.11.15m-.07 1.83l-.01.01m1.65-.93l-.02.02m.19.05l-.02.03m-.18.33l-.04.05m-.36.49l-.02.02-.45-.84-.11.14-.07-.71-.13.16-.06-.75-.07.1m2.75.61l-.08.1m.4-.49l-.02.03m-1.619 2.44l-.03.04m.029-1.24l-.11.14m.11.86l-.04.04.06-1.4-.01.02m-.13 1.79l-.03.03.06-1.09-.02.02m2.19-1.39v.01m-.65 1.5l-.01.02.25-1.63-.04.04m-.06 1.54l-.05.06.57-1.51-.03.04m.57.38l-.01.01M50.4 32.6l-.02.02m.79-.86l-.05.06m.26-.33l-.07.08.14-1.16-.02.02m-1.06 1.7l.12-1.29-.12.15m-.21 2.15l-.01.02.18-1.07-.09.11.12-.99-.02.03m1.18.28l-.08.11m-1.05 1.36l-.01.01m1.73-1.88l-.01.02"/><path d="M52.1 31.14h-.01m-.89 1.24l-.02.02m.49-.47l-.14.17.27-1.06-.02.03m-.03 1.02l-.1.12m-.86 1.33l-.08.09m1.87-2.14l-.05.07m-.31.7l-.09.13-.45-.17-.08.11m1.74-.21l-.04.05m.27-.27l-.16.2-.57-.14-.1.13m.45 1.1l-.07.09m.15-.17l-.07.09m.94-1.2l-.08.1m-.29.481l-.16.2-.04-.8-.05.08m1.041.869l-.06.07-.66.06-.11.14m1.08-.13l-.08.11m.569-.32l-.06.07h-.64l-.06.07m1.25.49l-.08.1-.42-.67-.03.03m.85.9l-.16.21-.2-.47-.06.09m.57.91l-.04.06-.29-.55-.4.51m1.07.43v.01m.74-.31l-1.08-.1-.05.06m.96.79l-.03.04m.82.09l-.01.01-.7-.02-.13.16m.92-.13l-.07.09m1.08.61l-.01.02-1.7.44-.12.15m1.82-.469l-.01.02-1.39.8-.02.01m.99-.311l-.08.11m.57-.19l-.02.02-.71.09-.01.01m.71.14l-.03.04-1.14.59-.05.07m1.48-.399l-.03.04-1.59.44-.02.02m1.66-.391l-.06.07m-.02.37l-.05.06m-.89 2.19l-.02.02m1.52-1.68l-.01.01-1.8.57-.01.01"/><path d="M58.92 38.41l-.03.04"/><path d="M59.09 38.26l-.1.13-1.29.56-.01.01m2.26-.479v.01l-.85.14-.09.12-1.1.13-.03.04m1.51.279h-.71m.77.03h-.01l-.54-.02v.01m-.379.05l-.04.05m1.619.2l-.02.02-1.07.2-.31.41m1.62-.71l-.01.01-.52-.19-.07.1-1.17-.12-.02.02m1.2 1.41l-.29.37-.7.08-.02.02m1.77-.49l-.01.01-1.01-.38-.2.26-.88-.21-.01.02M41.03 30.27l-.25.12-.43-.7h-.01m.88.739l-.15.07-.09-.88h-.01M40 30.79l-.24.12-.53-.7v.01m.98.72l-.16.07.17-1.12-.08.04m1.529-.041l-.24.11-.39-.59-.09.04m.941.56l-.18.09.36-1.36-.1.05m1.439-.039l-.17.09m1.461-.68l-.18.09-.65-.48-.16.08m1.12.43l-.12.05.16-.95-.11.05m1.11.749l-.19.09-.38-.52-.16.08-.23-.63-.1.04m1.26 1.021l-.16.08.65-.96-.2.1m.619.129l-.13.07-.29-.48-.11.06m.67.431l-.13.06m2.71.07l-.01.01-.7-.55-.71.35-.5-.78-.21.1m2.181.86l-.04.01m.74.259h-.01l-.26-1.09-.13.06m1.559 1.13h-.01l-.35-.56-.18.08M35.53 36.1h-.01m4.01-4.761l-.16.07-.01-.8-.17.08m.13.471l-.28.14-.72-.78-.07.04m-.151 2.56l-.13.07.14-1.58-.25.12.6-1.05-.24.12m-.269 2.18l-.27.13-.87-.69-.12.05m-.45 2.129l-.11.06 1-1.48-.7.34.5-.91-.26.13m-.53 1.79l-.26.13m-.11 1.41l-.08.04-.74-1.29-.27.13m18.51-6.499l-.04.02-.66-.87-.18.08m-9.4 27.141l-.01.01-1.54-.69-.3.15-.42-1.02-.3.15-1.06-1.18-.27.13-.68-1.11-.26.12-.92-1.37-.23.11-.68-1.14-.22.11-.19-1.18-.27.13.15-.94-.19.09-.34-.78-.2.1.2-.79-.23.11-.18-.81-.22.1.13-1.2-.16.08-.2-.9-.17.08.1-1.75-.16.08-.01-1.25-.12.06.18-1.38-.09.04.74-1.7-.05.03.36-1.08-.03.02M60.18 46.5h-.01M43.7 54.67h-.01l.38-.91-.17.08.51-.99-.31.15.18-.7-.02.01m-.17 2.24h-.01l.75-2.06-.26.13m-.15 1.79l-.02.01.14-.76h-.01m8.99-3.26l-.01.01-.41-.63h-.01m3.58-.75h-.01m.57-.11l-.02.02-.5-.43h-.01m-2.969 2.14v.01M43.51 55.88l-.02.01m10.33-4.88l-.27-.56h-.01m8.22-3.43h-.01l-1.21-.43-.07.04m1.39.47l-.83-.28-.02.01m-17.06 8.31l-.03.02m-.19.82l-.03.02.16-1.01V55m-.03 1.02l-.02.02.25-1.07-.07.03m.69-.61l-.21.1.38-.86-.08.04m-.62 2.2l-.03.01.24-1.1h-.01m-.15 1.1l-.03.01.58-1.67-.03.02.21-.8m-1.95 2.44l-.33.16.45-1.35-.17.08.23-1.21-.01.01m-.63 3.13l-.02.01 1.02-1.36-.29.14m14.4-6.68l-.48-.77-.27.13m1.56.8l-.03.01-1.24-.96-.3.14-.51-.63m-2.49 3.79h-.01l-.52-1.05-.04.02m3.58-.26l-.01.01m.29-1.02l-.03.01m-.25.79l-.03.01m.08-.14l-.11.05m.21.27h-.01l-.21-1.13-.12.06m4.2-.61l-.03.01m-2.55 1.38v.01l-.92-.95v.01m3.43-.28l-.02.01m-2.59 1.28l-.84-.74-.13.06m-3.03 2.72l-.34-.73-.03.01m-.21-.7h-.01m1.14 1.39h-.01l-.87-1.17-.01.01-.56-.78v.01m1.42 1.95l-.76-.97-.02.01m.4 1.16l-.3-.67-.04.02m-8.1 3.21l-.09.04m-.48 1.77l-.01.01"/><path d="M45.35 56.25l.39-.93-.12.05.61-1.88-.16.08m.33.44l-.04.02m.02.55h-.02m-.05 1.44l.15-1.26-.13.06.15-1.4-.09.04m11.32-2.95h-.01l-.55-.61m-10.52 4.8l-.04.02m-.15 1.27l-.01.01.5-1.87-.07.03m.1 1.58l.09-1.41-.08.04m10.14-3.39l-.01.01-.36-.67-.17.08-.27-.69-.24.12-.46-.52h-.01m-8.1 4.7l-.02.01-.11-.76h-.01m-.28 2.43l-.02.02m.01.17h-.01l.22-1.39-.13.06.21-.94-.06.03m-2.18 3.22v.01M57.15 51h-.01l-.17-.68-.09.04"/><path d="M45.5 54.84l-.04.02m-.03.16l-.04.02m-.14.91h-.01m-.04.38h-.01l.14-.76-.02.01m-.08.7l-.01.01.31-1.42-.08.04m.01.61l.19-1.49-.05.03.19-1.05-.01.01m-1.04 2.59l-.02.01m-.13.54l-.05.02m-.13.541l-.03.02.29-.76h-.01m-.48 1.369l.96-2.05-.24.12.48-.9-.1.05.25-.76-.01.01m8.67-1.28h-.01l-.12-.74-.12.06m-7.03 4.24l.04-1.79-.02.01m-2.28.83l-.1.05m-.37 1.39l.31-1.4m-.46 2.08l.27-1.12-.01.01.3-1.28v.01"/><path d="M44.05 57.45h-.01l.3-.87-.1.05.41-1.4-.12.06.44-1.36-.11.05m10.79-2.73l-.51-1.18-.02.01m.87 1.51l-.42-.97-.14.08m1.17.38l-.12.06-.58-.63-.14.07-.54-.59-.08.04"/><path d="M56.81 51.39l-.05.02-.3-.49-.02.01-.55-.51-.04.02-.85-.74-.03.01m.96 2.18h-.01m4.54-5.14l-.08.04m.78.23l-.22.1"/><path d="M61.84 47.36l-.24.12-.56-.56-.03.02-.81-.35m2.05 1.19l-.03.01m.44-.01l-.24.12m.69.23l-.03.01m.33.1h-.01l-.9-.57-.02.01-.95-.51-.01.01m-3.72 3.66l-.52-.49-.11.05m.26.82h-.01l-.28-.83-.06.03m3.15-2.43h-.01l-1.09-.73-.2.1m4.27 1.06h-.01l-1.18-.61-.26.12-.89-.53-.25.12-.74-.34-.3.14-1.08-.39-.1.05m-2.38 4.96v.01m-11.93 5.82h-.01m11.13-5.4h-.01m.01.07v.01l-.4-.53m2.53-.51l-.01.01m.82-.35h-.01m3.72-1.79l-.03.01-1.59-1.04-.02.01m-.87 2.23l-.03.01-.78-.61h-.01m.76.66l-.03.02m0 .02l-.03.01m4.48-2.15l-.02.01m-4.5 2.21l-.03.02-.68-.65h-.01m.82-.98l-.09.04-.46-.39-.09.04m1.441.8l-.1.05-.95-.76-.05.02m1.709 1.08l-.03.02-.79-.58h-.01m.02-1.09v.01l-1.39-1-.17.08"/><path d="M58.98 48.19l-.19.09m2.11 1.63l-.03.02-.8-.76-.13.07-1.14-1.23-.02.01-.5-.55-.02.01m2.69 2.43h-.01m-4.96 2.44l-.03.01m5.72-2.79l-.03.01-1.22-.99-.08.04m-3.97 3.54h-.01m7.22-3.49l-.02.01m-5.88 1.21l-.03.01-.53-.56h-.01"/><path d="M57.53 49.71h-.02m.02-.06l-.02.01-.39-.59m1.01 1.07l-.71-.65h-.01m.62.76l-.02.01m.71.65h-.01m.21.06l-.03.01-.96-.97-.08.04m-6.7 4.71L51.1 54l-.07.03m5.23-1.76l-.02.01m-.04.03l-.04.03m-.01.01h-.01l-.3-.5m2.81-.66l-.01.01m-.03.02h-.01m0 .011l-.1.06m-.03.029l-.14.07m5.59-2.72h-.01m-8.56 4.2h-.01l-.85-1.31-.12.06-.34-.6-.11.05m4.26.42l-.13.07m.62-.66h-.01l-.74-.29-.01.01m1.03.54l-.03.01-.59-.4-.15.08m-2.74 2.07h-.01m.99-.35h-.01"/><path d="M56.28 52.64l-.62-1.27-.12.06-.25-.53h-.01m.32 2.081h-.01m.72-.281h-.01m2.32-1.05l-.03.01m-2.21 1.19h-.01l-.35-.45h-.01m.21.47v.01l-.71-.32-.01.01"/><path d="M56.26 52.92h-.01l-.93-.47-.04.01m-.65.3h-.01m.23.4l-.6-1.27-.01.01m.82 1.69h-.01l-.32-.64h-.02m3.57-3.51h-.01m.081-.09l-.1.05-.5-.46-.02.01m.899.64l-.1.05m1.33.87l-.09.04"/><path d="M60.42 51l-.04.01-.96-.87-.12.06-.74-.71-.03.02-.72-.58-.02.02m-3.899 5.25l-.14.06-.26-.52h-.01m-.011.4l-.04.02m.2.18l-.14.06m1.27-.93l-.08.04"/><path d="M55.01 53.7l-.15.08-.53-1.01-.06.03m-.99 1.76l-.01-1-.24.11m1.27-.52l-.05.02"/><path d="M54.67 53.88l-.15.08-.4-1.26-.05.02m1.5.77l-.2-.58m4.66-1.45l-.02.02-.34-.51-.14.07m-8.17 4.66v.01l-.27-.89v.01m2.37-1.13h-.01l-.25-1.05-.1.05m1.06 1.62l-.37-.93-.12.06-.29-.86-.16.08-.23-.86-.05.02m8.37-.93l-.03.01-.59-.56-.15.07-.62-.61-.15.08-.49-.5-.14.07-.6-.59-.03.02"/><path d="M54.03 52.54v.01l-.51-.93v.01m.32 1.72l-.02.01m.5.95l-.34-.87-.04.02-.2-1.31-.13.06m3.88-.52l-.03.01m.7.61l-.8-.85h-.01m.79 1.04l-.02.01m-2.37 1.17l-.07.04-.26-.75m.52.66l-.02.01m-.63.33l-.29-.56m1.08.17l-.07.04-.38-.59h-.01m.49.55h-.01m.04-.01l-.01.01-.43-.56-.02.02m-4.59 3v.01-.89h-.01m3.26-.61h-.01m7.62-3.69l-.04.01-.67-.62-.02.01m-2.09-.48l-.03.01-.47-.42-.03.02"/><path d="M59.97 50.36l-.12.06-.49-.57-.12.06-.82-.9-.01.01m2.59 2.3l-.03.01-1.18-1.19-.01.01-.46-.41h-.01m-1.3 2.11l-.12.06m.51.35l-.12.06m.26.02l-.15.07m.34.04l-.04.01-.47-.49-.07.03-.7-.74v.01m.791 1.42h-.01m-.731.48l-.05.03-.87-1.01-.12.06-.42-.6h-.01m1.4 1.56l-.02.01m-7.08.55l-.02.01m.181.69h-.01m.159.19l-.08.04m.49 1.66l-.24-1.24-.14.07-.01-.69-.05.03-.32-1.33-.05.02m11.27-2.35l-.11.06-.62-.8-.1.05"/><path d="M61.67 51.2l-.03.02-.38-.65-.03.01-.4-.42m-3.7 3.31l-.06.02-.69-1.28-.07.04m-8.59 2.63l-.02.01m.14.65l-.04-.74-.01.01-.03-1.16-.02.01m.011 3.66l-.02.01m.179.75h-.01l-.1-1.15-.02.01.04-1.08-.13.07.1-.66-.1.04m.84.07l-.02.01-.08-.87m.15 1.9l-.01.01.05-.71-.08.04m.12.16l-.15-1.57-.09.04m-.15.06h-.01m-.1 1.73l-.01.01m.08.32l-.09.04.17-.94-.08.04.1-1.54-.03.01m-.06 2.76l-.11.06m-.15 1.041h-.01m.05.129l-.01.01.28-1.44h-.01l.05-1m1.82-2.14l-.04.02m.27 1.49l-.06.03m.1-.05l-.03.02m.11.72l-.03.02m.2 1.04h-.01l-.1-.92v.01l-.12-.94-.02.01-.05-.64-.14.07-.08-1.2-.04.02m.51 3.63l-.06-.68-.04.02m4.17-1.26l-.05.02-.28-.58m-3.76 2.66h-.01m.03-.01l-.01.01m3.9-1.9l-.03.01-.26-.76-.02.01m-2.99 1.94h-.01l-.05-.61-.03.02m.36.73h-.01l-.23-.83m.301 1.05l-.28-1.2-.03.01m-.541 1.7l-.08-.66m-.77 1.11l-.01.01m1.77-.8l-.14-.8m7.5-2.7l-.04.02-.62-.69-.01.01m-.6-.55l-.13.06-.64-.89-.04.02m1.37 1.57h-.01m.43.38l-.06.03"/><path d="M58.85 53.48l-.05.02-.95-1.24-.17.09-.36-.67-.04.02m-3.779 4.31h-.02m.169.04l-.13.06-.19-1.09-.06.03m3.66-1.53l-.11.05-.41-.67m1.12 1.24l-.03.01-.37-.48-.04.02-.78-1m1.16 1.5l-.11.05-.32-.59-.12.06m-.56 1.05l-.07.04-.6-1.05h-.01m.6 1.06l-.09.04-.42-.9-.14.07-.59-1.18-.13.06-.47-.99-.01.01m-.5 4.03l-.11.06-.22-.74-.11.05-.18-.69m3.8-.21l-.1.05-.7-1.47h-.01m.58 1.3l-.03.01"/><path d="M56.99 54.49l-.04.01-.46-.97m-.96.87l-.02.01m.19.12l-.11.05-.18-.68-.11.05m.42.98l-.02.01"/><path d="M55.75 54.94l-.04.02-.34-.78"/><path d="M55.961 54.99l-.18.09-.29-1.07-.01.01-.3-.55-.1.05-.56-1.22-.04.02m4.039 1.43h-.01m-6.85 2.841l-.11-.86m-.24-.43l-.01.01-.08-.58-.01.01m.29 1.089l-.06.03"/><path d="M51.54 55.87l-.08.04v-.61l-.15.07m.22.26v.01l-.1-.57-.14.07-.2-1.12m.28.31h-.01m.35.83l-.07.03-.19-.91-.07.03m.37.85l-.11.05m.3.88l-.03.01-.19-.7h-.02"/><path d="M52.03 55.991l-.48-1.53-.02.02-.36-.5-.07.04m1.04 2.599l-.26-1.09-.09.04m.42 1.26h-.01m-3.37-2.97h-.01m-.01 1.05l-.07.03m-.03 1.19l.2-1.78"/><path d="M48.811 55.47l-.08.04.18-1.52-.11.06.23-.97-.05.02m.349 1.76l-.02.01m.17.73l-.08.04m.39 2.34h-.01l-.12-1.55-.09.04-.08-1.2-.04.02-.12-1.02-.12.06-.09-1.14-.04.02m8.89-.129l-.16.08-.3-.69-.14.07-.37-.81-.18.09m1.63 1.999l-.04.02-.67-1.13m.46.89l-.02.01"/><path d="M58.4 53.85l-.03.02-.37-.55h-.01m-7.95.74l-.03.02-.08-.73-.04.02m.42 2.37l-.02.01-.1-.7-.12-.77-.02.01"/><path d="M50.28 55.36l-.02.01m.19 1.1l-.02.01m.13.67l-.13-1.13-.07.03-.13-1.45-.1.05-.05-.84-.06.02-.15-.98-.02.01m-.06 1.18l-.03.02-.03-.92h-.01"/><path d="M49.91 54.05l-.14.07.08-.72-.08.04m.18 1.17l-.03-.87h-.01m-.11 1.241l-.01.01m.05.529l-.03.01m.06-.01l-.06.03m.12.74l-.06.03.05-.76-.11.06m.16.29l-.02.01-.02-.92-.14.07m.13 2.01l-.03.01.01-.63-.02.01m-.03 1.28v.01l.09-.7-.01.01"/><path d="M49.89 58.01h-.01l.12-1.8-.06.03-.03-1.7-.09.05m1.89 2.95h-.01l-.08-.6m.19.57l-.07.04m-.95.47l-.1-.67m1.24.13l-.06.03-.1-.58h-.01m-.99 1.15l-.02.01m-.07.08l-.02.01m.08-.01h-.02l-.09-.58-.04.02m1.36-2.15l-.02.01m.42 1.27l-.02.01-.22-1.23-.16.08.01-.77-.14.07.05-.64-.05.02"/><path d="M51.88 54.63l-.11.05m.31.02h-.02m.08.23l-.01.01-.25-.67m.75 1.61l-.44-1.3-.11.05m.49 1.41l-.03.01m.42 1.07l-.01.01-.24-.88-.05.03-.16-.73-.11.06m.74-1.06v.01l-.53-1.44-.14.06-.28-.8-.44.22m1.38 4.55l-.01.01-.34-1.27-.1.05-.2-1.13-.13.07-.28-1.56-.13.06-.05-.69-.12.06m1.69-23.53l-.04.02.33-1.03-.05.03m-.05 1.07l-.02.01 1.04-1.67-.2.1m1.26 1.88l-.02.02m.18.16l-.05.02m-.37.27l-.08.04m-.67.35l-.04.02-.04-1.19-.19.09.3-.84-.23.12.34-.88-.13.07m2.75 2.19l-.15.07m.72-.33l-.03.02m-3.16 1.86l-.05.02m.71-1.37l-.2.1m-.35 1.02l-.07.03.84-1.55-.02.02m-1.13 1.941l-.05.02.66-1.19-.03.01m3.23-.371l-.02.01m-1.54 1.34l-.03.01 1.18-1.7-.07.04M57 31.76l-.09.04 1.47-1.39-.06.03m.43.74l-.01.01m-2.79 1.48l-.03.01m1.35-.53l-.07.04m.46-.23l-.11.06.78-1.24-.03.02m-2.12 1.33l.84-1.39-.21.1m-1.42 2.31l-.02.01.79-1.1-.16.07.66-1.04-.03.02m1.18.96l-.16.08m-1.91.95l-.02.01m2.96-1.16l-.02.01m-1.68.9l-.04.01m.81-.26l-.26.12.89-1.05-.04.02m-.59 1.14l-.17.08m-1.71 1.02l-.13.06m3.27-1.38l-.09.04m-.73.63l-.18.09-.41-.43-.15.07m1.3.49h-.01m.79.23l-.08.04m.45-.16l-.28.14-.58-.47-.18.08m-.1 1.49l-.12.07m.26-.11l-.12.06m1.71-.83l-.15.07m-.59.37l-.29.14.4-.91-.1.05m.69 1.55l-.1.05-.78-.29-.2.09m1.28.45l-.15.08m.82-.05l-.11.05-.72-.36-.1.05m1.131 1.23l-.14.07-.11-.98-.04.02m.459 1.48l-.29.14.03-.63-.13.06m.15 1.34l-.08.04-.03-.78-.72.36m1.95 1.14l-1.14-.71-.1.05m.64 1.41l-.04.02m.86.55l-.01.01-.78-.4-.23.11m1.1.35l-.12.06m.87 1.29l-.03.01-2.13-.44-.22.1m2.3.47l-.03.02-2 .13-.02.01m1.27.19l-.15.08m.75.1l-.03.02-.85-.3-.02.01m.73.55l-.06.03-1.6.03-.1.05m1.89.36l-.07.03-2.02-.38-.03.02m2.07.47l-.1.05m-.22.4l-.1.04m-2.2 1.98l-.02.01m2.62-1.06l-.02.01-2.34-.35-.01.01"/><path d="M62.35 43.87l-.07.03"/><path d="M62.62 43.79l-.18.09-1.76-.08-.02.01m2.81.7l-.01.01-1.03-.31-.17.08-1.31-.44-.05.02m1.54 1.14l-.01.01-.79-.39m.84.45l-.59-.32h-.01m-.46-.14l-.07.03m1.71 1.1l-.03.02-1.31-.36-.58.29m2.21.1h-.01l-.48-.5-.14.07-1.25-.78-.04.02m.59 2.24l-.53.25-.84-.29-.02.02m2.25.42h-.02l-.93-.98-.36.18-.87-.71-.03.01M46.7 24.91h-.34l-.1-1.02h-.01m.58 1.31h-.2l.37-1.04h-.01m-1.72.78h-.34l-.21-1.07h-.01m.7 1.34h-.21l.8-1.17h-.11m1.74.79h-.32l-.12-.87h-.13m.749 1.14h-.24l1.14-1.33h-.14m1.651.75h-.25m2.02.04h-.26l-.46-.89h-.22m1.019 1.09h-.17l.7-.99h-.15m.841 1.45h-.26l-.14-.79h-.23l.08-.84h-.12m.85 1.83h-.23l1.27-.72h-.29m.63.5h-.19l-.06-.7h-.15m.509.85h-.18m3.011 1.57h-.02l-.48-.99h-.99l-.13-1.16h-.3m1.98 2.16h-.05m.69.69h-.01l.3-1.37h-.18m1.129 2.11h-.01l-.08-.82h-.24m-22.069.91h-.02m7.12-3.16h-.21l.42-.91h-.23m-.11.6h-.4l-.38-1.27h-.1m-1.56 2.81h-.19l1.02-1.7h-.34l1.24-.85h-.33m-1.5 2.3h-.38l-.59-1.25h-.16m-1.68 2.15h-.16l1.95-1.12h-.98l1.05-.75h-.35m-1.58 1.73h-.36m-.9 1.52h-.11l-.14-1.85h-.36m24.35 2.83h-.05l-.27-1.34h-.24M35.37 53.53h-.02l-1.36-1.61h-.41l.08-1.37h-.42l-.55-1.91h-.36l-.16-1.62h-.36l-.28-2.05h-.32l-.14-1.65h-.31l.44-1.44h-.38l.68-.97h-.26l.05-1.06h-.28l.65-.78h-.31l.24-1.01h-.3l.8-1.28h-.23l.27-1.13h-.23l1.08-1.91h-.23l.67-1.41h-.16l.96-1.45h-.13l1.76-1.5h-.07l.99-1.01h-.03m22.59 25.27h-.01m-22.98.15h-.02l.93-.82h-.24l1.12-.83h-.43l.58-.69h-.03m-1.41 2.42h-.01l1.97-1.9h-.37m-1.14 1.92h-.03l.57-.77h-.01m21.68.78h-.01m-9.79.48l-.13-.93M38.2 54.72h-.01m16.5.03h-.04l-.32-.75h-.02m-18.85 1.05h-.03m14.28.18v-.78h-.01m11.12.64h-.02l-1.13-1.14h-.09m1.31 1.29h-.01l-.78-.77h-.02m-23.73-.01h-.04m-.66.83h-.04l.73-1.04h-.01m-.59 1.14h-.04l.88-1.06h-.1m1.11-.31h-.29l.9-.77h-.11m-1.91 2.14h-.03l.86-1.12m-.78 1.16h-.04l1.57-1.56h-.04l.68-.78h-.01m-3.52 1.67h-.46l1.24-1.27h-.23l.92-1.23h-.01m-2.44 3.17h-.02l1.89-.97h-.41m19.85.39h-.01l-.11-1.13h-.37m1.31 1.74h-.04l-.87-1.76h-.41l-.23-.99m-4.88 2.89h-.01v-1.47h-.06m4.16 1.67h-.01m.89-.98h-.05m-.71.75h-.04m.16-.12h-.14m.08.411h-.01l.39-1.38h-.17m5.06 1.609h-.04m-5.099.07h-.01m1.479.09l-.52-1.57h-.01m4.02 1.57h-.03m-3.62.021l-.54-1.29h-.17M49.7 56.37v-1h-.03m.65 1.27l-.34-1.79h-.01l-.21-1.18m.53 2.98h-.01l-.31-1.5h-.03m-.2 1.52l.03-.92h-.06m-10.849-.84h-.13m-1.511 1.73h-.01"/><path d="M37.33 56.47h-.01l.95-.83h-.16l1.72-1.79h-.23m.13.68h-.06m-.27.63h-.02m-.85 1.58l.85-1.33h-.17l.93-1.5h-.13m14.34 2.88l-.29-.98m-14.45-.38h-.05m-.87 1.35h-.02l1.59-1.82h-.09m-.76 1.83l.87-1.54h-.11m15.51 1.6h-.01m-2.25.15h-.01l-.04-.95h-.23l.06-.92h-.33l-.24-.84m-11.68.84h-.03l.3-.92h-.01m-1.65 2.58h-.03m-.09.2l1-1.45h-.17l.74-.94h-.07m-4.22 2.43h-.01m16.74.01h-.01l.18-.87h-.12"/><path d="M38.26 54.97h-.05m-.13.16h-.05m-.92 1.35h-.01l.57-.78h-.03m-.47.74h-.01l1.12-1.42h-.11m-.32.7l1.03-1.57h-.08l.79-1.07h-.01m-2.59 2.34h-.03m-.44.53h-.07m-.44.54h-.05l.75-.69h-.01m-1.29 1.27h-.01l2.21-1.78h-.33l1.03-.75h-.14l.69-.71h-.02m12.81 3.27h-.01m2.82.05h-.01m-5.17-.01l.27-.89h-.16m-10.23.91h-.01l1.03-1.99h-.02m-3.02-.31h-.15m-1.16 1.35h-.01l1.12-1.4h-.01m-1.65 2.08l.92-1.1h-.02l1.04-1.26"/><path d="M35.2 57.1l.81-.81h-.15l1.24-1.35h-.17l1.24-1.28h-.15m-2.96 3.59h-.01m16.59-.75h-.01l.08-1.6h-.03m.15 2.17l.06-1.31h-.2m1.111 1.07h-.17l-.31-1.02h-.2l-.27-.97h-.12"/><path d="M52.86 57.3h-.06l-.07-.73h-.03l-.34-.87h-.05l-.55-1.3h-.05m7.79-.32h-.11m.75.68h-.3"/><path d="M60.72 55.53h-.33l-.33-.94h-.04l-.72-.83m1.65 2.45h-.04m.51.24h-.34m.65.63h-.05m.32.29h-.01l-.7-1.14h-.02l-.8-1.09m-6.2 2.08l-.31-.84h-.15m-.16 1.06h-.01l.14-1.09h-.08m4.87-1h-.01l-.82-1.42h-.28m4.21 3.53h-.01l-1-1.35h-.36l-.7-1.08h-.35l-.65-.8h-.41l-.99-1.02h-.15m-5.39 4.271h-.01m-16.59 0h-.01m15.47.029h-.01m-.03.09h-.01l-.15-.81m3.11.81h-.01m1.11.06h-.01m5.16.02h-.04l-1.21-2.04h-.04m-2.2 2.02h-.03l-.55-1.11m.49 1.15h-.05m-.01.031H56m6.22.029h-.03m-6.27.03h-.05l-.41-1.11m1.45-.66h-.13l-.29-.69h-.13m1.19 1.68h-.15l-.65-1.37h-.06m1.33 2.15h-.05l-.57-1.08h-.01m.62-1.21H58l-1.01-1.88h-.23m.29 1.27h-.26"/><path d="M58.26 57.87h-.04l-.48-1.29h-.19l-.6-1.99h-.03l-.26-.89h-.02m1.68 4.2h-.01m-6.91.01h-.04m7.95 0h-.03l-.83-1.79h-.11m-6.4 1.81h-.01m10.02.03h-.03m-7.27-1.87h-.03l-.3-.92"/><path d="M54.59 55.8h-.02m.061-.07h-.04l-.11-.87m.549 1.75l-.44-1.12h-.02m.28 1.19h-.02m.44 1.12h-.01m.2.17h-.04l-.55-1.61h-.11m-10.1 1.62h-.01l.36-.89h-.09m6.841.891h-.03M51.67 58h-.06m-.02 0h-.01l-.06-.72h-.01m3.53.8h-.02m-.04.01h-.01m-.01.01h-.15m-.04.02h-.2m7.77.01h-.01m-12.43-1.7h-.01m.52 1.72h-.01l-.24-1.94H50l-.06-.86h-.15m4.56 2.81h-.19m1.06-.4h-.01l-.67-.73h-.02m.86 1.17h-.04l-.45-.77h-.21m-4.21.82h-.01m1.64.14h-.01m-.33.01h-.01"/><path d="M51.58 58.4v-1.76h-.17l.01-.73h-.01m-.78 2.5h-.01m-9.64.01h-.01m10.61.07h-.01m3.18.08h-.04m-3.13.12h-.01l-.15-.7h-.01m-.02.65h-.01l-.62-.74h-.02"/><path d="M51.4 58.7l-.8-1.04h-.04m-.9-.02h-.01m.04.57h-.01l.02-1.76m-.02 2.35l-.01-.9h-.02m5.93-1.99h-.01m.141-.07h-.14l-.31-.78h-.03m.659 1.21h-.14m1.02 1.711h-.12"/><path d="M57.13 58.83h-.05l-.6-1.51h-.17l-.44-1.2h-.05l-.49-1.04h-.04m-7.24 3.77h-.2l-.01-.74h-.01m-.23.44h-.06m.131.31h-.19m1.939-.35h-.11"/><path d="M49.57 58.91h-.21l-.04-1.42h-.08m-2.08 1.43l.53-1.13h-.32m-6.7 1.13h-.01m8.42-1.03H49"/><path d="M49.09 58.92h-.21l.24-1.63h-.06m1.26 1.68h-.01l.1-.76m-.13.82h-.01m6.17.11h-.04l-.09-.75h-.2m-11.73.77h-.01l.19-1.14h-.01m3.28.031h-.01l.29-1.32h-.13m.3 2.409l.09-1.25h-.17l.15-1.12h-.23l.21-1.1h-.06m9.92 3.54h-.05l-.35-.96h-.21l-.37-1.03h-.2l-.28-.82h-.2l-.35-.99h-.04m-7.03 1.66h-.01l-.06-1.32h-.01m-.58 2.11h-.02m.04 1.35h-.01l.1-1.16h-.05l.48-1.59h-.17M53.46 58h-.04m.45 1.07l-.43-1.4h-.01m.32 1.6h-.03m-3.3.01h-.11l.13-.98h-.01m.23 1.03h-.03m-.89.02l-.01-.78h-.01m1.12.791h-.1l-.11-.88m.24.889h-.01m.06.01h-.02l-.18-.86h-.03m-6.8.87h-.01l.48-.99m14.57 1.11h-.05l-.42-1.07h-.02m-2.48-2.45h-.01m.4.76h-.04l-.3-.73h-.04"/><path d="M56.98 57.86h-.18l-.23-.9h-.17l-.43-1.46h-.02m1.65 4.01h-.04l-.67-1.99h-.01l-.3-.71m-2.62 1.66h-.18m.39.67h-.16m.28.16h-.21"/><path d="M54.44 59.53h-.05l-.26-.82h-.1l-.38-1.21h-.01m-.98 2.17h-.07l-.43-1.61H52l-.15-.9m.71 2.52h-.03m-8.25-3.26h-.04m-.17.87h-.01m.07.3h-.11m-.35 2.13h-.01l.41-1.52h-.19l.36-.78h-.06l.36-1.67h-.06m13.94 3.54h-.15L58 58.06h-.13"/><path d="M58.42 59.74h-.04l-.07-.93h-.04l-.22-.7m-5.97 1.69H52l-.07-1.81h-.1m-11.12-1.77h-.01m.03.011h-.02m-.2.809l.36-.85h-.02l.61-1.32h-.03m-2 4.12h-.02m-.21.94h-.01l.51-1.35h-.03l.64-1.19h-.18l.47-.69h-.13m.9.54h-.03l.39-1.03m-.87 2.23h-.02l.44-.77h-.1m.05.25h-.01l.69-1.85h-.12m-.19-.02h-.03m-1.05 1.89h-.02m-.08.4h-.13l.71-.97h-.11l.95-1.67h-.04m-1.57 3.07h-.16m-.74 1.09h-.01m-.01.17h-.02l1.1-1.47h-.02l.62-1.09h-.01m3.22-1.41h-.06m-.31.9h-.01m-.19.92h-.08m.14 0h-.05m-.27.88h-.04m-.35 1.28h-.01l.39-1.09h-.01l.39-1.11h-.03l.29-.75h-.2l.58-1.39h-.06m-1.41 4.36l.3-.8h-.05m5.37.87h-.07l.01-.81h-.01m-.24.93h-.04l.13-1h-.03m-4.43.54h-.01l.28-.71h-.04m0 1.02h-.01l.2-1.07h-.01m-.23 1.35l.34-1.5h-.04m-1.54 1.61l.27-.79m-1.47.83h-.01m2.43.07H44l.28-.97m9.9 1.08h-.05l-.32-1.12h-.01m-.37-.94h-.18l-.24-1.35h-.06m.69 2.51h-.02m.27.66h-.07"/><path d="M54.01 60.76h-.08l-.38-1.92h-.24l-.04-.94h-.05m-6.61 2.77h-.02m.17.12h-.18l.39-1.33h-.09m4.95.29h-.16l-.08-.97h-.01m.59 2.001h-.05l-.16-.75h-.05l-.32-1.55m.47 2.319h-.15l-.03-.84h-.17m-1.2.87h-.1l-.1-1.5h-.01m.09 1.51h-.12l.02-1.24h-.2l-.01-1.65h-.18l.01-1.37h-.01m-2.77 4.26h-.16l.15-.95h-.15l.18-.88m4.39 1.85h-.14l.02-2.03h-.02m-.06 1.77h-.03"/><path d="M51.36 60.87h-.04l.01-1.35m-1.56.45h-.02m.14.24h-.14l.16-.87h-.15m-.07 1.34h-.02"/><path d="M49.72 60.7h-.05l.05-1.07h-.01m.22 1.24h-.24l.25-1.36h-.01l-.04-.77h-.14l.04-1.68h-.05m3.76 3.82h-.03m-9.239-.56l.35-1.04h-.01m-.031-.6h-.02l.23-.69h-.02"/><path d="M44.46 59.38h-.09"/><path d="M44.49 59.44h-.12l.33-.69h-.2m.11.42l.19-.69h-.19l.39-1.37m.14.5h-.02m-.05 1.12h-.11l.29-1.13h-.09m-.05 1.15h-.15m-.14 1.15h-.05l.18-.9h-.03"/><path d="M44.97 59.84l.3-1.98h-.04l-.13-.75h-.09m-.26 3.5h-.01l.32-1.37h-.12m-.22 1.64h-.02m-2.16-5.19h-.01m-.58 1.17h-.1m-.69 1.32l1.21-1.89h-.01"/><path d="M41.63 57.49h-.1l1.03-1.6h-.15l.79-.97h-.07m-.58 2.18h-.02m-.21.9h-.11m-.85 2.85l.7-1.81h-.12l.58-1.4h-.07l.43-1.21h-.17l.53-1.33h-.07m10.07 4.72h-.23l.04-.93h-.19l.03-1.11h-.26"/><path d="M53.37 60.92h-.06l-.13-1.63m.03 1.25h-.03"/><path d="M53.3 60.93h-.05l-.11-.82m-9.35-3.519h-.04l.31-.86H44m-.82 2.889h-.03l.27-.85h-.01l.3-.92h-.04m-.32 1.32h-.02m-.4 1.34h-.03m-.22.83l.48-1.34h-.1l.65-1.71h-.14l.4-.97h-.08l.37-1.19h-.02m-.719 1.3h-.04l.47-1.05h-.01"/><path d="M43.65 56.5h-.2l.49-.76h-.12m-.43 1.41l.44-1h-.01m-.81 1.34H43m-.239.62h-.03m.069.03h-.09m-.26.89h-.08l.46-.82h-.15m.02.41h-.02l.47-1.04h-.19M42 59.91h-.04l.36-.71h-.02m-.75 1.43l.49-.73h-.02"/><path d="M41.46 60.94h-.01l1.12-1.96h-.08l.9-1.93h-.13m.5 4.36h-.01l.24-.73m-.1.75h-.09m-1.33.01h-.01l.26-.8m1.33.83h-.1l.21-.72m-1.75.75h-.02m-.13.06h-.02m.08.02h-.02l.22-.71h-.05m2.7-1.66h-.03"/><path d="M44.91 60.86h-.01l.42-1.5h-.23l.43-.86h-.19l.4-.7h-.06"/><path d="M45.55 58.231h-.15m.33.179h-.02m-.04.3h-.01l.08-.89m-.03 2.23l.21-1.71h-.15m-.22 1.85h-.04m-.12 1.44l.2-1.12h-.08l.23-.9h-.16m1.42-.78h-.01l.19-1.9h-.19l.12-1.06h-.6m-.95 5.88h-.02l.31-1.62h-.13l.39-1.37h-.18l.53-1.9h-.17l.32-.81h-.17m14.79-25.51h-.05l.93-.97h-.07m-.64 1.18h-.03l2.09-1.3h-.29m-2.32 1.67h-.01m2.72 1.13h-.04m.12.28h-.06m-.57.11h-.11m-.95.021h-.05l.6-1.36h-.26l.79-.78h-.32l.87-.79h-.19m1.89 3.969h-.2m.99.02h-.05m-4.57.37h-.06m1.55-1.16h-.28m-.95.95h-.1l1.79-1.27h-.03m-2.34 1.56h-.06l1.39-.98h-.03m3.82 1.36h-.02m-2.47.65h-.04l2.26-1.26h-.1m-1.95 1.4h-.13l2.42-.76h-.09m.09 1.08h-.03m-3.94.13h-.04m1.81.14h-.1m.65.001h-.16l1.55-.95h-.04m-3.11.329l1.71-1.1h-.3m-2.859 1.81h-.03l1.49-.81h-.22l1.32-.81h-.05m.799 1.74h-.22m-2.68.02h-.02m3.98.31h-.01m0 .011h-.03"/><path d="M65.59 36.481h-.01m-2.37.079h-.05m1.05.14h-.35l1.57-.69h-.06m-1.28.95h-.25m-2.47.21h-.19m4.44.24h-.13m-1.16.3h-.25l-.22-.7h-.21m1.931 1.94h-.1m.589.07h-.39l-.39-.84h-.25m-.93 1.62h-.18m.36.02h-.17m2.38 0h-.21m-.86.1h-.42l.96-.81h-.14m-.08 2.12h-.14l-.71-.76h-.27m1.19 1.21h-.21m.94.4h-.14l-.62-.81h-.14m.59 2.01h-.18l.4-1.16h-.06m-.29 1.91h-.4l.38-.69h-.17m-.57 1.59h-.11l.39-.89h-1.01m.5 1.74h-.01m1.08.61l-.9-1.42h-.13m-.05 1.94h-.07m.67 1.09h-.01l-.66-.87h-.32m1.05 1h-.18m.28 1.92h-.04l-2.16-1.67h-.3m2.33 1.79h-.04l-2.32-.95h-.03m1.32.92h-.2m.78.52h-.05l-.79-.79h-.03m.53 1.01h-.08l-1.82-.84h-.14m1.92 1.44h-.09l-2.07-1.54h-.04m2.071 1.67h-.14m-.471.33h-.13m-3.56 1h-.03m3.53.25h-.03l-2.44-1.67h-.02"/><path d="M63.21 51.87h-.1"/><path d="M63.55 51.94h-.25l-1.93-1.05h-.02m2.76 2.32h-.01l-.99-.91h-.24l-1.22-1.21h-.08m1.12 2.12h-.02l-.67-.87h-.01m.71.97h-.01l-.49-.69h-.01m-.43-.41h-.11m1.32 2.17h-.04l-1.28-1.11h-.8m2.43 1.32h-.02l-.27-.82h-.19l-.97-1.56h-.06m-.57 2.83h-.73l-.79-.78h-.03m2.3 1.7h-.02l-.51-1.61h-.5l-.59-1.28h-.04m-4.28-31.06l-.38-.19.45-1.2-.01-.01m-.069 1.79l-.23-.11 1-.97h-.02m-2.36-.07l-.38-.18.35-1.32-.01-.01m.049 1.9l-.24-.12 1.54-.87-.12-.06m1.52 1.84l-.36-.18.35-1.05-.15-.07m.22 1.69l-.28-.13 2.02-.86-.17-.08"/><path d="M60.18 23.491l-.28-.14m2.24 1.149l-.28-.14-.04-1.25-.24-.12m.55 1.79l-.19-.09 1.32-.73-.16-.08m.15 2.08l-.3-.14.28-.97-.25-.12.55-.9-.14-.07m-.06 2.531l-.25-.13 1.82-.12-.32-.15m.43.899l-.21-.1.31-.82-.17-.08m.111 1.241l-.2-.1m2.519 3.409l-.02-.01v-1.38l-1.11-.54.48-1.37-.33-.17m1.04 3.511l-.05-.03m.401 1.149h-.02l1.09-1.38-.2-.09m.109 3l-.02-.01.37-.97-.27-.14M43.55 20.85l-.02-.01m9.731.35l-.24-.12.96-.79-.25-.12m-.451.61l-.45-.22.26-1.64-.11-.05m-3.289 2.301l-.21-.11 2.08-1.35-.38-.18 1.86-.28-.38-.18M49.71 20.82l-.42-.21.02-1.73-.18-.08m-3.059 1.491l-.18-.09 2.8-.19-1.1-.53 1.59-.27-.39-.19M46.06 20.1l-.4-.2m-1.85 1.22l-.12-.06.86-2.16-.41-.2m25.811 16.53l-.06-.03.44-1.65-.28-.13M27.6 47.95l-.03-.01-.63-2.56-.47-.23.85-1.49-.47-.23.42-2.44-.4-.2.7-1.91-.4-.19.81-2.46-.37-.18.75-1.94-.34-.16 1.28-1.37-.43-.21 1.3-.72-.29-.14.63-1.17-.31-.16 1.16-.51-.35-.17.82-1.01-.34-.16 1.61-.99-.26-.13.92-1.12-.26-.13 2.25-1.55-.25-.13 1.52-1.22-.18-.08 1.88-1.11-.14-.07 2.8-.72-.09-.04 1.68-.59-.04-.02M54.46 61.2h-.02m-25.9-12.43l-.01-.01 1.49-.41-.27-.13 1.71-.32-.48-.23 1.03-.46-.03-.02m-2.92 1.94l3.25-1.06-.41-.2m-2.34 1.53l-.04-.01 1.07-.56h-.01M54.5 61.59v-.01m-11.269-4.82l.37-1.12h-.01m-16.151-6.1h-.01m21.2 10.37l-.04-.02.06-1.02-.02-.01m-21.76-9.15l-.04-.02m15.96 8.03l-.01-.01.43-.87h-.01m12.13 6.81l-.01-.01-.64-1.91-.11-.05m.76 2.17l-.46-1.29-.03-.01m-2.52.01v-.01M28.2 49.53l-.05-.02m-1.19.57l-.06-.03 1.4-.76-.01-.01m-1.29.96l-.04-.02 1.56-.71-.11-.05m1.41.25l-.32-.15 1.43-.37-.13-.06m-3.31 1.35l-.03-.02 1.58-.77-.01-.01m-1.5.87l-.04-.02 2.61-.89-.05-.02 1.19-.51m-4.88-.06l-.51-.25 2.08-.74-.25-.13 1.71-.88-.02-.01m-4.47 2.231l-.03-.01 2.66-.06-.46-.22M49.16 60.29h-.01l.49-1.33-.42-.2m.521 2.68l-.04-.03-.02-2.45-.45-.23.28-1.23v-.01m-7.071.58h-.01l.8-1.66-.06-.03m3.76 4.16l-.02-.01m1.54-.62l-.05-.02m-1.21.45l-.04-.02m.241-.05l-.16-.08m-.131.51h-.01l1.19-1.35-.19-.09m4.8 4.58l-.04-.02m-5.77-2.72h-.01m1.62.91l.27-2.04-.01-.01m3.65 3.97l-.04-.02m-4.07-1.96l.11-1.75-.2-.09m-6.26-1.12l.56-1.12-.04-.02m.66-.94l-.01-.01m-.62 2.74l.6-2.2-.01-.01.41-1.44m-1.04 3.64v-.01l.46-1.86-.03-.01m-1.05 1.6l.54-1.02-.07-.03m4.62 3.65l-.01-.01M30.77 51.41l-.14-.07m-2.65 1.12l-.01-.01"/><path d="M28.19 52.33l-.01-.01 1.52-.41-.18-.09 2.91-1.07-.26-.12m-.22.84l-.07-.04m-.65.55l-.02-.01m-1.81 1.32l-.01-.01 1.69-1.02-.19-.1 1.87-1.17-.15-.07m14.53 11.1v-.01l.21-1.26m-16.03-8.34l-.05-.03m-1.72 1.04l-.02-.01 2.79-1.18-.11-.05m-1.86 1.64l1.82-1.25-.12-.06m16.55 10.3l-.01-.01m-2.61-1.06l-.01-.01.47-1.09-.26-.13.58-.99-.37-.18.19-1.07-.01-.01M32.99 52.8l-.03-.02.83-.86h-.01m-3.26 1.99l-.03-.02m-.21.18h-.01l1.92-1.08-.19-.09 1.35-.65-.08-.04m-6.07.41h-.01m18.801 9.18l-.01-.01.68-.87-.14-.07"/><path d="M30.06 51.16l-.06-.04m-.23.12l-.06-.03m-.5.24h-.01m-1.26.77l-.01-.01 1.06-.56-.02-.01m-.95.57l-.01-.01 2.04-.98-.12-.06m-.74.6l2.02-1.2-.09-.04 1.47-.77h-.01m-4.19 1.22l-.05-.02m-.78.35l-.07-.04m-.79.37l-.05-.03 1.21-.37-.01-.01m-2.15.72l3.45-.79-.37-.18 1.56-.27-.15-.08 1.17-.42-.02-.01m15.73 12.29l-.01-.01m-5.81-2.84h-.01l.81-.86-.19-.09M29.87 54.1l2.24-1.67-.03-.01"/><path d="M28.86 50.41l-.17-.08m-2.04.88h-.02l2.03-.96h-.01m-3 1.43l1.65-.74-.02-.01 1.85-.85"/><path d="M25.45 51.87l1.35-.47-.16-.08 2.13-.84-.19-.09 2.1-.76-.18-.09m-5.29 2.42v-.01m19.04 8.25l-.01-.01.96-1.75-.02-.02m-1.03 2.52l.79-1.44-.22-.11m.66 1.81l-.2-.09.21-1.31-.22-.11.22-1.24-.13-.06"/><path d="M45.19 61.76l-.07-.03.32-.85-.03-.02.08-1.16-.05-.03.1-1.77-.06-.02m-1.75 3.27h-.01m10.69.65l-.12-.06m.47 1.17l-.34-.17"/><path d="M54.99 64.08l-.37-.18.14-1.22-.04-.03-.35-1.33h-.01m.51 3.66l-.05-.02m.44.54l-.37-.19m.38 1.07l-.05-.02m.2.49h-.01l-.17-1.66-.03-.02-.29-1.65-.01-.01m-8.09-1.06h-.01l.12-1.12-.18-.08m-.759 1.11l-.01-.01.76-1.14-.1-.05m6.029 1.54h-.01l-.15-2.05-.31-.15m2.8 6.27h-.01l-.39-2.06-.4-.2-.2-1.6-.39-.19-.29-1.25-.46-.22-.56-1.7-.17-.09m-8.389 1.85h-.01m-1.291-.59l-.01-.01m-.09.08l.27-.99m3.05 2.62h-.01m1.22.67l-.02-.01m5.79 2.85l-.04-.02-.25-2.96-.04-.02M48.73 64l-.04-.02v-1.55h-.01M48.6 64l-.05-.03m-.02.03l-.06-.03m6.97 3.45l-.03-.02m-7.05-3.41l-.06-.03.15-1.46m1.99.051l-.15-.07.05-.93-.14-.07m.41 2.539l-.17-.08.03-1.91-.07-.03m.31 3.15l-.05-.03-.05-1.53h-.01m-6.81-1.74h-.01m8.17.71l-.11-2.66-.26-.13m-.37 1.58l-.28-.14"/><path d="M50.94 65.37l-.05-.02.17-1.71-.21-.1.41-2.58-.02-.01.19-1.15-.03-.01m-.399 5.64h-.02m-7.771-3.77l-.04-.03m8.931 4.36l-.04-.02.05-2.46-.13-.06M43.8 61.97h-.01m11.25 5.521l-.04-.01m-7.14-6.091l-.03-.02.17-1.2h-.01m-.03.86l-.03-.01m.1-.05l-.04-.02.35-1.03M48 62.18l.12-1.5-.02-.01m-.33 1.49l-.03-.01m-.12 1.5h-.01m.12.3l-.03-.02.26-2.12-.12-.06M35.6 58.04l-.01-.01.9-.8-.11-.05m7.2 4.75l-.04-.02m-.07-.01l-.08-.03m-.01-.01h-.02l.34-.85h-.02m2.01 1.98h-.01m-3.41-1.6h-.01m4.94 2.45l-.02-.01m-.04-.01l-.02-.01m-.01.01l-.17-.08m-.06 0l-.22-.11m8.73 4.27l-.02-.01m-13.41-6.51l.79-2.31-.18-.09.41-1-.18-.08m3.59 5.65l-.22-.1m1.41.13l-.01-.01-.35-1.19-.03-.01m.34 1.79l-.05-.02-.08-1.12-.24-.11m-5.18-1.38l-.01-.01m1.76 1.06l-.01-.01m-.37-.17l-.01-.01"/><path d="M43.14 62.31l.97-1.99-.19-.09.41-.82h-.01m-2.25 2.38h-.01m-10.84-5.27v-.01m15.39 7.72l-.04-.02m-3.589-1.58l.2-.88m-.381.72l-.01-.01-.29-1.17-.03-.01"/><path d="M42.78 62.55l-.01-.01-.32-1.6-.05-.03m-.99-.51l-.02-.01m-.27.66l.98-1.96m-1.31 2.63l.48-1.03-.02-.01m7.76 1.02l-.02-.01m.19 0l-.15-.08.08-1.05-.04-.01m.08 1.73L49 62.2m.2 2.47l-.13-.07"/><path d="M49.14 65.82l-.05-.02.15-2.02-.19-.1.16-1.58-.05-.03.02-1.44-.04-.02m-10.21.26l-.22-.11.39-.83-.01-.01m-.5.37l-.07-.03m-.02.41l-.22-.1m2.38.67l-.13-.06"/><path d="M40.61 61.77l-.24-.11.74-1.62-.1-.05m-3.11.48l-.01-.01 1.22-.97-.36-.18m-8.15-2.4l-.01-.01m10.03 3.46l-.09-.04"/><path d="M40.06 61.52l-.24-.11 1.17-1.7-.07-.04m.49 2.59l-.01-.01.54-.8-.01-.01m-.6.86v-.01m6.87 3.51l-.04-.02.31-.9-.23-.11m-13.6-5.56l-.01-.01.83-1.17v-.01m3.67 1.83h-.01l1.04-1.32-.15-.07m-.97 2.86h-.01l.79-1.35-.19-.09.78-1.18-.26-.13.84-1.11-.07-.03m9.21 9.4l-.05-.03.13-1.26-.24-.12.15-1.35-.23-.11.14-1.08-.23-.11.15-1.3-.04-.02m-8.81-2h-.01l.65-1.51-.01-.01m-1.81 2.05l-.03-.01m-.69 1.54l.74-1.26-.06-.03 1.42-1.52-.19-.09m4.37 4.28l-.05-.03m-.08 1.45l.29-1.81h-.01m-.52 1.97l-.04-.01m-3.709-1.8l-.13-.06.68-1.03-.01-.01m-.301 1.28l-.03-.01m-1.02-.47l.42-.88-.01-.01m.83 1.51l-.12-.06.36-1.04M41.82 63h-.01m.05.03l-.02-.01.28-1.05-.04-.02m-8.12-2.75l-.01-.01 1.09-.85h-.01m15.76 9.23l-.05-.02.11-1.43-.03-.01m-1.42-3.04l-.04-.02.06-.99-.04-.02m.12 2.62l-.19-.1.23-1.14-.19-.09.31-1.88-.01-.01m-.35 5.41l-.04-.02.33-2.6-.01-.01.05-.96m-3.85.43l-.2-.1m.07.97l-.19-.09m.23.33l-.24-.12"/><path d="M45.74 65.14l-.06-.03.16-1.06-.12-.05.24-1.57m-1 2.339h-.01m-1.29-.449l-.08-.04.4-2.04-.18-.09.33-1.1h-.01m-.57 3.23l-.04-.02m-7.49-8.18l-.03-.02m-.77 1.25l-.12-.06m-1.57 2.2h-.01l1.3-1.49-.22-.1.84-.68-.07-.03 1.32-1.68-.07-.04m13.72 11.62l-.16-.08.37-1.53-.15-.08"/><path d="M50.1 67.56l-.05-.02.44-1.09-.06-.03.15-.9h-.01m-7.63-1.37l-.09-.04.91-2.08-.11-.06M32.12 53.9l-.01-.01m.03.03l-.02-.01m-.66.8l-.01-.01.87-.75-.02-.01 1.4-1.15-.02-.01m-4.51 3.53l-.02-.01m-.76.94l-.01-.01L29.7 56l-.03-.02 1.36-.99-.2-.1.91-.51-.15-.07m.72 1.09l-.03-.01 1-.94h-.01m-2.2 2.02l-.01-.01.91-.61-.12-.06m-.08.3v-.01l1.78-1.69-.13-.07m-.21-.13l-.02-.01m-2.22 1.55l-.02-.01m-.31.4l-.14-.07 1.32-.7-.13-.06 1.99-1.35-.04-.03m-3.45 2.59l-.18-.09m-1.43.82l-.01-.01"/><path d="M28.46 57.41l-.01-.01 2.03-1.05-.01-.01 1.28-.89m4.38.18l-.06-.03m-1.57 1.76l-.1-.04m.16.08l-.05-.03m-.79.84l-.04-.02m-1.1 1.24l1.03-1.01-.01-.01 1.04-1.04-.03-.01.73-.68-.22-.11 1.41-1.24-.07-.04m-3.96 4.12l.77-.73-.06-.03m5.55 3.93l-.07-.04.45-.9v-.01m-6.89-2.08h-.01m.03.02h-.01m6.09 2.98l-.04-.03.69-1.06-.03-.01m-5.27-1.82h-.01l.7-.65-.05-.02m-.55 1.14h-.02l.81-1.09-.01-.01m-.99 1.39h-.01l1.22-1.5-.05-.02m-2.62.97l.74-.74v-.01m-2.11.13h-.01m2.69 1.41h-.01l.85-.95m10.53 6.64l-.06-.02.25-1.44h-.01m.1-1.26l-.2-.1.47-1.65-.07-.03m-.59 3.2l-.03-.02m-.05.89l-.08-.04"/><path d="M44.58 66.28l-.08-.04.61-2.36-.27-.13.48-1.08-.05-.03m-8.95-.51l-.02-.02m.12.24l-.2-.1 1.16-1.28-.1-.05m5.41 3.041l-.18-.09.44-1.14h-.01M42.5 65.3l-.05-.03.23-.92-.06-.03.49-1.92v-.01m-.74 2.87l-.16-.08.42-.96-.19-.1m-1.83.33l-.12-.06.72-1.74-.02-.01m-.72 1.75l-.13-.06.7-1.39-.22-.11.88-1.85-.2-.1.76-1.54m-5.45 3.27l-.18-.09.69-.99-.17-.08.68-.88m3.93 4.48l-.17-.08 1.14-2.27-.02-.01m-1.04 1.95l-.04-.02"/><path d="M41.54 64.96l-.04-.03.75-1.5m-1.999-.35l-.02-.01m.029.34l-.16-.08.65-.88-.17-.08m-.8 1.46l-.03-.01"/><path d="M39.79 63.87l-.05-.02.63-1.18m-.44 1.51l-.27-.13 1.03-1.4h-.01l.38-.89-.16-.08.97-1.86-.06-.03m2.13 6.35l-.03-.01m-10.07-5.7h-.01l.96-.97m.29-.71l-.02-.01.63-.65-.01-.01"/><path d="M34.61 59.5l-.1-.05"/><path d="M34.6 59.59l-.13-.07.76-.59-.23-.11m-.11.53l.6-.67-.22-.11 1.19-1.32-.01-.01m-.11.64h-.02m-.67 1.23l-.12-.06.94-1.11-.1-.05m-.69 1.26l-.17-.08m-.78 1.22l-.06-.03.69-.91-.03-.02"/><path d="M34.93 60.3l1.41-2.06-.03-.02.26-.91-.1-.05m-2.2 3.78h-.01l1.1-1.37-.14-.07m-1.15 1.73l-.02-.01m.42-7.01l-.01-.01m-1.29.99l-.11-.05m-1.5 1.11h-.01l2.4-1.47"/><path d="M32.47 55.83l-.12-.05 2.04-1.24-.18-.08 1.42-.66-.08-.04m-1.84 2.13l-.02-.01m-.73.91l-.13-.07m-2.5 2.73h-.01l1.78-1.65-.13-.06 1.41-1.26-.08-.03 1.15-1.12-.2-.1 1.33-1.2-.08-.04m-2.38 6.93v-.01m11.111 3.9l-.25-.12.55-1.03-.22-.1.64-1.23-.29-.14"/><path d="M43.78 66.12l-.07-.03.74-1.91m-.64 1.42l-.04-.02"/><path d="M43.69 66.09l-.05-.02.32-.99-.01-.01M35.39 56l-.05-.02.82-.8-.06-.03m-2.52 2.79l-.03-.01.77-.81h-.01l.84-.88-.04-.02m-1.09 1.32l-.02-.02m-1.18 1.3l-.04-.02m-.7.81l1.27-1.25-.11-.05 1.67-1.57-.16-.08.99-.86-.09-.05 1.07-1.14-.03-.01m-1.52 1.07l-.04-.02 1.1-.93h-.01"/><path d="M35.28 55.82l-.22-.11.96-.58-.13-.07m-1.26 1.35l-.01-.01 1.05-.87h-.01m-1.64 1.05h-.01m-.61.57l-.04-.02m.07.07l-.1-.05m-.79.86l-.09-.05.97-.66-.17-.09m-.21.48l-.02-.01 1.1-.92-.21-.1m-2.36 2.09l-.04-.02.79-.6-.03-.01m-1.61 1.19h-.01l.95-.55-.02-.01"/><path d="M30.38 59.611l-.01-.01 2.33-1.59-.09-.04 2.07-1.67-.15-.07M32.72 61.4l-.02-.01.67-.68h-.01m-.52.79l-.1-.06m-1.5-.72l.73-.76M33 61.62l-.1-.05.62-.69m-2.38-.12l-.02-.01m-.18-.009l-.02-.01m.081.069l-.02-.01.63-.68-.06-.02m3.949-.39l-.04-.02"/><path d="M34.31 61.41l-.02-.01 1.29-1.45-.25-.12.95-.74-.21-.1.83-.56-.07-.04"/><path d="M36.46 58.811l-.17-.08m.27.379l-.02-.01m-.21.32l-.01-.01.58-.96m-1.25 2.48h-.01l1.18-1.79-.17-.08M35.39 61l-.04-.01m-.92 1.55l-.01-.01.84-1.14-.09-.04.75-.88-.18-.09m-1.249 2.23l-.01-.01m3.279-2.32l-.01-.01 1.26-2.03-.21-.1.71-1.13-.68-.33m-4.28 6.09l-.02-.01 1.23-1.65-.15-.07 1.19-1.32-.2-.1 1.64-1.85-.19-.1.8-.73-.2-.09m30.6-20.56l-.05-.02 1.58-.59-.09-.04m-1.36.98l-.04-.02 3.06-.32-.31-.15m-3.53.6l-.02-.01m2.45 2.77l-.05-.02m-.02.38l-.07-.03m-.699-.2l-.12-.06m-1.081-.5l-.05-.02 1.42-1.2-.3-.15 1.32-.43-.36-.18 1.41-.41-.21-.11m-.06 5.51l-.22-.12m1.1.57l-.06-.03m-5.33-2.1l-.07-.03m2.37-.45l-.32-.15m-1.59.55l-.1-.05 2.71-.45-.04-.02m-3.48.47l-.07-.03 2.1-.35-.04-.01m3.56 3.621l-.03-.01m-3.13-.621l-.04-.02 3.22-.19-.11-.05m-2.96.51l-.14-.07 3.13.48-.1-.05m-.49 1.24l-.03-.01m-4.5-2.01l-.04-.02m1.95 1.15l-.12-.05m.74.35l-.19-.09 2.27-.22-.04-.02m-3.68-1.33l2.52-.3-.33-.16m-4.2.47l-.05-.02 2.13-.09-.25-.12 1.93-.19-.06-.02m-.06 2.38l-.24-.12m-3.02-1.44l-.02-.02m4.29 2.54v-.01m-.01 0l-.03-.01"/><path d="M70.9 45.35l-.01-.01m-2.72-1.2l-.05-.03m1.1.74l-.4-.2 2.15.09-.07-.03m-1.96.36l-.27-.13m-2.89-1.12l-.21-.11m4.84 2.7l-.14-.07m-1.46-.29l-.28-.14.13-.92-.24-.11m.65 2.06h-.01m.47 1.19l-.12-.06m.64.4l-.45-.22.03-1.16-.28-.13m-1.93 1.31l-.2-.1m.39.23l-.19-.1m2.67 1.31l-.24-.12m-1.02-.37l-.46-.22 1.51-.39-.16-.07m-1.25 2.34l-.15-.08-.39-1.24-.31-.15m.68 2.02l-.23-.12m.84.96l-.16-.08-.25-1.24-.16-.08m-.44 2.58l-.21-.1 1.09-1.08-.06-.03m-1.38 1.98l-.45-.22.81-.57-.19-.09m-1.52 1.47l-.12-.06.93-.78-1.14-.56m-.39 2.23h-.01m.88 1.28l-.23-2.09-.15-.07m-1.12 2.15l-.07-.04m.14 1.59h-.01l-.25-1.35-.37-.17m.63 1.69l-.19-.09m-.74 2.31l-.05-.02-1.51-3.06-.34-.17m1.64 3.29l-.05-.02-2.08-2.34-.04-.02m.99 1.76l-.24-.11m.6 1.01l-.06-.03-.45-1.32-.03-.01m.03 1.42l-.09-.04-1.59-1.94-.15-.07m1.37 2.66l-.1-.05-1.48-2.85-.05-.02m1.41 3.01l-.15-.08m-.7.1l-.16-.07m-4.55-.82l-.03-.01m3.83 2.21l-.03-.02-1.83-3.21-.02-.01m1.91 1.42l-.1-.05"/><path d="M60.131 61.61l-.28-.14-1.6-2.25-.02-.01m1.829 4.13h-.01l-.61-1.57-.27-.13-.71-2.03-.08-.04m.08 2.99h-.01l-.28-1.35-.01-.01m.261 1.47h-.01l-.17-1.04-.01-.01m-.261-.69l-.12-.06m.29 3.16l-.05-.02-.82-1.95-.9-.45m2 2.83l-.02-.01.15-1.08-.22-.1-.23-2.29-.06-.03m-2.199 2.87l-.82-.4-.45-1.31-.04-.02m1.649 3.18l-.02-.01.31-2.1-.56-.27.03-1.76-.04-.02m12.209-37.239l-.32-.42 1.16-1.11-.01-.01M67.84 24.29l-.2-.26 1.65-.54-.02-.02m-2.62-1.36l-.32-.42 1.11-1.29-.01-.01m-.97 2.16l-.21-.26 2.21-.14-.1-.14m.699 2.9l-.32-.4.97-.98-.12-.16m-.679 2.02l-.24-.3 2.73.13-.14-.18m.679 2.75l-.24-.3m1.891 2.52l-.25-.32.65-1.42-.21-.28m-.36 2.32l-.16-.21 1.88-.09-.14-.18m-.971 2.421l-.25-.32.84-.94-.22-.27 1.11-.71-.12-.16M73.95 32.66l-.22-.27 2.11.86-.28-.35m-.01 1.25l-.18-.24.8-.74-.15-.18m-.55 1.45l-.18-.22m.97 5.21l-.02-.03.76-1.54-.95-1.22 1.29-1.28-.29-.37m-.74 4.52l-.05-.07m-.181 1.52l-.01-.01 1.98-.95-.18-.22m-1.519 3.43l-.01-.02.94-.89-.23-.3M54.7 15.71l-.02-.02m10.74 5.73l-.21-.26 1.52-.37-.22-.28m-.84.45l-.38-.5 1.19-1.69-.09-.12m-4.96.77l-.18-.22 3.07-.39-.32-.42 2.24.72-.33-.42m-4.271.37l-.36-.46.97-1.94-.16-.19m-4.249 0l-.15-.19 3.24 1.31-.94-1.2 1.94.58-.35-.44"/><path d="M57.93 16.25l-.34-.45m-2.741.36l-.11-.14 2.15-1.94-.35-.46M76.48 46.34l-.05-.07 1.39-1.61-.23-.3m-55.66-6.94l-.02-.03.68-3.22-.4-.51 1.77-1.21-.4-.51 1.82-2.52-.35-.44 1.84-1.76-.34-.44 2.25-2.31-.32-.41 1.91-1.76-.29-.38 2.18-.83-.37-.47 1.85-.1-.24-.32 1.35-.97-.27-.35 1.59.07-.3-.39 1.47-.68-.28-.37 2.34-.24-.22-.28 1.65-.75-.22-.28 3.38-.52-.22-.28 2.38-.53-.15-.2 2.71-.22-.12-.15 3.54.72-.07-.09 2.2.25-.03-.04m-9.39 52.13l-.01-.02M22.54 38.86l-.01-.02 1.9.36-.23-.29 2.09.58-.41-.54 1.42.06-.03-.04m-4.35.58l4.23.59-.35-.45m-3.47.44l-.03-.04 1.5-.04v-.01m19.88 27.451v-.01M34.67 55.88h-.01l1.03-1.05v-.01M21.55 39.31v-.01m1.63 2.75v-.01m-2.31-2.92v-.01M39 62.38l-.03-.04.62-1.12-.01-.02m-5.3-4.81h-.01M20.15 39l-.04-.05m13.53 17.77l-.01-.01.96-.75v-.01m9.901 14.3l-.01-.01.32-2.49-.09-.12m-.341 2.85v-.01l.19-1.69-.03-.03m-22.8-29.219l-.04-.05m-1.65-.021l-.05-.06 1.99-.09-.01-.02m-1.97.37l-.03-.04 2.14.06-.09-.12m1.44 1.06l-.28-.35 1.81.37-.11-.14m-4.46-.3l-.03-.04h2.21l-.01-.01m-2.17.15l-.03-.04 3.42.43-.04-.05 1.62.08h-.01m-5.44-2.74l-.44-.56 2.74.3-.22-.28 2.41-.05-.01-.02m-6.25.06l-.02-.03 3.01 1.39-.39-.5M39.38 63.1v-.01l1.27-1.22-.35-.46m-.88 3.3l-.04-.06 1.33-2.76-.39-.5 1-1.23-.01-.01m-8.25-3.23h-.01l1.8-1.43-.05-.06m1.951 6.72l-.02-.02m2.069.161l-.04-.06m-1.61-.161l-.03-.04m.29.08l-.14-.18m-.42.5l-.01-.01 2.07-.85-.16-.21m2.89 7.78l-.04-.06m-3.68-4.3l-.01-.01 1.43-2.14-.01-.01m1.931 6.45l-.03-.04m-3.501-4.429h-.01l1.09-1.91-.17-.21M32.21 57.8v-.01l1.25-.95-.04-.04m1.26-.7v-.01m-2.199 2.73l1.88-2.14-.01-.02 1.25-1.39h-.01m-3.151 3.52v-.01l1.54-1.83-.03-.04m-2.05 1.23l-.01-.01 1.17-.84-.06-.07m3.19 6.62v-.01m-12.6-20.78l-.12-.16m-3.58-.2l-.01-.01"/><path d="M20.19 42.66l-.01-.01 1.94.37-.15-.2 3.85.4-.22-.28m-.71.82l-.06-.08m-1.03.27l-.02-.03m-2.76.48l2.46-.23-.17-.21 2.75-.3-.13-.16m10.24 20.43l.94-1.3M23.66 44.47l-.04-.06m-2.5.23l-.02-.02 3.78.2-.09-.12m-2.98.831l-.01-.01 2.74-.4-.11-.14M37.38 65.62l-.01-.01m-2.35-2.63l-.01-.01 1.13-.96-.22-.29 1.2-.8-.33-.41.81-1.1-.01-.01M25.33 45.83l-.02-.04 1.4-.51-.01-.01m-4.75.45l-.04-.04m-.33.09v-.01l2.75-.16-.17-.21 1.87.01-.07-.09m-7.04-2.86l-.01-.01m16.1 20.62l-.01-.01 1.24-.61-.12-.15M22.94 42.37l-.06-.07m-.32 0l-.04-.06m-.71.001v-.01"/><path d="M20.72 42.34l-.01-.01"/><path d="M19.97 42.41l-.01-.02 1.51-.05-.03-.03m-1.37.13l-.01-.02 2.83.02-.1-.13m-1.16.27h-.01l2.93-.25-.08-.09 2.07-.06v-.01m-5.38-.93l-.04-.04m-1.069-.03l-.07-.09m-1.071-.02l-.05-.06 1.57.25-.02-.02m-2.8-.36v-.01l4.3 1.01-.32-.41 1.92.55-.13-.17 1.54.18-.02-.03m8.29 18.91v-.01m2.65 3.53l-.01-.02m-4.96-6.37l-.01-.01 1.37-.53-.16-.2M21.11 45.57l3.43-.64-.03-.03m-2.52-4.02l-.14-.18m-2.78-.14l-.01-.01 2.8.04-.01-.01m-4.15-.04l2.25.08-.02-.02 2.56.06-.01-.01"/><path d="M17.37 40.65h-.01l1.78.21-.14-.17 2.85.22-.16-.21 2.78.29-.15-.19m-7.27-.18v-.01m16.87 19.7l-.01-.01 2.05-1.45-.02-.03m-2.53 2.27v-.01l1.67-1.18-.19-.24m-.25 2.39l-.17-.21.96-1.36-.19-.24.92-1.27-.11-.14"/><path d="M34.12 62.58l-.06-.08.83-.78-.03-.03.73-1.26-.04-.06 1.08-1.94-.05-.06m-3.77 2.72v-.01m11.65 6.59l-.1-.13m-.12 1.57l-.29-.37"/><path d="M43.86 70.56l-.32-.41.84-1.3-.04-.05.33-1.69v-.01m-1.44 4.4l-.04-.05m.2.85l-.32-.42m-.16 1.411l-.04-.06m-.05.669l-.01-.01.73-1.96-.02-.03.57-2.02v-.01m-8.52-5.62v-.01l.74-1.19-.15-.19m-1.47.83v-.01l1.48-.87-.09-.11m5.93 5.04l-.01-.02.96-2.38-.27-.34m-.29 8.58l-.01-.01.69-2.52-.34-.44.65-1.92-.34-.42.36-1.56-.39-.51.3-2.22-.14-.18m-10.44-2.52l-.01-.01M16.76 40.84l-.01-.01M31.6 59.9l-.01-.01m-.13.04l-.01-.01.85-.96m1.99 4.62l-.01-.01m1 1.41l-.02-.01m4.94 6.38l-.03-.05 1.35-3.46-.03-.05m-4.62-.75l-.03-.05.84-1.74v-.01m-.95 1.72l-.05-.06m-.03.02l-.05-.06m5.94 7.69l-.03-.04m-6.05-7.69l-.05-.06.97-1.57m2.2 1.15l-.12-.15.56-1.03-.12-.16m-.93 3.08l-.14-.18 1.07-2.12-.05-.08m-1.38 3.71l-.04-.06.78-1.75-.01-.01m-6.7-5.68v-.01m8.78 5.28l1.33-3.05-.22-.29"/><path d="M41.11 65.42l-.24-.31"/><path d="M38.6 69.79l-.04-.06 1.13-1.82-.18-.24 1.87-2.66-.02-.03.85-1.18-.03-.03m-3.55 6.11l-.01-.01m-6.67-8.5l-.03-.04m7.65 9.79l-.03-.05 1.4-2.74-.11-.14m-8.38-6.14l-.01-.01m9.61 12.37l-.03-.03m-4.69-10.76l-.03-.03.85-1.26h-.01m-.51.94l-.02-.03m.14.011l-.04-.05.97-.97h-.01m-1.61 2.359h-.01l.96-1.62-.02-.02m-1.19 1.49l-.02-.03m-.96 1.62l-.01-.01m-.03.41l-.03-.04 1.45-2.24-.1-.13M25.39 53.14l-.01-.01 1.45-.41-.09-.11m5.48 9.27l-.03-.03m-.08-.05l-.06-.09m-.02-.01l-.01-.02.83-.76v-.02m2.4 5.12l-.03-.03m-.03-.03l-.02-.02m-.02 0l-.14-.18m-.07-.029l-.19-.25m7.47 9.579l-.01-.02m-11.5-14.66h-.01l2.16-2.16-.16-.21 1.01-.89-.15-.19m.93 8.31l-.19-.23m-.01-.01v-.01m1.52.94l-.01-.01.26-1.53-.02-.03m-.61 2.19l-.04-.05.52-1.29-.2-.26m-2.05-.28v-.01m-1.96-2.38l-.01-.01"/><path d="M31.52 62.07v-.01l2.18-1.69-.16-.21.9-.69v-.01M30.6 60.9h-.01m-9.28-11.87l-.01-.01m10.11 13.13v-.01m2.95 3.99l-.03-.04m-3.16-3.75h-.01l.71-.87v-.01m-.82.6l-.01-.01.32-1.47-.03-.03"/><path d="M30.981 62.14v-.01l.52-1.98-.05-.06m-.831-1.12l-.01-.01m-.67.59l2.18-1.67m-2.91 2.24l-.01-.01 1.1-.88-.01-.02m8.16 5.39l-.02-.02m.22.1l-.14-.17.67-1.13-.03-.04m-.86 1.99l-.13-.18m-1.12 2.89l-.12-.14"/><path d="M36.34 69.31l-.05-.06 1.28-2.19-.17-.22 1.06-1.68-.05-.06.81-1.6-.03-.05m-11.61-5.31l-.19-.24.9-.72-.01-.01m-.77.14l-.06-.07m-.25.45l-.18-.24m2.29 2.06l-.1-.14"/><path d="M28.97 60.08l-.2-.26 1.71-1.41-.08-.11m-3.76-1.17v-.01l1.9-.43-.31-.4m-7.84-7.16l-.01-.01"/><path d="M29.75 58.5l-.08-.1"/><path d="M28.49 59.49l-.2-.25 2.24-1.27-.07-.08m-.85 3.18l-.01-.01 1.04-.62-.01-.01m-1.13.64l-.01-.01m5.8 7.7l-.03-.04.83-.84-.19-.25M23.67 53.92h-.01l1.58-.87m3.12 4.06l-.01-.01 1.89-.91-.12-.16m-2.67 2.68h-.01l1.63-1.09-.16-.21 1.52-.9-.22-.27 1.55-.8-.06-.07m5.19 15.61l-.04-.06.84-1.35-.2-.26.91-1.44-.2-.25.75-1.13-.2-.25.88-1.38-.04-.05m-8.8-7.07l-.01-.01 1.56-1.34v-.01"/><path d="M29.17 57.69l-.02-.02"/><path d="M27.53 59.01L29.05 58l-.05-.06 2.43-.93-.16-.21m2.56 7.2l-.04-.05m-.88 1.58l1.31-1.88-.01-.01m-1.671 1.94l-.02-.04m-3.199-4.05l-.1-.14 1.33-.79-.01-.01m-1.04 1.27l-.03-.03m-.89-1.08l.96-.77-.01-.01m.1 2.15l-.09-.13.97-.97v-.01m-.85 1.15l-.02-.01m.05.08l-.02-.03.88-1.03-.03-.05m-7.61-7.53l-.01-.02 1.69-.35v-.01m12.64 19.01l-.05-.06.91-1.54-.02-.03m.64-5.41l-.01-.01m-.56 1.22l-.04-.05.62-1.07-.04-.05"/><path d="M37.38 68.19l-.17-.21.89-1.16-.16-.2 1.38-1.94-.02-.02m-3.34 5.89l-.04-.05 1.8-2.74-.02-.02.59-1.04v-.01m-4.56-1.62l-.17-.23m-.45 1.13l-.16-.2m.07.49l-.2-.25"/><path d="M32.89 66.68l-.05-.07.75-1.1-.09-.13 1.13-1.63-.01-.01m-2.4 2.1l-.01-.01M31 64.62l-.07-.09 1.57-2.07-.16-.2.98-1.06h-.01m-2.41 3.31l-.04-.04m-3.92-13.3l-.03-.04m-1.24.62l-.01-.01m-.3.381l-.11-.14M22.29 53.6l-.01-.01 2.27-.96-.19-.24 1.31-.3-.05-.07 2.4-1.17-.06-.08m9.06 20.57l-.14-.18 1.25-1.51-.13-.18"/><path d="M36.46 71.78l-.04-.05 1.08-.98-.04-.06.65-.93v-.01m-7.83-5.72l-.07-.1 2.16-1.83-.1-.13m-8.52-15.39l-.01-.01m.02.05l-.02-.02m-1.18.53l-.01-.01 1.4-.37-.02-.02 2.21-.53-.03-.02m-5.369 1h-.01m-1.611.49l-.02-.02m-1.37.64l-.01-.01 2.16-.67-.03-.03 2.07-.36-.17-.23 1.3-.08-.12-.16m.21 1.62l-.03-.03 1.64-.5-.01-.01m-3.58 1.07l-.01-.02 1.37-.19-.11-.13m-.25.29v-.01l2.93-.92-.12-.16"/><path d="M24.82 47.511l-.02-.03M21.45 48l-.01-.01"/><path d="M20.87 48.27l-.13-.16 1.87-.06-.11-.14 2.98-.43-.03-.05m-5.3 1.01l-.15-.2m-2.06.14l-.01-.01m-.22.15l-.01-.02 2.86-.06-.01-.02 1.93-.3m4.83 2.61l-.06-.07m-1.41.48l-.01-.01m-1.31.65l-.08-.1m.13.17l-.04-.06m-1.35.51l-.03-.05m-1.919.8l1.71-.57v-.01l1.74-.6-.03-.04 1.19-.36-.19-.24 2.27-.63-.06-.07m-6.711 2.45l1.26-.4-.04-.06m4.09 7.45l-.06-.07 1-.78h-.01m-6.59-6.08v-.01m5.21 6.68l-.04-.05 1.36-.81-.03-.03m-4.92-4.929l-.01-.01 1.14-.35-.04-.05m-1.25.989l-.01-.02 1.5-.78v-.01m-1.88 1.02l-.01-.01L24 53.65l-.04-.05m-3.47-.35l1.24-.42v-.01m-2.44-1.01l-.01-.01m2.25 3.06h-.01l1.48-.61h-.01m8.19 13.24l-.04-.06 1.06-1.48-.01-.01m.8-1.36l-.17-.22 1.44-1.59-.06-.08"/><path d="M31.77 65.96l-.02-.03m-.54.97l-.07-.09"/><path d="M30.96 67.33l-.07-.1 1.98-2.32-.22-.29 1.12-.95-.04-.06m-9.77-5.48l-.02-.03m0 .33l-.16-.21 2-.81-.09-.11m4.42 6.37l-.15-.2 1.11-1.03v-.01m-1.9 2.65l-.04-.06.76-.91-.05-.07 1.6-1.89m-2.4 2.82l-.14-.19 1-.85-.16-.21m-2.23-.63l-.11-.13 1.76-1.57-.01-.01m-1.77 1.57l-.11-.15 1.54-1.17-.18-.24 2.01-1.6-.18-.22 1.7-1.32h-.01m-7.9.69l-.16-.21 1.32-.72-.15-.19 1.25-.61v-.01m1.96 7.19l-.14-.18 2.52-1.93-.02-.02"/><path d="M28.59 63.88l-.03-.04"/><path d="M28.281 64.17l-.05-.05 1.68-1.28m-2.061-1.49l-.02-.02m-.15.401l-.14-.18 1.22-.63-.14-.19m-1.71 1.199l-.02-.02m.01.09l-.04-.07 1.35-.97v-.01"/><path d="M26.89 62.41l-.23-.3 1.92-1-.01-.01.91-.79-.13-.17 2.11-1.56-.05-.07m-1.09 8.3l-.02-.03m-8.2-11.92v-.01l1.6-.56m.71-.629l-.02-.02 1.07-.39-.01-.02"/><path d="M23.48 54.24l-.09-.11"/><path d="M23.42 54.33l-.12-.14 1.18-.25-.2-.26m-.41.54l1.04-.42-.18-.24 2.06-.84-.01-.01m-.48.66l-.01-.02m-1.43 1.02l-.11-.13 1.67-.74-.08-.11m-1.47 1.04l-.15-.18m-1.54.94l-.05-.06 1.27-.65-.02-.03"/><path d="M23.39 55.32v-.01l2.72-1.53-.03-.04.79-.89-.08-.11m-4.55 3.04v-.01l1.98-.93-.11-.15m-2.24 1.311l-.02-.02m4.32-7.651l-.01-.01m-2 .4l-.09-.11m-2.29.42l-.01-.01 3.49-.33"/><path d="M23.081 48.95l-.1-.13 2.96-.27-.15-.19 1.95.04-.06-.09m-3.231 1.38l-.02-.02m-1.32.62l-.11-.15m-4.31 1.7l-.01-.01 2.9-.87-.11-.15 2.27-.63-.06-.08 1.9-.64-.17-.21 2.15-.63-.06-.08m-6.47 6.48v-.01m10.34 10.47l-.21-.28 1.18-.85-.19-.24 1.39-1.03-.25-.31"/><path d="M30.15 66.7l-.06-.08 1.88-1.73"/><path d="M30.47 66.14l-.04-.05"/><path d="M30.06 66.62l-.04-.06.91-.93-.01-.01m-4.649-14.89l-.04-.05 1.35-.45-.05-.07m-4.351 1.76l-.03-.03 1.3-.48 1.42-.54-.04-.04m-1.94.88l-.02-.03m-2.03.81l-.03-.04m-1.23.53l2.11-.71-.1-.12 2.73-.85-.13-.17 1.58-.44-.07-.09 1.82-.7-.02-.03m-2.3.37l-.03-.04 1.74-.44-.01-.01"/><path d="M26.25 50.47l-.2-.24 1.41-.13-.12-.15m-2.15.83v-.01l1.65-.41-.01-.01m-2.42.29l-.01-.01m-1 .3l-.03-.04m.04.11l-.09-.1m-1.35.53l-.08-.1 1.46-.22-.14-.18m-.5.42l-.02-.03 1.74-.42-.18-.23m-3.8 1.05l-.03-.04 1.2-.25-.02-.02m-2.46.45h-.01l1.36-.1-.01-.02"/><path d="M18.67 52.04l-.01-.01 3.49-.51-.08-.1 3.24-.74-.13-.16m-4.87 4.81l-.02-.02 1.13-.39-.01-.01m-1.01.6l-.09-.11m-1.29-1.63v-.01l1.23-.45m.25 2.43l-.08-.12 1.08-.43h-.01m-2.6-1.429l-.02-.03m-.2-.111l-.02-.03m.06.13l-.02-.02 1.07-.42-.04-.06m4.65 1.73l-.03-.04"/><path d="M22.09 56.22l-.02-.02 2.25-.92-.22-.28 1.48-.3-.19-.23 1.25-.18-.07-.08"/><path d="M25.93 54.48l-.15-.19m.1.59l-.02-.03m-.4.24l-.01-.01 1.18-.76m-2.78 2.1l2.3-1.37-.14-.19m-2.49 1.49l-.03-.04m-1.89 1.24v-.01l1.57-.82-.08-.09 1.33-.59-.15-.19m2.31.99v-.01l2.53-1.6-.18-.23 1.41-.87-.58-.74m-8.14 4.48l-.02-.02 2.28-1.17-.12-.16 2.06-.84-.18-.22 2.86-1.18-.16-.21 1.3-.38-.17-.22m45.64-6.32l-.04-.06 2.09.21-.07-.09m-2.08.35l-.03-.04 3.62 1.32-.27-.35m-4.29-1.26l-.02-.01m1.23 4.45l-.04-.05m-.23.41l-.06-.07m-.68-.61l-.1-.13m-.94-1.15l-.05-.06 2.26-.57-.26-.33 1.72.24-.31-.39 1.82.3-.18-.23m-3.08 6.15l-.19-.25m.92 1.239l-.05-.06m-4.84-5.279l-.06-.08m2.91.8l-.27-.35m-2.09-.25l-.09-.12 3.3.98-.04-.04m-4.17-1.37l-.06-.08 2.55.77-.03-.05m2 6.02l-.02-.03m-3.17-2.41l-.04-.05 3.72 1.57-.1-.12m-3.6-1.06l-.12-.15 3.26 2.25-.09-.11m-1.23 1.13l-.03-.03"/><path d="M73.48 58.05v-.01m-3.94-4.71l-.04-.05m1.57 2.37l-.11-.13m.63.8l-.15-.2 2.67.99-.04-.04m-3.41-3.51v-.01l3 1.05-.28-.37m-4.98-1.77l-.04-.04 2.43 1.06-.21-.27 2.27.85-.05-.07m-1.37 2.65l-.21-.27m-2.6-3.27l-.02-.03m3.44 5.2l-.01-.01"/><path d="M72.03 58.26l-.03-.03m0-.01l-.01-.01m-2.39-2.83l-.05-.07m.84 1.43l-.34-.43 2.36 1.27-.06-.07m-2.4-.67l-.23-.3m-2.63-2.84l-.18-.23m3.96 5.68l-.12-.15m-1.48-1.14l-.24-.3.65-.96-.2-.26m-.41 2.67h-.01m-.12 1.59l-.1-.13m.49.8l-.38-.49.66-1.29-.24-.31m-2.88.42l-.17-.22m.31.46l-.16-.21m2.28 2.94l-.2-.26m-.95-.98l-.39-.5 1.91.39-.13-.17M66.3 63l-.13-.17.24-1.61-.26-.34m-.34 2.64l-.21-.26m.43 1.54l-.14-.18.4-1.53-.14-.17m-1.9 2.649l-.18-.22 1.81-.63-.05-.07M63.2 66.13l-.39-.49 1.22-.2-.16-.21m-2.51.83l-.11-.14 1.47-.37-.97-1.25m-1.66 2.29l-.01-.01m.29 1.93l.88-2.48-.12-.16m-2.44 1.8l-.07-.08m-.7 1.869l-.01-.01.45-1.65-.31-.4m-.22 2.251l-.17-.22m-2.1 2.199l-.04-.05-.02-4.27-.29-.37m.04 4.591l-.04-.05-1.07-3.77-.02-.04m.14 2.52l-.2-.26m.11 1.47l-.05-.07.22-1.73-.03-.03m-.74 1.62l-.08-.1-.72-3.05-.13-.17m.07 3.75l-.08-.11-.1-4.02-.04-.05m-.06 4.15l-.14-.17m-.84-.26l-.13-.17m-4.67-3.41l-.02-.04m3.08 4.58l-.02-.03-.29-4.61-.02-.02m1.37 2.64l-.09-.11"/><path d="M51 70.589l-.24-.31-.57-3.39-.02-.03m-.21 5.641v-.01l.16-2.09-.23-.3.32-2.67-.07-.09m-1.54 3.41l-.02-.01.43-1.68H49m-.51 1.79h-.01l.38-1.27-.01-.01m.09-.93l-.1-.13m-1.41 3.72l-.04-.06.14-2.64-.77-.99m.71 4.27l-.02-.03.75-1.12-.18-.24.99-2.69-.06-.07m-4.03 2.02l-.71-.9.21-1.73-.03-.04m.12 4.48l-.02-.03 1.49-2.18-.48-.61 1-1.96-.03-.04M80.6 32.509l-.14-.64 1.92-.61-.01-.02m-2.27 1.64l-.08-.39 2.15.29-.01-.02m-2.19-2.97l-.14-.65 1.96-.84v-.02M79.5 30.18l-.08-.41 2.56 1.06-.05-.21m-.8 3.639l-.13-.62 1.62-.58-.05-.24m-1.87 1.89l-.1-.47 3 1.65-.06-.28m-.75 3.461l-.1-.47m.73 3.87l-.1-.49 1.52-1.25-.09-.42m-1.68 2.4l-.07-.32 2.17.93-.06-.28m-2.41 2.179l-.11-.5 1.45-.58-.09-.43 1.64-.19-.05-.24m-3.17 2.361l-.09-.42 1.9 2.12-.12-.54m-.69 1.4l-.08-.37 1.3-.4-.06-.29m-1.42 1.33l-.07-.34m-1.78 6.39v-.05l1.71-1.32-.41-1.88 2.15-.73-.12-.57m-3.31 4.659l-.02-.1m-1.03 1.601l-.01-.02 2.74.02-.07-.34m-3.59 3.02l-.01-.03 1.55-.48-.1-.47m-10.7-41.781l-.01-.03m8.92 12.311l-.08-.4 1.91.43-.1-.44m-1.19.04l-.16-.77 2.27-1.25-.04-.18m-5.99-1.85l-.08-.35 3.66 1.25-.14-.65 2.13 2.03-.13-.64"/><path d="M76 23.62l-.15-.72L78 21.26l-.06-.31m-4.79-2.331l-.06-.3 2.92 3.26-.4-1.86 1.86 1.7-.14-.68m-3.95-2.309l-.15-.7m-3.27-1.09l-.04-.21 3.48-1.01-.15-.7m4.48 47.669l-.02-.1 2.45-1.05-.1-.46M21.33 22.48l-.01-.04 2.53-3.24-.17-.8 2.65-.39-.17-.8 3.42-1.82-.14-.69 3.03-.97-.15-.68 3.8-1.37-.13-.63 3.11-.93-.13-.58 2.91.25-.15-.72 2.13.9-.1-.49 2.05-.35-.11-.54 1.75.94-.12-.6 2.03.04-.13-.57 2.76 1.02-.09-.43 2.27.05-.1-.44 4.09 1.28-.1-.44 2.97.71-.07-.3 3.17 1.23-.05-.23 3.58 2.75-.03-.14 2.34 1.49-.01-.07M30.84 68.3v-.02m-.1.33v-.01m-9.52-44.16v-.03l1.94 1.44-.1-.45 2.04 1.8-.18-.83 1.57.84-.01-.06m-5.21-1.72v-.02l4.43 2.99-.15-.7m-4.13-1.409l-.01-.06 1.71.78-.01-.01m7.31 41.729v-.01m-4.9-18.51v-.01l1.73-.62v-.01M19.87 24.4v-.01m.33 3.98v-.01m6.63 31.53l-.01-.07 1.31-.92v-.03m-3.33-8.3v-.01m-6.34-27.28l-.01-.07m5.46 27.37v-.01l1.49-.32-.01-.01m3.29 21.49l-.01-.02 1.73-2.62-.04-.18m-1.93 3.02l-.01-.01 1.15-1.8-.01-.05m-2.43-3.09l-.01-.01m-7.17-42.23l-.02-.07m-1.84-.93l-.02-.09 2.28.98v-.02m-2.42-.66l-.01-.07 2.37 1.24-.04-.18m1.04 1.98l-.11-.55 1.83 1.41-.05-.22m-4.85-2.78l-.01-.06 2.47 1.21v-.01m-2.51-1.02l-.02-.07 3.61 2.37-.02-.09 1.77.98v-.01m-4.62-6.06l-.18-.87L21.51 23l-.09-.44 2.74 1.26-.01-.03m-7.05-3.36l-.01-.04 2.63 3.22-.17-.78m7.32 38.07l-.01-.01 2.11-.68-.15-.7m-2.8 3.21l-.01-.08 3.01-2.37-.17-.78 1.8-.84v-.01m-7.51-8.15v-.01l2.8-.61-.02-.1m-1.5 8.62v-.03"/><path d="M26.66 59.67l-.02-.09m-1.72-1.06l-.01-.07m.28.26l-.06-.28m-.75.33v-.01l2.8.17-.07-.32m-1.02 10.32l-.02-.08m-2.2-9.72v-.01m.43 2.87v-.01l2.77-1.62v-.02m-1.37 8.31l-.01-.06m-1.51-6.9v-.01l2.26-1.55-.07-.32m-4.66-8.79l1.93-.39-.02-.06m1.8-.1v-.01m-3.97 1.86l3.29-1.37v-.03l2.16-.88m-5.47 2.22l2.74-1.22-.01-.06m-2.99.25l1.77-.32-.02-.11m-.05 9.2v-.02m-2.76-30.249l-.05-.24m.02.249v-.01m-3.94-2.43v-.02"/><path d="M16.5 27.42v-.02l1.98 1.49-.07-.32 4.11 2.57-.09-.44m-1.25.52l-.02-.11m-1.31-.27v-.04m-3.369-.97v-.01l2.89 1.09-.07-.32 3.24 1.17-.05-.25m.309 28.57v-.01l1.77-.95m-5.16-27.77l-.02-.08m-2.93-1.12l-.01-.04 4.14 2.3-.04-.18m-3.8-.71l3.29 1.04-.05-.21m3.241 30.28v-.01m-1.201-4.24l-.01-.02 1.81-.46-.1-.45 1.78-.24-.13-.64 1.5-.79v-.01m-6.34-21.98l-.01-.05 1.87.19-.01-.01m-5.59-2.1l-.02-.06m-.42-.09v-.01l3.18 1.33-.07-.32 2.1 1.03-.03-.14m-6.35-7.07l-.01-.02m6.79 31.99l-.01-.02 1.73-.01-.05-.23"/><path d="M19.75 28.6l-.03-.11m-.36-.17l-.02-.1m-.78-.39v-.01m-1.29-.48v-.01m-.87-.32l-.01-.01 1.72.76-.01-.05m-1.61-.61v-.02l3.17 1.57-.04-.2m-1.46-.34l3.42 1.33-.03-.14 2.35 1.06v-.01m-5.53-3.99l-.02-.07m-1.18-.62l-.03-.14m-1.2-.61l-.02-.1 1.62 1.14v-.02m-2.95-1.949v-.01l4.28 3.49-.13-.63 1.84 1.67-.05-.27 1.64 1.04-.01-.03m0 31.189v-.03m-2.09-9.87v-.02l1.83.16-.07-.32M15.94 31.2v-.01l4.2 1.16-.01-.04m-.62-5.91l-.06-.28m-3.06-1.67v-.02l3.12 1.58v-.02m-4.64-2.31l-.01-.01 2.49 1.32-.01-.03 2.84 1.47v-.01"/><path d="M14.43 23.62v-.01l1.88 1.21-.06-.27 3.08 1.81-.07-.33 2.97 1.86-.07-.3M14.1 23.4l-.01-.01m8.17 31.38v-.01l3.09-.51-.01-.05m-4.08 1.17v-.01l2.53-.41-.09-.38m-1.59 2.55l-.07-.33 1.82-1-.08-.38 1.73-.91-.05-.22"/><path d="M21.24 57.43l-.03-.12 1.36-.43-.01-.04 1.51-1.02-.02-.09 2.27-1.58-.02-.1m-5.72.99v-.01m9.49 13.79l-.05-.21m-.99 1.701l-.12-.58"/><path d="M27.81 71.73l-.14-.64 1.65-.99-.01-.08 1.3-1.72m-4.02 4.14l-.02-.07m-.24 1.06l-.13-.64m-.949 1.49l-.02-.08m-.421.72v-.02l1.88-1.8-.01-.05 1.76-1.95v-.01M21.95 60.1v-.01l1.49-.94-.06-.29m-2.1.13l-.01-.02 2.14-.16-.03-.16"/><path d="M27.28 67.55l-.01-.02 2.38-2.15-.11-.54"/><path d="M24.51 74.33l-.01-.02 2.16-2.46-.14-.68 1.78-1.79-.14-.67 1.26-1.55-.17-.79 1.56-2.32-.06-.28M20.4 55.21v-.01m-6.75-31.7l-.01-.01m6.24 29.55l-.01-.02M19.7 53l-.01-.02 1.48-.62m-.29 6.29v-.02m.34 2.14v-.03m2.05 9.87l-.02-.07 3.42-3.15-.01-.06m-4.77-3.38l-.01-.07 1.9-1.5m-2.01 1.4l-.02-.09m-.05 0l-.02-.09m2.46 11.89l-.01-.06m-2.58-11.95l-.03-.1 1.95-1.23m1.84 2.5l-.05-.24 1.2-.85-.06-.24m-2.72 2.95l-.06-.28 2.36-1.8-.02-.11m-3.58 3.4l-.01-.08 1.83-1.54v-.01m-4.42-10.06v-.01"/><path d="M26.76 66.53v-.01l3.17-2.69-.09-.45"/><path d="M27.54 64.46l-.11-.49"/><path d="M22.32 67.99l-.01-.09 2.27-1.43-.08-.36 3.57-1.97-.01-.05 1.6-.86-.01-.05m-7.34 4.93l-.01-.03m-2.83-13.19l-.02-.07m3.23 15.19l-.01-.07 3.08-2.31-.05-.22m-6.05-11.48v-.02m4.01 19.16l-.02-.06m.63-14.65l-.01-.06 1.64-.94m-1.09.77l-.01-.04m.15.09l-.02-.08 1.62-.56-.01-.01m-3.11 1.77v-.01l1.96-1.28-.01-.04m-2.15 1.02l-.01-.04m-1.97 1.291v-.01m-.259.439l-.01-.07 2.86-1.72-.04-.2M16.6 42.04v-.02l1.84.34-.03-.18m1.08 13.43l-.02-.06m-.06-.1l-.03-.13m-.01-.02l-.01-.03 1.37-.4-.01-.02m-1.84-1.37v-.01m1.73 8.45l-.01-.05m-.01-.06l-.01-.03m-.03-.01l-.06-.28m-.06-.07l-.08-.38m3.15 14.85l-.01-.02"/><path d="M21.68 51.42v-.01"/><path d="M18.61 53.09l-.01-.01 3.61-1.24-.06-.32 1.62-.45-.06-.3m-3.52 9.85l-.08-.36m0-.01l-.01-.01m1.21 1.881l-.01-.02 1.13-1.57-.01-.05m-1.88 2.129l-.02-.08 1.29-1.16-.08-.41m-3.29-7.71v-.01m.39 3.17v-.01m-.15-.63v-.01m-.08-.32v-.01l3.37-.72-.06-.31 1.4-.29-.01-.01m-5.1-.48v-.01m-3.93-18.42l-.01-.01m4.17 20.29v-.02m1.14 6.1l-.02-.06m-1.5-5.95l1.27-.59v-.01m-1.25.23v-.02l1.16-1.49-.01-.04"/><path d="M17.96 55.22l-.01-.01 1.67-1.94-.02-.09m-.31-1.72l-.01-.02m-1.08.3v-.01l3.36-.67v-.01m-4.49.92h-.01l1.73-.4-.01-.03m6.21 10.53v-.03m.18.24l-.05-.27 1.36-.91-.01-.06m-2.05 1.76l-.06-.26m-2.84 2.63l-.05-.23"/><path d="M20.04 66.2l-.02-.09 2.64-1.75-.07-.34 2.11-1.32-.02-.09 1.79-1.35-.02-.08M16.32 48.86l-.08-.37 1.41-.32-.01-.02m-.94-.26l-.03-.11m-.52.37l-.08-.37m1.45 3.57l-.05-.21"/><path d="M16.82 51.81l-.08-.41 2.7-.65-.04-.17m-3.58-3.37v-.01l2.38.56-.14-.62M13.18 34.8v-.01"/><path d="M18.56 50.46l-.03-.16"/><path d="M16.6 50.88l-.08-.4 3.21-.19-.03-.13m-2.7 3.1l-.01-.02 1.51-.12-.01-.01m-1.62.09v-.01m2.3 11.82l-.02-.06 1.4-.48-.08-.38m-6.23-22.11v-.01l2.24-.11v-.01m1.28 6.28v-.02l2.62.01-.05-.24m-4.47 1.55v-.01l2.42-.32-.06-.33 2.2-.18-.1-.43 2.18-.04-.03-.11m-2.719 20.37l-.02-.08 1.69-1.06-.08-.4 1.8-1.12-.08-.4 1.46-.85-.08-.39 1.74-1.07-.01-.08M20.15 50.17l-.01-.02 2.49-.64v-.02m-4.27-.26l-.01-.04m-1.16.26h-.01m-1.39.37v-.01l2.26-.3-.02-.09 3.24.28-.07-.32m-1.07 9.49l-.01-.08m-1.86 1.29l2.5-1.39v-.01m-2.94 1.25l-.01-.05m-1.36-6.3l-.05-.21 1.93-.16v-.02m-1.87.86l-.01-.05m-.41-1.7l1.5-.34-.01-.02m-1.06 2.47l-.04-.19 1.63-.56v-.01m-1.59.82v-.02m0 .11v-.04l1.56-.67-.02-.07M13.6 41.14l-.01-.02 2.09.52m3.79 28.28l-.02-.09 1.87-1.24-.01-.04"/><path d="M24.99 62.82v-.01m-1.3 1.06l-.02-.07 1.28-.87-.02-.08"/><path d="M21.82 65.52l-.07-.32 1.64-.82-.07-.32 2.61-1.42-.01-.03m-6.98 4.78l-.02-.08 3.52-2.09v-.02l1.23-.86m-4.23-4.33l-.07-.34m-1.13 1.01l-.07-.31m-.19.6l-.08-.4"/><path d="M17.61 61.36l-.02-.1 1.45-.83-.04-.19 2.16-1.21v-.02m-3.84 1.04l-.01-.02m-.69-2.02l-.03-.14 2.9-1.46-.07-.32 1.67-.65m-4.53 2.39l-.01-.06m2.87-17.09l-.01-.07m-1.73.02l-.01-.01"/><path d="M17.13 40.88l-.04-.22"/><path d="M12.87 40.85l-.01-.01 3.08.17-.08-.37 1.64.38-.03-.12 3.34.02-.02-.13m-1.1 28.07l-.06-.28 2.24-1.01-.05-.27"/><path d="M18.82 69.05l-.02-.08 1.77-.51-.02-.09 1.24-.69v-.01m-5.66-10.719l-.03-.14 3.44-.88-.04-.2M18.35 33.77v-.01"/><path d="M18.34 33.83l-.01-.04"/><path d="M16.72 33.74l-.01-.02 1.78.35-.01-.03 2.76.62-.01-.05m-8.68-2.15l-.01-.04m-1.89-.03v-.02l2.79.44-.02-.05 2.53.73-.07-.35 1.51.62-.05-.24m-.66 1.93l-.01-.05 2.11.33v-.01m-4.6-.76l-.01-.03 1.64.54-.04-.21m-.45.19v-.01l3.81.57-.05-.24"/><path d="M19.04 35.4l-.01-.04m-4.04-1.25v-.02"/><path d="M14.19 34.09l-.06-.24 2.14.95-.04-.22 3.58 1.16-.02-.08m-6.499-1.77l-.06-.31m-2.391-.97v-.01m-.33.05l-.01-.03 3.25 1.49v-.02l2.34.72h-.01m4 5.57l-.02-.11m-1.86-.23v-.01m-1.83.01l-.03-.16m.05.27l-.02-.09m-1.79-.17l-.01-.07m-2.589-.16l2.24.3v-.02l2.28.28-.01-.05 1.53.25-.07-.38 2.88.53-.02-.11m-8.891-.92l1.65.24-.02-.09m.51 10.61l-.03-.12 1.55-.32m-4.07-10.49v-.01m-.01.06v-.01m2.2 10.36l-.02-.08 1.97-.17-.01-.05m-2.83-8.23v-.02l1.47.23-.02-.08m-1.95.43v-.03l2.12-.05-.01-.01m-2.66.11l-.01-.01 3.01.05-.01-.08m-3.71-2.299l1.63.21-.01-.01M10.47 37.2v-.01m.85 4.67v-.01l1.98.13m1.951 19.35l-.02-.09 2-1.07v-.02m1.649-1.09l-.08-.34 2.49-1-.03-.12"/><path d="M16.75 59.94l-.01-.04m-1.14.79l-.03-.14"/><path d="M15.09 61.03l-.03-.14 3.5-1.52-.1-.45 1.79-.46-.02-.09m-7.97-11.51l-.01-.04m-.17.37l-.07-.33 2.69.19-.04-.17"/><path d="M16.13 56.46l-.06-.3 1.82-.56v-.01"/><path d="M14.31 57.521l-.02-.08 1.35-.61-.02-.1 2.84-1.25m-4.24 1.849l-.06-.29 1.6-.4-.07-.33m-2.159-1.93l-.05-.2 2.84-.8-.01-.02m-2.841.79l-.05-.22 2.38-.48-.08-.37 3.13-.69-.07-.35 2.62-.54v-.01m-9.26-3.56l-.07-.32 1.88-.09-.06-.29h1.75l-.01-.01m-1.74 9.14l-.05-.27 3.89-.78-.01-.04m-3.4.6l-.02-.07"/><path d="M13.8 56.02l-.02-.09 2.58-.51m-1.49-2.8l-.01-.04m-.39.36l-.06-.27 1.72-.05-.06-.28m-2.579.41l-.01-.04"/><path d="M13.45 52.82l-.02-.09 2.06-.36"/><path d="M13.21 53.28l-.1-.46 2.7-.07v-.02l1.46-.39-.06-.27 3.23-.59-.02-.11m-5.77 8.73l-.01-.04m-2.68-17.89v-.01l2.11.25m1.15-.32l-.01-.04 1.41.16v-.03m-2.77.05l-.03-.17"/><path d="M13.73 42.3l-.04-.23 1.46.37-.09-.4m-.76.38l1.4.1-.07-.37 2.77.18m-.9.47v-.03m-2.17.37l-.04-.21 2.27.09-.03-.17m-2.22.36l-.06-.29m-2.26.21l-.02-.09 1.79-.03-.01-.05"/><path d="M13.17 43.39l3.9-.24-.02-.06 1.38-.56-.04-.17m-6.77.93v-.02l2.74.04-.05-.23m-3.23.25l-.01-.04m9.04-6.22v-.02m-2.47-.649l-.04-.17m-2.8-.791l-.01-.01 4.11 1.54"/><path d="M16.3 36.06l-.04-.19 3.48 1.32-.07-.3L21.84 38l-.02-.13m-4.39-.22l-.01-.03m-1.82-.03l-.04-.23m-5.77-.45l-.01-.01 3.74.6-.05-.22 2.91.53-.03-.12 2.48.32-.07-.33 2.75.47-.02-.12m-4.93 21.16l-.09-.44 1.79-.3-.08-.38 2.13-.39-.1-.49"/><path d="M14.52 59.88l-.03-.11 3.07-.92"/><path d="M15.18 59.42l-.01-.07"/><path d="M14.47 59.75l-.02-.09 1.53-.55-.01-.01m2.94-19.28l-.02-.08 1.77.24-.02-.11m-5.86-.41l-.01-.05 1.72.17 1.89.18-.01-.07"/><path d="M15.7 39.61l-.01-.04m-2.72-.21l-.02-.05"/><path d="M11.29 39.22l2.75.36-.04-.19 3.53.55-.05-.27 2.01.38-.03-.15 2.43.22-.01-.05m-2.78-.84l-.01-.07 2.19.46v-.01"/><path d="M19.03 39.52l-.09-.39 1.65.63-.05-.23m-2.87-.25v-.01l2.09.45-.01-.02m-2.88-1.01v-.01m-1.29-.21l-.02-.07m-.01.16l-.04-.17m-1.81-.15l-.03-.15 1.75.56-.06-.29m-.79.2l-.01-.05 2.19.48-.08-.35m-4.84-.9l-.01-.07 1.49.39-.01-.04m-3.02-.84v-.01l1.58.64-.01-.03"/><path d="M9.65 37.12v-.01l4.19 1.34-.03-.16 4.05.94-.06-.25m-8.11 2.74v-.03l1.47.17v-.01m-1.47.12l-.04-.18m-.55-2.53v-.01l1.64.17m-1.05 2.86l-.04-.17 1.45.1m-2.14-3.04l-.01-.04m-.16-.23l-.01-.04m0 .18L8.77 39l1.43.12-.02-.09m4.29 4.49l-.02-.07"/><path d="M11.21 43.69l-.01-.03 3.03.21-.1-.44 1.83.47-.08-.37 1.49.49-.03-.12"/><path d="M16.48 43.85l-.07-.3m-.2.71l-.01-.04m-.59.05l-.01-.02 1.74-.21m-4.26.84l3.33-.28-.06-.28m-3.609.31l-.01-.06m-2.801.35v-.01l2.21-.06-.03-.15 1.81.07-.06-.3m2.06 2.38v-.01l3.71-.41-.07-.36 2.06-.2-.24-1.16m-11.61.58l-.01-.03 3.21-.07-.05-.25 2.77.19-.07-.34 3.85.24-.06-.32 1.66.28-.07-.34m54.751 17.91l-.02-.09 2.24 1.38-.04-.14m-2.521-.74l-.01-.07 3.34 3.47-.11-.54m-4.14-3.77v-.02m-1.06 5.67l-.02-.08m-.49.34l-.02-.11m-.44-1.06l-.04-.2m-.419-1.81l-.02-.09 2.84.6-.1-.51 1.8 1.2-.13-.61 1.87 1.34-.08-.36m-6.821 5.23l-.09-.39m.36 1.9l-.02-.09m-2.54-8.59l-.03-.12m2.84 2.49l-.12-.54m-2.21-1.43l-.03-.18 3.16 2.91-.01-.07m-3.94-3.83l-.02-.11 2.44 2.25-.01-.06m-1.05 7.85v-.04m-2.25-4.45l-.02-.07 3.32 3.79-.04-.18m-3.47-3.159l-.05-.24 2.43 4.31-.04-.17m-2.01.599l-.01-.05m-.01-.01v-.01m-1.84-7.45l-.02-.08m.46 3.52l-.04-.2m.27 1.24l-.07-.31 2.46 2.58-.02-.07m-1.899-5.81l-.01-.01 2.81 2.82-.12-.56m-4.631-4.72l-.02-.08 2.16 2.53-.09-.42 2.08 2.2-.02-.1m-2.99 2.22l-.09-.42m-1.12-5.1l-.01-.04m1 7.71l-.01-.05"/><path d="M66.18 73.29v-.01m-1.14-4.5l-.02-.1m.16 2.07l-.14-.68L67 72.8l-.03-.12m-2.33-2.06l-.1-.46m-1.4-4.64l-.08-.36m1.35 8.56l-.05-.23m-1.05-2.1l-.1-.47 1.26-.72-.09-.41m-1.92 2.78l-.01-.01m-1.01 1.73l-.04-.2m.11 1.16l-.16-.76 1.46-1.08-.1-.48m-3.47-1.109l-.08-.34m.1.689l-.07-.32m.96 4.54l-.08-.4m-.53-1.61l-.17-.79 1.93 1.5-.05-.27m-4.09.71l-.06-.26 1.16-1.67-.11-.52m-1.83 2.77l-.08-.4m-.37 1.96l-.06-.28 1.29-1.5-.06-.27m-3.6 1.94l-.07-.35 2.38.3-.02-.11m-3.77.22l-.16-.77 1.48.44-.07-.32m-3.28-.45l-.04-.21 1.86.39-.41-1.93m-3.859 3.97v-.01l2.35-2.3-.05-.24m-3.731.68l-.03-.12m-1.81 1.71l-.01-.01 1.41-1.61-.13-.63M44 78.36l-.07-.33m-3.56 1.31l-.02-.07 2.31-4.81-.12-.57m-2.47 5.17l-.02-.07.87-4.82-.01-.06m-1.21 2.9l-.09-.39m-.67 1.71l-.02-.1 1.19-1.83-.02-.06m-1.72 1.42l-.03-.15.86-3.82-.06-.26m-1.97 4.25l-.03-.18 2.09-4.56-.01-.08m-2.36 4.63l-.05-.27m-.81-.76l-.05-.26m-3.37-6.38l-.01-.06m.96 6.83l-.01-.04 2.19-5.34v-.04m.08 3.72l-.03-.17"/><path d="M35.81 75.68l-.1-.48 1.22-4.12v-.04m-3.33 6.22v-.01l1.33-2.27-.09-.45 1.82-2.83-.03-.14m-3.61 2.98v-.02l1.39-1.65m-1.56 1.73l-.01-.01 1.12-1.22-.01-.02"/><path d="M34.56 72.36l-.04-.2m-3.62 3.4l-.01-.08 1.61-2.89-.33-1.54m-1.54 5.19l-.01-.05 1.46-.84-.07-.37 2.59-2.48-.03-.11m-5.64.06l-.3-1.41 1.18-1.81-.01-.06m-2.32 5.09l-.01-.04 2.87-1.64-.2-.95 2.2-1.65-.02-.07m57.61-20.791l.2-.8 2.49.37v-.03m-3.45.611l.12-.49 2.25 1.5.01-.03m-.83-4.54l.2-.8 2.66.13v-.02m-3.6.88l.13-.51 2.29 2.59.07-.26m-2.9 3.65l.19-.77 2.15.25.07-.31m-3.14 1.11l.14-.59 2.47 3.5.08-.35m-2.73 3.48l.14-.59m-1.291 4.749l.15-.61 2.39-.57.13-.52M87.12 61.93l.1-.4 1.93 2.23.08-.34m-3.91 1.13l.16-.62 1.95.14.14-.54 1.93.69.08-.3m-4.85.919l.13-.52.97 3.41.17-.66m-1.55 1.191l.11-.46 1.68.27.09-.36m-2.32.72l.1-.43m-5.49 6.2l.02-.05 2.64-.54.58-2.34 2.81.36.18-.71m-6.27 3.42l.03-.12m-2.04 1.23l.01-.02 3.06 1.52.11-.42m-5.69 1.42l.01-.03 2 .3.15-.58m10.87-52.81l.01-.03m3.27 18.72l.13-.5 1.91 1.53.13-.54m-1.35-.61l.23-.95 3.24-.16.05-.23m-5.72-5.36l.11-.44 3.43 3.41.2-.8 1.28 3.45.2-.8"/><path d="M89.64 36.61l.22-.89 3.32-.67.09-.38m-4.1-5.23l.1-.38 1.49 5.26.58-2.31 1.16 2.93.2-.84m-3.16-4.76l.22-.86m-3.08-3.03l.06-.26 4.47.78.22-.87M70.34 81.12l.03-.13 3.32.17.14-.58M28.84 5.37l.01-.05 4.62-2.25.25-.99 3.19 1.01.25-.99L42 1.93l.21-.86 3.94.57.21-.84 5.02.55.19-.78 4.01.64.17-.71 3.13 1.88.23-.9 1.9 2.18.15-.61 2.5.74.17-.67 1.46 2.02.18-.75 2.26 1.16.17-.7 2.55 2.66.13-.55 2.52 1.3.13-.54 3.89 3.67.13-.54 2.95 2.42.09-.37 2.88 3.12.08-.29 2.51 5.05.05-.18 1.8 2.96.02-.08M14.42 62.06v-.02M27.65 7.51l.01-.03 1.39 2.68.14-.56 1.3 3.14.26-1.03 1.3 1.8.02-.07m-4.91-4.79l.01-.01 3.34 5.78.21-.86M26.85 9.7l.02-.07 1.49 1.82.01-.03M13.71 62.31v-.01m4.65-23.48v-.01l2.28.25v-.01m5.51-32.32v-.01M15.39 48.88v-.01m8.96-37.5v-.01m1.381-5.65l.01-.01M14.53 50.41l.02-.08 1.98-.31.01-.05m.81-11.14l.01-.01M25.18 4.7l.02-.09m-8.86 33.74l.01-.01 1.84.46v-.01m-8.08 25.95l.01-.03 3.37-2 .06-.22m-3.83 2.32v-.01l2.27-1.4.02-.06m-1.04-4.8v-.01M26.05 7.16l.02-.1M24.5 5.01l.03-.11 2.03 2.35.01-.02m-2.35-2.07l.02-.09 1.99 2.7.06-.23m.08 2.8l.16-.68 1.29 2.59.07-.27M23.96 6.2l.02-.08 2.12 2.71.01-.01M23.84 6.3l.02-.09 2.76 4.64.02-.11 1.46 2.07v-.01m-1.869-9.34l.27-1.09 2.26 3.68.14-.54 2.38 2.91.01-.03M25.21.75l.01-.05 1.19 5.05.24-.96M14.01 51.57v-.02l2.74.4.22-.88m-4.91 2.08l.03-.09 4.68-1.02.24-.97 2.48.05v-.02m-3.96-13.26v-.02l3.49.85.03-.12m-6.41 8.86l.01-.04m1.8 2.7l.02-.11m-1.34-2.13l.02-.08m.18.44l.08-.34m-1.02-.05v-.02l3.05 1.74.1-.4m-6.8 11.03l.03-.1m2.85-12.12v-.01m-1.09 3.45l4.02-.31v-.02m-6.09 8.58l.02-.07m2.09-8.57v-.01l3.39-.51.1-.4m-.42-12.42v-.01l2.37.62.02-.08"/><path d="M18.1 39.04l.01-.01"/><path d="M12.63 38.95l4.45.26.01-.03 2.91.2v-.01m-7.36-.5l3.75.13.02-.07m-3.39-1.62v-.01m-.1.28v-.01l2.16.62.03-.14m-5.09 10.3l.01-.01m13.48-35.51l.07-.3m-.11.3v-.01m-3.09-4.89l.01-.02"/><path d="M20.71 8.28l.01-.03 1.4 2.75.1-.38 3.22 5.13.14-.55m-1.7-.09l.04-.14m-1.32-1.01l.01-.05m-3.24-2.94v-.01l2.65 2.81.1-.4 3 3.09.07-.31M9.89 48.42l.01-.01 2.5-.1m9.43-34.02l.02-.11m-2.68-2.86l.01-.04 3.39 4.84.05-.22m-3.88-2.88v-.01l3.12 2.98.07-.27M8.98 51.52v-.01m.97-5.43l.01-.01 2.28.46.13-.55 2.14.7.2-.79 2.12-.06.01-.02m4.92-28.16l.02-.06 1.98 1.23.01-.02m-5.14-5.42l.02-.08m-.43-.33h.01l2.84 3.23.1-.41 1.79 2.31.04-.17M19.74 6.51l.01-.02m-9.9 39.65v-.02l1.94.94.08-.29"/><path d="M23.71 11.38l.03-.14m-.31-.39l.03-.11m-.67-.87l.01-.01m-1.18-1.25V8.6m-.8-.84v-.02l1.51 1.8.02-.06m-1.47-1.57v-.02l2.71 3.5.06-.25m-1.46-1.18l3.11 3.37.05-.18 2.06 2.49.01-.02M23.39 8.1l.02-.08m-.99-1.35l.04-.17m-1.01-1.35l.03-.11 1.2 2.17v-.03m-2.24-3.81v-.01l2.9 6.27.2-.78 1.16 2.89.08-.33 1.27 2.06.01-.04m-15.3 28.4l.01-.01m-1.79 6.65l.01-.03m3.07-12.24v-.02l1.97 1.19.1-.4m3.88-24.76v-.01l4.09 3.61.01-.06m2.53-6.97l.09-.35m-2.51-3.55v-.03l2.65 3.49v-.03m-3.95-5.14l2.07 2.84.01-.04 2.38 3.2h.01"/><path d="M20.47 2.87v-.01l1.45 2.39.08-.34 2.47 3.72.1-.4 2.31 3.71.1-.37m-6.77-9.13v-.01m-8.02 39.73l.01-.02 3.75 1.13.01-.06m-5.22-.93v-.01l3.07.93.12-.48m-3.199 2l.11-.41 2.59-.13.12-.47 2.44-.08.07-.27"/><path d="M9.58 44.59l.04-.16 1.76.27.02-.06 2.26-.31.02-.11 3.42-.53.03-.12m-6.97-2.03v-.01m3.11 20.69l.06-.26m-2.05 1.37l.18-.72"/><path d="M9.13 64.25l.2-.79 2.4-.21.02-.1 2.41-1.21.01-.01m-6.8 2.46l.03-.1m-.86 1.06l.2-.79m-1.88 1.16l.03-.11m-.88.59l.01-.02 3.11-1 .01-.05 3.05-1.24v-.02M8.93 47.98v-.01l2.19-.24.09-.36m-2.44-1.01l.01-.02 2.49.99.05-.2m-.49 12.14v-.03l3.85-1.12.17-.66M4 65.36l.01-.02 3.77-1.57.21-.85 2.98-1.04.21-.82L13.45 60l.24-.97 3.02-1.76.09-.35M9.86 41.64v-.02M19.65 2.3v-.01m-9.19 36.62l.01-.02m-.19-.13l.01-.02 2 .12m-3.77 6.9v-.02m-.78 2.59l.01-.04M4.64 60.51l.02-.09 5.57-1.66.02-.09m-3.5-6.4l.02-.09 2.96-.64m-3.03.48l.03-.12m-.06-.03l.03-.11M2.95 66.47l.02-.07m3.65-14.85l.03-.12 2.86-.31v-.01m.7 3.83l.07-.31 1.81-.29.07-.3m-4.68 1.81l.09-.34 3.64-.73.04-.14"/><path d="M5.36 56.51l.03-.11 2.91-.72v-.01m.55-13.72l.01-.01m1.95 15.901v-.01l5.04-1.29.14-.56"/><path d="M12.81 55.93l.16-.6"/><path d="M5.02 57.04l.03-.11 3.33-.35.12-.46 5.09-.26.01-.05 2.26-.09.02-.06M4.93 57.17l.01-.03m4.05-16.38l.02-.09M4.32 59.51l.02-.09 4.72-.9.07-.27m-.5-16.22v-.02M2.64 65.73l.02-.07"/><path d="M11.38 49.54l.02-.07 2.36-.16v-.01m-1.65.28l.02-.06m.12.18l.02-.09 2.13.25m-4.47.27h.01l2.9-.37.01-.05m-2.98-.04l.01-.04m-2.91.371v-.02m-.53.359l.02-.08 4.16-.37.06-.25m2.13-24.89l.01-.01 1.89 1.38.05-.21"/><path d="M8.61 41.58l.02-.07m-.01-.15l.04-.16m0-.03v-.03l1.76.29v-.02m-2.98 4.63v-.01m-1.01 3.251l.01-.05m.01-.081l.01-.04m-.02-.02l.08-.35m-.02-.12l.11-.47m-4.6 18.41l.01-.03m6.99-28.26v-.01l4.74.58.09-.39 2.07.37.1-.36M6.66 47.6l.11-.45"/><path d="M6.77 47.13v-.01m.32 2.78l.01-.03 2.13-1.15.01-.05m-3.28 1.36l.02-.11 2.09-.6.13-.5m.53-10.47l.01-.01m-1 3.05h.01"/><path d="M6.57 46.03l.01-.01m.86-3.89v-.02m.18-.78l.01-.02m.08-.41l.01-.01 4.18 1.05.1-.39 1.73.44v-.01m-5.47-3.34v-.01m5.68-22.85v-.02M7.51 40.84v-.01M5.45 48.3l.02-.08m1.57-7.5v-.01l1.75.04v-.01m-1.52-.43l.01-.02 2.11-1.03.02-.06"/><path d="M7.11 40.3v-.01l2.94-1.27.03-.11m.58-2.1l.01-.03m-1.37-.25v-.01l4.14 1.09v-.01m-5.55-1.43v-.01l2.15.5.01-.03m1.21 15.23l.01-.04m.08.37l.08-.33 2.04-.27.02-.08m-3.27.86l.08-.33m-4.63 1.39l.07-.27"/><path d="M3.43 53.79l.03-.11 3.93-.53.1-.42 3.09-.32.03-.11 2.75-.55.03-.09m-4.64-19.4l.12-.46 1.75.42.01-.03m-.92-.81l.04-.14m-.8.13l.12-.46"/><path d="M8.74 35.72l.06-.27"/><path d="M7.71 35.85l.12-.5 3.39.75.05-.21M9.1 30.13h.01l2.36 1.92.19-.77m1.28-16.539v-.01"/><path d="M10.4 35.28l.05-.18"/><path d="M7.97 34.68l.12-.48 3.71 1.53.04-.16m-4.73 2.01v-.02l1.76.69v-.02M7 37.44v-.01M3.1 51.97l.02-.08 1.84.23.12-.48m5.11-28.25v-.01l2.59 1.11v-.01m-2.01 7.76l.01-.03 2.94 1.45.08-.3m-5.87-.71l2.9.96.11-.41 2.56 1.01.14-.54 2.46 1.15.04-.14M1.91 56.08l.03-.1 2.48-.27.12-.5 2.64-.27.13-.49 2.11-.16.11-.48 2.55-.24.03-.1m.23-17.64l.01-.02 3.14.64.01-.02m-4.66-2.64l.02-.04M9.4 33.4h.01m-1.77-.35v-.01l2.7.9.03-.11 3.48 2.09.11-.4"/><path d="M7.56 45.6l.02-.1m-2.79.43l3.57-.19v-.02m-3.98-.19l.02-.07m1.91-7.83l.07-.26 2.25.88.01-.02"/><path d="M6.07 38.17l.01-.06m.48-2.14l1.86.44.01-.02m-2.54 2.19l.06-.23 2.14.26v-.02m-2.24.06l.01-.02m-.05.12l.01-.04 2.12.09.02-.08M9.93 22.1v-.03L12 23.81v-.01M.76 57.65l.03-.11 2.77-.37.01-.05m7.28-4.43v-.01m-2.04.49l.02-.1 1.91-.27.02-.1"/><path d="M5.81 54l.1-.41 2.28-.02.1-.39 3.71-.17.01-.04M1.54 54.51l.03-.1 5.1-.41.01-.03 1.85-.29M6.15 46.5l.11-.42"/><path d="M4.44 46.6l.09-.39m-.54.57l.12-.5m-.76.73l.03-.12 2.1-.13.06-.24 3.09-.18v-.02m-4.88-.94v-.02m.33-2.65l.04-.17 4.06-.06.1-.39 2.23.18m-6.4.21l.02-.09m12.601-17.62l.02-.08m-1.961-.93v-.01m-.74-.01l.06-.27m-4.84-2.09v-.02l3.36 1.87.12-.46 1.63 1.33.03-.14 3.75 1.84.04-.15M1.59 56.58l.08-.35 3.07.09.09-.32"/><path d="M.5 56.32l.03-.1 2.26.39.02-.11 1.78-.09v-.01m-.48-15.15l.05-.18 4.34.9.06-.24m10.75-25.3v-.02m-.04.07l.01-.04m-1.79-.95v-.02l1.8 1.37.01-.04 2.77 2.2.01-.05m-6.41-5.65v-.01m-2.16-1.519l.01-.04m-2.11-1.071l.01-.02 2.89 2.02.02-.08 2.44 2.21.11-.43 1.35 1.53.08-.31m-1.8 1.82l.02-.07 2.19 1.53m-4.75-3.39v-.03l1.56 1.5.06-.26m-.6-.02v-.02l3.97 2.73.07-.29m.16-.44l.01-.06m-3.85-3.61l.01-.03m-.91-.43l.08-.31 1.88 2.24.07-.27 3.39 3.26.02-.09m-6.33-5.55l.09-.38m-2.14-2.4v-.02m-.4-.13l.01-.03 2.83 3.46.01-.03 2.23 2.09m1.44 8.45l.03-.14m-1.96-1.28l.01-.01m-2.06-.99l.05-.2m-.09.33l.03-.1m-1.92-1.18l.02-.09m-2.82-1.59l2.36 1.56v-.02l2.41 1.57.02-.06 1.59 1.11.12-.46 2.95 2.18.03-.14"/><path d="M8.92 19.39v-.01l1.72 1.18.03-.12M5.42 32.65l.04-.15 1.91.49.01-.01m1.17-14.02l.01-.01m-.04.07V19m-3.2 12.85l.02-.1 2.3.89.02-.07m1.33-10.79l.01-.03 1.52 1.07.02-.1m-2.41-.58v-.04l2.41 1.11.01-.02m-3.06-1.34v-.01l3.35 1.71.03-.11m-2.91-4.6v-.01l1.72 1.13v-.01m-1.1-3.98v-.02m-1.6 5.71v-.01l2.15 1.23.01-.01M.72 45.69l.03-.11 2.84-.11v-.02m2.45-.32l.1-.43 3.35.24.03-.15"/><path d="M3.17 44.95l.01-.05m-1.72.261l.05-.18"/><path d="M.71 45.27l.04-.18 4.76.21.14-.56 2.26.47.03-.12M5.29 27.8l.02-.06m-.41.33l.11-.42 2.92 1.69.05-.21"/><path d="M4.38 40.7l.1-.38 2.35.38v-.01m-5.08.2l.02-.1 1.86.06.03-.13 3.88.16v-.01m-5.78-.24l.09-.35 2.01.41.1-.4m-1.37-3.35l.07-.26 3.62.66v-.03m-3.63-.66l.07-.28 2.93.77.12-.47 3.9.94.1-.42 3.25.82.01-.01m-8.46-9.08l.1-.38 2.16.93.09-.37 1.96.95.01-.01m-6.97 9.32l.09-.34 4.8 1.26.01-.05"/><path d="M2.66 39.04l.03-.08"/><path d="M2.01 38.92l.02-.1 3.18.84v-.01m-.14-3.96l.01-.05m-.64.2l.09-.34 1.95.89.09-.36m-3.13-.94l.02-.05m-.1.1l.03-.12 2.51.74.01-.01"/><path d="M2.84 35.52l.14-.57 3.08 1.4.01-.02 1.85.37.08-.34 3.95 1.1.04-.13M.72 43.98l.01-.06m6.8-21.57l2.24 1.44v-.01m1.461.27l.01-.04 1.5.95.01-.04M9.62 23.46l.05-.2"/><path d="M9.45 23.48l.07-.28 1.44 1.21.12-.49m-1.06.01v-.01l1.52.88.11-.46 3.02 1.73v-.01m-1.27.05l.01-.04m-2.63-.78l.07-.26 2.5 1.35.06-.21m-2.69-.81l.08-.35M8.16 24l.03-.11 2.02.95.02-.07"/><path d="M8.21 24.39l4.51 1.87.02-.08 1.86.12.05-.21m-8.12-2.66l.01-.03 3.05 1.55.07-.28m-3.76-1.5l.01-.04m13.571-2.04l.01-.02m-2.421-2.08l.05-.22m-2.72-2.41v-.02l3.77 3.98"/><path d="M15.75 17.88l.06-.24 3.18 3.38.09-.37 1.83 2.44.04-.16m-4.8-2.65l.01-.04m-2.03-1.03l.07-.28m-6.23-3.68v-.01l3.87 2.73.06-.28 2.98 2.19.04-.15 2.6 1.72.1-.41 2.84 2.04.04-.15M6.31 21.2v-.01M3.37 44l.14-.54 2.18.64.11-.47 2.61.73.15-.61"/><path d="M.69 43.66l.04-.15 3.94.66v-.01m-2.98-.65l.02-.09"/><path d="M.71 43.48l.02-.11 2.02.22.01-.01m13.86-20.06l.02-.09 1.86 1.23.03-.13m-6.35-3.67l.01-.06 1.84 1.13h.01l2.02 1.24.02-.09m-2.95-1.539l.01-.06m-2.95-1.721l.02-.08m-1.83-1v-.01l2.9 1.92.06-.23 3.67 2.54.08-.32 2.06 1.52.04-.18 2.62 1.58.01-.06m-2.66-2.47l.02-.09 2.22 1.73v-.02"/><path d="M16.92 23.25l.11-.48 1.51 1.61.07-.28m-3.08-1.859v-.01l2.1 1.64v-.02m-2.68-2.711v-.01m-1.33-.94l.02-.09m-.11.16l.05-.2m-1.26-1h.01m-.7-.16l.05-.19 1.66 1.59.09-.36m-.99-.21l.01-.06 2.19 1.74.12-.44M9.8 17.311l.03-.08 1.46 1.25.01-.05M8.37 15.84v-.02L9.8 17.4l.01-.04"/><path d="M7.69 15.42l.01-.01 3.98 3.8.05-.19 4.03 3.27.08-.31m-9.23-3.93v-.01m-1.39 2.57l.01-.03 1.57.99m-1.72-.68l.06-.22m.77-3.15v-.01l1.75 1.09m-2.75 2.64l.06-.22 1.57.92v-.01m-.74-4.59l.01-.05m-.05-.34l.01-.05m-.1.2l.01-.06 1.54.93.03-.12m2.35 7.39l.02-.08m-3.78-1.5l.01-.04 3.29 1.88.14-.53 1.79 1.52.11-.45 1.41 1.36.04-.15"/><path d="M11.68 26.72l.09-.37m-.62.69l.01-.05m-.69-.27l.01-.02 2.07.71M7.3 26.02v-.01l3.9 1.52.09-.35m-4.23-1.63l.02-.08m-3.34-1.13v-.02l2.52 1.15.05-.19 1.99 1.08.1-.38m-4.77-1.5v-.01m5.78 5.31v-.01l4.4 1.58.11-.44 2.43.9.36-1.43M3.35 24.67l.01-.04L7 26.31l.08-.32 3.01 1.74.11-.43 4.2 2.39.1-.4 1.72 1.23.1-.42m51.7 50.12l.03-.12 1.75 2.78.05-.17m-2.43-2.22l.02-.08 1.85 5.73.17-.67m-2.58-6.5v-.03m-4.29 5.79l.02-.09m-.73.1l.03-.13m.09-1.43l.07-.25m.51-2.26l.03-.11 2.87 2.23.16-.63L67 84.5l.19-.76 1.37 2.53.11-.45m-10.53 2.13l.12-.48m-.64 2.34l.03-.12m1.84-11.04l.04-.15m1.82 4.35l.17-.67m-1.7-2.81l.05-.23 1.97 5 .02-.09m-2.32-6.45l.03-.14 1.51 3.87.02-.08m-5.47 8.26l.01-.06m-.09-6.23l.02-.09 1.66 6.08.05-.23m-2.17-5.449l.08-.3.36 6.18.05-.21m-2.58-.431l.01-.06m2.01-9.41l.03-.1m-1.41 4.21l.06-.25m-.38 1.54l.1-.38 1.34 4.24.02-.08m1.04-7.57l.01-.01 1.6 4.7.18-.71m-2.62-7.83l.03-.09 1.03 4.02.13-.52 1.14 3.6.03-.12m-4.58.86l.13-.52"/><path d="M54.45 77.95l.01-.06m-3.09 9.22l.01-.07m.01-.01v-.02m1.19-5.67l.03-.12m-.95 2.41l.21-.84.71 4.14.03-.15m-1.49-3.59l.14-.58m.971-5.97l.11-.45M49.16 86.55l.07-.3m-.03-2.92l.15-.59 1.8-.11.13-.51m-3.68 2.07v-.02m-2.08 1.38l.06-.24m-.51 1.371l.24-.94 2.22-.42.15-.59m-3.29-3.151l.11-.42m-.269.83l.1-.41m-1.421 5.64l.13-.5m.29-2.11l.24-.97 1.35 2.74.09-.34m-4.98-1.43l.08-.33 2.21-1.24.16-.65m-3.57 2.12l.13-.5m-1.5 2l.09-.35 2.27-.97.08-.34m-5.1.21l.11-.44 2.51 1.64.03-.13m-4.35-1.82l.24-.95 1.42 1.31.1-.41m-3.44-2.29l.07-.26 1.88 1.45.59-2.39m-4.41.15v-.01m-2.09 2.2l3.9-1.3.07-.3m-4.56-1.28l.04-.15m-2.98.93v-.02l2.47-1.03.19-.78m-2.98 1.89l.1-.41m-4.72-.47l.03-.1 5.22-4.13.18-.71m-5.61 4.46l.02-.09 3.62-4.94.02-.07m-2.96 2.59l.13-.49m-1.7 1.55l.03-.12 2.34-1.4.02-.07m-2.71.651l.04-.19 3.06-3.82.08-.33m-4.54 3.699l.05-.22 4.86-3.98.02-.09M16.1 75.8l.08-.33m-.49-1.3l.08-.32m-.28-9.02l.02-.07m-2.68 8.2l.02-.05 5.39-4.79.01-.05m-1.93 4.22l.05-.21"/><path d="M15.95 73.08l.15-.6 3.64-3.96.01-.05m-7.14 5.17v-.02l2.74-1.81.15-.56 3.6-2.18.04-.18"/><path d="M13.45 70.27l.01-.03 2.46-1.09m-2.7 1.09v-.02l1.92-.75.01-.03m1.23-.78l.06-.24m-5.93 1.84l.03-.11 3.39-2.36.48-1.91m-4.58 4.98l.01-.05 2.11-.14.12-.47 4.27-1.37.03-.13M10 65.67l.43-1.74 2.33-1.39.02-.08m-5.41 4.45l.02-.05 4.12-.26.3-1.18 3.37-.65.02-.09"/></svg>