<?xml version="1.0" encoding="UTF-8"?>
<svg id="Layer_1" data-name="Layer 1" xmlns="http://www.w3.org/2000/svg" width="524.59" height="8.2" viewBox="0 0 524.59 8.2">
  <path d="M523.52,6.24c-.7-.59-3.04-.59-6.53-.51-.76,.02-1.46,.03-1.98,.03-2.68-.02-5.39-.04-8.09-.05-11.03-.06-21.44-.12-28.77-.49-1.48-.07-2.78-.18-3.99-.28-1.88-.15-3.51-.29-5.27-.26-1.57,.02-3.46,.24-5.28,.45-2.65,.3-5.39,.62-6.9,.29-.39-.09-1-.01-1.35,.17-2.3,.02-5.07,.09-6.96,.13-.98,.02-1.72,.04-2.04,.05-1.04,0-1.87-.04-2.67-.09-.79-.05-1.54-.1-2.46-.09-5.31,.07-8.57,.05-13.31,0-.72,0-1.46,.04-2.24,.08-.9,.05-1.84,.11-2.88,.1-3.04-.04-5.58-.04-8.21,0-.97,.01-1.52-.03-2.09-.09-.54-.05-1.11-.1-2-.09-2.1,0-4.53,.03-7.13,.06-7.62,.08-16.26,.16-22.56-.06-.22,0-.82,0-1.21,.18-2.66-.02-5.4-.02-8.06-.02-5.64,0-10.97-.01-14.3-.16-2.2-.1-4.19-.34-6.11-.58-1.77-.22-3.43-.42-5.16-.5-2.67-.13-5.72-.13-8.94-.13-2.16,0-4.35,0-6.44-.05-2.78-.06-5.59-.17-8.3-.28-2.87-.12-5.57-.22-8.09-.26-2.02-.03-3.99-.01-5.89,0-2.18,.02-4.25,.04-6.4,0-.81-.02-1.75-.1-2.66-.18-.83-.07-1.67-.15-2.46-.18-2.75-.11-5.77-.15-8.7-.18-4.1-.05-8.33-.11-11.78-.35-1.54-.11-2.83-.3-4.18-.5-1.5-.22-3.05-.45-5.04-.58-1.25-.09-2.63-.09-4.09-.1-1.34,0-2.73-.01-4.11-.08-.84-.04-1.4-.11-1.94-.18-.63-.08-1.23-.15-2.17-.18-10.46-.27-24.41-.12-31.79,0-1.43,.02-2.83,.1-4.18,.18-1.3,.08-2.65,.15-4.02,.18-2.01,.04-3.99,.02-5.91,0-1.89-.02-3.68-.03-5.37,0-.84,.02-1.86,.09-2.94,.17-1.49,.11-3.03,.22-4.21,.19-1.04-.03-1.44-.15-1.96-.3-.48-.14-1.02-.31-2.11-.41-.48-.05-.9-.07-1.29-.08-.04-.37-.45-.53-.62-.6l-.13-.03c-3.97-.42-9.15-.09-14.16,.23-1.89,.12-3.72,.24-5.38,.31-1.09,.04-2.36,.06-3.65,.07-1.55,.02-3.16,.04-4.55,.11-.21,0-.41,.1-.62,.2-.14,.06-.33,.15-.42,.16-.4,.03-.96,.02-1.5,0-.55-.02-1.12-.03-1.57,0-.54,.04-1.09,.1-1.65,.16-.79,.09-1.62,.18-2.43,.2-.73,.02-1.54,0-2.35,0-.95-.02-1.93-.04-2.79,0-.13,0-.44,.07-.8,.14-.42,.09-.93,.19-1.27,.22-2.09,.19-4.18,.21-6.39,.24-1.56,.02-3.17,.04-4.86,.12-.76,.04-1.55,.1-2.36,.17-.91,.08-1.86,.16-2.76,.19-.61,.02-1.28,0-1.94,0-.73-.01-1.48-.03-2.16,0-.85,.04-1.67,.11-2.47,.18-.91,.08-1.78,.15-2.65,.18-.95,.03-1.98,.02-3.04,0-1.02-.01-2.07-.03-3.11,0-.76,.02-1.35,.09-1.98,.17-.6,.08-1.23,.16-2.04,.18-.45-.12-1.35-.18-3.14-.18-.93,0-1.87,.08-2.49,.14-.27,.02-.48,.04-.59,.04-8.66,.11-10.56-.08-15.15-.52l-1.3-.12c-1.98-.19-4.02-.38-4.9-.54,0-.03-.01-.12-.02-.18-.02-.34-.07-1.04-1.02-1.32-.99-.29-6.14-.8-9.34-.92-3.32-.13-7.79-.08-12.11-.04-2.84,.03-5.78,.06-8.4,.04-2.08-.02-4.06-.06-5.93-.1-2.26-.05-4.39-.09-6.37-.08-2.82,.01-5.71,.09-8.76,.18-2.79,.08-5.68,.15-8.66,.19-.86,.01-1.66-.03-2.59-.07l-.44-.02c-1.46-.05-2.98-.1-4.56-.09-1.11,0-2.01,.09-2.96,.17-.95,.08-1.93,.17-3.16,.19-1.57,.02-3.43-.04-5.23-.09-.59-.02-1.18-.03-1.77-.05L0,2.77H0s2.28,.03,2.28,.03c1.84,.02,3.59,.1,5.28,.18,1.88,.09,3.83,.18,5.87,.18h0c1.59,0,3.55-.08,5.44-.17l2.44-.12c.63-.04,1.26-.06,1.87-.07,1.75-.03,3.7-.02,5.76,0,2.08,.01,4.29,.03,6.53,0,3.12-.04,6.27-.11,9.37-.19,5.48-.13,10.66-.25,15.21-.17,.63,.01,1.42,.08,2.27,.16,.88,.08,1.87,.17,2.85,.2,1.81,.06,3.54,.07,5.07,.07,1.76,0,3.27,0,4.1,.11,.14,.02,.63,.26,.96,.42,.36,.17,.72,.35,.98,.45,2.43,.9,2.81,.97,6.25,1.47,.76,.11,1.4,.21,1.97,.29,2.22,.34,3.44,.52,6.28,.61,3.3,.11,7.14,.12,11.21,.13,2.41,0,4.86,.02,7.33,.04,.27-.04,.59-.12,.79-.35h0s.17,0,.17,0c1.67-.04,3.37-.02,5.18,0,1.99,.02,4.04,.05,6.09,0,.56-.02,1.26-.09,2-.17,.7-.08,1.44-.16,2.11-.19l5.13-.18c1.17-.06,2.35-.14,3.54-.22,1.85-.12,3.77-.25,5.67-.32,1.43-.06,2.98-.07,4.49-.08,1.6-.01,3.25-.03,4.73-.1,.77-.03,1.61-.14,2.5-.26,.87-.11,1.77-.23,2.63-.28,3.48-.19,7.96-.02,12.29-.18,1.2-.04,2.33-.17,3.43-.29,.94-.1,1.82-.2,2.73-.25,.13,0,.23,0,.31,0,.15,0,.21,0,.21,0,.09,.08,.23,.18,.46,.19,.55,.03,1.01-.04,1.42-.1,.23-.03,.45-.07,.68-.08,3.03-.14,4.95-.15,7.08,.18,.17,.03,.28,.04,.35,.06,.12,.12,.29,.2,.62,.29,.5,.14,.78,.13,1.09,.13,.25,0,.53,0,1.03,.06,4.29,.54,8.39,.32,13.58,.04,2.92-.16,6.23-.33,10.06-.39,1.79-.03,3.61-.01,5.38,0,1.8,.02,3.5,.03,4.88,0,.95-.03,1.94-.1,2.9-.18,1.08-.08,2.19-.17,3.24-.18,3.71-.06,10.16,.13,11.24,.18,.59,.03,.97-.04,1.32-.1,.24-.04,.46-.08,.76-.08,3.69-.04,5.83,.08,7.9,.19,1.31,.07,2.66,.14,4.38,.17,1.37,.03,2.69,0,3.87-.01,1.3-.02,2.43-.04,3.28,.01,1.2,.07,5.88,.5,6.1,.54,.11,.02,.15,.05,.26,.16,.15,.14,.38,.34,.78,.39,.68,.07,1.68,.04,2.74,.01,.88-.03,1.79-.05,2.37-.02,.1,.02,.33,.11,.53,.19,.21,.08,.39,.15,.46,.16,1.59,.36,2.65,.35,4.59,.34,1.17-.01,2.63-.02,4.73,.04,.85,.02,1.89,.1,2.92,.18,1.14,.08,2.32,.17,3.23,.18,2.15,.03,4.24,.01,6.26,0,2.12-.02,4.13-.04,6.03,0,1.26,.03,2.47,.11,3.65,.19,1.23,.08,2.4,.16,3.53,.17,2.88,.04,5.8,0,8.62-.02,3.54-.04,7.19-.08,10.83,.02,1.12,.03,2.22,.1,3.32,.17,1.25,.08,2.54,.16,3.86,.19,1.71,.03,3.36,.02,4.96,0,1.48-.01,2.9-.03,4.26,0,2.39,.04,3.76,.3,4.97,.52,.38,.07,.74,.14,1.11,.19,1.42,.22,2.51,.24,3.65,.26,.77,.01,1.57,.03,2.53,.1,.05,0,.11,.04,.21,.1,.19,.11,.45,.26,.84,.27,.09,0,.18,0,.28,0,1,0,2.71-.11,4.22-.21,1.09-.07,2.1-.14,2.69-.15,3.49-.08,7.67,.03,12.09,.14,4.1,.11,8.74,.24,13.52,.22,1.81,0,3.61-.09,5.52-.18,1.54-.07,3.14-.15,4.74-.18,6.33-.11,12.31-.1,18.1-.09,5.63,.01,10.95,.02,15.72-.09,.05,0,.11,.02,.18,.03,.33,.07,.88,.19,1.88,.14,.31-.01,.54-.09,.75-.17,.29-.1,.57-.2,1.26-.19,.75,.01,.97,.09,1.17,.17,.19,.07,.41,.16,.85,.19,.73,.05,2.09,.03,3.18,.01h.96c3.57-.03,7.36-.15,11.37-.27,4.03-.12,8.21-.25,12.19-.28,1.03,0,2.02,.04,3.09,.09,1,.04,2.02,.09,3.06,.09,1.13,.02,2.03-.06,2.76-.11,.5-.03,.94-.07,1.34-.07,1.08-.01,1.94,.05,2.77,.1,.79,.05,1.55,.1,2.37,.08,.97-.03,1.9-.1,2.79-.17,1.06-.08,2.15-.17,3.34-.19,.79,0,1.75,.04,2.68,.09,.89,.05,1.7,.09,2.44,.09,3.66-.01,7.35-.06,11.04-.11,6.17-.09,12.55-.18,18.66-.07l1.4,.02-1.07-.91Zm-143.77,.02h0s0,0,0,0c0,0,0,0,0,0Z" style="fill: #02e2ac;"/>
</svg>