<?xml version="1.0" encoding="UTF-8"?>
<svg id="Layer_1" data-name="Layer 1" xmlns="http://www.w3.org/2000/svg" width="520.71" height="13.6" viewBox="0 0 520.71 13.6">
  <path d="M490.23,11.98c.11-.01,.3-.14,.35-.37-.15-.02-.29-.04-.37-.06l.02,.43Z" style="fill: none;"/>
  <path d="M520.71,8.47l-.48,.04c-.45,.04-.86,.09-1.26,.13-.66,.08-1.28,.15-2.03,.17-.15,0-.25,0-.32,0-.09-.09-.22-.16-.44-.18-.71-.06-1.37,.07-1.76,.14-.11,.02-.2,.04-.24,.04-2.08,.03-3.97,.07-5.82,.13l-16.11,.59c-1.73,.05-3.43,.07-5.06,.08-1.86,.02-3.62,.03-5.2,.1-.74,.03-1.36,.11-1.95,.18-.68,.08-1.33,.16-2.13,.18-2.68,.06-5.34,.03-8.17,0-2.6-.02-5.29-.05-8.17,0-.98-.21-1.17-.35-1.17-.35-.13-.59-.6-.75-1.89-.9-1.89-.23-2.8-.14-3.62-.06-.19,.02-.38,.04-.58,.05-.66,.05-1.44-.09-1.77-.15-.14-.03-.2-.03-.25-.03-1.82,.03-3.42,.16-4.83,.27-2.01,.16-3.74,.3-5.35,.09-1.64-.21-1.76-.84-1.92-1.63-.11-.57-.24-1.27-1.04-1.58l-.11-.04c-1.54-.59-1.61-.58-5.58-.38l-.66,.03c-4.04,.2-4.4,.26-5.19,.39-.25,.04-.53,.09-1,.15-.42,.06-1.03,.08-1.62,.1-.55,.02-1.08,.04-1.44,.08-.32,.04-.65,.11-.99,.18-.35,.07-.7,.15-1.06,.18-.45,.05-.93,.07-1.42,.08-.54,.02-1.1,.04-1.65,.1-.98,.11-1.99,.24-3.05,.38-1.92,.26-3.91,.52-6.16,.69-1.19,.09-2.52,.13-3.93,.17-1.4,.04-2.85,.08-4.27,.18-1.17,.08-2.32,.22-3.53,.37-1.72,.21-3.48,.42-5.53,.5,1.46-.64,2.42-1.15,2.55-1.86,.06-.3-.04-.6-.28-.84-.26-.26-.72-.32-1.45-.38-.29-.02-.61-.05-.77-.1,0-.1-.03-.23-.12-.35-.19-.25-.53-.34-1.02-.4-2.4-.29-6.84-.02-12.39,.36-1.81,.12-3.54,.31-5.37,.51-1.86,.2-3.78,.41-5.91,.57-.95,.07-2.14,.08-3.29,.1-1.02,.01-2.02,.03-2.85,.08-.23,.01-.56,.08-.95,.17-.39,.08-.83,.18-1.1,.19-.53,.03-1.23,.01-1.9,0-.79-.02-1.6-.04-2.21,0-.47,.04-1.2,.18-1.9,.32-.46,.09-.9,.18-1.2,.22l-.46,.07c-1.17,.17-2.37,.34-3.62,.47-.79,.08-1.66,.08-2.5,.08-.88,0-1.79,0-2.62,.1-1.2,.13-1.62,.26-1.96,.36-.27,.08-.46,.14-1.09,.18-.46,.02-.81-.02-1.21-.07-.48-.06-1.02-.13-1.84-.11-.22,0-.62,.06-1.13,.14-.64,.09-1.44,.21-1.95,.22-2.3,.06-4.29,.03-5.36,0-.43,0-.71-.01-.8,0-1.03,.06-2.09,.2-3.31,.37-1.41,.19-3.01,.42-4.89,.53-1.74,.11-4.65,.16-8.02,.22-3.75,.07-8.01,.15-12.46,.32-.67,.03-1.42,.11-2.15,.18-.67,.07-1.33,.14-1.96,.18-.94,.05-2.09,.08-3.18,.12-.7,.02-1.37,.04-1.94,.06-5.21,.21-9.24,.19-12.8,.18h-1.53c-1.76,0-3.37,.05-4.79,.1-1.22,.04-2.38,.08-3.4,.08h-.57c-3.82-.03-10.22-.06-12.69-.17-.07-.02-.18-.07-.31-.12-.31-.13-.53-.22-.73-.24-.66-.07-1.19-.06-1.65-.06-.03,0-.06,0-.09,0,.05-.05,.08-.11,.11-.19,.08-.23,.01-.42-.13-.58,.61-.06,1.33-.11,1.86-.15,1.07-.08,1.74-.13,2-.19,.1-.02,.27-.08,.74-.35,.2-.12,.38-.22,.38-.23,.37-.17,.67-.34,.91-.47l.15-.08c.3-.17,1.2-.67,.99-1.44-.41-1.49-6.69-2.1-18.66-1.83-.82,.02-1.2,.14-1.5,.24-.19,.06-.32,.11-.56,.12-.48,.02-.81-.03-1.19-.09-.47-.07-1.01-.16-1.9-.09-.21,.02-.45,.12-.7,.22-.12,.05-.31,.13-.37,.14-.46,.07-1,.09-1.57,.1-.46,.01-.95,.03-1.47,.07-3.28,.27-5.94,.25-8.76,.23-2.34-.02-4.77-.04-7.62,.13-1.23,.07-2.06,.28-2.79,.46-.47,.12-.88,.22-1.33,.27-.66,.07-2.17,.15-3.63,.22-.9,.05-1.79,.09-2.49,.13-.54,.03-1.13,.08-1.74,.12-1.65,.11-3.36,.23-4.38,.24-1.26,.01-2.28-.04-3.27-.1-1.16-.06-2.36-.12-3.91-.08-1.27,.03-1.85,.08-2.59,.14l-.51,.04c-3.26,.25-8.62,.51-11.24,.54-.74,.01-1.46-.07-2.28-.15-.81-.09-1.72-.19-2.83-.21-1.14-.02-2.48,.03-3.9,.09-1.1,.04-2.23,.09-3.28,.09-1.69,.01-3.23-.04-4.72-.09-1.19-.04-2.33-.08-3.47-.09-2.2,0-3.1,.1-3.72,.18-.61,.08-.97,.13-2.38,0-.48-.04-1.24-.11-1.74-.18,.04-.06,.07-.14,.11-.21q.4-.98,1.77-1.52c.37-.15,.52-.31,.66-.47,.07-.09,.12-.15,.38-.25,.43-.18,.92-.33,1.39-.47,1.12-.34,1.85-.57,1.98-1.14,.05-.21,.05-.54-.22-.91-.61-.87-2.45-1.61-4.85-1.97l-.48-.07-.04,.32-.03-.3c-.27,.02-3.19-.06-6.12-.2-.96-.05-1.85-.11-2.72-.17-1.17-.08-2.29-.16-3.44-.19-.75-.02-1.57,.03-2.44,.08-.87,.05-1.78,.11-2.7,.1-1.93-.02-4-.11-6.01-.19-1.94-.08-3.78-.16-5.26-.17h-.02c-.77,0-1.61,.05-2.42,.09-.91,.05-1.84,.1-2.68,.09-1.55-.02-2.94-.11-4.28-.19-1.33-.08-2.59-.16-3.92-.17-1.04,0-1.64,.04-2.22,.09-.51,.04-1.04,.09-1.89,.09-1.06,0-2.23-.05-3.33-.1-1.04-.05-2.02-.09-2.81-.08-1.03,.01-2.04,.05-3.03,.09-1.07,.04-2.1,.09-3.12,.09h-.02c-.96,0-1.93-.05-2.88-.09-1.07-.05-2.17-.1-3.26-.09-1.01,.01-1.77,.07-2.64,.14-1.1,.09-2.36,.19-4.53,.22-.96,.02-1.87-.03-2.82-.08-1.01-.05-2.08-.12-3.32-.1-1.26,0-2.94,.09-4.73,.19-1.13,.06-2.32,.12-3.49,.17-3.71,.15-7.27,.22-11.04,.3-3.04,.06-6.15,.13-9.45,.24-.77,.02-1.49,.09-2.26,.17-.89,.08-1.8,.17-2.86,.19-.74,.02-1.53,0-2.33,0-.94-.01-1.92-.03-2.8,0-.17,0-.47,.07-.93,.16-.4,.08-.9,.19-1.13,.2-2.34,.13-4.53,.14-6.54,.15h-2.98s-3.42,.03-3.42,.03c-1.39,.03-2.55,.11-3.68,.18-1.09,.07-2.21,.15-3.52,.18-2.47,.05-4.86,.03-6.77,0l-2.18-.02,2.43,3.47c-.01-.4-.02-.77-.04-1.11,.45-.04,.87-.08,1.32-.12,1.02-.1,2.18-.22,4.07-.3,.29,.09,.82,.15,1.75,.17,.78,.01,1.25-.04,1.71-.1,.3-.04,.59-.07,.97-.08,1.1-.04,2.22-.06,3.35-.08l3.56-.03c1.6,0,3.25-.02,4.89-.08,2.19-.08,4.43-.22,6.6-.36,2.19-.14,4.45-.28,6.72-.36,2.08-.08,3.75-.08,5.23-.09,1.5,0,2.8,0,4.01-.09,15.01-1.04,35.04-1.02,54.27-.9,.9,0,1.85-.04,2.83-.08,1.03-.05,2.1-.1,3.29-.1h.04c6.37,0,14.55,.08,19.46,.18,.59,.01,1.25,.07,2.02,.14,.86,.08,1.86,.16,3.09,.22,1.16,.05,2.81,.06,4.41,.07,1.88,.01,3.82,.02,4.79,.11,.84,.07,2.65,.44,3.62,.63l.42,.08c.67,.13,1.15,.24,1.48,.33-.16,.05-.33,.1-.49,.14-.64,.18-1,.32-1.39,.47-.2,.08-.42,.16-.69,.26-.4,.14-1.22,.38-2.01,.61-1.72,.5-2.05,.61-2.2,.71l-.31,.25,.07,.33c.04,.21,.18,.33,.37,.42-.07,.03-.14,.07-.2,.1-.58,.27-.9,.42-1.06,.63-.15,.19-.18,.41-.1,.62,.19,.49,.87,.62,2.27,.84,.42,.07,.84,.14,1.1,.21,0,.1,.03,.23,.11,.35,.19,.27,.54,.35,1.05,.41,2.86,.3,7.9,.26,12.78,.21,2.33-.02,4.66-.04,6.74-.03,1.56,.01,3.16,.05,4.77,.09,2.17,.05,4.4,.1,6.51,.09,1.92-.01,3.9-.1,5.82-.19,1.97-.09,3.84-.17,5.45-.17,1.05,0,1.81,.05,2.53,.1,.8,.05,1.56,.1,2.6,.08,.75-.02,1.34-.09,1.98-.17,.62-.08,1.27-.16,2.13-.19,.95-.03,2.08-.02,3.17,0,1.13,.02,2.19,.04,2.99,0,.22-.01,.42-.11,.63-.2,.14-.07,.32-.15,.41-.16,.4-.03,.97-.02,1.51,0,.55,.02,1.11,.03,1.56,0,.69-.05,1.35-.12,1.99-.18,.74-.07,1.44-.14,2.1-.18,1.54-.08,3.77-.16,5.92-.24,3.11-.11,5.8-.2,6.43-.31,2.41-.41,5.49-.48,8.74-.57,1.5-.04,3.02-.08,4.52-.15,3.07-.15,8.7-.41,11.99-.19-.16,.11-.27,.27-.29,.45-.03,.17,.02,.32,.08,.44-.34,.04-.86,.09-1.25,.13-.6,.06-1.18,.12-1.42,.16-2,.36-2.31,1.17-2.31,1.63,0,.8,.86,1.43,2.36,1.71,1.95,.36,2.41,.44,6.14,.72,3.62,.27,12.56,.49,17.47,.36,1.15-.03,2.51,.07,3.33,.13,.37,.03,.62,.04,.76,.05,6.19-.06,10.85-.26,15.36-.46,2-.09,4.01-.18,6.16-.26l7.18-.18c1.15-.04,2.25-.06,3.3-.08,1.36-.03,2.65-.05,3.88-.1,.18,0,.47-.07,.94-.16,.39-.08,.89-.18,1.12-.2,1.65-.09,2.84-.09,3.9-.08,1.12,0,2.09,0,3.29-.1,.74-.06,1.23-.16,1.62-.24,.71-.14,1.1-.22,2.32,.05,.43,.09,1.01,0,1.34-.17l7.04-.26c3.47-.15,7.8-.34,9.18-.45,.52-.04,.98-.07,1.63-.1l1.44-.08c2.56-.15,4.81-.35,6.78-.53,1.58-.14,3.05-.28,4.49-.37,2.44-.15,4.67-.28,6.8-.4,3.58-.2,6.96-.39,10.62-.68,.48-.04,1.18-.11,2.02-.19,2.71-.27,8.19-.83,11.13-.59-1.07,.13-2.32,.29-3.09,.52-.57,.17-.75,.5-.88,.71-.08,.13-.09,.16-.19,.2-.28,.11-.76,.21-1.18,.29-.88,.17-1.32,.26-1.36,.74-.01,.2,.07,.47,.52,.63l.14,.03c.74,.04,1.18,.11,1.66,.18,.4,.07,.81,.13,1.41,.18,.94,.07,1.45,.11,1.73,.08,.21,.3,.62,.5,1.35,.64,1.8,.12,2.75-.02,3.94-.19,.84-.12,1.79-.26,3.3-.35h0c.48,.08,1.37,.11,3.07,0,.8-.05,1.52-.12,2.22-.19,.64-.06,1.25-.13,1.88-.17,1.28-.08,2.49-.09,3.56-.1,1,0,1.86-.02,2.6-.08,.29-.02,.49-.14,.65-.23,.13-.07,.22-.12,.37-.13,1.21-.08,2.73-.12,4.33-.16,1.73-.04,3.52-.09,4.9-.2,.15-.01,.38-.06,.69-.14,.53-.12,1.32-.31,2.39-.4,.58-.05,1.53-.07,2.45-.08,.99-.02,2.02-.04,2.68-.1,.69-.06,1.16-.18,1.62-.29,.44-.1,.85-.2,1.45-.25,4.65-.41,5.44-.11,5.57,.02,.01,.04-.01,.19-.03,.29-.14,.77-.06,1.55,1.45,2.01,.09,.03,.33,.1,3.82,.52l3.47,.4c.92,.06,1.75-.01,2.56-.08,.52-.04,1.03-.09,1.58-.1,4.16-.09,5.71,.09,7.36,.28,.82,.09,1.66,.19,2.85,.26,4.88,.27,9.78,.13,14.98-.01,2.47-.07,5-.14,7.6-.17,1.11-.01,2.41,0,3.7,0,1.7,.01,3.3,.03,4.5,0,1.21-.04,2.11-.14,3.05-.26,.83-.1,1.68-.2,2.84-.27,.23,.1,.62,.17,1.26,.17,.71,0,.94-.09,1.04-.18,1.76-.07,4.02-.11,6.36-.16,1.36-.03,2.74-.05,4.07-.09,2.12-.05,3.69-.11,4.94-.17l1.69-.13c.45-.06,.8-.11,1.05-.18,.09-.02,.34,.02,.42,.06l.21-.29,.02,.42h0c1.02-.05,1.72-.13,2.34-.2,.61-.07,1.13-.13,1.83-.15l3.08-.08,2.41-2.52h0Zm-30.47,3.51l-.02-.43c.09,.02,.22,.04,.37,.06-.05,.23-.24,.36-.35,.37Z" style="fill: #02e2ac;"/>
  <path d="M539.9,634.31c-.04-.21-.07-.38-.08-.51-.03-.38-.01-.93,0-1.47,.02-.58,.04-1.17,0-1.61-.05-.55-.16-1.08-.28-1.65-.1-.47-.2-.94-.26-1.44-.26-2.05-.5-4.49-.73-6.85-.25-2.54-.48-4.94-.71-6.48-.12-.81-.23-1.36-.32-1.86-.08-.4-.15-.77-.22-1.22l-.17-1.09c-.04-.23-.05-.32-.05-.39,.02-.14,.06-.41,.05-1.52-.02-1.55-.43-3.66-.79-5.52-.2-1.04-.39-2.02-.48-2.73-.12-1.01-.2-2.17-.27-3.3-.13-2.07-.26-4.02-.66-5.02l-.33-.83c.15-.24,.16-.79,.18-2.14-.27-1.65-.51-3.88-.72-5.84-.19-1.73-.37-3.36-.54-4.4-.07-.4-.08-.93-.09-1.48-.01-.53-.03-1.07-.09-1.57-.27-2.24-.6-4.11-.93-5.92-.26-1.49-.51-2.9-.69-4.33-.11-.84-.19-1.98-.29-3.18-.08-.98-.16-2.01-.25-2.96-.17-1.64-.36-3.22-.56-4.86l-.16-1.3c-.17-1.43-.37-2.86-.56-4.24-.41-2.94-.79-5.71-.87-8.01-.02-.47,.1-.92,.21-1.32,.06-.24,.12-.46,.15-.65,.31-2.27,.17-3.69-.04-5.84-.04-.44-.09-.92-.13-1.43l-.36-5.14c-.16-1.46-.37-2.53-.57-3.56-.34-1.73-.66-3.37-.68-6.64,0-1.48,.08-1.8,.19-2.21,.05-.21,.11-.43,.17-.78l.07-.43c.26-1.65,.26-1.68,.29-3.04v-.69c.12-4.66-1.16-15.87-1.61-18.54-.06-.38-.08-.64-.09-.93-.01-.29-.03-.61-.09-1.1-.07-.52-.13-1.02-.19-1.5,.2,.2,.52,.45,.93,.34,.58-.17,.87-.94,1.06-2.82,.24-2.38-.19-3.71-.34-4.14l-.02-.03c-.04-.89-.02-2.25,0-3.45,.02-1.17,.04-2.17,0-2.71-.06-.84-.21-1.93-.39-3.19-.17-1.21-.36-2.57-.51-4-.16-1.53-.28-3.01-.4-4.48-.1-1.24-.2-2.47-.32-3.71-.05-.53-.16-1-.26-1.46-.11-.49-.23-1-.28-1.61-.06-.67-.07-1.56-.08-2.42-.01-.96-.03-1.95-.1-2.71-.08-.79-.19-1.27-.3-1.75-.09-.4-.18-.78-.24-1.34-.23-2.15-.29-3.29-.33-4.42,.48-.08,.85-.53,1.06-.79,.14-.17,.31-.38,.42-.43l.29-.14v-.32c-.04-1.5-.02-3.04,0-4.53,.02-1.65,.04-3.21,0-4.7,0-.12-.05-.37-.12-.69-.09-.4-.21-.94-.24-1.37-.04-.75-.02-1.64,0-2.49,.02-.9,.04-1.83,0-2.63-.05-.94-.18-1.97-.3-2.96-.09-.74-.18-1.48-.24-2.18-.26-3-.43-5.74-.6-8.64-.09-1.53-.19-3.08-.29-4.67-.08-1.23-.21-2.52-.32-3.76-.08-.83-.15-1.63-.22-2.39-.08-.92-.17-1.86-.26-2.81,.17,.47,.37,.6,.66,.62,.6,.05,.87-.65,1.21-1.72,1-3.15-.07-17.11-.64-24.61-.11-1.45-.2-2.59-.24-3.24-.27-4.48-.29-4.69-.49-6.67l-.05-.52c-.02-.23-.01-.62,0-.98,.01-.39,.02-.77,0-1.05-.02-.27-.13-.49-.22-.66-.07-.14-.13-.25-.14-.37-.05-.53-.08-1.23-.11-1.84-.02-.5-.04-.95-.07-1.23-.05-.49-.11-.91-.17-1.32-.08-.55-.15-1.07-.19-1.74-.03-.54,.03-1.51,.09-2.44,.06-.98,.12-1.99,.09-2.68-.05-1.06-.19-2.15-.34-3.3-.17-1.26-.34-2.57-.38-3.87-.05-1.38-.02-2.77,0-3.89,.02-.98,.03-1.76,0-2.28-.04-.62-.28-.84-.55-1.08-.27-1.57-.36-7.29-.43-11.48-.03-2.14-.06-3.99-.11-4.86-.1-1.97-.25-3.82-.4-5.62-.13-1.66-.26-3.23-.32-4.62-.04-.79-.02-1.69,0-2.55,.02-.86,.04-1.76,0-2.57-.03-.76-.13-1.03-.22-1.28-.06-.18-.12-.33-.14-.78-.03-.43,0-1.39,.02-2.41,.08-3.68,.05-4.81-.3-5.19,.06-.62,.03-1.32,0-2,0-.09,0-.18-.01-.27,.13,.37,.25,.86,.38,1.77,.14,1.03,.21,2.48,.27,4.01,.06,1.47,.12,2.99,.27,4.18l.08,.37,.26,.12c.05,.02,.1,.04,.15,.04,.12,.7,.21,1.97,.27,2.87,.05,.73,.1,1.38,.15,1.73,.12,.82,.27,1.58,.42,2.35,.17,.86,.35,1.75,.48,2.77,.25,1.88,.49,4.3,.72,6.63,.3,3.06,.59,5.96,.9,7.73,.03,.15,.05,.57,.08,.98,.04,.63,.07,.94,.1,1.09,.12,.59,.37,.97,.56,1.27,.17,.26,.29,.45,.34,.75,.13,.88,.17,1.99,.2,2.96,.06,1.91,.09,2.62,.66,2.77,.05,.01,.09,.02,.15,.02,.01,.09,.02,.19,.03,.28,.08,.72,.13,1.23,.5,1.47,.16,.1,.36,.13,.55,.06,.65-.22,1.41-3.48,1.42-3.5,.47-4.97-.7-20.95-.9-22.65-.14-1.17-.32-1.95-.49-2.63-.18-.76-.33-1.42-.41-2.47-.03-.4,.02-1.08,.07-1.87,.07-1,.14-2.12,.11-3.23-.08-3.06-.44-5.08-.78-7.05-.19-1.08-.36-2.1-.49-3.24-.08-.71-.09-1.71-.1-2.67,0-.44,0-.87-.02-1.28,.36,2.19,.75,2.67,1.29,2.72,.65,.05,1.04-.75,1.33-1.65l.02-.12c.21-3.05-.1-4.72-.27-5.62-.05-.25-.08-.44-.09-.59-.05-.83-.06-2.22-.08-3.56-.02-1.57-.03-3.05-.1-3.64-.03-.21-.07-.61-.42-.76-.04-.02-.07-.03-.11-.04,0-.06,0-.12-.01-.2-.04-.67-.02-1.81,0-3.12,.03-1.61,.06-3.44,0-5.07l-.18-4.1c-.05-.86-.19-1.13-.36-1.38-.07-.1-.13-.19-.18-.69-.06-.69-.04-1.69,0-2.66,.02-.86,.05-1.76,0-2.51l-.36-2.02c-.24-1.83-.26-3.38-.27-4.75-.01-1.37-.03-2.55-.28-3.51-.49-1.87-.64-6.15-.79-10.28-.08-2.2-.15-4.28-.27-6.02-.14-1.91-.34-3.74-.53-5.36-.23-2.05-.45-3.93-.45-5.47,.16,.96,.37,2.31,.62,4.18,.05,.36,.08,.59,.09,.64,.16,.79,.3,1.51,.42,2.15,.56,2.92,.77,4.01,1.39,4.34,.21,.11,.45,.12,.67,.02,.29-.12,.36-.38,.51-.96,.11-.4,.26-.95,.45-1.31,.67-1.23,.58-3.49,.48-5.68-.03-.61-.05-1.2-.06-1.74,0-.56,.04-.88,.08-1.22,.06-.44,.12-.9,.1-1.86-.02-.52-.11-1.49-.22-2.61-.11-1.11-.24-2.39-.32-3.56-.06-.8-.07-1.44-.09-2.07s-.04-1.26-.09-2.03c-.04-.62-.12-1.19-.2-1.72-.07-.47-.13-.91-.16-1.35-.05-.75-.02-1.66,0-2.54,.02-.88,.05-1.8,0-2.58-.02-.32-.07-.65-.13-1.04-.08-.52-.18-1.16-.23-2.04-.05-.92-.16-1.58-.24-2.11-.06-.36-.1-.66-.12-.96-.11-1.89-.13-3.05-.15-3.98-.02-1.17-.03-1.94-.22-3.24-.28-1.98-.32-3.36-.37-5.45-.03-1.24-.07-2.73-.17-4.75-.06-1.29-.17-3.11-.28-5.15-.34-5.92-.8-14.03-.62-16.3,.12-1.51,.33-1.62,.58-1.76,.35-.19,.7-.43,1.01-1.16,.05-.12,.08-.3,.19-1,.06-.4,.14-.94,.19-1.11,.2-.71,.31-.91,.38-1.04,.19-.35,.22-.51,.35-2.11,.02-.1,.1-.29,.17-.46,.09-.22,.16-.42,.18-.52,.66-3.26,.62-6.49,.58-10.24-.01-1.02-.03-2.07-.03-3.18,0-.67,.04-1.27,.08-1.93,.05-.88,.12-1.87,.1-3.2-.05-4.4-.26-7.75-.43-10.45l-.11-1.87c-.12-2.06-.19-5.85-.18-6.09l-.44-.03,.44-.05h0s0,0,0,0l-.05-.49h-.08c-.05-.09-.13-.17-.24-.24-.05-.03-.11-.05-.16-.06,0-.06-.01-.13-.02-.21-.06-.89-.08-2.02-.1-3.22-.02-1.01-.04-2.04-.08-2.92-.13-2.68-.28-5.11-.43-7.44-.1-1.65-.2-3.25-.29-4.86-.16-2.94-.26-6.24-.35-9.43-.13-4.57-.26-8.88-.55-11.1-.33-2.53-.29-2.82-.19-3.52,.09-.64,.23-1.61,.2-4.62,0-.52-.08-1.24-.16-2.15-.12-1.22-.28-2.9-.38-5.04-.12-2.83-.04-5.71,0-6.95v-.19c.03-.88-.04-1.55-.1-2.08-.04-.36-.08-.68-.07-1,.02-1.55,.06-2.73,.11-3.51,.31,.7,.92,1.76,1.85,1.64,1.33-.18,1.82-2.72,2-4.22,.03-.27,.11-.68,.19-1.06,.09-.43,.16-.81,.17-1.02,.05-.75,.08-2.2,.08-4.31l-.05-6.31c-.06-4.19-.16-8.15-.21-9.09-.01-.26-.03-.49-.05-.68l-.06-.48-2.41,2.52h0c.12,5.9,.04,10.37-.24,13.62-.11-.65-.22-1.25-.33-1.61-.68-2.15-1.24-2.33-1.43-2.39-.21-.07-.43-.04-.6,.09-1.89,1.37-1.46,14.79-1.29,18.87,.03,.72,.11,1.4,.18,2.06,.08,.7,.16,1.36,.17,2.03,.09,3.15,.12,6.02,.15,8.55,.04,3.27,.07,6.1,.21,8.88,.01,.29,.08,.73,.15,1.22,.09,.61,.19,1.3,.21,1.85,.08,1.73,.08,3.07,.08,4.15,0,1.2,0,2.15,.1,3.05,.11,1.03,.12,2.32,.13,3.57,0,.89,0,1.77,.05,2.55,.01,.21,.08,.54,.16,.93,.09,.4,.18,.86,.2,1.11l.72,17.42c.02,.46,.01,.97,0,1.49-.01,.55-.03,1.1,0,1.58,.01,.22,.08,.55,.17,.95,.08,.4,.18,.85,.19,1.1,.06,1.11,.08,2.13,.09,3.15,.02,.96,.03,1.93,.09,2.99,.04,.87,.12,2.23,.21,3.68,.17,2.68,.35,5.72,.32,6.52-.05,1.56-.04,1.71,.04,2,.03,.13,.08,.32,.14,1.13,.22,3.14-.05,5.9-.25,7.92-.04,.45-.08,.86-.11,1.23l-.08,.97c-.14,1.76-.26,3.29-.45,4.07-.2,.83-.33,.83-.54,.81-.55-.04-1.12,.07-1.44,1.23-.23,.82-.47,2.45-.56,3.15-.23,2.02-.65,10.23-.54,12.38,.09,1.92,.23,2.55,.66,2.74,.02,.16,.05,.47,.05,1.09-.45,.11-.49,.61-.54,2.28-.04,1.2,.13,3.14,.3,5.19,.09,1.03,.18,2.08,.24,3.06l.54,8.19c.07,1.28,.08,2.67,.09,4.03,0,1.39,.02,2.83,.09,4.17,.05,1.02,.16,2.05,.27,3.14,.1,.98,.2,1.98,.27,3.01l.18,4.11c.04,.72,.13,1.27,.21,1.81,.06,.42,.12,.83,.15,1.27,.12,1.72,.17,3.39,.23,5.01,.04,1.1,.08,2.16,.13,3.18,.02,.44,.08,.71,.14,1,.09,.4,.19,.86,.22,2.06,0,.26,0,.52,.01,.77-.06-.33-.12-.66-.18-.98-.49-2.8-.7-3.77-1.41-3.85-.55-.06-.82,.57-.91,.78-.05,.13-.09,.16-.13,.13-.62-.08-.98,.22-1.16,.97v.06s-.01,.06-.01,.06c.21,8.52,.73,21.12,1.26,27.69,.18,2.28,.35,4.98,.51,7.58,.24,3.93,.47,7.64,.75,9.86,.04,.36,.11,.66,.18,.95,.08,.34,.15,.66,.18,1.07,.04,.49,.04,1.26,.04,2.25,0,1.52,0,3.61,.14,5.94,.03,.45,.11,1.33,.23,2.44,.16,1.57,.46,4.52,.6,7.06,0-.03,0-.06,0-.08-.42-4.98-.68-7.15-1.22-7.74-.42-.45-.82-.34-.98-.27-1.28,.56-1.03,4.9-.97,5.77,.07,.92,.12,1.51,.15,1.93q.08,.96,.03,2.01v.1c-.03,.54,.04,1.03,.1,1.46,.03,.23,.06,.44,.08,.64,.12,2.27,.27,4.2,.42,6.07,.11,1.39,.21,2.75,.3,4.18,.14,2.25,.27,3.78,.38,5.13,.06,.71,.11,1.36,.16,2.05l1.26,17.42c.02,.26,.04,.53,.06,.79l-.07-.28-.29-.09s0,0,0,0c-.02-.33-.03-.69-.04-1.04-.02-.57-.03-1.12-.09-1.54-.1-.67-.22-1.28-.34-1.89-.14-.68-.28-1.39-.38-2.2-.11-.85-.14-1.88-.17-2.98-.03-1.09-.07-2.21-.19-3.17-.08-.62-.25-.92-.41-1.19-.13-.22-.24-.41-.31-.85-.01-.12-.17-1.97-.18-2.05l-.07-.86c-.03-.44-.05-.72-.12-1.21-.16-1.26-.3-2.66-.43-3.99-.15-1.6-.3-3.12-.48-4.22-.02-.09-1.69-9.39-2.67-9.64l-.34-.06-.2,.24c-.13,.15-.13,.27-.13,.63v.77c0,.42,.01,.83,0,.93-.05,.68-.24,1.08-.44,1.51-.2,.43-.41,.88-.46,1.56-.32,3.79-.05,8.6,.16,12.46,.08,1.49,.16,2.86,.19,3.99,.02,.77-.03,1.59-.09,2.46-.06,.87-.12,1.77-.09,2.66,0,.12,.04,.38,.09,.72,.09,.6,.23,1.51,.27,2.36,.1,2.2,.17,4.16,.24,6.02,.09,2.47,.17,4.78,.3,7.3,.11,2.21,.27,4.38,.41,6.32,.14,1.95,.26,3.63,.31,4.94,.02,.49-.03,.77-.08,1.07-.03,.15-.05,.3-.07,.48h-.03s0,.49,0,.49h0s.43,0,.43,0l-.42,.07c.02,.16,.14,1.59,.17,2.01,.05,.96,.16,1.79,.27,2.6,.1,.78,.21,1.59,.27,2.53,.05,.75,.02,1.66,0,2.54,0,.12,0,.24,0,.37-.19-2.09-.39-4.12-.62-6.06-1.01-8.58-1.55-8.66-1.95-8.72-.21-.03-.48,.05-.63,.38l-.04,.13s-.02,.2-.05,.53l-.22,2.5c-.1,1.17-.26,3.28-.27,4.22-.04,2.89,.28,6.34,.56,9.38,.13,1.44,.26,2.8,.34,3.99,.05,.8,.03,1.34,0,1.92-.03,.6-.05,1.22,0,2.17,.01,.26,.09,.82,.17,1.43,.08,.6,.17,1.25,.2,1.66,.17,2.26,.34,4.04,.5,5.7,.15,1.52,.28,2.94,.4,4.54,.1,1.31,.12,2.68,.15,4.13,.03,1.67,.07,3.39,.21,5.1,.05,.56,.15,1.04,.27,1.55,.1,.47,.21,.95,.28,1.54,.23,2.12,.3,3.89,.38,5.76,.04,1.07,.09,2.18,.16,3.44l.04,.55c-.03-.16-.07-.34-.11-.52-.09-.39-.17-.79-.19-1.12-.09-1.69-.12-2.61-.13-3.18-.03-.92-.03-.97-.23-1.68-.08-.29-.2-.71-.37-1.38-.16-.62-.26-1.31-.34-1.87-.16-1.1-.23-1.51-.67-1.62l-.4-.03-.27,.38-.74,6.32c-.05,2.17,.25,4.63,.56,7.23,.12,1.02,.24,2.05,.35,3.07,.1,1.01,.21,2.35,.31,3.68,.15,1.84,.28,3.58,.41,4.54,.05,.38,.11,.61,.17,.83,.07,.28,.14,.54,.19,1.2,.08,1.02,.09,2.22,.11,3.38,.01,.97,.02,1.93,.07,2.76,.07,1.15,.18,2.04,.3,2.91,.1,.73,.19,1.42,.24,2.22,.06,.84,.15,1.75,.24,2.69-.29-1.71-.63-3.15-1.1-3.99l-1.07-1.89,.13,2.17c.04,.61-.07,3.47-.14,4.57-.06,.01-.12,.04-.17,.08l-.22,.18v.25c-.08,2.89,.14,3.58,.34,4.2,.09,.28,.16,.51,.2,.97,.1,1.31,.11,3.02,.12,4.53,0,1.14,.02,2.12,.06,2.65,.02,.21,.09,.62,.18,1.04,.07,.37,.15,.76,.18,1.03,.17,1.38,.35,4.06,.51,6.42,.13,1.88,.24,3.55,.33,4.43l-.77-.86-.07,1.19c-.06,.96-.15,1.85-.24,2.74-.15,1.4-.3,2.85-.3,4.47,0,2.02,.33,4.39,.55,5.96,.07,.51,.13,.95,.17,1.27,.05,.49,.07,.96,.09,1.45,.02,.51,.04,1.03,.09,1.62l.72,7.18c.13,1.22,.3,2.39,.42,3.25l.12,.86c.05,.41,.08,1.1,.11,1.72,.02,.53,.04,1.03,.07,1.34,.13,1.25,.29,2.57,.45,3.94,.47,3.95,1,8.43,.99,12.4,0,.97-.1,2.18-.19,3.36-.11,1.45-.21,2.82-.17,3.84,.04,1.03,.15,1.66,.31,2.54,.11,.64,.25,1.43,.42,2.64,.21,1.59,.38,3.26,.52,4.74,.13,1.37,.25,2.56,.38,3.46,.15,1.05,.33,2.57,.5,3.97,.17,1.43,.32,2.67,.41,3.22,.25,1.48,.34,2.99,.43,4.45,.03,.57,.07,1.13,.11,1.66,.02,.27,.13,.49,.22,.66,.07,.14,.13,.25,.14,.37,.11,1.09,.19,2.34,.26,3.55,.08,1.25,.16,2.55,.28,3.63,.16,1.42,.36,2.77,.55,4.08,.21,1.45,.41,2.82,.53,4.11,.04,.4,.05,1.02,.06,1.68,.02,.9,.04,1.82,.12,2.44,.15,1.2,.36,2.23,.56,3.23,.18,.91,.38,1.86,.52,2.92,.3,2.19,.52,4.71,.75,7.15,.17,1.88,.33,3.66,.51,5.14,.04,.35,.13,.55,.31,.71,0,.04,.02,.11,.04,.24-.15,.72,0,2.05,0,2.12,.07,.59,.18,1.12,.28,1.62,.1,.49,.2,.94,.26,1.45,.1,.83,.14,1.8,.19,2.73,.04,.93,.09,1.81,.18,2.4,.14,.98,.35,1.79,.55,2.57,.21,.83,.41,1.61,.53,2.55,.09,.67,.15,1.74,.21,2.79,.05,.84,.09,1.67,.15,2.32,.03,.31,.14,.51,.23,.66,.07,.13,.12,.21,.13,.36,.16,1.82,.1,2.43,.07,2.76-.04,.48-.02,.61,.3,1.4,.02,.12,.06,.62,.09,1.08,.03,.43,.06,.83,.08,.93,.18,1.16,.31,2.46,.43,3.6,.1,.97,.19,1.86,.29,2.55,.1,.68,.21,1.21,.3,1.69,.1,.48,.18,.91,.23,1.37,.19,1.69,.13,2.26,.08,2.6-.06,.48-.06,.69,.31,1.62,.23,.59,.37,3.99,.44,5.63,.03,.66,.05,1.17,.07,1.4,0,.08,.1,.71,.22,1.5,.18,1.18,.52,3.37,.53,3.64h.24s-.26,.08-.26,.08h0s.01,.05,.03,.09l.13,.44,.09-.02c.07,.09,.16,.17,.28,.23,.2,.1,.39,.08,.57,.03,0,.14,0,.34,0,.64h-.8l.78,7.73c.06,.59,.14,.94,.21,1.24,.06,.24,.11,.47,.15,.81,.14,1.2,.27,2.77,.4,4.32,.28,3.29,.46,5.33,.7,6.03,.15,.44,.45,.48,.6,.48,.17,0,.3-.07,.4-.19,.13,.21,.31,.35,.56,.35h0c.32,0,.55-.23,.68-.77,.21-3.19-.11-4.83-.28-5.71Zm-13.96-353.77c-.05,.35-.09,.66-.09,.84,0,.11,0,.22,.01,.32-.04-.11-.07-.24-.1-.41-.02-.13,0-.63,0-.97,.01-.42,.02-.83,0-1.05l-.04-.36c.05,.06,.1,.12,.14,.17,.1,.11,.14,.16,.17,.32,.03,.21-.04,.75-.1,1.14Zm.2,31.59c0-.25,.01-.46,.02-.64,.02,.26,.05,.53,.07,.79,.11,1.18,.22,2.37,.28,3.59-.1-.71-.19-1.45-.29-2.19l-.08-.62c-.02-.15,0-.59,0-.94Zm-5.26,31.46c.06,.12,.12,.27,.12,.34,.03,.25,.07,.99,.11,1.68l.07,1.38c.03,.43,.04,.85,.06,1.28-.12-1.58-.24-3.14-.36-4.67Z" style="fill: #02e2ac;"/>
</svg>