<?xml version="1.0" encoding="UTF-8"?>
<svg id="Layer_1" data-name="Layer 1" xmlns="http://www.w3.org/2000/svg" width="9.91" height="645.64" viewBox="0 0 9.91 645.64">
  <path d="M7.47,643.27c.02-.83,.02-1.62,.02-2.36,0-.91-.04-1.59-.07-2.36-.04-.89-.09-1.9-.11-3.52l-.04-8.14v-5.76c0-3.62-.02-6.17-.15-7.69-.33-4.1-.1-9.63,.06-13.67,.06-1.54,.12-2.87,.12-3.71,0-1.82-.08-3.98-.17-6.27-.08-1.98-.16-4.04-.19-6.03-.02-1.08,0-2.23,0-3.37,.01-1.37,.03-2.67,0-3.81-.03-.89-.1-1.71-.18-2.57-.07-.79-.14-1.62-.19-2.57-.19-4.44-.27-10.03-.35-15.43-.05-3.76-.1-7.31-.19-10.17l-.08-2.65c-.09-3.11-.16-5.79-.29-7.62-.25-3.65-.48-8.48-.54-11.25-.03-1.18,0-2.28,0-3.39,.02-1.21,.04-2.47,0-3.79-.03-.95-.11-1.87-.19-2.76-.07-.8-.14-1.59-.17-2.37-.11-3.18-.17-6.56-.21-9.83-.04-2.6-.08-5.16-.15-7.59l-.54-14.34c-.07-2.37-.08-4.79-.1-7.13-.01-2.08-.03-4.15-.08-6.19-.04-1.79-.13-3.23-.2-4.49-.09-1.61-.18-2.99-.16-4.71,.03-3,.02-3.14-.07-4.48-.03-.41-.07-.94-.11-1.71-.12-1.95-.12-3.63-.12-5.26,0-1.25,0-2.54-.06-3.96-.04-1-.11-1.91-.18-2.8-.09-1.12-.17-2.17-.18-3.33,0-1.1,.07-2.16,.16-3.38,.08-1.09,.17-2.33,.2-3.78,.03-1.15-.05-2.1-.11-2.86-.04-.48-.07-.89-.07-1.25,0-.23,0-.43,0-.63,.18,1.02,.36,2.17,.5,3.05l.11,.73c.08,.5,.13,1.3,.18,2.07,.05,.79,.1,1.54,.18,2.03,.12,.77,.27,1.24,.4,1.65,.13,.42,.25,.78,.32,1.4,.02,.21,.01,.6,0,.97-.01,.4-.02,.79,0,1.05,.02,.28,.13,.49,.22,.67,.07,.14,.13,.25,.14,.37,.09,.89,.1,2.19,.12,3.23,.01,.88,.02,1.58,.07,1.91,.08,.63,.25,1.06,.42,1.5,.16,.41,.33,.87,.49,1.61,.05,.24,.07,.93,.08,1.48,.02,.8,.04,1.31,.1,1.6l.13,.59,.16-.07c.12,.21,.25,.45,.28,.53l.46-.12-.28,.4h0s0,0,0,0l.34,.23,.07-.06c.23,.04,.42-.02,.53-.08,.93-.46,1.62-2.81,2-12.78,.12-3.14,.07-7.09,.03-9.97-.02-1.37-.03-2.55-.03-3.36l.02-2.54c.04-4.14,.09-9.8-.02-13.87-.04-1.25-.15-2.51-.24-3.51-.05-.59-.1-1.11-.12-1.45,.26-.44,.35-1.11,.36-1.12,.04-.46,.02-1.38,.01-2.19,0-.36-.01-.69,0-.93,0-3.29-.08-6.93-.18-10.79-.07-2.83-.14-5.75-.18-8.68v-9.23c-.03-2.35-.14-4.67-.26-7.13-.11-2.32-.23-4.72-.28-7.21-.02-.85,.04-1.79,.09-2.7,.05-.86,.1-1.67,.09-2.42-.02-1.85-.1-3.7-.18-5.49-.07-1.56-.14-3.14-.18-4.76-.02-1.23-.01-2.34,0-3.5,.01-1.14,.02-2.31,0-3.67l-.72-36.89c-.06-4.33,.08-7.55,.2-10.38,.09-2.04,.17-3.97,.16-6,0-1.24-.1-2.43-.19-3.58-.07-.9-.14-1.74-.17-2.57-.14-4.95-.09-10.6-.03-16.58,.05-4.97,.09-10.12,.03-15.18-.03-2.54-.11-4.96-.18-7.3-.08-2.4-.15-4.66-.18-7.04-.07-6.41-.05-13.25-.02-19.86,.01-3.64,.03-7.28,.02-10.87,0-3.55-.03-7.14-.05-10.64-.04-7.07-.09-13.75,.05-19.06,.07-2.57,.27-5.06,.46-7.46,.18-2.23,.37-4.54,.44-6.88,.11-3.48,.06-8.75,.03-12.99-.02-2.26-.04-4.23-.03-5.47,0-.75,.05-1.54,.09-2.33,.05-.93,.1-1.9,.09-2.8-.03-2.66-.13-5.21-.23-7.68-.15-3.82-.3-7.44-.13-10.73,.05-1.05,.29-2.2,.54-3.42,.3-1.43,.63-3.05,.71-4.77,.14-2.99-.02-6.97-.22-11.58-.11-2.71-.24-5.79-.32-8.95-.08-3.42-.13-7.14-.17-10.72-.08-5.99-.15-11.64-.37-14.92-.37-5.46-.89-19.17-.36-25.23,.04,.03,.07,.06,.12,.08l.19,.19,.35-.2-.25-.45,.03-.05h.45c0-.12,.13-.66,.18-.8h0s.19-.57,.19-.57c.06-.17,.11-.34,.14-.4l-.4-.21,.46,.05s0,0,0,0h0s0-.03,0-.04l.04-.41h-.02c.07-1.82,.03-7.4,0-9.22l-.21-16.35s0,0,0,0L7.05,0h-.02s0,.5,0,.5c0,.69,0,1.26,.01,1.7,.07,1.81,.19,2.99,.3,4.03,.12,1.1,.21,2.04,.24,3.47,.06,3.71,.04,6.75,0,8.65-.03,1.34-.08,2.52-.13,3.29-.1-.08-.22-.13-.37-.13-.32-.02-.54,.17-.72,.55-.04,.09-.09,.19-.53,2.74l-.42,2.55c-.1,1.17-.19,6.28-.18,7.22,0,.67,.07,1.44,.14,2.34,.09,1.1,.19,2.34,.22,3.81,.02,.75,0,1.55,0,2.34-.01,.94-.03,1.9,0,2.79,.05,1.3,.15,2.54,.26,3.85,.11,1.38,.23,2.82,.28,4.35,.09,2.39,.1,5.02,.1,7.58,0,2.26,.01,4.6,.08,6.77,.02,.62,.09,1.27,.17,1.96,.08,.7,.16,1.42,.19,2.14,.06,1.76,.06,3.19,.07,4.46,0,1.55,0,2.77,.12,3.77,.16,1.49,.37,16.66,.18,18.33-.05,.45-.27,.68-.58,.99-.41,.42-.92,.95-1.04,2.08-.16,1.48-.07,5.02,.03,9.12,.06,2.46,.13,4.99,.14,7.32v10.25c.02,1.62,.09,4.53,.17,7.59,.11,4.42,.23,9.42,.2,10.83-.06,2.22-.28,3.85-.5,5.42-.17,1.24-.33,2.41-.4,3.79-.21,4.15-.15,7.98-.08,12.03,.04,2.34,.08,4.76,.08,7.46,0,4.35-.05,8.68-.09,12.97-.05,4.85-.1,9.87-.09,14.69,0,2.16,.05,4.41,.09,6.68,.05,2.89,.11,5.87,.09,8.69-.01,1.37-.03,2.7-.05,3.99-.05,3.78-.1,7.34,.05,11.4,.03,.89,.11,1.63,.18,2.35,.09,.88,.17,1.72,.18,2.76h.04c-.09,.56-.13,1.72-.22,4.08-.16,4.12-.05,8.9,.05,13.54,.06,2.66,.12,5.41,.13,8,0,1.08-.04,2.23-.09,3.35-.04,.95-.08,1.89-.09,2.79-.01,1.13,.04,2.2,.09,3.24,.04,.93,.09,1.9,.09,2.91,0,1.7-.04,3.4-.09,5.05-.04,1.69-.09,3.44-.09,5.19,0,.73,.05,1.66,.09,2.59,.04,.92,.09,1.83,.09,2.53,0,1.04-.05,1.84-.1,2.61-.05,.81-.1,1.57-.08,2.52,.01,.87,.09,1.66,.17,2.5,.08,.81,.16,1.65,.19,2.63,.02,.53-.03,.87-.07,1.27-.05,.44-.11,.95-.11,1.79,0,1.05,.12,2.52,.22,3.82,.07,.97,.14,1.89,.14,2.32,0,.55-.04,.87-.09,1.21-.06,.45-.12,.92-.09,1.88,.04,1.09,.11,1.95,.18,2.8,.08,1.03,.16,2,.18,3.33,.02,1.57,0,3.11-.02,4.63-.03,1.97-.05,3.82,.02,5.63,.03,.82,.12,1.35,.2,1.86,.06,.37,.12,.74,.16,1.24,.22,2.71,.19,6.02,.15,9.52-.03,2.61-.06,5.32,.03,7.87,.04,1.23,.12,2.16,.19,3.06,.08,.98,.16,1.91,.17,3.08,0,1.28-.04,2.59-.09,3.87-.06,1.43-.12,2.91-.09,4.34,.02,.91,.12,1.74,.21,2.55,.06,.54,.12,1.06,.15,1.57,.08,1.38,.12,2.89,.16,4.22l.02,.89c.03,1.09-.02,2.06-.08,3.09-.05,.95-.11,1.94-.1,3.05,.01,1.14,.09,2.31,.17,3.55,.08,1.18,.16,2.4,.19,3.63,.08,3.6,.17,9.25,.18,13.31,0,1.94-.05,3.96-.1,5.92-.07,2.48-.13,5.05-.08,7.41,.03,1.19,.11,2.25,.18,3.27,.09,1.27,.18,2.48,.18,3.89,0,1.01-.1,2.19-.19,3.33-.08,.95-.15,1.94-.17,2.8-.04,1.62-.02,3.26,0,4.85,.01,1.08,.03,2.13,.02,3.16-.16-.91-.32-1.89-.47-2.94-.21-1.44-.38-3.04-.56-4.73-.16-1.48-.33-3-.52-4.49-.06-.46-.13-.8-.2-1.14-.06-.29-.12-.57-.16-.91-.04-.33-.06-.89-.08-1.43-.02-.65-.04-1.27-.1-1.66-.13-.8-.35-1.35-.54-1.84-.16-.42-.3-.78-.36-1.22-.03-.27,0-1.15,.01-1.93,.04-1.39,.04-1.98-.02-2.24-.21-.77-.94-1.94-1.85-2.01-.32-.03-.87,.06-1.25,.91l-.04,.12c-.01,.06-.31,1.78-.36,2.03-.35,1.61-.37,2.12-.44,3.37-.02,.47-.05,1.04-.11,1.82-.02,.25-.06,.41-.12,.62-.09,.31-.2,.7-.23,1.46v4.09c-.05,3.34,.04,6.1,.11,8.54,.03,.97,.05,1.88,.07,2.75,.05,2.78,.07,5.7,.08,8.4,.01,3.24,.03,6.04,.1,8,.05,1.19,.12,1.97,.2,2.72,.07,.73,.14,1.41,.17,2.4,.09,3.23,.16,6.35,.22,9.28,.12,5.8,.22,10.82,.5,14.31l.03,.36c.12,1.52,.26,3.24,.33,4.75,.03,.73,.02,1.94,0,3.11-.02,1.13-.03,2.3,0,3.04,.05,1.2,.14,1.83,.22,2.39,.07,.52,.13,.94,.14,1.69,.02,1.64-.05,2.77-.11,3.76-.05,.84-.1,1.57-.07,2.39,.04,1.39,.15,2.72,.27,4.12,.11,1.31,.22,2.66,.27,4.08,.05,1.42,.03,3.12,0,4.78-.02,1.53-.04,3.1,0,4.44,.02,.76,.1,1.46,.18,2.19,.07,.6,.14,1.23,.18,1.92,.13,2.36,.37,7.64,.36,8.16-.02,1.27-.11,1.75-.17,2.14-.1,.58-.17,.99,0,3.03,.32,3.97,.6,7.4,.54,12.25-.02,1.29-.04,2.1-.05,2.65-.03,1.1-.03,1.14,.08,1.72,.04,.19,.08,.45,.15,.85,.36,2.18,.33,8.21,.3,13.06-.01,2.9-.03,5.41,.05,6.37,.44,5.43,.28,12.82,.12,19.96-.11,5.04-.22,9.8-.12,13.82,.04,1.88,.21,3.79,.36,5.63,.16,1.85,.32,3.76,.36,5.64,.02,.72-.07,1.7-.16,2.74l-.15,1.8-.05,1.86c.01,1.29,.1,2.14,.19,2.96,.07,.59,.13,1.17,.17,1.93,.21,4.5,.22,10.21,.19,14.21v.49s2.45-2.37,2.45-2.37c-.01,0-.03,0-.04,0Z" style="fill: #02e2ac;"/>
</svg>