<svg xmlns="http://www.w3.org/2000/svg" width="620.98" height="746.6" xmlns:v="https://vecta.io/nano"><path d="M579.42 680.91l-.08-.51c-.03-.38-.01-.93 0-1.47v-1.61c-.05-.55-.16-1.08-.28-1.65l-.26-1.44-.73-6.85-.71-6.48-.32-1.86-.22-1.22-.17-1.09-.05-.39c.02-.14.06-.41.05-1.52-.02-1.55-.43-3.66-.79-5.52l-.48-2.73-.27-3.3c-.13-2.07-.26-4.02-.66-5.02l-.33-.83c.15-.24.16-.79.18-2.14l-.72-5.84-.54-4.4c-.07-.4-.08-.93-.09-1.48l-.09-1.57-.93-5.92-.69-4.33-.29-3.18-.25-2.96-.56-4.86-.16-1.3-.56-4.24-.87-8.01c-.02-.47.1-.92.21-1.32l.15-.65c.31-2.27.17-3.69-.04-5.84l-.13-1.43-.36-5.14c-.16-1.46-.37-2.53-.57-3.56-.34-1.73-.66-3.37-.68-6.64 0-1.48.08-1.8.19-2.21l.17-.78.07-.43c.26-1.65.26-1.68.29-3.04v-.69c.12-4.66-1.16-15.87-1.61-18.54-.06-.38-.08-.64-.09-.93s-.03-.61-.09-1.1l-.19-1.5c.2.2.52.45.93.34.58-.17.87-.94 1.06-2.82.24-2.38-.19-3.71-.34-4.14l-.02-.03c-.04-.89-.02-2.25 0-3.45.02-1.17.04-2.17 0-2.71-.06-.84-.21-1.93-.39-3.19l-.51-4c-.16-1.53-.28-3.01-.4-4.48l-.32-3.71c-.05-.53-.16-1-.26-1.46-.11-.49-.23-1-.28-1.61-.06-.67-.07-1.56-.08-2.42-.01-.96-.03-1.95-.1-2.71-.08-.79-.19-1.27-.3-1.75-.09-.4-.18-.78-.24-1.34-.23-2.15-.29-3.29-.33-4.42.48-.08.85-.53 1.06-.79.14-.17.31-.38.42-.43l.29-.14v-.32c-.04-1.5-.02-3.04 0-4.53v-4.7c0-.12-.05-.37-.12-.69-.09-.4-.21-.94-.24-1.37-.04-.75-.02-1.64 0-2.49.02-.9.04-1.83 0-2.63-.05-.94-.18-1.97-.3-2.96l-.24-2.18c-.26-3-.43-5.74-.6-8.64l-.29-4.67c-.08-1.23-.21-2.52-.32-3.76l-.22-2.39-.26-2.81c.17.47.37.6.66.62.6.05.87-.65 1.21-1.72 1-3.15-.07-17.11-.64-24.61l-.24-3.24-.49-6.67-.05-.52c-.02-.23-.01-.62 0-.98.01-.39.02-.77 0-1.05-.02-.27-.13-.49-.22-.66-.07-.14-.13-.25-.14-.37-.05-.53-.08-1.23-.11-1.84-.02-.5-.04-.95-.07-1.23a29.27 29.27 0 0 0-.17-1.32c-.08-.55-.15-1.07-.19-1.74-.03-.54.03-1.51.09-2.44.06-.98.12-1.99.09-2.68-.05-1.06-.19-2.15-.34-3.3-.17-1.26-.34-2.57-.38-3.87-.05-1.38-.02-2.77 0-3.89.02-.98.03-1.76 0-2.28-.04-.62-.28-.84-.55-1.08-.27-1.57-.36-7.29-.43-11.48l-.11-4.86c-.1-1.97-.25-3.82-.4-5.62l-.32-4.62c-.04-.79-.02-1.69 0-2.55s.04-1.76 0-2.57c-.03-.76-.13-1.03-.22-1.28-.06-.18-.12-.33-.14-.78-.03-.43 0-1.39.02-2.41.08-3.68.05-4.81-.3-5.19.06-.62.03-1.32 0-2 0-.09 0-.18-.01-.27.13.37.25.86.38 1.77.14 1.03.21 2.48.27 4.01.06 1.47.12 2.99.27 4.18l.08.37.26.12c.05.02.1.04.15.04.12.7.21 1.97.27 2.87.05.73.1 1.38.15 1.73.12.82.27 1.58.42 2.35.17.86.35 1.75.48 2.77.25 1.88.49 4.3.72 6.63.3 3.06.59 5.96.9 7.73.03.15.05.57.08.98.04.63.07.94.1 1.09.12.59.37.97.56 1.27.17.26.29.45.34.75.13.88.17 1.99.2 2.96.06 1.91.09 2.62.66 2.77.05.01.09.02.15.02l.03.28c.08.72.13 1.23.5 1.47.16.1.36.13.55.06.65-.22 1.41-3.48 1.42-3.5.47-4.97-.7-20.95-.9-22.65-.14-1.17-.32-1.95-.49-2.63-.18-.76-.33-1.42-.41-2.47-.03-.4.02-1.08.07-1.87.07-1 .14-2.12.11-3.23-.08-3.06-.44-5.08-.78-7.05-.19-1.08-.36-2.1-.49-3.24-.08-.71-.09-1.71-.1-2.67 0-.44 0-.87-.02-1.28.36 2.19.75 2.67 1.29 2.72.65.05 1.04-.75 1.33-1.65l.02-.12c.21-3.05-.1-4.72-.27-5.62-.05-.25-.08-.44-.09-.59-.05-.83-.06-2.22-.08-3.56-.02-1.57-.03-3.05-.1-3.64-.03-.21-.07-.61-.42-.76-.04-.02-.07-.03-.11-.04 0-.06 0-.12-.01-.2-.04-.67-.02-1.81 0-3.12.03-1.61.06-3.44 0-5.07l-.18-4.1c-.05-.86-.19-1.13-.36-1.38-.07-.1-.13-.19-.18-.69-.06-.69-.04-1.69 0-2.66.02-.86.05-1.76 0-2.51l-.36-2.02c-.24-1.83-.26-3.38-.27-4.75s-.03-2.55-.28-3.51c-.49-1.87-.64-6.15-.79-10.28l-.27-6.02c-.14-1.91-.34-3.74-.53-5.36-.23-2.05-.45-3.93-.45-5.47.16.96.37 2.31.62 4.18l.09.64.42 2.15c.56 2.92.77 4.01 1.39 4.34a.75.75 0 0 0 .67.02c.29-.12.36-.38.51-.96.11-.4.26-.95.45-1.31.67-1.23.58-3.49.48-5.68a57.44 57.44 0 0 1-.06-1.74c0-.56.04-.88.08-1.22.06-.44.12-.9.1-1.86-.02-.52-.11-1.49-.22-2.61l-.32-3.56c-.06-.8-.07-1.44-.09-2.07l-.09-2.03a19.92 19.92 0 0 0-.2-1.72c-.07-.47-.13-.91-.16-1.35-.05-.75-.02-1.66 0-2.54s.05-1.8 0-2.58c-.02-.32-.07-.65-.13-1.04-.08-.52-.18-1.16-.23-2.04-.05-.92-.16-1.58-.24-2.11-.06-.36-.1-.66-.12-.96-.11-1.89-.13-3.05-.15-3.98-.02-1.17-.03-1.94-.22-3.24-.28-1.98-.32-3.36-.37-5.45l-.17-4.75-.28-5.15c-.34-5.92-.8-14.03-.62-16.3.12-1.51.33-1.62.58-1.76.35-.19.7-.43 1.01-1.16.05-.12.08-.3.19-1 .06-.4.14-.94.19-1.11.2-.71.31-.91.38-1.04.19-.35.22-.51.35-2.11.02-.1.1-.29.17-.46.09-.22.16-.42.18-.52.66-3.26.62-6.49.58-10.24l-.03-3.18c0-.67.04-1.27.08-1.93.05-.88.12-1.87.1-3.2-.05-4.4-.26-7.75-.43-10.45l-.11-1.87c-.12-2.06-.19-5.85-.18-6.09l-.44-.03.44-.05h0l-.05-.49h-.08c-.05-.09-.13-.17-.24-.24-.05-.03-.11-.05-.16-.06 0-.06-.01-.13-.02-.21-.06-.89-.08-2.02-.1-3.22l-.08-2.92-.43-7.44-.29-4.86c-.16-2.94-.26-6.24-.35-9.43-.13-4.57-.26-8.88-.55-11.1-.33-2.53-.29-2.82-.19-3.52.09-.64.23-1.61.2-4.62 0-.52-.08-1.24-.16-2.15a93.81 93.81 0 0 1-.38-5.04c-.12-2.83-.04-5.71 0-6.95v-.19c.03-.88-.04-1.55-.1-2.08-.04-.36-.08-.68-.07-1 .02-1.55.06-2.73.11-3.51.31.7.92 1.76 1.85 1.64 1.33-.18 1.82-2.72 2-4.22.03-.27.11-.68.19-1.06.09-.43.16-.81.17-1.02.05-.75.08-2.2.08-4.31l-.05-6.31-.21-9.09a10.2 10.2 0 0 0-.05-.68l-.06-.48-.48.04-1.26.13c-.66.08-1.28.15-2.03.17h-.32c-.09-.09-.22-.16-.44-.18-.71-.06-1.37.07-1.76.14-.11.02-.2.04-.24.04l-5.82.13-16.11.59-5.06.08-5.2.1c-.74.03-1.36.11-1.95.18-.68.08-1.33.16-2.13.18-2.68.06-5.34.03-8.17 0-2.6-.02-5.29-.05-8.17 0-.98-.21-1.17-.35-1.17-.35-.13-.59-.6-.75-1.89-.9-1.89-.23-2.8-.14-3.62-.06a10.44 10.44 0 0 1-.58.05c-.66.05-1.44-.09-1.77-.15-.14-.03-.2-.03-.25-.03-1.82.03-3.42.16-4.83.27-2.01.16-3.74.3-5.35.09-1.64-.21-1.76-.84-1.92-1.63-.11-.57-.24-1.27-1.04-1.58l-.11-.04c-1.54-.59-1.61-.58-5.58-.38l-.66.03c-4.04.2-4.4.26-5.19.39-.25.04-.53.09-1 .15-.42.06-1.03.08-1.62.1-.55.02-1.08.04-1.44.08-.32.04-.65.11-.99.18-.35.07-.7.15-1.06.18-.45.05-.93.07-1.42.08-.54.02-1.1.04-1.65.1l-3.05.38c-1.92.26-3.91.52-6.16.69-1.19.09-2.52.13-3.93.17l-4.27.18c-1.17.08-2.32.22-3.53.37-1.72.21-3.48.42-5.53.5 1.46-.64 2.42-1.15 2.55-1.86.06-.3-.04-.6-.28-.84-.26-.26-.72-.32-1.45-.38-.29-.02-.61-.05-.77-.1a.59.59 0 0 0-.12-.35c-.19-.25-.53-.34-1.02-.4-2.4-.29-6.84-.02-12.39.36-1.81.12-3.54.31-5.37.51l-5.91.57c-.95.07-2.14.08-3.29.1-1.02.01-2.02.03-2.85.08-.23.01-.56.08-.95.17-.39.08-.83.18-1.1.19-.53.03-1.23.01-1.9 0-.79-.02-1.6-.04-2.21 0-.47.04-1.2.18-1.9.32-.46.09-.9.18-1.2.22l-.46.07c-1.17.17-2.37.34-3.62.47-.79.08-1.66.08-2.5.08-.88 0-1.79 0-2.62.1-1.2.13-1.62.26-1.96.36-.27.08-.46.14-1.09.18-.46.02-.81-.02-1.21-.07-.48-.06-1.02-.13-1.84-.11-.22 0-.62.06-1.13.14-.64.09-1.44.21-1.95.22-2.3.06-4.29.03-5.36 0-.43 0-.71-.01-.8 0-1.03.06-2.09.2-3.31.37-1.41.19-3.01.42-4.89.53-1.74.11-4.65.16-8.02.22l-12.46.32c-.67.03-1.42.11-2.15.18l-1.96.18c-.94.05-2.09.08-3.18.12l-1.94.06c-5.21.21-9.24.19-12.8.18h-1.53c-1.76 0-3.37.05-4.79.1l-3.4.08h-.57l-12.69-.17c-.07-.02-.18-.07-.31-.12-.31-.13-.53-.22-.73-.24-.66-.07-1.19-.06-1.65-.06h-.09a.5.5 0 0 0 .11-.19c.08-.23.01-.42-.13-.58.61-.06 1.33-.11 1.86-.15 1.07-.08 1.74-.13 2-.19.1-.02.27-.08.74-.35.2-.12.38-.22.38-.23.37-.17.67-.34.91-.47l.15-.08c.3-.17 1.2-.67.99-1.44-.41-1.49-6.69-2.1-18.66-1.83-.82.02-1.2.14-1.5.24-.19.06-.32.11-.56.12-.48.02-.81-.03-1.19-.09-.47-.07-1.01-.16-1.9-.09-.21.02-.45.12-.7.22-.12.05-.31.13-.37.14-.46.07-1 .09-1.57.1-.46.01-.95.03-1.47.07-3.28.27-5.94.25-8.76.23-2.34-.02-4.77-.04-7.62.13-1.23.07-2.06.28-2.79.46-.47.12-.88.22-1.33.27-.66.07-2.17.15-3.63.22l-2.49.13-1.74.12-4.38.24c-1.26.01-2.28-.04-3.27-.1-1.16-.06-2.36-.12-3.91-.08-1.27.03-1.85.08-2.59.14l-.51.04c-3.26.25-8.62.51-11.24.54-.74.01-1.46-.07-2.28-.15-.81-.09-1.72-.19-2.83-.21-1.14-.02-2.48.03-3.9.09l-3.28.09c-1.69.01-3.23-.04-4.72-.09l-3.47-.09c-2.2 0-3.1.1-3.72.18-.61.08-.97.13-2.38 0-.48-.04-1.24-.11-1.74-.18.04-.06.07-.14.11-.21q.4-.98 1.77-1.52a1.53 1.53 0 0 0 .66-.47c.07-.09.12-.15.38-.25.43-.18.92-.33 1.39-.47 1.12-.34 1.85-.57 1.98-1.14.05-.21.05-.54-.22-.91-.61-.87-2.45-1.61-4.85-1.97l-.48-.07-.04.32-.03-.3c-.27.02-3.19-.06-6.12-.2l-2.72-.17-3.44-.19c-.75-.02-1.57.03-2.44.08s-1.78.11-2.7.1c-1.93-.02-4-.11-6.01-.19l-5.26-.17h-.02c-.77 0-1.61.05-2.42.09-.91.05-1.84.1-2.68.09-1.55-.02-2.94-.11-4.28-.19-1.33-.08-2.59-.16-3.92-.17a23.43 23.43 0 0 0-2.22.09c-.51.04-1.04.09-1.89.09-1.06 0-2.23-.05-3.33-.1-1.04-.05-2.02-.09-2.81-.08a98.25 98.25 0 0 0-3.03.09l-3.12.09h-.02c-.96 0-1.93-.05-2.88-.09-1.07-.05-2.17-.1-3.26-.09-1.01.01-1.77.07-2.64.14-1.1.09-2.36.19-4.53.22-.96.02-1.87-.03-2.82-.08-1.01-.05-2.08-.12-3.32-.1-1.26 0-2.94.09-4.73.19l-3.49.17-11.04.3-9.45.24c-.77.02-1.49.09-2.26.17-.89.08-1.8.17-2.86.19-.74.02-1.53 0-2.33 0-.94-.01-1.92-.03-2.8 0-.17 0-.47.07-.93.16-.4.08-.9.19-1.13.2-2.34.13-4.53.14-6.54.15h-2.98l-3.42.03c-1.39.03-2.55.11-3.68.18-1.09.07-2.21.15-3.52.18a190.25 190.25 0 0 1-6.77 0l-2.21-.02v.5l.01 1.7a54.98 54.98 0 0 0 .3 4.03c.12 1.1.21 2.04.24 3.47.06 3.71.04 6.75 0 8.65a83.63 83.63 0 0 1-.13 3.29c-.1-.08-.22-.13-.37-.13-.32-.02-.54.17-.72.55-.04.09-.09.19-.53 2.74l-.42 2.55c-.1 1.17-.19 6.28-.18 7.22 0 .67.07 1.44.14 2.34.09 1.1.19 2.34.22 3.81.02.75 0 1.55 0 2.34-.01.94-.03 1.9 0 2.79.05 1.3.15 2.54.26 3.85.11 1.38.23 2.82.28 4.35.09 2.39.1 5.02.1 7.58l.08 6.77c.02.62.09 1.27.17 1.96.08.7.16 1.42.19 2.14.06 1.76.06 3.19.07 4.46 0 1.55 0 2.77.12 3.77.16 1.49.37 16.66.18 18.33-.05.45-.27.68-.58.99-.41.42-.92.95-1.04 2.08-.16 1.48-.07 5.02.03 9.12l.14 7.32v10.25l.17 7.59.2 10.83c-.06 2.22-.28 3.85-.5 5.42-.17 1.24-.33 2.41-.4 3.79-.21 4.15-.15 7.98-.08 12.03l.08 7.46-.09 12.97-.09 14.69.09 6.68.09 8.69-.05 3.99c-.05 3.78-.1 7.34.05 11.4.03.89.11 1.63.18 2.35.09.88.17 1.72.18 2.76h.04c-.09.56-.13 1.72-.22 4.08-.16 4.12-.05 8.9.05 13.54l.13 8c0 1.08-.04 2.23-.09 3.35l-.09 2.79c-.01 1.13.04 2.2.09 3.24.04.93.09 1.9.09 2.91a167.12 167.12 0 0 1-.09 5.05l-.09 5.19c0 .73.05 1.66.09 2.59l.09 2.53a37.5 37.5 0 0 1-.1 2.61c-.05.81-.1 1.57-.08 2.52.01.87.09 1.66.17 2.5.08.81.16 1.65.19 2.63.02.53-.03.87-.07 1.27-.05.44-.11.95-.11 1.79 0 1.05.12 2.52.22 3.82l.14 2.32a7.39 7.39 0 0 1-.09 1.21c-.06.45-.12.92-.09 1.88.04 1.09.11 1.95.18 2.8.08 1.03.16 2 .18 3.33.02 1.57 0 3.11-.02 4.63-.03 1.97-.05 3.82.02 5.63.03.82.12 1.35.2 1.86a14.21 14.21 0 0 1 .16 1.24c.22 2.71.19 6.02.15 9.52-.03 2.61-.06 5.32.03 7.87.04 1.23.12 2.16.19 3.06.08.98.16 1.91.17 3.08 0 1.28-.04 2.59-.09 3.87-.06 1.43-.12 2.91-.09 4.34.02.91.12 1.74.21 2.55.06.54.12 1.06.15 1.57.08 1.38.12 2.89.16 4.22l.02.89c.03 1.09-.02 2.06-.08 3.09-.05.95-.11 1.94-.1 3.05.01 1.14.09 2.31.17 3.55.08 1.18.16 2.4.19 3.63l.18 13.31c0 1.94-.05 3.96-.1 5.92-.07 2.48-.13 5.05-.08 7.41.03 1.19.11 2.25.18 3.27.09 1.27.18 2.48.18 3.89 0 1.01-.1 2.19-.19 3.33-.08.95-.15 1.94-.17 2.8-.04 1.62-.02 3.26 0 4.85l.02 3.16c-.16-.91-.32-1.89-.47-2.94-.21-1.44-.38-3.04-.56-4.73l-.52-4.49c-.06-.46-.13-.8-.2-1.14-.06-.29-.12-.57-.16-.91-.04-.33-.06-.89-.08-1.43-.02-.65-.04-1.27-.1-1.66-.13-.8-.35-1.35-.54-1.84-.16-.42-.3-.78-.36-1.22-.03-.27 0-1.15.01-1.93.04-1.39.04-1.98-.02-2.24-.21-.77-.94-1.94-1.85-2.01-.32-.03-.87.06-1.25.91l-.04.12-.36 2.03c-.35 1.61-.37 2.12-.44 3.37-.02.47-.05 1.04-.11 1.82a2.84 2.84 0 0 1-.12.62c-.09.31-.2.7-.23 1.46v4.09c-.05 3.34.04 6.1.11 8.54l.07 2.75.08 8.4.1 8a39.31 39.31 0 0 0 .2 2.72c.07.73.14 1.41.17 2.4l.22 9.28.5 14.31.03.36.33 4.75c.03.73.02 1.94 0 3.11-.02 1.13-.03 2.3 0 3.04a20.85 20.85 0 0 0 .22 2.39c.07.52.13.94.14 1.69.02 1.64-.05 2.77-.11 3.76-.05.84-.1 1.57-.07 2.39.04 1.39.15 2.72.27 4.12.11 1.31.22 2.66.27 4.08s.03 3.12 0 4.78v4.44c.02.76.1 1.46.18 2.19.07.6.14 1.23.18 1.92l.36 8.16c-.02 1.27-.11 1.75-.17 2.14-.1.58-.17.99 0 3.03.32 3.97.6 7.4.54 12.25l-.05 2.65c-.03 1.1-.03 1.14.08 1.72.04.19.08.45.15.85.36 2.18.33 8.21.3 13.06l.05 6.37c.44 5.43.28 12.82.12 19.96l-.12 13.82c.04 1.88.21 3.79.36 5.63.16 1.85.32 3.76.36 5.64.02.72-.07 1.7-.16 2.74l-.15 1.8-.05 1.86c.01 1.29.1 2.14.19 2.96a27.82 27.82 0 0 1 .17 1.93c.21 4.5.22 10.21.19 14.21v.5l2.28.02c1.84.02 3.59.1 5.28.18 1.88.09 3.83.18 5.87.18h0c1.59 0 3.55-.08 5.44-.17l2.44-.12c.63-.04 1.26-.06 1.87-.07 1.75-.03 3.7-.02 5.76 0h6.53l9.37-.19 15.21-.17c.63.01 1.42.08 2.27.16.88.08 1.87.17 2.85.2a152.43 152.43 0 0 0 5.07.07c1.76 0 3.27 0 4.1.11.14.02.63.26.96.42.36.17.72.35.98.45 2.43.9 2.81.97 6.25 1.47l1.97.29c2.22.34 3.44.52 6.28.61 3.3.11 7.14.12 11.21.13l7.33.04c.27-.04.59-.12.79-.35h0 .17c1.67-.04 3.37-.02 5.18 0h6.09c.56-.02 1.26-.09 2-.17.7-.08 1.44-.16 2.11-.19l5.13-.18 3.54-.22 5.67-.32c1.43-.06 2.98-.07 4.49-.08 1.6-.01 3.25-.03 4.73-.1.77-.03 1.61-.14 2.5-.26.87-.11 1.77-.23 2.63-.28 3.48-.19 7.96-.02 12.29-.18 1.2-.04 2.33-.17 3.43-.29.94-.1 1.82-.2 2.73-.25h.31.21c.09.08.23.18.46.19.55.03 1.01-.04 1.42-.1.23-.03.45-.07.68-.08 3.03-.14 4.95-.15 7.08.18.17.03.28.04.35.06.12.12.29.2.62.29.5.14.78.13 1.09.13.25 0 .53 0 1.03.06 4.29.54 8.39.32 13.58.04 2.92-.16 6.23-.33 10.06-.39 1.79-.03 3.61-.01 5.38 0h4.88c.95-.03 1.94-.1 2.9-.18 1.08-.08 2.19-.17 3.24-.18 3.71-.06 10.16.13 11.24.18.59.03.97-.04 1.32-.1.24-.04.46-.08.76-.08 3.69-.04 5.83.08 7.9.19l4.38.17c1.37.03 2.69 0 3.87-.01 1.3-.02 2.43-.04 3.28.01 1.2.07 5.88.5 6.1.54.11.02.15.05.26.16.15.14.38.34.78.39.68.07 1.68.04 2.74.01.88-.03 1.79-.05 2.37-.02.1.02.33.11.53.19.21.08.39.15.46.16 1.59.36 2.65.35 4.59.34 1.17-.01 2.63-.02 4.73.04.85.02 1.89.1 2.92.18 1.14.08 2.32.17 3.23.18h6.26 6.03c1.26.03 2.47.11 3.65.19 1.23.08 2.4.16 3.53.17 2.88.04 5.8 0 8.62-.02l10.83.02c1.12.03 2.22.1 3.32.17 1.25.08 2.54.16 3.86.19 1.71.03 3.36.02 4.96 0h4.26c2.39.04 3.76.3 4.97.52.38.07.74.14 1.11.19 1.42.22 2.51.24 3.65.26a40.62 40.62 0 0 1 2.53.1c.05 0 .11.04.21.1.19.11.45.26.84.27h.28c1 0 2.71-.11 4.22-.21l2.69-.15c3.49-.08 7.67.03 12.09.14l13.52.22c1.81 0 3.61-.09 5.52-.18l4.74-.18 18.1-.09 15.72-.09c.05 0 .11.02.18.03.33.07.88.19 1.88.14.31-.01.54-.09.75-.17.29-.1.57-.2 1.26-.19.75.01.97.09 1.17.17.19.07.41.16.85.19.73.05 2.09.03 3.18.01h.96c3.57-.03 7.36-.15 11.37-.27l12.19-.28c1.03 0 2.02.04 3.09.09 1 .04 2.02.09 3.06.09 1.13.02 2.03-.06 2.76-.11.5-.03.94-.07 1.34-.07 1.08-.01 1.94.05 2.77.1.79.05 1.55.1 2.37.08.97-.03 1.9-.1 2.79-.17 1.06-.08 2.15-.17 3.34-.19.79 0 1.75.04 2.68.09.89.05 1.7.09 2.44.09l11.04-.11 18.66-.07 1.4.02-1.07-.91c-.7-.59-3.04-.59-6.53-.51l-1.98.03-8.09-.05-28.77-.49c-1.48-.07-2.78-.18-3.99-.28-1.88-.15-3.51-.29-5.27-.26-1.57.02-3.46.24-5.28.45-2.65.3-5.39.62-6.9.29-.39-.09-1-.01-1.35.17l-6.96.13-2.04.05c-1.04 0-1.87-.04-2.67-.09-.79-.05-1.54-.1-2.46-.09h-13.31c-.72 0-1.46.04-2.24.08-.9.05-1.84.11-2.88.1a280.47 280.47 0 0 0-8.21 0c-.97.01-1.52-.03-2.09-.09a17.37 17.37 0 0 0-2-.09l-7.13.06c-7.62.08-16.26.16-22.56-.06-.22 0-.82 0-1.21.18l-8.06-.02c-5.64 0-10.97-.01-14.3-.16-2.2-.1-4.19-.34-6.11-.58-1.77-.22-3.43-.42-5.16-.5-2.67-.13-5.72-.13-8.94-.13-2.16 0-4.35 0-6.44-.05l-8.3-.28-8.09-.26c-2.02-.03-3.99-.01-5.89 0h-6.4c-.81-.02-1.75-.1-2.66-.18-.83-.07-1.67-.15-2.46-.18-2.75-.11-5.77-.15-8.7-.18-4.1-.05-8.33-.11-11.78-.35-1.54-.11-2.83-.3-4.18-.5-1.5-.22-3.05-.45-5.04-.58-1.25-.09-2.63-.09-4.09-.1-1.34 0-2.73-.01-4.11-.08-.84-.04-1.4-.11-1.94-.18a20.73 20.73 0 0 0-2.17-.18c-10.46-.27-24.41-.12-31.79 0-1.43.02-2.83.1-4.18.18a101.68 101.68 0 0 1-4.02.18c-2.01.04-3.99.02-5.91 0-1.89-.02-3.68-.03-5.37 0-.84.02-1.86.09-2.94.17-1.49.11-3.03.22-4.21.19-1.04-.03-1.44-.15-1.96-.3-.48-.14-1.02-.31-2.11-.41a16.17 16.17 0 0 0-1.29-.08c-.04-.37-.45-.53-.62-.6l-.13-.03c-3.97-.42-9.15-.09-14.16.23l-5.38.31c-1.09.04-2.36.06-3.65.07l-4.55.11c-.21 0-.41.1-.62.2-.14.06-.33.15-.42.16-.4.03-.96.02-1.5 0-.55-.02-1.12-.03-1.57 0-.54.04-1.09.1-1.65.16-.79.09-1.62.18-2.43.2-.73.02-1.54 0-2.35 0-.95-.02-1.93-.04-2.79 0-.13 0-.44.07-.8.14-.42.09-.93.19-1.27.22-2.09.19-4.18.21-6.39.24l-4.86.12a70.86 70.86 0 0 0-2.36.17c-.91.08-1.86.16-2.76.19-.61.02-1.28 0-1.94 0-.73-.01-1.48-.03-2.16 0-.85.04-1.67.11-2.47.18-.91.08-1.78.15-2.65.18-.95.03-1.98.02-3.04 0-1.02-.01-2.07-.03-3.11 0a18.54 18.54 0 0 0-1.98.17c-.6.08-1.23.16-2.04.18-.45-.12-1.35-.18-3.14-.18-.93 0-1.87.08-2.49.14-.27.02-.48.04-.59.04-8.66.11-10.56-.08-15.15-.52l-1.3-.12c-1.98-.19-4.02-.38-4.9-.54 0-.03-.01-.12-.02-.18-.02-.34-.07-1.04-1.02-1.32-.99-.29-6.14-.8-9.34-.92-3.32-.13-7.79-.08-12.11-.04l-8.4.04-5.93-.1-6.37-.08c-2.82.01-5.71.09-8.76.18l-8.66.19c-.86.01-1.66-.03-2.59-.07l-.44-.02-4.56-.09c-1.11 0-2.01.09-2.96.17s-1.93.17-3.16.19c-1.57.02-3.43-.04-5.23-.09l-1.81-.05c.02-.83.02-1.62.02-2.36 0-.91-.04-1.59-.07-2.36-.04-.89-.09-1.9-.11-3.52l-.04-8.14V670c0-3.62-.02-6.17-.15-7.69-.33-4.1-.1-9.63.06-13.67l.12-3.71c0-1.82-.08-3.98-.17-6.27l-.19-6.03c-.02-1.08 0-2.23 0-3.37v-3.81c-.03-.89-.1-1.71-.18-2.57l-.19-2.57c-.19-4.44-.27-10.03-.35-15.43l-.19-10.17-.08-2.65-.29-7.62c-.25-3.65-.48-8.48-.54-11.25-.03-1.18 0-2.28 0-3.39.02-1.21.04-2.47 0-3.79-.03-.95-.11-1.87-.19-2.76-.07-.8-.14-1.59-.17-2.37l-.21-9.83-.15-7.59-.54-14.34c-.07-2.37-.08-4.79-.1-7.13l-.08-6.19c-.04-1.79-.13-3.23-.2-4.49-.09-1.61-.18-2.99-.16-4.71.03-3 .02-3.14-.07-4.48l-.11-1.71c-.12-1.95-.12-3.63-.12-5.26 0-1.25 0-2.54-.06-3.96a70.88 70.88 0 0 0-.18-2.8c-.09-1.12-.17-2.17-.18-3.33 0-1.1.07-2.16.16-3.38.08-1.09.17-2.33.2-3.78.03-1.15-.05-2.1-.11-2.86-.04-.48-.07-.89-.07-1.25v-.63l.5 3.05.11.73c.08.5.13 1.3.18 2.07.05.79.1 1.54.18 2.03.12.77.27 1.24.4 1.65.13.42.25.78.32 1.4.02.21.01.6 0 .97-.01.4-.02.79 0 1.05.02.28.13.49.22.67.07.14.13.25.14.37.09.89.1 2.19.12 3.23.01.88.02 1.58.07 1.91.08.63.25 1.06.42 1.5a9.65 9.65 0 0 1 .49 1.61c.05.24.07.93.08 1.48.02.8.04 1.31.1 1.6l.13.59.16-.07c.12.21.25.45.28.53l.46-.12-.28.4h0l.34.23.07-.06c.23.04.42-.02.53-.08.93-.46 1.62-2.81 2-12.78.12-3.14.07-7.09.03-9.97l-.03-3.36.02-2.54-.02-13.87c-.04-1.25-.15-2.51-.24-3.51l-.12-1.45c.26-.44.35-1.11.36-1.12.04-.46.02-1.38.01-2.19v-.93c0-3.29-.08-6.93-.18-10.79l-.18-8.68v-9.23c-.03-2.35-.14-4.67-.26-7.13l-.28-7.21c-.02-.85.04-1.79.09-2.7.05-.86.1-1.67.09-2.42-.02-1.85-.1-3.7-.18-5.49l-.18-4.76c-.02-1.23-.01-2.34 0-3.5v-3.67l-.72-36.89c-.06-4.33.08-7.55.2-10.38.09-2.04.17-3.97.16-6 0-1.24-.1-2.43-.19-3.58l-.17-2.57c-.14-4.95-.09-10.6-.03-16.58l.03-15.18-.18-7.3-.18-7.04-.02-19.86.02-10.87-.05-10.64.05-19.06c.07-2.57.27-5.06.46-7.46.18-2.23.37-4.54.44-6.88.11-3.48.06-8.75.03-12.99l-.03-5.47c0-.75.05-1.54.09-2.33.05-.93.1-1.9.09-2.8-.03-2.66-.13-5.21-.23-7.68-.15-3.82-.3-7.44-.13-10.73.05-1.05.29-2.2.54-3.42.3-1.43.63-3.05.71-4.77.14-2.99-.02-6.97-.22-11.58l-.32-8.95-.17-10.72-.37-14.92c-.37-5.46-.89-19.17-.36-25.23.04.03.07.06.12.08l.19.19.35-.2-.25-.45.03-.05h.45c0-.12.13-.66.18-.8h0l.19-.57c.06-.17.11-.34.14-.4l-.4-.21.46.05h0v-.04l.04-.41h-.02c.07-1.82.03-7.4 0-9.22l-.21-16.35c0-.4-.02-.78-.04-1.12l1.32-.12c1.02-.1 2.18-.22 4.07-.3.29.09.82.15 1.75.17a10.85 10.85 0 0 0 1.71-.1c.3-.04.59-.07.97-.08l3.35-.08 3.56-.03a134.37 134.37 0 0 0 4.89-.08c2.19-.08 4.43-.22 6.6-.36l6.72-.36c2.08-.08 3.75-.08 5.23-.09 1.5 0 2.8 0 4.01-.09 15.01-1.04 35.04-1.02 54.27-.9.9 0 1.85-.04 2.83-.08a65.78 65.78 0 0 1 3.29-.1h.04l19.46.18c.59.01 1.25.07 2.02.14a68.66 68.66 0 0 0 3.09.22c1.16.05 2.81.06 4.41.07 1.88.01 3.82.02 4.79.11.84.07 2.65.44 3.62.63l.42.08c.67.13 1.15.24 1.48.33-.16.05-.33.1-.49.14-.64.18-1 .32-1.39.47-.2.08-.42.16-.69.26-.4.14-1.22.38-2.01.61-1.72.5-2.05.61-2.2.71l-.31.25.07.33c.04.21.18.33.37.42-.07.03-.14.07-.2.1-.58.27-.9.42-1.06.63-.15.19-.18.41-.1.62.19.49.87.62 2.27.84.42.07.84.14 1.1.21 0 .1.03.23.11.35.19.27.54.35 1.05.41 2.86.3 7.9.26 12.78.21l6.74-.03 4.77.09 6.51.09c1.92-.01 3.9-.1 5.82-.19 1.97-.09 3.84-.17 5.45-.17 1.05 0 1.81.05 2.53.1.8.05 1.56.1 2.6.08a19.01 19.01 0 0 0 1.98-.17 21.3 21.3 0 0 1 2.13-.19c.95-.03 2.08-.02 3.17 0 1.13.02 2.19.04 2.99 0 .22-.01.42-.11.63-.2.14-.07.32-.15.41-.16.4-.03.97-.02 1.51 0 .55.02 1.11.03 1.56 0 .69-.05 1.35-.12 1.99-.18l2.1-.18 5.92-.24 6.43-.31c2.41-.41 5.49-.48 8.74-.57l4.52-.15c3.07-.15 8.7-.41 11.99-.19-.16.11-.27.27-.29.45a.7.7 0 0 0 .08.44l-1.25.13-1.42.16c-2 .36-2.31 1.17-2.31 1.63 0 .8.86 1.43 2.36 1.71 1.95.36 2.41.44 6.14.72 3.62.27 12.56.49 17.47.36 1.15-.03 2.51.07 3.33.13.37.03.62.04.76.05 6.19-.06 10.85-.26 15.36-.46l6.16-.26 7.18-.18 3.3-.08 3.88-.1c.18 0 .47-.07.94-.16.39-.08.89-.18 1.12-.2 1.65-.09 2.84-.09 3.9-.08 1.12 0 2.09 0 3.29-.1a12.28 12.28 0 0 0 1.62-.24c.71-.14 1.1-.22 2.32.05a2.3 2.3 0 0 0 1.34-.17l7.04-.26 9.18-.45c.52-.04.98-.07 1.63-.1l1.44-.08a202.31 202.31 0 0 0 6.78-.53l4.49-.37 6.8-.4 10.62-.68 2.02-.19c2.71-.27 8.19-.83 11.13-.59-1.07.13-2.32.29-3.09.52-.57.17-.75.5-.88.71-.08.13-.09.16-.19.2-.28.11-.76.21-1.18.29-.88.17-1.32.26-1.36.74-.01.2.07.47.52.63l.14.03c.74.04 1.18.11 1.66.18a14.76 14.76 0 0 0 1.41.18c.94.07 1.45.11 1.73.08.21.3.62.5 1.35.64 1.8.12 2.75-.02 3.94-.19.84-.12 1.79-.26 3.3-.35h0c.48.08 1.37.11 3.07 0a58.1 58.1 0 0 0 2.22-.19l1.88-.17c1.28-.08 2.49-.09 3.56-.1 1 0 1.86-.02 2.6-.08.29-.02.49-.14.65-.23.13-.07.22-.12.37-.13 1.21-.08 2.73-.12 4.33-.16 1.73-.04 3.52-.09 4.9-.2.15-.01.38-.06.69-.14.53-.12 1.32-.31 2.39-.4.58-.05 1.53-.07 2.45-.08.99-.02 2.02-.04 2.68-.1.69-.06 1.16-.18 1.62-.29.44-.1.85-.2 1.45-.25 4.65-.41 5.44-.11 5.57.02.01.04-.01.19-.03.29-.14.77-.06 1.55 1.45 2.01.09.03.33.1 3.82.52l3.47.4c.92.06 1.75-.01 2.56-.08.52-.04 1.03-.09 1.58-.1 4.16-.09 5.71.09 7.36.28.82.09 1.66.19 2.85.26 4.88.27 9.78.13 14.98-.01l7.6-.17h3.7 4.5c1.21-.04 2.11-.14 3.05-.26.83-.1 1.68-.2 2.84-.27.23.1.62.17 1.26.17.71 0 .94-.09 1.04-.18 1.76-.07 4.02-.11 6.36-.16l4.07-.09 4.94-.17 1.69-.13c.45-.06.8-.11 1.05-.18a1 1 0 0 1 .42.06l.21-.29.02.42h0c1.02-.05 1.72-.13 2.34-.2.61-.07 1.13-.13 1.83-.15l3.09-.08c.12 5.9.04 10.37-.24 13.62-.11-.65-.22-1.25-.33-1.61-.68-2.15-1.24-2.33-1.43-2.39a.64.64 0 0 0-.6.09c-1.89 1.37-1.46 14.79-1.29 18.87.03.72.11 1.4.18 2.06.08.7.16 1.36.17 2.03l.15 8.55.21 8.88c.01.29.08.73.15 1.22.09.61.19 1.3.21 1.85.08 1.73.08 3.07.08 4.15 0 1.2 0 2.15.1 3.05.11 1.03.12 2.32.13 3.57 0 .89 0 1.77.05 2.55.01.21.08.54.16.93.09.4.18.86.2 1.11l.72 17.42c.02.46.01.97 0 1.49-.01.55-.03 1.1 0 1.58.01.22.08.55.17.95.08.4.18.85.19 1.1.06 1.11.08 2.13.09 3.15l.09 2.99.21 3.68c.17 2.68.35 5.72.32 6.52-.05 1.56-.04 1.71.04 2 .03.13.08.32.14 1.13.22 3.14-.05 5.9-.25 7.92l-.11 1.23-.08.97c-.14 1.76-.26 3.29-.45 4.07-.2.83-.33.83-.54.81-.55-.04-1.12.07-1.44 1.23-.23.82-.47 2.45-.56 3.15-.23 2.02-.65 10.23-.54 12.38.09 1.92.23 2.55.66 2.74.02.16.05.47.05 1.09-.45.11-.49.61-.54 2.28-.04 1.2.13 3.14.3 5.19l.24 3.06.54 8.19c.07 1.28.08 2.67.09 4.03 0 1.39.02 2.83.09 4.17.05 1.02.16 2.05.27 3.14l.27 3.01.18 4.11c.04.72.13 1.27.21 1.81.06.42.12.83.15 1.27.12 1.72.17 3.39.23 5.01l.13 3.18c.02.44.08.71.14 1 .09.4.19.86.22 2.06l.01.77-.18-.98c-.49-2.8-.7-3.77-1.41-3.85-.55-.06-.82.57-.91.78-.05.13-.09.16-.13.13-.62-.08-.98.22-1.16.97v.06l-.01.06c.21 8.52.73 21.12 1.26 27.69l.51 7.58.75 9.86c.04.36.11.66.18.95.08.34.15.66.18 1.07.04.49.04 1.26.04 2.25 0 1.52 0 3.61.14 5.94.03.45.11 1.33.23 2.44.16 1.57.46 4.52.6 7.06v-.08c-.42-4.98-.68-7.15-1.22-7.74-.42-.45-.82-.34-.98-.27-1.28.56-1.03 4.9-.97 5.77l.15 1.93q.08.96.03 2.01v.1c-.03.54.04 1.03.1 1.46l.08.64c.12 2.27.27 4.2.42 6.07l.3 4.18.38 5.13.16 2.05 1.26 17.42.06.79-.07-.28-.29-.09c-.02-.33-.03-.69-.04-1.04-.02-.57-.03-1.12-.09-1.54-.1-.67-.22-1.28-.34-1.89-.14-.68-.28-1.39-.38-2.2-.11-.85-.14-1.88-.17-2.98-.03-1.09-.07-2.21-.19-3.17a2.73 2.73 0 0 0-.41-1.19c-.13-.22-.24-.41-.31-.85l-.18-2.05-.07-.86c-.03-.44-.05-.72-.12-1.21-.16-1.26-.3-2.66-.43-3.99-.15-1.6-.3-3.12-.48-4.22-.02-.09-1.69-9.39-2.67-9.64l-.34-.06-.2.24c-.13.15-.13.27-.13.63v.77.93c-.05.68-.24 1.08-.44 1.51s-.41.88-.46 1.56c-.32 3.79-.05 8.6.16 12.46l.19 3.99c.02.77-.03 1.59-.09 2.46s-.12 1.77-.09 2.66c0 .12.04.38.09.72.09.6.23 1.51.27 2.36l.24 6.02.3 7.3.41 6.32.31 4.94c.02.49-.03.77-.08 1.07-.03.15-.05.3-.07.48h-.03v.49h0 .43l-.42.07c.02.16.14 1.59.17 2.01.05.96.16 1.79.27 2.6.1.78.21 1.59.27 2.53.05.75.02 1.66 0 2.54v.37l-.62-6.06c-1.01-8.58-1.55-8.66-1.95-8.72-.21-.03-.48.05-.63.38l-.04.13-.05.53-.22 2.5c-.1 1.17-.26 3.28-.27 4.22-.04 2.89.28 6.34.56 9.38l.34 3.99a15.26 15.26 0 0 1 0 1.92 19.35 19.35 0 0 0 0 2.17c.01.26.09.82.17 1.43.08.6.17 1.25.2 1.66l.5 5.7.4 4.54c.1 1.31.12 2.68.15 4.13.03 1.67.07 3.39.21 5.1.05.56.15 1.04.27 1.55.1.47.21.95.28 1.54.23 2.12.3 3.89.38 5.76l.16 3.44.04.55c-.03-.16-.07-.34-.11-.52-.09-.39-.17-.79-.19-1.12l-.13-3.18c-.03-.92-.03-.97-.23-1.68l-.37-1.38c-.16-.62-.26-1.31-.34-1.87-.16-1.1-.23-1.51-.67-1.62l-.4-.03-.27.38-.74 6.32c-.05 2.17.25 4.63.56 7.23l.35 3.07a168.54 168.54 0 0 1 .31 3.68l.41 4.54a5.61 5.61 0 0 0 .17.83c.07.28.14.54.19 1.2.08 1.02.09 2.22.11 3.38.01.97.02 1.93.07 2.76a36.2 36.2 0 0 0 .3 2.91c.1.73.19 1.42.24 2.22.06.84.15 1.75.24 2.69-.29-1.71-.63-3.15-1.1-3.99l-1.07-1.89.13 2.17c.04.61-.07 3.47-.14 4.57a.38.38 0 0 0-.17.08l-.22.18v.25c-.08 2.89.14 3.58.34 4.2.09.28.16.51.2.97.1 1.31.11 3.02.12 4.53 0 1.14.02 2.12.06 2.65.02.21.09.62.18 1.04.07.37.15.76.18 1.03.17 1.38.35 4.06.51 6.42l.33 4.43-.77-.86-.07 1.19c-.06.96-.15 1.85-.24 2.74-.15 1.4-.3 2.85-.3 4.47 0 2.02.33 4.39.55 5.96l.17 1.27c.05.49.07.96.09 1.45.02.51.04 1.03.09 1.62l.72 7.18c.13 1.22.3 2.39.42 3.25l.12.86c.05.41.08 1.1.11 1.72l.07 1.34.45 3.94c.47 3.95 1 8.43.99 12.4 0 .97-.1 2.18-.19 3.36-.11 1.45-.21 2.82-.17 3.84.04 1.03.15 1.66.31 2.54.11.64.25 1.43.42 2.64.21 1.59.38 3.26.52 4.74l.38 3.46c.15 1.05.33 2.57.5 3.97l.41 3.22c.25 1.48.34 2.99.43 4.45l.11 1.66c.02.27.13.49.22.66.07.14.13.25.14.37.11 1.09.19 2.34.26 3.55l.28 3.63c.16 1.42.36 2.77.55 4.08.21 1.45.41 2.82.53 4.11.04.4.05 1.02.06 1.68.02.9.04 1.82.12 2.44.15 1.2.36 2.23.56 3.23.18.91.38 1.86.52 2.92.3 2.19.52 4.71.75 7.15l.51 5.14c.04.35.13.55.31.71 0 .04.02.11.04.24-.15.72 0 2.05 0 2.12.07.59.18 1.12.28 1.62.1.49.2.94.26 1.45.1.83.14 1.8.19 2.73.04.93.09 1.81.18 2.4.14.98.35 1.79.55 2.57.21.83.41 1.61.53 2.55.09.67.15 1.74.21 2.79l.15 2.32a1.48 1.48 0 0 0 .23.66c.07.13.12.21.13.36.16 1.82.1 2.43.07 2.76-.04.48-.02.61.3 1.4.02.12.06.62.09 1.08.03.43.06.83.08.93.18 1.16.31 2.46.43 3.6l.29 2.55c.1.68.21 1.21.3 1.69a13.99 13.99 0 0 1 .23 1.37c.19 1.69.13 2.26.08 2.6-.06.48-.06.69.31 1.62.23.59.37 3.99.44 5.63l.07 1.4c0 .08.1.71.22 1.5l.53 3.64h.24l-.26.08h0s.01.05.03.09l.13.44.09-.02c.07.09.16.17.28.23.2.1.39.08.57.03v.64h-.8l.78 7.73c.06.59.14.94.21 1.24.06.24.11.47.15.81.14 1.2.27 2.77.4 4.32.28 3.29.46 5.33.7 6.03.15.44.45.48.6.48.17 0 .3-.07.4-.19.13.21.31.35.56.35h0c.32 0 .55-.23.68-.77.21-3.19-.11-4.83-.28-5.71zm-14.03-352.62a2.46 2.46 0 0 1-.1-.41c-.02-.13 0-.63 0-.97.01-.42.02-.83 0-1.05l-.04-.36.14.17c.1.11.14.16.17.32.03.21-.04.75-.1 1.14-.05.35-.09.66-.09.84 0 .11 0 .22.01.32zm.27 30.43c0-.25.01-.46.02-.64l.07.79c.11 1.18.22 2.37.28 3.59l-.29-2.19-.08-.62c-.02-.15 0-.59 0-.94zm-5.14 31.8c.03.25.07.99.11 1.68l.07 1.38c.03.43.04.85.06 1.28l-.36-4.67c.06.12.12.27.12.34zM426.03 698.04h0zM538.5 58.58l-.02-.43a4.81 4.81 0 0 0 .37.06c-.05.23-.24.36-.35.37z" fill="#02e2ac"/></svg>