<svg width="80" height="80" viewBox="0 0 80 80" fill="none" xmlns="http://www.w3.org/2000/svg">
<path d="M50.8416 56C50.8416 56 49.47 54.3619 48.3271 52.9143C53.3181 51.5048 55.223 48.381 55.223 48.381C53.661 49.4096 52.1751 50.1334 50.8416 50.6286C48.9366 51.4286 47.1079 51.9619 45.3172 52.2667C41.6597 52.9524 38.3069 52.7619 35.4495 52.2286C33.2778 51.8096 31.411 51.2 29.8489 50.5905C28.9726 50.2477 28.0201 49.8286 27.0676 49.2953C26.9533 49.2191 26.839 49.181 26.7247 49.1048C26.6485 49.0667 26.6104 49.0286 26.5723 48.9905C25.8866 48.6096 25.5056 48.3429 25.5056 48.3429C25.5056 48.3429 27.3343 51.3905 32.1729 52.8381C31.03 54.2857 29.6203 56 29.6203 56C21.2003 55.7333 18 50.2096 18 50.2096C18 37.943 23.4863 28.0003 23.4863 28.0003C28.9726 23.886 34.1922 24.0003 34.1922 24.0003L34.5732 24.4575C27.7153 26.4384 24.5531 29.4479 24.5531 29.4479C24.5531 29.4479 25.3913 28.9907 26.8009 28.3431C30.8776 26.5527 34.116 26.0574 35.4495 25.9432C35.6781 25.9051 35.8686 25.867 36.0972 25.867C38.4212 25.5622 41.0501 25.486 43.7932 25.7908C47.4127 26.2098 51.2988 27.2765 55.2611 29.4479C55.2611 29.4479 52.2513 26.5908 45.7744 24.6098L46.3078 24.0003C46.3078 24.0003 51.5274 23.886 57.0137 28.0003C57.0137 28.0003 62.5 37.943 62.5 50.2096C62.5 50.2096 59.2616 55.7333 50.8416 56ZM33.1254 38.2097C30.9538 38.2097 29.2393 40.1144 29.2393 42.4382C29.2393 44.762 30.9919 46.6668 33.1254 46.6668C35.2971 46.6668 37.0116 44.762 37.0116 42.4382C37.0497 40.1144 35.2971 38.2097 33.1254 38.2097ZM47.0317 38.2097C44.86 38.2097 43.1455 40.1144 43.1455 42.4382C43.1455 44.762 44.8981 46.6668 47.0317 46.6668C49.2033 46.6668 50.9178 44.762 50.9178 42.4382C50.9178 40.1144 49.2033 38.2097 47.0317 38.2097Z" fill="#F4E5C9"/>
<rect x="0.5" y="0.5" width="79" height="79" rx="23.5" stroke="#FF9658"/>
</svg>
