<svg width="228" height="236" viewBox="0 0 228 236" fill="none" xmlns="http://www.w3.org/2000/svg">
<path d="M114.342 141.859V185.765M114.342 141.859L168.023 217.459L114.342 185.765M114.342 141.859L60.6676 217.459L114.342 185.765M93.7889 106.296L55.7473 84.3435M93.7889 106.296L1.44434 114.959L55.7473 84.3435M93.7889 106.296L55.1188 22.0341L55.7473 84.3435M114.33 94.4459V50.5401M114.33 94.4459L60.6557 18.8403L114.33 50.5401M114.33 94.4459L168.011 18.8403L114.33 50.5401M134.872 106.296L172.913 84.3435M134.872 106.296L173.542 22.0341L172.913 84.3435M134.872 106.296L227.216 114.959L172.913 84.3435M134.872 130.003L172.913 151.956L227.216 121.346L134.872 130.003ZM134.872 130.003L172.919 151.956L173.542 214.265L134.872 130.003ZM93.8007 130.003L55.7591 151.956L55.1307 214.265L93.8007 130.003ZM1.44434 121.346L55.7473 151.956L93.7889 130.003L1.44434 121.346Z" stroke="#F4E5C9" stroke-linecap="round" stroke-linejoin="round"/>
<path d="M117.815 136.661C117.734 136.551 117.647 136.446 117.555 136.345C117.511 136.302 117.479 136.247 117.436 136.204C117.392 136.16 117.241 136.036 117.138 135.949L116.992 135.824C116.9 135.758 116.802 135.704 116.71 135.649C116.618 135.595 116.57 135.552 116.494 135.514L116.25 135.41C116.147 135.367 116.05 135.318 115.947 135.285L115.714 135.231C115.611 135.202 115.506 135.178 115.401 135.16C115.305 135.146 115.21 135.137 115.114 135.133C115.011 135.133 114.913 135.133 114.816 135.133C114.719 135.133 114.616 135.133 114.518 135.133C114.422 135.137 114.326 135.146 114.231 135.16C114.126 135.178 114.021 135.202 113.918 135.231L113.685 135.285L113.382 135.41L113.138 135.514L112.916 135.655C112.821 135.706 112.729 135.762 112.64 135.824C112.586 135.862 112.537 135.916 112.483 135.959C112.429 136.003 112.288 136.117 112.196 136.204L112.072 136.351C111.981 136.449 111.896 136.553 111.817 136.661L70.8444 194.653L100.359 130.018V129.991C100.407 129.879 100.449 129.764 100.484 129.648C100.484 129.577 100.538 129.507 100.559 129.436C100.581 129.365 100.603 129.224 100.619 129.121C100.635 129.017 100.657 128.947 100.667 128.86C100.678 128.773 100.667 128.68 100.667 128.593C100.667 128.506 100.667 128.376 100.667 128.267C100.667 128.158 100.668 128.121 100.641 128.044C100.613 127.968 100.64 127.8 100.592 127.68C100.592 127.604 100.548 127.539 100.532 127.468C100.516 127.397 100.473 127.245 100.429 127.137C100.386 127.028 100.354 126.968 100.316 126.887C100.278 126.805 100.229 126.696 100.175 126.604C100.121 126.511 100.072 126.446 100.013 126.364C99.9616 126.28 99.9057 126.198 99.8449 126.12C99.777 126.04 99.7046 125.964 99.6283 125.892C99.5742 125.832 99.52 125.767 99.4605 125.707C99.3847 125.636 99.2981 125.582 99.2169 125.517C99.1358 125.451 99.0709 125.397 98.9897 125.348C98.9085 125.299 98.8597 125.277 98.7948 125.239C98.7298 125.201 98.5838 125.114 98.4755 125.065L98.3294 125.016C98.1976 124.96 98.0619 124.912 97.9234 124.875C97.8752 124.863 97.8264 124.854 97.7773 124.848C97.6332 124.812 97.4866 124.786 97.3388 124.772L26.8457 118.129L97.3171 111.486C97.5104 111.467 97.7021 111.434 97.8909 111.388H97.9451C98.1145 111.342 98.2807 111.286 98.443 111.219L98.5241 111.181C98.6812 111.111 98.8332 111.029 98.9788 110.937L99.033 110.904C99.1683 110.812 99.3036 110.708 99.4335 110.6L99.4713 110.567C99.4713 110.567 99.4714 110.567 99.4984 110.567C99.5255 110.567 99.6121 110.448 99.6662 110.388C99.7425 110.316 99.8148 110.24 99.8827 110.16C99.9476 110.078 99.9964 109.996 100.051 109.915C100.11 109.837 100.164 109.755 100.213 109.67C100.267 109.583 100.305 109.485 100.354 109.393C100.402 109.301 100.435 109.23 100.467 109.143C100.507 109.032 100.542 108.92 100.57 108.806C100.57 108.735 100.613 108.67 100.63 108.599C100.63 108.48 100.662 108.36 100.678 108.235C100.695 108.11 100.678 108.088 100.705 108.012C100.732 107.936 100.705 107.795 100.705 107.686C100.705 107.577 100.705 107.512 100.705 107.425C100.705 107.338 100.673 107.251 100.657 107.164C100.643 107.058 100.623 106.953 100.597 106.849C100.597 106.778 100.543 106.707 100.521 106.631C100.5 106.555 100.446 106.403 100.397 106.289L70.8823 41.6533L111.855 99.6459L111.936 99.7491C112.017 99.8553 112.104 99.957 112.196 100.054L112.326 100.179C112.418 100.266 112.51 100.347 112.608 100.423L112.738 100.521C112.881 100.624 113.031 100.716 113.187 100.798H113.219C113.371 100.875 113.529 100.94 113.69 100.994H113.75H113.836C113.961 101.032 114.085 101.059 114.215 101.086L114.367 101.114C114.535 101.137 114.705 101.15 114.875 101.152C115.046 101.15 115.216 101.137 115.384 101.114L115.536 101.086C115.66 101.059 115.79 101.032 115.915 100.994H116.001H116.061C116.222 100.94 116.38 100.875 116.532 100.798C116.689 100.716 116.841 100.624 116.986 100.521L117.111 100.423C117.211 100.348 117.307 100.266 117.398 100.179L117.522 100.059C117.614 99.9613 117.701 99.8579 117.787 99.7491L117.869 99.6459L158.842 41.6533L129.322 106.289C129.273 106.403 129.235 106.517 129.197 106.631C129.167 106.702 129.142 106.775 129.121 106.849C129.094 106.952 129.078 107.061 129.062 107.164C129.046 107.267 129.024 107.338 129.013 107.425C129.002 107.512 129.013 107.599 129.013 107.692C129.008 107.798 129.008 107.905 129.013 108.012C129.008 108.086 129.008 108.161 129.013 108.235C129.021 108.358 129.037 108.479 129.062 108.599C129.062 108.67 129.105 108.735 129.121 108.806C129.15 108.92 129.184 109.032 129.224 109.143C129.257 109.23 129.3 109.306 129.338 109.393C129.379 109.488 129.426 109.581 129.479 109.67C129.527 109.757 129.581 109.833 129.635 109.915C129.69 109.996 129.744 110.078 129.809 110.16C129.874 110.241 129.95 110.312 130.02 110.388C130.09 110.464 130.128 110.513 130.193 110.567H130.22L130.258 110.6C130.384 110.709 130.518 110.809 130.659 110.899L130.707 110.937C130.855 111.028 131.009 111.11 131.167 111.181L131.248 111.219C131.409 111.286 131.573 111.342 131.741 111.388H131.801C131.989 111.434 132.181 111.467 132.374 111.486L202.846 118.129L132.353 124.772C132.214 124.787 132.077 124.811 131.941 124.842C131.887 124.842 131.828 124.842 131.774 124.875C131.646 124.91 131.521 124.953 131.4 125.005C131.339 125.024 131.28 125.046 131.221 125.071C131.119 125.118 131.02 125.171 130.924 125.228C130.848 125.266 130.772 125.305 130.702 125.348C130.626 125.4 130.554 125.456 130.485 125.517C130.398 125.574 130.315 125.637 130.236 125.707C130.171 125.767 130.123 125.832 130.063 125.892C130.004 125.952 129.917 126.038 129.852 126.12C129.787 126.202 129.738 126.283 129.679 126.364C129.619 126.446 129.565 126.522 129.516 126.604C129.468 126.685 129.424 126.794 129.381 126.887C129.338 126.979 129.3 127.05 129.267 127.137C129.235 127.224 129.197 127.359 129.165 127.468C129.132 127.577 129.116 127.604 129.1 127.68C129.075 127.802 129.059 127.926 129.051 128.05C129.045 128.124 129.045 128.198 129.051 128.273C129.046 128.38 129.046 128.486 129.051 128.593C129.051 128.68 129.051 128.773 129.051 128.86C129.062 128.946 129.078 129.031 129.1 129.115C129.114 129.223 129.134 129.33 129.159 129.436C129.18 129.508 129.205 129.579 129.235 129.648C129.267 129.765 129.309 129.88 129.359 129.991C129.359 129.991 129.359 129.99 129.359 130.018L158.874 194.648L117.815 136.661Z" stroke="#51C3A6" stroke-linecap="round" stroke-linejoin="round"/>
<path d="M89.8905 122.172C90.0362 122.065 90.1758 121.949 90.3085 121.826C90.3662 121.769 90.4384 121.725 90.4961 121.668C90.5537 121.61 90.7192 121.408 90.8345 121.271L91.0003 121.076C91.0867 120.954 91.159 120.824 91.2311 120.702C91.3031 120.579 91.3608 120.514 91.4112 120.413L91.5481 120.089C91.6057 119.952 91.6706 119.822 91.7138 119.685L91.7859 119.375C91.8248 119.237 91.856 119.098 91.8795 118.957C91.8983 118.83 91.9102 118.703 91.9154 118.575C91.9154 118.438 91.9154 118.308 91.9154 118.178C91.9154 118.048 91.9154 117.911 91.9154 117.782C91.9106 117.654 91.8987 117.526 91.8795 117.399C91.856 117.258 91.8248 117.119 91.7859 116.981L91.7138 116.671L91.5481 116.268L91.4112 115.943L91.2237 115.648C91.1561 115.521 91.0815 115.398 91.0003 115.28C90.9498 115.208 90.8778 115.143 90.8201 115.071C90.7625 114.999 90.6113 114.811 90.4961 114.689L90.3015 114.523C90.1711 114.402 90.0338 114.289 89.8905 114.184L13.0182 59.6071L98.6963 98.9213L98.7322 98.9213C98.8802 98.9852 99.032 99.0405 99.1864 99.0871C99.2801 99.0871 99.3735 99.1591 99.4672 99.1879C99.5609 99.2168 99.7483 99.2457 99.8852 99.2673C100.022 99.289 100.116 99.3177 100.231 99.3321C100.346 99.3465 100.469 99.3321 100.584 99.3321C100.7 99.3321 100.873 99.3321 101.017 99.3321C101.161 99.3321 101.211 99.3322 101.312 99.2962C101.413 99.2601 101.636 99.2961 101.795 99.2312C101.896 99.2312 101.982 99.1735 102.076 99.1519C102.169 99.1302 102.371 99.0726 102.515 99.0149C102.659 98.9572 102.739 98.914 102.847 98.8635C102.955 98.8131 103.099 98.7482 103.221 98.6761C103.344 98.604 103.431 98.5391 103.539 98.4598C103.651 98.3919 103.759 98.3174 103.863 98.2364C103.969 98.1459 104.07 98.0495 104.165 97.9479C104.245 97.8758 104.331 97.8037 104.411 97.7244C104.504 97.6234 104.576 97.5081 104.663 97.4C104.749 97.2918 104.821 97.2054 104.886 97.0972C104.951 96.9891 104.98 96.9241 105.03 96.8376C105.081 96.7511 105.196 96.5565 105.261 96.4123L105.326 96.2177C105.401 96.0421 105.464 95.8614 105.513 95.6769C105.529 95.6128 105.54 95.5478 105.549 95.4823C105.597 95.2904 105.631 95.0952 105.65 94.8982L114.456 0.999996L123.261 94.8694C123.287 95.1268 123.33 95.3822 123.391 95.6336L123.391 95.7058C123.451 95.9314 123.526 96.1529 123.614 96.369L123.665 96.4771C123.758 96.6863 123.867 96.8888 123.989 97.0828L124.032 97.155C124.155 97.3352 124.292 97.5154 124.436 97.6885L124.479 97.7388C124.479 97.7388 124.479 97.7388 124.479 97.7749C124.479 97.8109 124.637 97.9263 124.717 97.9984C124.812 98.1001 124.913 98.1963 125.019 98.2867C125.127 98.3733 125.236 98.4382 125.344 98.5103C125.447 98.589 125.556 98.6612 125.668 98.7266C125.783 98.7987 125.913 98.8492 126.035 98.9141C126.158 98.979 126.252 99.0222 126.367 99.0654C126.513 99.1187 126.663 99.1643 126.814 99.2024C126.907 99.2024 126.994 99.2601 127.087 99.2818C127.246 99.2818 127.404 99.3249 127.57 99.3465C127.736 99.3682 127.765 99.3466 127.866 99.3826C127.967 99.4187 128.154 99.3826 128.298 99.3826C128.442 99.3826 128.529 99.3826 128.644 99.3826C128.759 99.3826 128.875 99.3395 128.99 99.3178C129.131 99.2991 129.27 99.2725 129.408 99.2385C129.502 99.2385 129.595 99.1664 129.696 99.1376C129.797 99.1088 129.999 99.0365 130.15 98.9716L215.828 59.6576L138.956 114.235L138.819 114.343C138.678 114.45 138.543 114.566 138.415 114.689L138.25 114.862C138.134 114.984 138.026 115.107 137.925 115.237L137.795 115.41C137.659 115.6 137.537 115.8 137.428 116.008L137.428 116.051C137.327 116.254 137.24 116.464 137.169 116.679L137.169 116.758L137.169 116.873C137.118 117.039 137.082 117.205 137.046 117.378L137.01 117.58C136.979 117.804 136.962 118.031 136.96 118.257C136.962 118.484 136.979 118.711 137.01 118.935L137.046 119.137C137.082 119.303 137.118 119.476 137.169 119.642L137.169 119.757L137.169 119.836C137.24 120.051 137.327 120.261 137.428 120.464C137.537 120.674 137.659 120.876 137.795 121.069L137.925 121.235C138.025 121.369 138.134 121.497 138.25 121.617L138.408 121.783C138.538 121.906 138.675 122.021 138.819 122.136L138.956 122.244L215.828 176.821L130.15 137.5C129.999 137.435 129.847 137.385 129.696 137.334C129.602 137.294 129.506 137.26 129.408 137.233C129.271 137.197 129.127 137.176 128.99 137.154C128.853 137.132 128.759 137.103 128.644 137.089C128.529 137.075 128.413 137.089 128.291 137.089C128.149 137.082 128.007 137.082 127.866 137.089C127.767 137.082 127.669 137.082 127.57 137.089C127.408 137.1 127.247 137.121 127.087 137.154C126.994 137.154 126.907 137.212 126.814 137.233C126.663 137.271 126.513 137.317 126.367 137.37C126.252 137.413 126.151 137.471 126.035 137.522C125.909 137.577 125.787 137.64 125.668 137.709C125.553 137.774 125.452 137.846 125.344 137.918C125.236 137.99 125.127 138.062 125.019 138.149C124.911 138.235 124.818 138.336 124.717 138.43C124.616 138.524 124.551 138.574 124.479 138.661L124.479 138.697L124.436 138.747C124.291 138.915 124.159 139.094 124.039 139.281L123.989 139.346C123.868 139.543 123.76 139.748 123.665 139.958L123.614 140.067C123.526 140.28 123.451 140.499 123.391 140.723L123.391 140.802C123.33 141.053 123.286 141.309 123.261 141.566L114.456 235.436L105.65 141.537C105.629 141.353 105.598 141.17 105.556 140.989C105.556 140.917 105.556 140.838 105.513 140.766C105.467 140.596 105.41 140.43 105.34 140.268C105.316 140.188 105.287 140.108 105.254 140.031C105.191 139.895 105.121 139.762 105.045 139.634C104.994 139.533 104.944 139.432 104.886 139.339C104.818 139.238 104.743 139.141 104.663 139.05C104.587 138.934 104.503 138.823 104.411 138.718C104.331 138.632 104.245 138.567 104.165 138.488C104.086 138.408 103.971 138.293 103.863 138.207C103.755 138.12 103.647 138.055 103.539 137.976C103.431 137.896 103.33 137.824 103.221 137.759C103.113 137.695 102.969 137.637 102.847 137.579C102.724 137.522 102.631 137.471 102.515 137.428C102.4 137.385 102.22 137.334 102.076 137.291C101.932 137.248 101.896 137.226 101.795 137.204C101.633 137.172 101.469 137.151 101.305 137.14C101.207 137.132 101.108 137.132 101.009 137.14C100.868 137.132 100.726 137.132 100.584 137.14C100.469 137.14 100.346 137.14 100.231 137.14C100.117 137.154 100.004 137.176 99.8926 137.204C99.7495 137.223 99.6074 137.25 99.4672 137.284C99.3713 137.311 99.2777 137.344 99.1864 137.385C99.031 137.428 98.8789 137.483 98.7322 137.55C98.7322 137.55 98.7323 137.55 98.6963 137.55L13.0252 176.865L89.8905 122.172Z" fill="#2D2038" stroke="#FF9658" stroke-linecap="round" stroke-linejoin="round"/>
<path d="M149.502 111.771C153.078 108.197 155.087 103.349 155.087 98.2946C155.087 93.24 153.078 88.3923 149.502 84.8177C145.927 81.2443 141.078 79.2368 136.022 79.2368C130.965 79.2368 126.116 81.2443 122.541 84.8177L103.659 103.69L130.621 130.637L149.502 111.771Z" fill="#51C3A6" stroke="#2D2038" stroke-linecap="round" stroke-linejoin="round"/>
<path d="M103.66 103.689L84.7781 122.561C81.2029 126.135 79.1943 130.981 79.1943 136.035C79.1943 141.089 81.2029 145.935 84.7781 149.509C88.3535 153.082 93.2027 155.09 98.259 155.09C103.315 155.09 108.164 153.082 111.74 149.509L130.621 130.637L103.66 103.689Z" fill="#51C3A6" stroke="#2D2038" stroke-linecap="round" stroke-linejoin="round"/>
<path d="M146.995 82.7144C149.581 86.3843 150.789 90.849 150.404 95.3216C150.019 99.7941 148.066 103.987 144.89 107.162L126.009 126.027L130.621 130.637L149.502 111.771C153.078 108.197 155.087 103.349 155.087 98.2946C155.087 93.24 153.078 88.3923 149.502 84.8177C148.729 84.0458 147.89 83.3422 146.995 82.7144Z" fill="#51C3A6" stroke="#2D2038" stroke-linecap="round" stroke-linejoin="round"/>
<path d="M126.01 126.027L107.134 144.899C103.958 148.077 99.7608 150.032 95.2833 150.418C90.8057 150.804 86.3356 149.596 82.6621 147.009C83.2903 147.903 83.9944 148.741 84.7667 149.515C88.3421 153.088 93.1913 155.096 98.2475 155.096C103.304 155.096 108.153 153.088 111.728 149.515L130.61 130.643L125.998 126.033L126.01 126.027Z" fill="#51C3A6" stroke="#2D2038" stroke-linecap="round" stroke-linejoin="round"/>
</svg>
