<svg width="226" height="235" viewBox="0 0 226 235" fill="none" xmlns="http://www.w3.org/2000/svg">
<path d="M139.362 57.0001C119.035 52.0041 93.2329 57.5754 75.1744 71.7762" stroke="#F4E5C9" stroke-linecap="round" stroke-linejoin="round"/>
<path d="M63.2555 84.0693C62.8017 84.7052 62.3177 85.4016 61.864 86.0375C48.6151 106.022 49.4318 132.849 50.6417 174.634C51.035 189.289 53.5456 209.394 53.5456 209.394L71.0899 216.116L68.428 155.346L57.2057 146.595L57.3872 124.007L57.5687 113.743L64.7981 117.74L91.5381 132.576L112.258 123.765L140.148 111.896L150.916 107.324L151.158 107.202L151.219 110.806V110.866L151.733 137.3L116.947 153.741L118.459 215.873C118.459 215.873 161.594 204.64 181.8 195.314C182.95 194.799 184.644 193.043 184.644 193.043L184.946 190.954L184.311 169.335" stroke="#F4E5C9" stroke-linecap="round" stroke-linejoin="round"/>
<path d="M182.315 108.868C182.315 108.686 182.255 108.474 182.255 108.293C181.045 98.0282 177.385 88.1876 171.486 79.77C169.218 76.4696 166.616 73.3812 163.682 70.6258C162.472 69.4752 159.236 66.4473 154.698 63.5708" stroke="#F4E5C9" stroke-linecap="round" stroke-linejoin="round"/>
<path d="M84.8535 129.216L64.7684 117.74L67.6722 130.73L81.9799 133.516L84.8838 129.216H84.8535Z" stroke="#FF9658" stroke-linecap="round" stroke-linejoin="round"/>
<path d="M112.168 123.704L117.492 130.093L135.551 124.643L140.058 111.835L112.168 123.704V123.704Z" stroke="#FF9658" stroke-linecap="round" stroke-linejoin="round"/>
<path d="M116.403 155.043L102.973 138.753L84.4605 139.692L72.3005 157.89L73.6315 200.371L80.9819 208.304L112.168 206.911L117.492 202.279L116.403 155.043V155.043Z" stroke="#F4E5C9" stroke-linecap="round" stroke-linejoin="round"/>
<path d="M171.486 79.74C167.312 78.6499 164.469 79.2252 162.744 79.8611C154.396 82.889 149.193 95.3336 151.099 110.746" stroke="#F4E5C9" stroke-linecap="round" stroke-linejoin="round"/>
<path d="M93.2931 116.922L20.0003 36.804L93.2931 83.3427L206 19L93.2931 116.922Z" fill="#51C3A6" stroke="#2D2038" stroke-linecap="round" stroke-linejoin="round"/>
<path d="M57.4177 124.068C56.9035 118.921 56.722 112.411 57.5992 104.932C58.4764 97.3316 60.2006 90.9731 61.8945 86.0376" stroke="#F4E5C9" stroke-linecap="round" stroke-linejoin="round"/>
<path d="M184.463 108.292H176.598C170.821 108.292 166.072 120.858 165.709 136.755V138.783C165.709 155.588 170.579 169.274 176.598 169.274H184.463" stroke="#FF9658" stroke-linecap="round" stroke-linejoin="round"/>
<path d="M184.462 169.244C178.442 169.244 173.572 155.589 173.572 138.754C173.572 121.918 178.442 108.263 184.462 108.263C190.482 108.263 195.352 121.918 195.352 138.754C195.352 155.589 190.482 169.244 184.462 169.244V169.244Z" stroke="#FF9658" stroke-linecap="round" stroke-linejoin="round"/>
<path d="M101.098 159.797H107.178V189.652H101.098V159.797Z" stroke="#FF9658" stroke-linecap="round" stroke-linejoin="round"/>
<path d="M87.4552 160.494H93.5352V190.349H87.4552V160.494Z" stroke="#FF9658" stroke-linecap="round" stroke-linejoin="round"/>
<path d="M75.9298 161.129H82.0098V190.984H75.9298V161.129Z" stroke="#FF9658" stroke-linecap="round" stroke-linejoin="round"/>
</svg>
