<svg width="446" height="25" viewBox="0 0 446 25" fill="none" xmlns="http://www.w3.org/2000/svg">
<g clip-path="url(#clip0_567_8)">
<path d="M4.68331 8.02493L5.29601 8.64092C5.18327 8.58085 5.93946 9.17195 5.91606 8.97128C0.541907 13.5201 31.3551 8.54076 36.0243 9.17554C40.9748 8.8744 45.2856 7.89941 48.0748 8.31426C53.3624 11.5658 57.3312 10.5535 63.7166 10.0035C95.5977 13.4831 129.565 11.386 161.778 11.9589C181.47 11.6946 205.122 8.56002 224.372 9.91352C228.79 9.2271 252.524 7.32359 252.028 13.2557C252.09 13.0572 251.375 14.2106 251.404 14.1827C251.085 14.3746 249.916 14.2873 249.597 14.4791C248.667 15.084 248.449 15.7929 247.785 16.033C247.381 16.1941 245.728 16.0371 244.778 16.327C244.388 17.0601 243.647 16.9553 242.962 16.9376C242.184 17.2034 242.027 17.7709 241.13 18.1765C237.627 18.858 230.194 22.3819 239.307 21.302C271.653 21.1638 304.727 16.0427 337.48 14.486C346.874 15.8427 360.724 13.856 371.167 14.4109C382.367 14.3851 395.76 12.4438 406.042 15.9098C406.84 19.3029 406.544 18.5808 410.258 19.7054C412.98 20.5186 414.143 20.863 419.289 20.7098C419.554 20.4308 422.784 20.3711 422.917 20.7461C431.317 19.6193 439.967 18.7847 448.192 17.7962C454.677 16.7344 462.559 14.651 469.281 15.453C470.223 16.5919 467.248 15.6293 467.457 16.3778C468.762 16.7258 469.229 16.3663 470.477 16.7128C471.781 17.0894 471.646 17.8862 472.873 17.975C484.01 17.0616 495.575 16.1878 507.155 16.9721C521.859 20.6664 536.298 21.3528 551.637 22.6055C562.328 22.3952 568.829 26.2211 580.509 25.3216C595.434 24.906 617.483 27.4177 591.945 27.274C583.105 28.8182 574.289 26.1045 566.648 27.7082C565.484 26.3349 564.003 27.2685 562.424 26.4276C548.838 22.562 531.22 25.5091 517.359 22.351C516.402 20.6972 513.717 22.8573 513.143 20.7561C510.795 19.8668 508.343 19.6321 505.312 19.7541C500.505 18.9157 496.21 19.2623 490.274 19.0236C483.323 19.3303 472.502 21.2808 466.761 20.1039C466.082 19.8292 466.017 20.1419 465.569 19.7874C465.121 19.4329 465.579 19.4161 464.957 19.1429C463.52 18.3627 461.427 18.6518 459.558 19.118C459.415 19.1144 459.569 18.6896 458.938 18.7877C445.713 19.7616 407.775 29.6161 401.174 17.442C390.809 16.0889 377.657 16.4645 366.888 17.5017C362.99 16.8582 358.693 16.1758 354.853 17.7346C351.254 16.5843 348.111 17.7323 344.583 18.2702C334.274 18.0617 323.552 17.2424 313.287 18.6641C311.096 19.4365 305.688 18.6398 303.058 19.8295C301.045 20.3207 301.864 19.5987 300.038 19.4945C296.858 19.8127 290.998 21.0336 287.408 20.6552C270.88 22.3157 254.829 24.3315 236.792 24.6669C235.107 24.6235 234.045 24.8248 233.209 24.003C231.015 23.775 230.714 23.2528 229.022 22.4089C228.166 21.2436 229.049 19.1228 229.661 18.6527C229.895 18.4586 231.715 18.7913 232.061 18.6574C232.667 18.4157 233.033 17.5106 233.872 17.1035C238.042 16.0677 242.945 14.2791 246.542 12.1711C233.953 10.6463 220.777 11.9644 208.007 11.8926C199.765 13.538 190.121 11.9461 182.1 13.883C178.452 13.5318 174.196 14.5939 170.637 14.1021C168.218 14.84 164.634 14.2332 162.186 14.9704C151.096 14.0558 138.774 15.4817 127.888 14.4009C115.505 15.9681 103.163 14.8213 90.5651 14.7538C83.8707 15.0958 79.8398 15.192 73.7519 13.063C67.0619 13.2336 53.6696 14.0603 47.2762 13.8098C46.2278 13.4684 46.2852 11.2406 45.4916 10.9915C44.5004 10.6515 35.6083 10.9083 34.6573 11.2267C26.3208 12.098 15.9088 12.5728 7.53342 13.8431C5.38835 13.9308 2.11593 13.4177 0.326129 11.914C-0.39121 10.9237 1.67702 10.4912 0.346121 10.0281" fill="#62C3A5"/>
</g>
<defs>
<clipPath id="clip0_567_8">
<rect width="446" height="25" fill="white"/>
</clipPath>
</defs>
</svg>
