<svg width="226" height="235" viewBox="0 0 226 235" fill="none" xmlns="http://www.w3.org/2000/svg">
<path d="M183.459 109.126C183.459 94.5601 152.065 82.751 113.337 82.751C74.6085 82.751 43.2148 94.5601 43.2148 109.126L58.6522 194.287C59.8654 200.976 65.6715 205.836 72.4488 205.836H154.222C160.999 205.836 166.809 200.976 168.018 194.287L183.456 109.126H183.459Z" stroke="#F4E5C9" stroke-miterlimit="10"/>
<path d="M43.2148 109.126C43.2148 70.2807 74.6085 38.792 113.337 38.792C152.065 38.792 183.459 70.2807 183.459 109.126" stroke="#F4E5C9" stroke-miterlimit="10"/>
<path d="M183.46 30V109.126" stroke="#F4E5C9" stroke-miterlimit="10"/>
<path d="M43.2148 47.584V109.127" stroke="#F4E5C9" stroke-miterlimit="10"/>
<path d="M122.103 110.708H104.573C94.8907 110.708 87.042 118.581 87.042 128.292C87.042 138.003 94.8907 145.876 104.573 145.876H122.103C131.785 145.876 139.634 138.003 139.634 128.292C139.634 118.581 131.785 110.708 122.103 110.708Z" fill="#51C3A6" stroke="#2D2038" stroke-miterlimit="10"/>
<path d="M135.251 106.313H91.4249C79.3226 106.313 69.5117 116.154 69.5117 128.293C69.5117 140.431 79.3226 150.272 91.4249 150.272H135.251C147.354 150.272 157.164 140.431 157.164 128.293C157.164 116.154 147.354 106.313 135.251 106.313Z" stroke="#FF9658" stroke-miterlimit="10"/>
<path d="M54.7861 170.669H172.591" stroke="#F4E5C9" stroke-miterlimit="10"/>
<path d="M67.1299 177.703C74.8293 177.703 74.8293 188.956 82.5322 188.956C90.2351 188.956 90.2316 177.703 97.9346 177.703C105.637 177.703 105.634 188.956 113.337 188.956C121.04 188.956 121.036 177.703 128.739 177.703C136.442 177.703 136.442 188.956 144.142 188.956C151.841 188.956 151.844 177.703 159.544 177.703" stroke="#FF9658" stroke-miterlimit="10"/>
<path d="M58.8174 194.934H167.507" stroke="#F4E5C9" stroke-miterlimit="10"/>
</svg>
