<svg xmlns="http://www.w3.org/2000/svg" width="226" height="226" fill="none" xmlns:v="https://vecta.io/nano">
<path d="M113.5 61.5v-48m30 140.5l33.5 35m-93.5-35l-35 34.5m114-92l47.5-9m-145.5 9L16 86" stroke="#ff9658"/>
<path d="M125.811 94.935c-.242-.946.902-1.606 1.606-.924l10.491 10.496a.94.94 0 0 1 0 1.342l-13.725 13.752a.94.94 0 0 1-1.341 0l-.902-.902c-1.298-1.298-1.54-3.322-.418-5.017.484-.726 1.254-1.232 2.112-1.452l1.869-.506c.352-.088.704-.22 1.012-.44 1.979-1.342 2.749-3.565 2.199-5.611l-2.903-10.738zm-23.953-4.181a.96.96 0 0 0 .418 1.606l12.361 3.323c1.298.352 2.376 1.188 3.058 2.354.66 1.144.835 2.552.484 3.872l-.55 2.047c-.066.286-.088.572-.022.858.594 2.574 2.837 3.806 4.949 3.234l1.473-.396a.72.72 0 0 0 .506-.858l-5.411-20.683c-.087-.33-.264-.66-.505-.902l-4.927-4.929c-.374-.374-.968-.374-1.342 0l-10.492 10.474zm22.545 44.492a.96.96 0 0 0-.417-1.606l-12.362-3.323c-1.298-.352-2.376-1.188-3.058-2.354-.659-1.145-.835-2.553-.483-3.873l.549-2.046a1.89 1.89 0 0 0 .023-.859c-.594-2.574-2.838-3.806-4.949-3.234l-1.474.396a.72.72 0 0 0-.506.858l5.411 20.684c.088.33.264.66.506.902l4.927 4.929a.94.94 0 0 0 1.341 0l10.492-10.474zm21.314-22.906l-3.409-3.411c-.374-.374-.968-.374-1.342 0l-14.143 14.149c-.264.264-.572.506-.924.682-2.156 1.034-4.443.594-5.939-.902l-1.078-1.078c-.747-.749-1.715-1.145-2.727-1.145-.792 0-1.584.242-2.331.748-.704.485-1.188 1.255-1.408 2.069l-.396 1.496c-.044.198-.044.396.044.55.088.176.242.308.44.352l16.1 4.313c.33.088.682 0 .924-.242l16.211-16.217c.352-.396.352-1.012-.022-1.364zm-62.203 4.555a.94.94 0 0 0 1.342 0l14.121-14.083c1.517-1.518 3.805-1.936 5.96-.902.33.154.638.396.902.682l1.782 1.783a1.95 1.95 0 0 0 .726.462c2.529.77 4.707-.55 5.279-2.663l.396-1.452c.043-.198.043-.396-.045-.55-.087-.176-.241-.308-.439-.352l-15.837-4.247c-.33-.088-.682 0-.924.242L80.28 112.318c-.374.374-.374.968 0 1.342l3.233 3.235zm13.813 3.102c-.55-2.068.22-4.29 2.222-5.633.308-.198.659-.33 1.011-.44l1.87-.506c.858-.22 1.628-.726 2.111-1.452 1.122-1.694.88-3.697-.417-5.017l-1.078-1.078a.72.72 0 0 0-.99 0l-14.099 14.104c-.374.374-.374.968 0 1.342l10.778 10.826c.682.682 1.847.022 1.605-.924l-3.013-11.222zm15.683-11.772a4.77 4.77 0 1 0 0 9.55 4.77 4.77 0 1 0 0-9.55z" fill="#51c3a6"/><g stroke="#f4e5c9"><circle cx="113" cy="113" r="99.5"/><path d="M113.5 61l48.979 35.586-18.708 57.578H83.229L64.521 96.586 113.5 61z"/></g></svg>