<svg width="80" height="80" viewBox="0 0 80 80" fill="none" xmlns="http://www.w3.org/2000/svg">
<path d="M23.3727 37.9361C23.3727 37.9361 40.4891 30.9114 46.4255 28.4379C48.7011 27.4486 56.4183 24.2825 56.4183 24.2825C56.4183 24.2825 59.9801 22.8974 59.6833 26.2613C59.5843 27.6464 58.7928 32.4944 58.0013 37.7382C56.8141 45.1586 55.5278 53.2716 55.5278 53.2716C55.5278 53.2716 55.33 55.5472 53.648 55.943C51.966 56.3388 49.1957 54.5579 48.701 54.1621C48.3053 53.8653 41.2806 49.413 38.7082 47.2364C38.0156 46.6427 37.2241 45.4555 38.8071 44.0703C42.3689 40.8053 46.6233 36.7488 49.1957 34.1764C50.383 32.9891 51.5703 30.2188 46.6233 33.5828C39.5987 38.4308 32.6729 42.982 32.6729 42.982C32.6729 42.982 31.0899 43.9714 28.1217 43.0809C25.1536 42.1905 21.6907 41.0032 21.6907 41.0032C21.6907 41.0032 19.3161 39.5191 23.3727 37.9361Z" fill="#F4E5C9"/>
<rect x="0.5" y="0.5" width="79" height="79" rx="23.5" stroke="#FF9658"/>
</svg>
