<svg width="80" height="80" viewBox="0 0 80 80" fill="none" xmlns="http://www.w3.org/2000/svg">
<path d="M60.8812 30.9579C60.9116 31.3919 60.9116 31.8258 60.9116 32.2638C60.9116 45.609 50.5927 61 31.7242 61V60.992C26.1503 61 20.6923 59.4281 16 56.4643C16.8105 56.5603 17.625 56.6083 18.4416 56.6103C23.0607 56.6143 27.5478 55.0884 31.1818 52.2785C26.7922 52.1966 22.9429 49.3787 21.5982 45.265C23.1359 45.557 24.7203 45.497 26.2295 45.091C21.4438 44.1391 18.0008 39.9993 18.0008 35.1916C18.0008 35.1476 18.0008 35.1056 18.0008 35.0636C19.4268 35.8456 21.0234 36.2796 22.6565 36.3276C18.1491 33.3617 16.7597 27.4581 19.4816 22.8424C24.6898 29.152 32.3742 32.9878 40.6232 33.3937C39.7965 29.886 40.9259 26.2102 43.5909 23.7444C47.7225 19.9206 54.2206 20.1166 58.1044 24.1823C60.4018 23.7364 62.6037 22.9064 64.6187 21.7305C63.8529 24.0683 62.2503 26.0542 60.1093 27.3161C62.1426 27.0801 64.1292 26.5442 66 25.7262C64.6228 27.7581 62.8881 29.528 60.8812 30.9579Z" fill="#F4E5C9"/>
<rect x="0.5" y="0.5" width="79" height="79" rx="23.5" stroke="#FF9658"/>
</svg>
