<svg width="124" height="216" viewBox="0 0 124 216" fill="none" xmlns="http://www.w3.org/2000/svg">
<g id="archetypal">
<g id="Group 15772">
<g id="Group 15768">
<path id="Vector" d="M48.5745 78.4678V85.0919C48.5745 98.5633 37.6753 109.484 24.2301 109.484C11.3995 109.484 1 119.904 1 132.76V153.437C1 187.241 28.3494 214.651 62.0939 214.651C95.8316 214.651 123.188 187.248 123.188 153.437V132.76C123.188 119.904 112.788 109.484 99.9577 109.484C86.5126 109.484 75.6133 98.5633 75.6133 85.0919V78.4678" stroke="#51C3A6" stroke-linecap="round" stroke-linejoin="round"/>
<path id="Vector_2" d="M93.6375 42.8294C93.6375 64.3932 79.5103 81.8703 62.0809 81.8703C44.6516 81.8703 30.5244 64.3932 30.5244 42.8294C30.5244 21.2656 44.6583 10.5547 62.0877 10.5547C79.517 10.5547 93.6442 21.2656 93.6442 42.8294H93.6375Z" stroke="#51C3A6" stroke-linecap="round" stroke-linejoin="round"/>
</g>
<path id="green" d="M56.7879 27.9105C56.8211 27.8864 56.8528 27.8604 56.883 27.8327C56.8962 27.8197 56.9126 27.81 56.9257 27.797C56.9388 27.784 56.9765 27.7386 57.0027 27.7078L57.0404 27.664C57.0601 27.6364 57.0766 27.6072 57.093 27.5797C57.1094 27.5521 57.1225 27.5375 57.134 27.5148L57.1651 27.4418C57.1782 27.411 57.193 27.3818 57.2028 27.351L57.2192 27.2812C57.228 27.2503 57.2351 27.2189 57.2405 27.1872C57.2448 27.1587 57.2475 27.13 57.2487 27.1012C57.2487 27.0704 57.2487 27.0412 57.2487 27.012C57.2487 26.9828 57.2487 26.952 57.2487 26.9228C57.2476 26.894 57.2449 26.8653 57.2405 26.8368C57.2351 26.8051 57.228 26.7737 57.2192 26.7428L57.2028 26.673L57.1651 26.5822L57.134 26.5092L57.0913 26.4427C57.0759 26.4142 57.0589 26.3866 57.0404 26.36C57.029 26.3438 57.0126 26.3292 56.9994 26.313C56.9863 26.2967 56.952 26.2546 56.9257 26.227L56.8814 26.1897C56.8518 26.1625 56.8205 26.1371 56.7879 26.1135L39.2967 13.8357L58.7916 22.6799L58.7997 22.6799C58.8334 22.6943 58.868 22.7068 58.9031 22.7172C58.9244 22.7172 58.9457 22.7334 58.967 22.7399C58.9883 22.7464 59.0309 22.7529 59.0621 22.7578C59.0932 22.7626 59.1146 22.7691 59.1408 22.7724C59.167 22.7756 59.1949 22.7724 59.2212 22.7724C59.2474 22.7724 59.2868 22.7724 59.3196 22.7724C59.3524 22.7724 59.3638 22.7724 59.3867 22.7643C59.4097 22.7562 59.4605 22.7643 59.4966 22.7497C59.5195 22.7497 59.5392 22.7367 59.5605 22.7318C59.5819 22.7269 59.6277 22.714 59.6605 22.701C59.6933 22.688 59.7114 22.6783 59.7359 22.6669C59.7605 22.6556 59.7933 22.641 59.8212 22.6248C59.8491 22.6086 59.8688 22.594 59.8934 22.5761C59.919 22.5608 59.9436 22.5441 59.9672 22.5259C59.9913 22.5055 60.0143 22.4838 60.036 22.461C60.054 22.4447 60.0738 22.4285 60.0918 22.4107C60.1131 22.388 60.1295 22.362 60.1491 22.3377C60.1688 22.3134 60.1852 22.2939 60.2 22.2696C60.2147 22.2453 60.2213 22.2306 60.2328 22.2112C60.2443 22.1917 60.2705 22.148 60.2852 22.1155L60.3 22.0717C60.3172 22.0322 60.3314 21.9916 60.3426 21.9501C60.3462 21.9356 60.3489 21.921 60.3508 21.9063C60.3618 21.8631 60.3695 21.8192 60.3738 21.7749L62.3774 0.651366L64.381 21.7684C64.3868 21.8263 64.3967 21.8838 64.4105 21.9403L64.4105 21.9566C64.4242 22.0073 64.4412 22.0572 64.4613 22.1058L64.4728 22.1301C64.4941 22.1772 64.5188 22.2227 64.5466 22.2663L64.5565 22.2826C64.5843 22.3231 64.6155 22.3637 64.6483 22.4026L64.658 22.4139C64.658 22.4139 64.658 22.4139 64.658 22.422C64.658 22.4301 64.6941 22.4561 64.7122 22.4723C64.7339 22.4952 64.7569 22.5168 64.781 22.5372C64.8056 22.5566 64.8302 22.5713 64.8548 22.5875C64.8784 22.6052 64.9031 22.6214 64.9287 22.6361C64.9549 22.6524 64.9844 22.6637 65.0122 22.6783C65.0401 22.6929 65.0614 22.7026 65.0876 22.7124C65.121 22.7243 65.1549 22.7346 65.1893 22.7432C65.2106 22.7432 65.2303 22.7562 65.2516 22.761C65.2877 22.761 65.3237 22.7707 65.3614 22.7756C65.3992 22.7805 65.4057 22.7756 65.4287 22.7837C65.4517 22.7918 65.4943 22.7837 65.5271 22.7837C65.5599 22.7837 65.5796 22.7837 65.6058 22.7837C65.632 22.7837 65.6583 22.774 65.6845 22.7691C65.7165 22.7649 65.7483 22.7589 65.7796 22.7513C65.8009 22.7513 65.8222 22.7351 65.8452 22.7286C65.8681 22.7221 65.914 22.7059 65.9484 22.6913L85.4434 13.8471L67.9521 26.1248L67.9209 26.1491C67.8889 26.1734 67.8582 26.1994 67.8291 26.227L67.7914 26.2659C67.7652 26.2935 67.7405 26.3211 67.7176 26.3503L67.688 26.3892C67.6571 26.4321 67.6292 26.4771 67.6045 26.5238L67.6045 26.5336C67.5814 26.5791 67.5617 26.6263 67.5455 26.6746L67.5455 26.6925L67.5455 26.7184C67.534 26.7557 67.5258 26.793 67.5176 26.832L67.5094 26.8774C67.5022 26.9279 67.4984 26.9788 67.4979 27.0298C67.4984 27.0808 67.5022 27.1318 67.5094 27.1823L67.5176 27.2277C67.5258 27.265 67.534 27.3039 67.5455 27.3413L67.5455 27.3672L67.5455 27.385C67.5617 27.4334 67.5814 27.4805 67.6045 27.5261C67.6292 27.5734 67.6571 27.6189 67.688 27.6624L67.7176 27.6997C67.7404 27.7298 67.7651 27.7585 67.7914 27.7857L67.8274 27.823C67.8569 27.8505 67.8881 27.8765 67.9209 27.9024L67.9521 27.9267L85.4434 40.2045L65.9484 31.3587C65.914 31.3441 65.8796 31.3327 65.8452 31.3214C65.8238 31.3124 65.8019 31.3048 65.7796 31.2987C65.7484 31.2905 65.7156 31.2857 65.6845 31.2808C65.6533 31.276 65.632 31.2695 65.6058 31.2662C65.5796 31.263 65.5533 31.2662 65.5254 31.2662C65.4932 31.2646 65.4609 31.2646 65.4287 31.2662C65.4063 31.2646 65.3838 31.2646 65.3614 31.2662C65.3245 31.2686 65.2878 31.2735 65.2516 31.2808C65.2303 31.2808 65.2106 31.2938 65.1893 31.2987C65.1549 31.3072 65.121 31.3175 65.0876 31.3295C65.0614 31.3392 65.0385 31.3522 65.0122 31.3636C64.9835 31.376 64.9557 31.3901 64.9287 31.4057C64.9024 31.4203 64.8794 31.4365 64.8548 31.4527C64.8302 31.4689 64.8056 31.4852 64.781 31.5046C64.7564 31.5241 64.7351 31.5468 64.7122 31.5679C64.6892 31.589 64.6744 31.6003 64.658 31.6198L64.658 31.6279L64.6483 31.6393C64.6154 31.6771 64.5852 31.7172 64.5581 31.7593L64.5466 31.7739C64.5191 31.8183 64.4945 31.8643 64.4728 31.9117L64.4613 31.936C64.4412 31.9841 64.4242 32.0334 64.4105 32.0837L64.4105 32.1015C64.3966 32.158 64.3867 32.2155 64.381 32.2734L62.3774 53.3905L60.3738 32.2669C60.3691 32.2255 60.362 32.1843 60.3525 32.1437C60.3525 32.1274 60.3525 32.1096 60.3426 32.0934C60.3322 32.0552 60.3191 32.0178 60.3033 31.9815C60.2978 31.9633 60.2912 31.9454 60.2836 31.928C60.2694 31.8974 60.2535 31.8676 60.2361 31.8388C60.2246 31.8161 60.2131 31.7934 60.2 31.7723C60.1845 31.7496 60.1675 31.7279 60.1491 31.7074C60.1318 31.6812 60.1127 31.6562 60.0918 31.6328C60.0738 31.6133 60.054 31.5987 60.036 31.5809C60.018 31.563 59.9917 31.5371 59.9672 31.5176C59.9426 31.4982 59.918 31.4836 59.8934 31.4657C59.8688 31.4479 59.8458 31.4317 59.8212 31.4171C59.7966 31.4025 59.7638 31.3895 59.7359 31.3765C59.7081 31.3635 59.6868 31.3522 59.6605 31.3424C59.6343 31.3327 59.5933 31.3214 59.5605 31.3116C59.5277 31.3019 59.5195 31.297 59.4966 31.2922C59.4598 31.2849 59.4226 31.2801 59.3851 31.2776C59.3628 31.2759 59.3403 31.2759 59.3179 31.2776C59.2857 31.276 59.2534 31.276 59.2212 31.2776C59.1949 31.2776 59.167 31.2776 59.1408 31.2776C59.1148 31.2809 59.0891 31.2857 59.0638 31.2922C59.0312 31.2964 58.9989 31.3024 58.967 31.31C58.9452 31.3161 58.9239 31.3237 58.9031 31.3327C58.8677 31.3425 58.8331 31.3549 58.7997 31.37C58.7997 31.37 58.7998 31.37 58.7916 31.37L39.2983 40.2142L56.7879 27.9105Z" fill="#2D2038" stroke="#51C3A6" stroke-linecap="round" stroke-linejoin="round"/>
</g>
</g>
</svg>
