<svg width="209" height="214" viewBox="0 0 209 214" fill="none" xmlns="http://www.w3.org/2000/svg">
<g id="concept">
<g id="Group 15763">
<rect id="Rectangle 16" x="18.9727" y="12.5" width="189" height="189" stroke="#51C3A6"/>
<rect id="Rectangle 17" x="-0.5" y="0.5" width="18.7917" height="189" transform="matrix(-1 0 0 1 18.792 12)" stroke="#51C3A6"/>
<circle id="Ellipse 1" cx="113.473" cy="107" r="86.5833" stroke="#51C3A6"/>
<circle id="green" cx="113.473" cy="107" r="15.3333" stroke="#51C3A6"/>
<g id="Group 15762">
<path id="Vector 11" d="M0.000976562 146.583H19.1329" stroke="#51C3A6"/>
<path id="Vector 31" d="M0.000976562 172.972H19.1329" stroke="#51C3A6"/>
<path id="Vector 12" d="M0.000976562 139.986H19.1329" stroke="#51C3A6"/>
<path id="Vector 32" d="M0.000976562 166.376H19.1329" stroke="#51C3A6"/>
<path id="Vector 36" d="M0.000976562 192.764H19.1329" stroke="#51C3A6"/>
<path id="Vector 13" d="M0.000976562 133.39H19.1329" stroke="#51C3A6"/>
<path id="Vector 33" d="M0.000976562 159.777H19.1329" stroke="#51C3A6"/>
<path id="Vector 37" d="M0.000976562 186.167H19.1329" stroke="#51C3A6"/>
<path id="Vector 14" d="M0.000976562 126.792H19.1329" stroke="#51C3A6"/>
<path id="Vector 34" d="M0.000976562 153.181H19.1329" stroke="#51C3A6"/>
<path id="Vector 38" d="M0.000976562 179.569H19.1329" stroke="#51C3A6"/>
<path id="Vector 15" d="M0.000976562 120.194H19.1329" stroke="#51C3A6"/>
<path id="Vector 16" d="M0.000976562 113.597H19.1329" stroke="#51C3A6"/>
<path id="Vector 17" d="M0.000976562 107H19.1329" stroke="#51C3A6"/>
<path id="Vector 18" d="M0.000976562 100.403H19.1329" stroke="#51C3A6"/>
<path id="Vector 19" d="M0.000976562 93.8047H19.1329" stroke="#51C3A6"/>
<path id="Vector 20" d="M0.000976562 87.209H19.1329" stroke="#51C3A6"/>
<path id="Vector 21" d="M0.000976562 80.6104H19.1329" stroke="#51C3A6"/>
<path id="Vector 22" d="M0.000976562 74.0137H19.1329" stroke="#51C3A6"/>
<path id="Vector 23" d="M0.000976562 67.418H19.1329" stroke="#51C3A6"/>
<path id="Vector 24" d="M0.000976562 60.8193H19.1329" stroke="#51C3A6"/>
<path id="Vector 25" d="M0.000976562 54.2217H19.1329" stroke="#51C3A6"/>
<path id="Vector 26" d="M0.000976562 47.625H19.1329" stroke="#51C3A6"/>
<path id="Vector 27" d="M0.000976562 41.0273H19.1329" stroke="#51C3A6"/>
<path id="Vector 28" d="M0.000976562 34.4307H19.1329" stroke="#51C3A6"/>
<path id="Vector 29" d="M0.000976562 27.833H19.1329" stroke="#51C3A6"/>
<path id="Vector 30" d="M0.000976562 21.2363H19.1329" stroke="#51C3A6"/>
</g>
</g>
</g>
</svg>
