<svg width="123" height="214" viewBox="0 0 123 214" fill="none" xmlns="http://www.w3.org/2000/svg">
<g id="metacrisis">
<g id="Group 15766">
<path id="Vector" d="M34.6341 180.462C34.6341 183.898 46.6397 186.683 61.4494 186.683C76.259 186.683 88.2646 183.898 88.2646 180.462C88.2646 177.026 76.259 174.24 61.4494 174.24C46.6397 174.24 34.6341 177.026 34.6341 180.462Z" stroke="#51C3A6" stroke-linecap="round" stroke-linejoin="round"/>
<path id="Vector_2" d="M17.7287 180.462C17.7287 186.061 37.3035 190.599 61.4503 190.599C85.5971 190.599 105.172 186.061 105.172 180.462C105.172 174.864 85.5971 170.326 61.4503 170.326C37.3035 170.326 17.7287 174.864 17.7287 180.462Z" stroke="#51C3A6" stroke-linecap="round" stroke-linejoin="round"/>
<path id="Vector_3" d="M0.830207 180.462C0.830207 188.226 27.9707 194.52 61.4503 194.52C94.9298 194.52 122.07 188.226 122.07 180.462C122.07 172.697 94.9298 166.403 61.4503 166.403C27.9707 166.403 0.830208 172.697 0.830207 180.462Z" stroke="#51C3A6" stroke-linecap="round" stroke-linejoin="round"/>
<g id="green">
<path id="Vector_4" d="M53.7635 180.462C53.7635 181.732 57.2047 182.762 61.4496 182.762C65.6946 182.762 69.1357 181.732 69.1357 180.462C69.1357 179.192 65.6946 178.162 61.4496 178.162C57.2047 178.162 53.7635 179.192 53.7635 180.462Z" stroke="#51C3A6" stroke-linecap="round" stroke-linejoin="round"/>
<path id="Vector_5" d="M53.7557 180.389L61.4575 19L69.1357 180.462" stroke="#51C3A6" stroke-linecap="round" stroke-linejoin="round"/>
</g>
<path id="Vector_6" d="M34.6498 180.209L61.4651 19L88.2256 180.13" stroke="#51C3A6" stroke-linecap="round" stroke-linejoin="round"/>
<path id="Vector_7" d="M17.7827 179.95L61.4651 19L105.101 179.897" stroke="#51C3A6" stroke-linecap="round" stroke-linejoin="round"/>
<path id="Vector_8" d="M1.03323 179.292L61.4654 19L121.796 179.113" stroke="#51C3A6" stroke-linecap="round" stroke-linejoin="round"/>
</g>
</g>
</svg>
