<svg width="37" height="215" viewBox="0 0 37 215" fill="none" xmlns="http://www.w3.org/2000/svg">
<g id="metalabel">
<path id="Vector" d="M35.9291 177.669C26.697 177.405 19.2852 169.828 19.2852 160.533C19.2852 151.237 26.697 143.661 35.9291 143.396V177.669Z" stroke="#51C3A6"/>
<path id="Vector_2" d="M18.2836 160.533C18.2836 169.828 10.8717 177.405 1.63965 177.669V143.396C10.8717 143.661 18.2836 151.237 18.2836 160.533Z" stroke="#51C3A6"/>
<path id="Vector_3" d="M35.9275 18.517C35.9275 27.9853 28.2519 35.6609 18.7836 35.6609C9.31525 35.6609 1.63965 27.9853 1.63965 18.517C1.63965 9.04865 9.31525 1.37305 18.7836 1.37305C28.2519 1.37305 35.9275 9.04865 35.9275 18.517Z" stroke="#51C3A6"/>
<path id="Vector_4" d="M1.2959 89.525C1.2959 79.8146 9.16613 71.9443 18.8766 71.9443C28.587 71.9443 36.4572 79.8146 36.4572 89.525V107.106H18.8766C9.16613 107.106 1.2959 99.2355 1.2959 89.525Z" stroke="#51C3A6"/>
<path id="Vector_5" d="M1.63965 125.263C1.63965 115.8 9.32063 108.119 18.7836 108.119C28.2466 108.119 35.9275 115.8 35.9275 125.263V142.407H1.63965V125.263Z" stroke="#51C3A6"/>
<path id="Vector_6" d="M1.63965 179.561H35.9275V214.373H1.63965V179.561Z" stroke="#51C3A6"/>
<path class="green" d="M32.6848 48.3391L32.6854 48.3393C37.5045 50.1148 37.5045 56.9369 32.6854 58.7123L32.6848 58.7125L29.2201 59.9936L29.2193 59.9939C27.4396 60.6554 26.0204 62.0578 25.3577 63.8562C25.3577 63.8562 25.3577 63.8563 25.3577 63.8564L24.0768 67.3206L24.0766 67.3211C22.3011 72.1402 15.4791 72.1402 13.7036 67.3211L13.7034 67.3206L12.4223 63.8558L12.422 63.855C11.7605 62.0753 10.3582 60.6561 8.55973 59.9935C8.55967 59.9934 8.55961 59.9934 8.55956 59.9934L5.09537 58.7125L5.09482 58.7123C0.275685 56.9369 0.275685 50.1148 5.09482 48.3393L5.09537 48.3391L8.5601 47.0581L8.5609 47.0578C10.3406 46.3963 11.7597 44.994 12.4224 43.1956C12.4224 43.1955 12.4225 43.1954 12.4225 43.1953L13.7034 39.7311L13.7036 39.7306C15.4791 34.9114 22.3011 34.9114 24.0766 39.7306L24.0768 39.7311L25.3579 43.1958L25.3582 43.1966C26.0197 44.9764 27.422 46.3956 29.2204 47.0582C29.2205 47.0582 29.2206 47.0582 29.2206 47.0583L32.6848 48.3391Z" stroke="#51C3A6"/>
</g>
</svg>
