<svg width="166" height="214" viewBox="0 0 166 214" fill="none" xmlns="http://www.w3.org/2000/svg">
<g id="novels">
<g id="helmet">
<path id="Vector" d="M106.364 53.5442C88.4207 49.134 65.6442 54.052 49.7033 66.5876" stroke="#51C3A6" stroke-linecap="round" stroke-linejoin="round"/>
<path id="Vector_2" d="M39.1827 77.439C38.7821 78.0003 38.3549 78.615 37.9544 79.1763C26.259 96.817 26.98 120.498 28.048 157.383C28.3952 170.32 30.6114 188.067 30.6114 188.067L46.0984 194.001L43.7486 140.357L33.8423 132.633L34.0025 112.694L34.1627 103.633L40.5444 107.161L64.1487 120.258L82.4394 112.48L107.058 102.002L116.564 97.9663L116.778 97.8594L116.831 101.04V101.094L117.285 124.427L86.5781 138.941L87.9132 193.787C87.9132 193.787 125.99 183.871 143.827 175.639C144.841 175.184 146.336 173.634 146.336 173.634L146.604 171.79L146.043 152.706" stroke="#51C3A6" stroke-linecap="round" stroke-linejoin="round"/>
<path id="Vector_3" d="M144.281 99.3298C144.281 99.1694 144.228 98.9823 144.228 98.8219C143.16 89.761 139.929 81.0743 134.722 73.6439C132.719 70.7305 130.423 68.0042 127.833 65.5719C126.765 64.5563 123.908 61.8834 119.903 59.3442" stroke="#51C3A6" stroke-linecap="round" stroke-linejoin="round"/>
<path id="Vector_4" d="M58.2477 117.292L40.5178 107.162L43.0812 118.628L55.7111 121.087L58.2744 117.292H58.2477Z" stroke="#51C3A6" stroke-linecap="round" stroke-linejoin="round"/>
<path id="Vector_5" d="M82.3596 112.427L87.0591 118.066L103 113.255L106.979 101.949L82.3596 112.427V112.427Z" stroke="#51C3A6" stroke-linecap="round" stroke-linejoin="round"/>
<path id="Vector_6" d="M86.0983 140.09L74.2428 125.71L57.9013 126.539L47.1673 142.603L48.3421 180.103L54.8306 187.105L82.3601 185.876L87.0596 181.786L86.0983 140.09V140.09Z" stroke="#51C3A6" stroke-linecap="round" stroke-linejoin="round"/>
<path id="Vector_7" d="M134.723 73.6175C131.038 72.6553 128.528 73.1631 127.006 73.7244C119.636 76.3972 115.044 87.3825 116.726 100.987" stroke="#51C3A6" stroke-linecap="round" stroke-linejoin="round"/>
<path id="green" d="M65.698 106.439L0.999817 35.7162L65.698 76.7976L165.188 20L65.698 106.439Z" fill="#2D2038" stroke="#51C3A6" stroke-linecap="round" stroke-linejoin="round"/>
<path id="Vector_8" d="M34.0296 112.747C33.5757 108.203 33.4155 102.457 34.1898 95.8547C34.9641 89.1459 36.4862 83.533 37.9814 79.1763" stroke="#51C3A6" stroke-linecap="round" stroke-linejoin="round"/>
<path id="Vector_9" d="M146.177 98.8218H139.234C134.134 98.8218 129.942 109.914 129.622 123.946V125.737C129.622 140.571 133.921 152.653 139.234 152.653H146.177" stroke="#51C3A6" stroke-linecap="round" stroke-linejoin="round"/>
<path id="Vector_10" d="M146.176 152.626C140.863 152.626 136.564 140.572 136.564 125.711C136.564 110.85 140.863 98.7954 146.176 98.7954C151.49 98.7954 155.789 110.85 155.789 125.711C155.789 140.572 151.49 152.626 146.176 152.626V152.626Z" stroke="#51C3A6" stroke-linecap="round" stroke-linejoin="round"/>
<path id="Vector_11" d="M72.5871 144.287H77.9541V170.641H72.5871V144.287Z" stroke="#51C3A6" stroke-linecap="round" stroke-linejoin="round"/>
<path id="Vector_12" d="M60.5441 144.901H65.9111V171.255H60.5441V144.901Z" stroke="#51C3A6" stroke-linecap="round" stroke-linejoin="round"/>
<path id="Vector_13" d="M50.3703 145.463H55.7373V171.817H50.3703V145.463Z" stroke="#51C3A6" stroke-linecap="round" stroke-linejoin="round"/>
</g>
</g>
</svg>
