<svg width="188" height="216" viewBox="0 0 188 216" fill="none" xmlns="http://www.w3.org/2000/svg">
<g id="techno">
<g id="Greenpill">
<path id="Vector" d="M97.0929 125.271C97.0192 125.17 96.9401 125.074 96.8557 124.983C96.8162 124.943 96.7866 124.893 96.747 124.854C96.7075 124.814 96.5691 124.7 96.4753 124.621L96.3419 124.506C96.2579 124.447 96.1689 124.397 96.0849 124.347C96.0009 124.298 95.9565 124.258 95.8874 124.223L95.6649 124.129C95.571 124.089 95.4822 124.045 95.3883 124.015L95.1758 123.965C95.0815 123.939 94.9859 123.917 94.8893 123.901C94.8025 123.888 94.7151 123.88 94.6274 123.876C94.5336 123.876 94.4446 123.876 94.3557 123.876C94.2667 123.876 94.1728 123.876 94.0839 123.876C93.9962 123.88 93.9088 123.888 93.822 123.901C93.7254 123.917 93.6298 123.939 93.5356 123.965L93.323 124.015L93.0464 124.129L92.824 124.223L92.6215 124.353C92.5347 124.399 92.4505 124.45 92.3695 124.506C92.3201 124.541 92.2756 124.591 92.2262 124.63C92.1768 124.67 92.0483 124.774 91.9643 124.854L91.8507 124.988C91.768 125.077 91.6905 125.172 91.6185 125.271L54.2171 178.208L81.159 119.207V119.182C81.2028 119.08 81.2407 118.975 81.2726 118.869C81.2726 118.805 81.3219 118.74 81.3417 118.676C81.3615 118.611 81.3813 118.482 81.3961 118.388C81.4109 118.294 81.4306 118.229 81.4405 118.15C81.4504 118.07 81.4405 117.986 81.4405 117.906C81.4405 117.827 81.4405 117.708 81.4405 117.609C81.4405 117.509 81.4406 117.475 81.4159 117.405C81.3912 117.336 81.4158 117.182 81.3714 117.073C81.3714 117.003 81.3318 116.944 81.317 116.879C81.3022 116.815 81.2627 116.676 81.2231 116.577C81.1836 116.477 81.154 116.423 81.1194 116.348C81.0848 116.274 81.0403 116.175 80.9909 116.09C80.9415 116.006 80.897 115.946 80.8427 115.872C80.7962 115.794 80.7451 115.72 80.6896 115.649C80.6276 115.576 80.5616 115.506 80.4919 115.44C80.4425 115.386 80.3931 115.326 80.3387 115.271C80.2695 115.207 80.1905 115.157 80.1164 115.098C80.0423 115.038 79.9831 114.989 79.9089 114.944C79.8348 114.899 79.7903 114.879 79.731 114.845C79.6717 114.81 79.5384 114.731 79.4396 114.686L79.3062 114.641C79.1859 114.589 79.062 114.546 78.9356 114.512C78.8916 114.502 78.8471 114.493 78.8022 114.488C78.6707 114.454 78.5369 114.431 78.402 114.418L14.0537 108.354L78.3822 102.29C78.5586 102.273 78.7336 102.243 78.9059 102.201H78.9554C79.11 102.159 79.2618 102.108 79.4099 102.047L79.484 102.012C79.6274 101.948 79.7661 101.873 79.899 101.789L79.9485 101.759C80.072 101.675 80.1955 101.58 80.3141 101.481L80.3486 101.452C80.3486 101.452 80.3486 101.452 80.3733 101.452C80.398 101.452 80.4771 101.342 80.5265 101.288C80.5962 101.222 80.6621 101.153 80.7241 101.08C80.7834 101.005 80.8279 100.931 80.8773 100.856C80.9312 100.785 80.9807 100.71 81.0255 100.633C81.075 100.553 81.1095 100.464 81.154 100.38C81.1985 100.295 81.2281 100.231 81.2578 100.152C81.2942 100.051 81.3255 99.9479 81.3516 99.8438C81.3516 99.7793 81.3912 99.7198 81.406 99.6553C81.406 99.5461 81.4356 99.437 81.4504 99.3229C81.4652 99.2087 81.4504 99.1888 81.4751 99.1193C81.4998 99.0499 81.4751 98.9208 81.4751 98.8215C81.4751 98.7223 81.4751 98.6628 81.4751 98.5834C81.4751 98.504 81.4455 98.4246 81.4307 98.3452C81.4178 98.2483 81.3996 98.1522 81.3763 98.0573C81.3763 97.9928 81.327 97.9284 81.3072 97.8589C81.2874 97.7894 81.2379 97.6505 81.1935 97.5463L54.2517 38.5449L91.6531 91.4823L91.7272 91.5766C91.8011 91.6735 91.8802 91.7663 91.9643 91.8545L92.0829 91.9686C92.1669 92.048 92.2509 92.1225 92.3398 92.192L92.4584 92.2814C92.5892 92.3751 92.7262 92.4595 92.8685 92.5344H92.8982C93.0371 92.6041 93.1806 92.6637 93.328 92.713H93.3824H93.4614C93.575 92.7477 93.6886 92.7725 93.8072 92.7973L93.9456 92.8222C94.0995 92.8438 94.2546 92.8554 94.41 92.8569C94.5653 92.8554 94.7206 92.8438 94.8745 92.8222L95.0128 92.7973C95.1265 92.7725 95.245 92.7477 95.3587 92.713H95.4377H95.4921C95.6394 92.6637 95.783 92.6041 95.9219 92.5344C96.0657 92.4596 96.2045 92.3751 96.3369 92.2814L96.4505 92.192C96.5423 92.123 96.6297 92.0483 96.7124 91.9686L96.826 91.8596C96.91 91.7703 96.9891 91.6758 97.0681 91.5766L97.1422 91.4823L134.544 38.5449L107.597 97.5463C107.552 97.6505 107.518 97.7547 107.483 97.8589C107.456 97.9234 107.433 97.9897 107.414 98.0573C107.389 98.1516 107.375 98.2509 107.36 98.3452C107.345 98.4395 107.325 98.504 107.315 98.5834C107.305 98.6628 107.315 98.7423 107.315 98.8266C107.31 98.9242 107.31 99.0218 107.315 99.1193C107.31 99.1871 107.31 99.2551 107.315 99.3229C107.322 99.4346 107.337 99.5456 107.36 99.6553C107.36 99.7198 107.399 99.7793 107.414 99.8438C107.44 99.9479 107.471 100.051 107.508 100.152C107.538 100.231 107.577 100.3 107.612 100.38C107.65 100.467 107.692 100.551 107.74 100.633C107.785 100.712 107.834 100.782 107.883 100.856C107.933 100.931 107.982 101.005 108.042 101.08C108.101 101.154 108.17 101.218 108.234 101.288C108.298 101.357 108.333 101.402 108.392 101.452H108.417L108.452 101.481C108.567 101.581 108.689 101.672 108.817 101.754L108.862 101.789C108.997 101.872 109.137 101.947 109.282 102.012L109.356 102.047C109.502 102.108 109.652 102.159 109.805 102.201H109.86C110.032 102.243 110.207 102.273 110.383 102.29L174.712 108.354L110.364 114.418C110.237 114.432 110.112 114.454 109.988 114.483C109.939 114.483 109.884 114.483 109.835 114.512C109.719 114.544 109.605 114.583 109.494 114.631C109.439 114.648 109.384 114.668 109.331 114.691C109.238 114.734 109.147 114.782 109.059 114.835C108.99 114.87 108.921 114.904 108.857 114.944C108.788 114.991 108.722 115.042 108.659 115.098C108.579 115.15 108.503 115.208 108.432 115.271C108.373 115.326 108.328 115.386 108.274 115.44C108.219 115.495 108.14 115.574 108.081 115.649C108.022 115.723 107.977 115.797 107.923 115.872C107.869 115.946 107.819 116.016 107.775 116.09C107.73 116.165 107.691 116.264 107.651 116.348C107.612 116.433 107.577 116.497 107.547 116.577C107.518 116.656 107.483 116.78 107.454 116.879C107.424 116.979 107.409 117.003 107.394 117.073C107.372 117.184 107.357 117.297 107.35 117.41C107.345 117.478 107.345 117.546 107.35 117.614C107.345 117.711 107.345 117.809 107.35 117.906C107.35 117.986 107.35 118.07 107.35 118.15C107.36 118.228 107.375 118.306 107.394 118.383C107.407 118.481 107.425 118.579 107.449 118.676C107.467 118.742 107.49 118.806 107.518 118.869C107.547 118.976 107.585 119.081 107.631 119.182C107.631 119.182 107.631 119.182 107.631 119.207L134.573 178.203L97.0929 125.271Z" stroke="#51C3A6" stroke-linecap="round" stroke-linejoin="round"/>
<path id="Vector_2" d="M71.6028 112.045C71.7358 111.947 71.8632 111.842 71.9844 111.729C72.037 111.677 72.1029 111.637 72.1555 111.585C72.2082 111.532 72.3593 111.348 72.4645 111.223L72.6158 111.045C72.6947 110.933 72.7607 110.815 72.8265 110.703C72.8923 110.591 72.9449 110.532 72.9909 110.44L73.1159 110.143C73.1685 110.018 73.2277 109.9 73.2671 109.775L73.333 109.492C73.3684 109.366 73.3969 109.239 73.4184 109.11C73.4356 108.995 73.4464 108.878 73.4512 108.761C73.4512 108.636 73.4512 108.518 73.4512 108.399C73.4512 108.281 73.4512 108.156 73.4512 108.037C73.4467 107.921 73.4359 107.804 73.4184 107.689C73.3969 107.56 73.3684 107.433 73.333 107.307L73.2671 107.024L73.1159 106.655L72.9909 106.359L72.8197 106.089C72.7581 105.974 72.69 105.862 72.6158 105.754C72.5698 105.688 72.504 105.629 72.4514 105.563C72.3987 105.497 72.2608 105.326 72.1555 105.214L71.9779 105.063C71.8589 104.953 71.7336 104.849 71.6028 104.753L1.43135 54.9339L79.641 90.8211L79.6737 90.8211C79.8089 90.8794 79.9475 90.93 80.0884 90.9724C80.1739 90.9724 80.2592 91.0382 80.3447 91.0645C80.4302 91.0908 80.6013 91.1172 80.7262 91.137C80.8512 91.1567 80.9367 91.1829 81.042 91.1961C81.1472 91.2093 81.2592 91.1961 81.3644 91.1961C81.4697 91.1961 81.6276 91.1961 81.7592 91.1961C81.8907 91.1961 81.9365 91.1962 82.0286 91.1633C82.1207 91.1304 82.3246 91.1633 82.4693 91.104C82.5614 91.104 82.6404 91.0513 82.7259 91.0316C82.8114 91.0118 82.9955 90.9592 83.1271 90.9066C83.2586 90.8539 83.3309 90.8145 83.4296 90.7684C83.5283 90.7223 83.6598 90.6631 83.7717 90.5973C83.8835 90.5315 83.9627 90.4722 84.0614 90.3998C84.1641 90.3379 84.2627 90.2699 84.3572 90.1959C84.454 90.1133 84.5462 90.0253 84.6334 89.9326C84.7058 89.8668 84.7849 89.8009 84.8573 89.7285C84.9428 89.6364 85.0083 89.5311 85.0872 89.4324C85.1662 89.3337 85.232 89.2548 85.2912 89.156C85.3504 89.0573 85.3768 88.998 85.4229 88.919C85.4689 88.8401 85.574 88.6625 85.6332 88.5309L85.6926 88.3532C85.7613 88.1929 85.8183 88.028 85.8635 87.8596C85.8777 87.801 85.8885 87.7416 85.8963 87.6819C85.9402 87.5067 85.9711 87.3285 85.9885 87.1487L94.0266 1.43554L102.064 87.1224C102.088 87.3574 102.128 87.5905 102.183 87.82L102.183 87.8859C102.238 88.0919 102.306 88.294 102.387 88.4913L102.433 88.59C102.518 88.781 102.618 88.9658 102.729 89.1429L102.769 89.2087C102.88 89.3733 103.005 89.5378 103.137 89.6957L103.176 89.7417C103.176 89.7417 103.176 89.7417 103.176 89.7746C103.176 89.8075 103.321 89.9129 103.393 89.9787C103.48 90.0715 103.573 90.1593 103.669 90.2419C103.768 90.3208 103.867 90.3801 103.966 90.4459C104.06 90.5177 104.159 90.5837 104.262 90.6434C104.367 90.7092 104.485 90.7553 104.597 90.8145C104.709 90.8737 104.794 90.9132 104.9 90.9527C105.033 91.0013 105.169 91.043 105.307 91.0777C105.393 91.0777 105.472 91.1304 105.557 91.1502C105.702 91.1502 105.847 91.1895 105.998 91.2093C106.149 91.229 106.176 91.2093 106.268 91.2422C106.36 91.2751 106.531 91.2422 106.663 91.2422C106.794 91.2422 106.873 91.2422 106.978 91.2422C107.083 91.2422 107.189 91.2028 107.294 91.1831C107.422 91.1659 107.55 91.1417 107.676 91.1106C107.761 91.1106 107.846 91.0449 107.939 91.0186C108.031 90.9922 108.215 90.9263 108.353 90.867L186.562 54.98L116.391 104.8L116.266 104.898C116.138 104.997 116.015 105.102 115.898 105.214L115.746 105.372C115.641 105.484 115.542 105.596 115.45 105.714L115.332 105.872C115.208 106.046 115.096 106.229 114.996 106.418L114.996 106.458C114.904 106.643 114.825 106.834 114.76 107.03L114.76 107.103L114.76 107.208C114.714 107.36 114.681 107.511 114.648 107.669L114.615 107.853C114.586 108.058 114.571 108.265 114.569 108.472C114.571 108.679 114.586 108.885 114.615 109.09L114.648 109.275C114.681 109.426 114.714 109.584 114.76 109.735L114.76 109.841L114.76 109.913C114.825 110.109 114.904 110.301 114.996 110.486C115.096 110.677 115.208 110.862 115.332 111.038L115.45 111.19C115.542 111.312 115.641 111.428 115.746 111.539L115.891 111.69C116.009 111.802 116.135 111.907 116.266 112.012L116.391 112.111L186.562 161.931L108.353 126.037C108.215 125.978 108.077 125.932 107.939 125.886C107.853 125.849 107.765 125.818 107.676 125.793C107.551 125.76 107.419 125.741 107.294 125.721C107.169 125.701 107.083 125.675 106.978 125.662C106.873 125.649 106.768 125.662 106.656 125.662C106.526 125.655 106.397 125.655 106.268 125.662C106.178 125.655 106.088 125.655 105.998 125.662C105.85 125.671 105.703 125.691 105.557 125.721C105.472 125.721 105.393 125.774 105.307 125.793C105.169 125.828 105.033 125.87 104.9 125.918C104.794 125.958 104.702 126.011 104.597 126.057C104.482 126.107 104.37 126.164 104.262 126.228C104.156 126.287 104.064 126.353 103.966 126.419C103.867 126.484 103.768 126.55 103.669 126.629C103.571 126.708 103.485 126.8 103.393 126.886C103.301 126.972 103.242 127.017 103.176 127.096L103.176 127.129L103.137 127.175C103.005 127.329 102.884 127.492 102.775 127.662L102.729 127.722C102.619 127.902 102.52 128.089 102.433 128.281L102.387 128.38C102.306 128.575 102.238 128.775 102.183 128.979L102.183 129.051C102.127 129.28 102.087 129.514 102.064 129.749L94.0266 215.436L85.9885 129.722C85.9696 129.554 85.9411 129.387 85.903 129.222C85.903 129.156 85.903 129.084 85.8635 129.018C85.8218 128.863 85.7692 128.711 85.7058 128.564C85.6835 128.49 85.6571 128.418 85.6268 128.347C85.5698 128.223 85.5061 128.102 85.436 127.985C85.39 127.893 85.3438 127.801 85.2912 127.715C85.229 127.623 85.1608 127.535 85.0872 127.452C85.0179 127.346 84.9412 127.244 84.8573 127.149C84.7849 127.07 84.7058 127.011 84.6334 126.939C84.561 126.866 84.4558 126.761 84.3572 126.682C84.2585 126.603 84.16 126.544 84.0614 126.471C83.9627 126.399 83.8703 126.333 83.7717 126.274C83.673 126.215 83.5414 126.162 83.4296 126.109C83.3178 126.057 83.2323 126.011 83.1271 125.971C83.0218 125.932 82.8575 125.886 82.7259 125.846C82.5943 125.807 82.5614 125.787 82.4693 125.767C82.3216 125.738 82.1724 125.718 82.0222 125.708C81.9324 125.701 81.8422 125.701 81.7524 125.708C81.6231 125.701 81.4937 125.701 81.3644 125.708C81.2592 125.708 81.1472 125.708 81.042 125.708C80.9378 125.721 80.8347 125.741 80.733 125.767C80.6024 125.784 80.4727 125.808 80.3447 125.839C80.2571 125.864 80.1717 125.895 80.0884 125.932C79.9465 125.971 79.8077 126.022 79.6737 126.083C79.6737 126.083 79.6739 126.083 79.641 126.083L1.43777 161.97L71.6028 112.045Z" fill="#2D2038" stroke="#51C3A6" stroke-linecap="round" stroke-linejoin="round"/>
<path id="green" d="M91.1735 117.12C91.1662 117.051 91.155 116.983 91.14 116.915C91.1321 116.885 91.1318 116.853 91.1239 116.823C91.116 116.793 91.0815 116.7 91.0586 116.636L91.0265 116.544C91.0028 116.492 90.974 116.443 90.9476 116.396C90.9212 116.349 90.911 116.317 90.8875 116.281L90.8072 116.174C90.7732 116.129 90.7431 116.083 90.7064 116.043L90.6184 115.96C90.5807 115.921 90.5409 115.884 90.4991 115.85C90.4611 115.82 90.4215 115.791 90.3805 115.765C90.3356 115.74 90.2929 115.715 90.2503 115.69C90.2077 115.666 90.1627 115.64 90.1201 115.615C90.0772 115.592 90.033 115.572 89.9878 115.555C89.937 115.536 89.8852 115.52 89.8326 115.506L89.7169 115.472L89.5526 115.45L89.4198 115.434L89.2868 115.44C89.2323 115.439 89.1777 115.44 89.1233 115.445C89.0899 115.448 89.0548 115.46 89.0201 115.465C88.9854 115.47 88.8948 115.485 88.8325 115.5L88.7407 115.533C88.6761 115.554 88.6126 115.578 88.5507 115.606L55.8927 130.788L85.2278 109.788L85.2347 109.776C85.2841 109.739 85.3314 109.699 85.3762 109.657C85.3942 109.626 85.4358 109.608 85.4632 109.583C85.4906 109.557 85.536 109.5 85.5694 109.459C85.6027 109.418 85.6301 109.392 85.657 109.356C85.6838 109.321 85.7026 109.277 85.7247 109.239C85.7468 109.201 85.78 109.143 85.8076 109.095C85.8352 109.048 85.8449 109.031 85.8524 108.991C85.8599 108.95 85.9146 108.883 85.9237 108.818C85.943 108.784 85.9406 108.745 85.9515 108.71C85.9624 108.674 85.9821 108.596 85.9908 108.538C85.9995 108.479 86.0005 108.444 86.0046 108.399C86.0088 108.353 86.0151 108.293 86.0149 108.239C86.0147 108.185 86.0101 108.143 86.0048 108.092C86.004 108.042 86.0003 107.992 85.9936 107.943C85.9842 107.89 85.9719 107.838 85.9568 107.787C85.9484 107.747 85.9413 107.705 85.9305 107.664C85.9153 107.613 85.8912 107.568 85.8723 107.518C85.8533 107.469 85.8388 107.429 85.8157 107.387C85.7926 107.345 85.7769 107.323 85.7581 107.29C85.7394 107.257 85.6976 107.181 85.6627 107.133L85.6112 107.074C85.568 107.016 85.5207 106.961 85.4696 106.909C85.4515 106.892 85.4324 106.876 85.4126 106.861C85.3588 106.808 85.3012 106.76 85.2402 106.716L56.099 85.9926L88.6073 100.862C88.6967 100.903 88.7889 100.937 88.8831 100.964L88.9068 100.978C88.9925 101.001 89.0795 101.018 89.1674 101.029L89.2125 101.033C89.2992 101.042 89.3865 101.044 89.4736 101.04L89.5056 101.04C89.5883 101.033 89.6737 101.022 89.7581 101.007L89.7829 101.002C89.7829 101.002 89.7829 101.002 89.7947 101.009C89.8066 101.016 89.8749 100.985 89.9137 100.972C89.9654 100.96 90.0164 100.944 90.0664 100.926C90.1155 100.907 90.1576 100.883 90.202 100.861C90.2477 100.841 90.2922 100.819 90.3352 100.794C90.381 100.77 90.4224 100.736 90.4672 100.708C90.512 100.679 90.5441 100.656 90.5805 100.626C90.626 100.588 90.6696 100.547 90.7111 100.504C90.7291 100.473 90.7646 100.455 90.7896 100.428C90.82 100.375 90.8646 100.331 90.9035 100.28C90.9423 100.229 90.9408 100.215 90.972 100.189C91.0032 100.162 91.0273 100.093 91.0549 100.045C91.0825 99.9973 91.0991 99.9686 91.1212 99.9303C91.1433 99.892 91.1512 99.8456 91.1662 99.8032C91.187 99.7529 91.2051 99.7015 91.2203 99.6493C91.2383 99.6182 91.2326 99.5735 91.2425 99.5345C91.2523 99.4955 91.2673 99.4149 91.275 99.3523L94.7942 63.4473L97.9746 99.3213L97.9838 99.3872C97.9922 99.4544 98.0043 99.521 98.0201 99.5868L98.0451 99.6747C98.0632 99.7362 98.0827 99.7954 98.106 99.8535L98.1379 99.9294C98.1745 100.011 98.2166 100.089 98.264 100.165L98.2782 100.173C98.3253 100.245 98.3775 100.314 98.4344 100.378L98.4604 100.393L98.4983 100.415C98.5431 100.463 98.5906 100.506 98.6405 100.551L98.6998 100.602C98.7676 100.655 98.8387 100.703 98.9127 100.747C98.9876 100.789 99.0651 100.826 99.1449 100.858L99.2181 100.885C99.2795 100.904 99.3432 100.925 99.4073 100.94L99.4452 100.962L99.4712 100.977C99.5555 100.994 99.6409 101.005 99.7268 101.009C99.8166 101.013 99.9066 101.011 99.9961 101.002L100.075 100.991C100.139 100.983 100.201 100.971 100.263 100.955L100.348 100.934C100.413 100.914 100.477 100.891 100.543 100.865L100.604 100.84L133.262 85.657L103.925 106.656C103.875 106.694 103.829 106.734 103.784 106.775C103.752 106.799 103.723 106.824 103.695 106.852C103.657 106.89 103.622 106.934 103.589 106.975C103.556 107.017 103.528 107.042 103.501 107.078C103.474 107.114 103.457 107.155 103.434 107.195C103.404 107.241 103.377 107.288 103.352 107.336C103.331 107.368 103.312 107.401 103.295 107.435C103.268 107.49 103.244 107.548 103.224 107.607C103.206 107.638 103.209 107.678 103.198 107.713C103.181 107.771 103.168 107.829 103.157 107.887C103.149 107.934 103.149 107.978 103.143 108.026C103.137 108.079 103.134 108.131 103.134 108.184C103.134 108.234 103.138 108.282 103.141 108.331C103.144 108.381 103.147 108.43 103.154 108.483C103.162 108.535 103.177 108.585 103.189 108.636C103.2 108.688 103.204 108.719 103.219 108.759L103.231 108.766L103.239 108.79C103.266 108.87 103.3 108.948 103.338 109.023L103.35 109.052C103.391 109.129 103.438 109.204 103.489 109.275L103.515 109.313C103.568 109.383 103.625 109.449 103.687 109.511L103.713 109.526C103.784 109.594 103.859 109.657 103.939 109.714L133.071 130.432L100.553 115.557C100.489 115.529 100.423 115.505 100.355 115.484C100.332 115.471 100.306 115.456 100.274 115.456C100.209 115.439 100.143 115.427 100.077 115.42C100.046 115.412 100.014 115.407 99.9825 115.403C99.9259 115.398 99.8691 115.396 99.8122 115.397C99.7694 115.395 99.7266 115.393 99.6848 115.394C99.6386 115.398 99.5926 115.404 99.5472 115.414C99.4944 115.417 99.4419 115.424 99.39 115.434C99.3464 115.444 99.3085 115.461 99.2672 115.472C99.226 115.483 99.166 115.5 99.1169 115.519C99.0678 115.539 99.0258 115.562 98.979 115.583C98.9323 115.604 98.8892 115.624 98.8471 115.648C98.8051 115.671 98.7586 115.708 98.7161 115.738C98.6737 115.768 98.6392 115.789 98.6029 115.819C98.5666 115.849 98.5155 115.9 98.4737 115.939C98.4318 115.979 98.4178 115.987 98.3913 116.016C98.3497 116.064 98.3113 116.114 98.2762 116.167C98.2548 116.198 98.2359 116.231 98.2195 116.265C98.19 116.31 98.1628 116.357 98.138 116.406C98.1159 116.444 98.0924 116.485 98.0703 116.523C98.0532 116.564 98.0386 116.605 98.0266 116.648C98.0054 116.699 97.9868 116.751 97.9711 116.804C97.9617 116.841 97.9548 116.879 97.9504 116.916C97.9348 116.976 97.9239 117.037 97.9178 117.099C97.9178 117.099 97.9178 117.099 97.9109 117.111L94.3931 153.013L91.1735 117.12Z" fill="#2D2038" stroke="#51C3A6" stroke-linecap="round" stroke-linejoin="round"/>
</g>
</g>
</svg>
